<svg xmlns="http://www.w3.org/2000/svg" viewBox="0 0 1040 250" role="img" aria-label="Von der Bewertungsmatrix A transponiert A zum Spektralsatz und zu orthogonalen Spaltenmustern">
  <rect width="1040" height="250" fill="#ffffff"/>
  <defs>
    <style>
      .serif { font-family: "Computer Modern Serif", "Latin Modern Roman", Georgia, serif; }
      .ink { fill: #111111; }
      .muted { fill: #666666; }
      .v { fill: #16a34a; }
      .box { fill: #ffffff; stroke: #d7d7d7; stroke-width: 1.8; }
      .ata { fill: #f8f8f8; stroke: #222222; stroke-width: 2; }
      .arrow { stroke: #111111; stroke-width: 3; fill: none; marker-end: url(#arrowhead); }
    </style>
    <marker id="arrowhead" markerWidth="11" markerHeight="8" refX="10" refY="4" orient="auto">
      <path d="M0,0 L11,4 L0,8 Z" fill="#111111"/>
    </marker>
  </defs>

  <g transform="translate(18 48)">
    <rect class="box" x="0" y="0" width="150" height="124" rx="7"/>
    <text class="serif ink" x="18" y="34" font-size="18">Suchproblem</text>
    <text class="serif ink" x="18" y="74" font-size="22">max</text>
    <text class="serif v" x="70" y="74" font-size="22">vᵀ</text>
    <text class="serif ink" x="100" y="74" font-size="22">AᵀA</text>
    <text class="serif v" x="17" y="104" font-size="13">||v||=1</text>
  </g>

  <path class="arrow" d="M184 110 L226 110"/>

  <g transform="translate(242 48)">
    <rect class="ata" x="0" y="0" width="170" height="124" rx="7"/>
    <text class="serif ink" x="85" y="35" font-size="22" text-anchor="middle">AᵀA</text>
    <text class="serif ink" x="85" y="68" font-size="18" text-anchor="middle">Bewertungsmatrix</text>
    <text class="serif muted" x="85" y="98" font-size="14" text-anchor="middle">bewertet Muster</text>
  </g>

  <path class="arrow" d="M428 110 L470 110"/>

  <g transform="translate(486 48)">
    <rect class="ata" x="0" y="0" width="174" height="124" rx="7"/>
    <text class="serif ink" x="87" y="42" font-size="19" text-anchor="middle">quadratisch</text>
    <text class="serif ink" x="87" y="72" font-size="19" text-anchor="middle">symmetrisch</text>
    <text class="serif muted" x="87" y="101" font-size="14" text-anchor="middle">Spektralsatz passt</text>
  </g>

  <path class="arrow" d="M676 110 L718 110"/>

  <g transform="translate(734 48)">
    <rect class="box" x="0" y="0" width="150" height="124" rx="7"/>
    <text class="serif ink" x="75" y="48" font-size="20" text-anchor="middle">Spektralsatz</text>
    <text class="serif muted" x="75" y="79" font-size="14" text-anchor="middle">für symmetrische</text>
    <text class="serif muted" x="75" y="100" font-size="14" text-anchor="middle">Matrizen</text>
  </g>

  <path class="arrow" d="M900 110 L942 110"/>

  <g transform="translate(958 48)">
    <rect class="box" x="0" y="0" width="64" height="124" rx="7"/>
    <text class="serif v" x="32" y="42" font-size="23" text-anchor="middle">vᵢ</text>
    <text class="serif muted" x="32" y="75" font-size="13" text-anchor="middle">orth.</text>
    <text class="serif muted" x="32" y="96" font-size="13" text-anchor="middle">Muster</text>
  </g>

  <text class="serif muted" x="20" y="220" font-size="17">Brücke: Aus der Bewertungsmatrix wird ein Spektralsatz-Problem. Erst danach erhalten wir die orthogonalen Spaltenmuster.</text>
</svg>
