<?xml version="1.0" encoding="utf-8" standalone="no"?>
<!DOCTYPE svg PUBLIC "-//W3C//DTD SVG 1.1//EN"
  "http://www.w3.org/Graphics/SVG/1.1/DTD/svg11.dtd">
<svg xmlns:xlink="http://www.w3.org/1999/xlink" width="684pt" height="266.652pt" viewBox="0 0 684 266.652" xmlns="http://www.w3.org/2000/svg" version="1.1">
 <metadata>
  <rdf:RDF xmlns:dc="http://purl.org/dc/elements/1.1/" xmlns:cc="http://creativecommons.org/ns#" xmlns:rdf="http://www.w3.org/1999/02/22-rdf-syntax-ns#">
   <cc:Work>
    <dc:type rdf:resource="http://purl.org/dc/dcmitype/StillImage"/>
    <dc:date>2026-06-15T01:04:52.293887</dc:date>
    <dc:format>image/svg+xml</dc:format>
    <dc:creator>
     <cc:Agent>
      <dc:title>Matplotlib v3.11.0, https://matplotlib.org/</dc:title>
     </cc:Agent>
    </dc:creator>
   </cc:Work>
  </rdf:RDF>
 </metadata>
 <defs>
  <style type="text/css">*{stroke-linejoin: round; stroke-linecap: butt}</style>
 </defs>
 <g id="figure_1">
  <g id="patch_1">
   <path d="M 0 266.652 
L 684 266.652 
L 684 0 
L 0 0 
L 0 266.652 
z
" style="fill: none"/>
  </g>
  <g id="axes_1">
   <g id="patch_2">
    <path d="M 38.448 227.0196 
L 207.522 227.0196 
Q 210.033 227.0196 210.033 224.5248 
L 210.033 45.4536 
Q 210.033 42.9588 207.522 42.9588 
L 38.448 42.9588 
Q 35.937 42.9588 35.937 45.4536 
L 35.937 224.5248 
Q 35.937 227.0196 38.448 227.0196 
L 38.448 227.0196 
z
" clip-path="url(#pa855efe61e)" style="fill: none; stroke: #1e88ff; stroke-width: 1.7; stroke-linejoin: miter"/>
   </g>
   <g id="patch_3">
    <path d="M 60.21 103.3884 
L 66.348 103.3884 
L 66.348 95.904 
L 60.21 95.904 
z
" clip-path="url(#pa855efe61e)" style="fill: #1e88ff; opacity: 0.93; stroke: #111111; stroke-width: 0.25; stroke-linejoin: miter"/>
   </g>
   <g id="patch_4">
    <path d="M 60.21 110.8728 
L 66.348 110.8728 
L 66.348 103.3884 
L 60.21 103.3884 
z
" clip-path="url(#pa855efe61e)" style="fill: #1e88ff; opacity: 0.883131; stroke: #111111; stroke-width: 0.25; stroke-linejoin: miter"/>
   </g>
   <g id="patch_5">
    <path d="M 60.21 118.3572 
L 66.348 118.3572 
L 66.348 110.8728 
L 60.21 110.8728 
z
" clip-path="url(#pa855efe61e)" style="fill: #1e88ff; opacity: 0.830465; stroke: #111111; stroke-width: 0.25; stroke-linejoin: miter"/>
   </g>
   <g id="patch_6">
    <path d="M 60.21 125.8416 
L 66.348 125.8416 
L 66.348 118.3572 
L 60.21 118.3572 
z
" clip-path="url(#pa855efe61e)" style="fill: #1e88ff; opacity: 0.802789; stroke: #111111; stroke-width: 0.25; stroke-linejoin: miter"/>
   </g>
   <g id="patch_7">
    <path d="M 60.21 133.326 
L 66.348 133.326 
L 66.348 125.8416 
L 60.21 125.8416 
z
" clip-path="url(#pa855efe61e)" style="fill: #1e88ff; opacity: 0.740467; stroke: #111111; stroke-width: 0.25; stroke-linejoin: miter"/>
   </g>
   <g id="patch_8">
    <path d="M 60.21 140.8104 
L 66.348 140.8104 
L 66.348 133.326 
L 60.21 133.326 
z
" clip-path="url(#pa855efe61e)" style="fill: #1e88ff; opacity: 0.823007; stroke: #111111; stroke-width: 0.25; stroke-linejoin: miter"/>
   </g>
   <g id="patch_9">
    <path d="M 60.21 148.2948 
L 66.348 148.2948 
L 66.348 140.8104 
L 60.21 140.8104 
z
" clip-path="url(#pa855efe61e)" style="fill: #1e88ff; opacity: 0.865133; stroke: #111111; stroke-width: 0.25; stroke-linejoin: miter"/>
   </g>
   <g id="patch_10">
    <path d="M 60.21 155.7792 
L 66.348 155.7792 
L 66.348 148.2948 
L 60.21 148.2948 
z
" clip-path="url(#pa855efe61e)" style="fill: #1e88ff; opacity: 0.730267; stroke: #111111; stroke-width: 0.25; stroke-linejoin: miter"/>
   </g>
   <g id="patch_11">
    <path d="M 60.21 163.2636 
L 66.348 163.2636 
L 66.348 155.7792 
L 60.21 155.7792 
z
" clip-path="url(#pa855efe61e)" style="fill: #1e88ff; opacity: 0.736958; stroke: #111111; stroke-width: 0.25; stroke-linejoin: miter"/>
   </g>
   <g id="patch_12">
    <path d="M 60.21 170.748 
L 66.348 170.748 
L 66.348 163.2636 
L 60.21 163.2636 
z
" clip-path="url(#pa855efe61e)" style="fill: #1e88ff; opacity: 0.736958; stroke: #111111; stroke-width: 0.25; stroke-linejoin: miter"/>
   </g>
   <g id="patch_13">
    <path d="M 60.21 178.2324 
L 66.348 178.2324 
L 66.348 170.748 
L 60.21 170.748 
z
" clip-path="url(#pa855efe61e)" style="fill: #1e88ff; opacity: 0.768397; stroke: #111111; stroke-width: 0.25; stroke-linejoin: miter"/>
   </g>
   <g id="patch_14">
    <path d="M 60.21 185.7168 
L 66.348 185.7168 
L 66.348 178.2324 
L 60.21 178.2324 
z
" clip-path="url(#pa855efe61e)" style="fill: #1e88ff; opacity: 0.826746; stroke: #111111; stroke-width: 0.25; stroke-linejoin: miter"/>
   </g>
   <g id="patch_15">
    <path d="M 60.21 193.2012 
L 66.348 193.2012 
L 66.348 185.7168 
L 60.21 185.7168 
z
" clip-path="url(#pa855efe61e)" style="fill: #1e88ff; opacity: 0.880545; stroke: #111111; stroke-width: 0.25; stroke-linejoin: miter"/>
   </g>
   <g id="patch_16">
    <path d="M 132.75 141.9192 
L 136.935 141.9192 
L 136.935 136.3752 
L 132.75 136.3752 
z
" clip-path="url(#pa855efe61e)" style="fill: #16a34a; opacity: 0.93; stroke: #111111; stroke-width: 0.25; stroke-linejoin: miter"/>
   </g>
   <g id="patch_17">
    <path d="M 136.935 141.9192 
L 141.12 141.9192 
L 141.12 136.3752 
L 136.935 136.3752 
z
" clip-path="url(#pa855efe61e)" style="fill: #16a34a; opacity: 0.770377; stroke: #111111; stroke-width: 0.25; stroke-linejoin: miter"/>
   </g>
   <g id="patch_18">
    <path d="M 141.12 141.9192 
L 145.305 141.9192 
L 145.305 136.3752 
L 141.12 136.3752 
z
" clip-path="url(#pa855efe61e)" style="fill: #16a34a; opacity: 0.695435; stroke: #111111; stroke-width: 0.25; stroke-linejoin: miter"/>
   </g>
   <g id="patch_19">
    <path d="M 145.305 141.9192 
L 149.49 141.9192 
L 149.49 136.3752 
L 145.305 136.3752 
z
" clip-path="url(#pa855efe61e)" style="fill: #16a34a; opacity: 0.642848; stroke: #111111; stroke-width: 0.25; stroke-linejoin: miter"/>
   </g>
   <g id="patch_20">
    <path d="M 149.49 141.9192 
L 153.675 141.9192 
L 153.675 136.3752 
L 149.49 136.3752 
z
" clip-path="url(#pa855efe61e)" style="fill: #16a34a; opacity: 0.607758; stroke: #111111; stroke-width: 0.25; stroke-linejoin: miter"/>
   </g>
   <g id="patch_21">
    <path d="M 153.675 141.9192 
L 157.86 141.9192 
L 157.86 136.3752 
L 153.675 136.3752 
z
" clip-path="url(#pa855efe61e)" style="fill: #16a34a; opacity: 0.642848; stroke: #111111; stroke-width: 0.25; stroke-linejoin: miter"/>
   </g>
   <g id="patch_22">
    <path d="M 157.86 141.9192 
L 162.045 141.9192 
L 162.045 136.3752 
L 157.86 136.3752 
z
" clip-path="url(#pa855efe61e)" style="fill: #16a34a; opacity: 0.642848; stroke: #111111; stroke-width: 0.25; stroke-linejoin: miter"/>
   </g>
   <g id="patch_23">
    <path d="M 162.045 141.9192 
L 166.23 141.9192 
L 166.23 136.3752 
L 162.045 136.3752 
z
" clip-path="url(#pa855efe61e)" style="fill: #16a34a; opacity: 0.699449; stroke: #111111; stroke-width: 0.25; stroke-linejoin: miter"/>
   </g>
   <g id="patch_24">
    <path d="M 166.23 141.9192 
L 170.415 141.9192 
L 170.415 136.3752 
L 166.23 136.3752 
z
" clip-path="url(#pa855efe61e)" style="fill: #16a34a; opacity: 0.752541; stroke: #111111; stroke-width: 0.25; stroke-linejoin: miter"/>
   </g>
   <g id="patch_25">
    <path d="M 170.415 141.9192 
L 174.6 141.9192 
L 174.6 136.3752 
L 170.415 136.3752 
z
" clip-path="url(#pa855efe61e)" style="fill: #16a34a; opacity: 0.852492; stroke: #111111; stroke-width: 0.25; stroke-linejoin: miter"/>
   </g>
   <g id="patch_26">
    <path d="M 174.6 141.9192 
L 178.785 141.9192 
L 178.785 136.3752 
L 174.6 136.3752 
z
" clip-path="url(#pa855efe61e)" style="fill: #16a34a; opacity: 0.878; stroke: #111111; stroke-width: 0.25; stroke-linejoin: miter"/>
   </g>
   <g id="patch_27">
    <path d="M 178.785 141.9192 
L 182.97 141.9192 
L 182.97 136.3752 
L 178.785 136.3752 
z
" clip-path="url(#pa855efe61e)" style="fill: #16a34a; opacity: 0.874184; stroke: #111111; stroke-width: 0.25; stroke-linejoin: miter"/>
   </g>
   <g id="patch_28">
    <path d="M 182.97 141.9192 
L 187.155 141.9192 
L 187.155 136.3752 
L 182.97 136.3752 
z
" clip-path="url(#pa855efe61e)" style="fill: #16a34a; opacity: 0.918117; stroke: #111111; stroke-width: 0.25; stroke-linejoin: miter"/>
   </g>
   <g id="patch_29">
    <path d="M 242.118 227.0196 
L 411.192 227.0196 
Q 413.703 227.0196 413.703 224.5248 
L 413.703 45.4536 
Q 413.703 42.9588 411.192 42.9588 
L 242.118 42.9588 
Q 239.607 42.9588 239.607 45.4536 
L 239.607 224.5248 
Q 239.607 227.0196 242.118 227.0196 
L 242.118 227.0196 
z
" clip-path="url(#pa855efe61e)" style="fill: none; stroke: #f2aa00; stroke-width: 1.7; stroke-linejoin: miter"/>
   </g>
   <g id="patch_30">
    <path d="M 263.88 103.3884 
L 270.018 103.3884 
L 270.018 95.904 
L 263.88 95.904 
z
" clip-path="url(#pa855efe61e)" style="fill: #1e88ff; opacity: 0.4464; stroke: #111111; stroke-width: 0.25; stroke-linejoin: miter"/>
   </g>
   <g id="patch_31">
    <path d="M 263.88 110.8728 
L 270.018 110.8728 
L 270.018 103.3884 
L 263.88 103.3884 
z
" clip-path="url(#pa855efe61e)" style="fill: #1e88ff; opacity: 0.180258; stroke: #111111; stroke-width: 0.25; stroke-linejoin: miter"/>
   </g>
   <g id="patch_32">
    <path d="M 263.88 118.3572 
L 270.018 118.3572 
L 270.018 110.8728 
L 263.88 110.8728 
z
" clip-path="url(#pa855efe61e)" style="fill: #1e88ff; opacity: 0.451883; stroke: #111111; stroke-width: 0.25; stroke-linejoin: miter"/>
   </g>
   <g id="patch_33">
    <path d="M 263.88 125.8416 
L 270.018 125.8416 
L 270.018 118.3572 
L 263.88 118.3572 
z
" clip-path="url(#pa855efe61e)" style="fill: #1e88ff; opacity: 0.499901; stroke: #111111; stroke-width: 0.25; stroke-linejoin: miter"/>
   </g>
   <g id="patch_34">
    <path d="M 263.88 133.326 
L 270.018 133.326 
L 270.018 125.8416 
L 263.88 125.8416 
z
" clip-path="url(#pa855efe61e)" style="fill: #1e88ff; opacity: 0.93; stroke: #111111; stroke-width: 0.25; stroke-linejoin: miter"/>
   </g>
   <g id="patch_35">
    <path d="M 263.88 140.8104 
L 270.018 140.8104 
L 270.018 133.326 
L 263.88 133.326 
z
" clip-path="url(#pa855efe61e)" style="fill: #1e88ff; opacity: 0.73271; stroke: #111111; stroke-width: 0.25; stroke-linejoin: miter"/>
   </g>
   <g id="patch_36">
    <path d="M 263.88 148.2948 
L 270.018 148.2948 
L 270.018 140.8104 
L 263.88 140.8104 
z
" clip-path="url(#pa855efe61e)" style="fill: #1e88ff; opacity: 0.763636; stroke: #111111; stroke-width: 0.25; stroke-linejoin: miter"/>
   </g>
   <g id="patch_37">
    <path d="M 263.88 155.7792 
L 270.018 155.7792 
L 270.018 148.2948 
L 263.88 148.2948 
z
" clip-path="url(#pa855efe61e)" style="fill: #1e88ff; opacity: 0.692537; stroke: #111111; stroke-width: 0.25; stroke-linejoin: miter"/>
   </g>
   <g id="patch_38">
    <path d="M 263.88 163.2636 
L 270.018 163.2636 
L 270.018 155.7792 
L 263.88 155.7792 
z
" clip-path="url(#pa855efe61e)" style="fill: #1e88ff; opacity: 0.290014; stroke: #111111; stroke-width: 0.25; stroke-linejoin: miter"/>
   </g>
   <g id="patch_39">
    <path d="M 263.88 170.748 
L 270.018 170.748 
L 270.018 163.2636 
L 263.88 163.2636 
z
" clip-path="url(#pa855efe61e)" style="fill: #1e88ff; opacity: 0.290014; stroke: #111111; stroke-width: 0.25; stroke-linejoin: miter"/>
   </g>
   <g id="patch_40">
    <path d="M 263.88 178.2324 
L 270.018 178.2324 
L 270.018 170.748 
L 263.88 170.748 
z
" clip-path="url(#pa855efe61e)" style="fill: #1e88ff; opacity: 0.240573; stroke: #111111; stroke-width: 0.25; stroke-linejoin: miter"/>
   </g>
   <g id="patch_41">
    <path d="M 263.88 185.7168 
L 270.018 185.7168 
L 270.018 178.2324 
L 263.88 178.2324 
z
" clip-path="url(#pa855efe61e)" style="fill: #1e88ff; opacity: 0.274803; stroke: #111111; stroke-width: 0.25; stroke-linejoin: miter"/>
   </g>
   <g id="patch_42">
    <path d="M 263.88 193.2012 
L 270.018 193.2012 
L 270.018 185.7168 
L 263.88 185.7168 
z
" clip-path="url(#pa855efe61e)" style="fill: #1e88ff; opacity: 0.353759; stroke: #111111; stroke-width: 0.25; stroke-linejoin: miter"/>
   </g>
   <g id="patch_43">
    <path d="M 336.42 141.9192 
L 340.605 141.9192 
L 340.605 136.3752 
L 336.42 136.3752 
z
" clip-path="url(#pa855efe61e)" style="fill: #16a34a; opacity: 0.498359; stroke: #111111; stroke-width: 0.25; stroke-linejoin: miter"/>
   </g>
   <g id="patch_44">
    <path d="M 340.605 141.9192 
L 344.79 141.9192 
L 344.79 136.3752 
L 340.605 136.3752 
z
" clip-path="url(#pa855efe61e)" style="fill: #16a34a; opacity: 0.93; stroke: #111111; stroke-width: 0.25; stroke-linejoin: miter"/>
   </g>
   <g id="patch_45">
    <path d="M 344.79 141.9192 
L 348.975 141.9192 
L 348.975 136.3752 
L 344.79 136.3752 
z
" clip-path="url(#pa855efe61e)" style="fill: #16a34a; opacity: 0.736234; stroke: #111111; stroke-width: 0.25; stroke-linejoin: miter"/>
   </g>
   <g id="patch_46">
    <path d="M 348.975 141.9192 
L 353.16 141.9192 
L 353.16 136.3752 
L 348.975 136.3752 
z
" clip-path="url(#pa855efe61e)" style="fill: #16a34a; opacity: 0.227218; stroke: #111111; stroke-width: 0.25; stroke-linejoin: miter"/>
   </g>
   <g id="patch_47">
    <path d="M 353.16 141.9192 
L 357.345 141.9192 
L 357.345 136.3752 
L 353.16 136.3752 
z
" clip-path="url(#pa855efe61e)" style="fill: #16a34a; opacity: 0.278521; stroke: #111111; stroke-width: 0.25; stroke-linejoin: miter"/>
   </g>
   <g id="patch_48">
    <path d="M 357.345 141.9192 
L 361.53 141.9192 
L 361.53 136.3752 
L 357.345 136.3752 
z
" clip-path="url(#pa855efe61e)" style="fill: #16a34a; opacity: 0.227218; stroke: #111111; stroke-width: 0.25; stroke-linejoin: miter"/>
   </g>
   <g id="patch_49">
    <path d="M 361.53 141.9192 
L 365.715 141.9192 
L 365.715 136.3752 
L 361.53 136.3752 
z
" clip-path="url(#pa855efe61e)" style="fill: #16a34a; opacity: 0.227218; stroke: #111111; stroke-width: 0.25; stroke-linejoin: miter"/>
   </g>
   <g id="patch_50">
    <path d="M 365.715 141.9192 
L 369.9 141.9192 
L 369.9 136.3752 
L 365.715 136.3752 
z
" clip-path="url(#pa855efe61e)" style="fill: #16a34a; opacity: 0.403862; stroke: #111111; stroke-width: 0.25; stroke-linejoin: miter"/>
   </g>
   <g id="patch_51">
    <path d="M 369.9 141.9192 
L 374.085 141.9192 
L 374.085 136.3752 
L 369.9 136.3752 
z
" clip-path="url(#pa855efe61e)" style="fill: #16a34a; opacity: 0.227683; stroke: #111111; stroke-width: 0.25; stroke-linejoin: miter"/>
   </g>
   <g id="patch_52">
    <path d="M 374.085 141.9192 
L 378.27 141.9192 
L 378.27 136.3752 
L 374.085 136.3752 
z
" clip-path="url(#pa855efe61e)" style="fill: #16a34a; opacity: 0.504806; stroke: #111111; stroke-width: 0.25; stroke-linejoin: miter"/>
   </g>
   <g id="patch_53">
    <path d="M 378.27 141.9192 
L 382.455 141.9192 
L 382.455 136.3752 
L 378.27 136.3752 
z
" clip-path="url(#pa855efe61e)" style="fill: #16a34a; opacity: 0.474573; stroke: #111111; stroke-width: 0.25; stroke-linejoin: miter"/>
   </g>
   <g id="patch_54">
    <path d="M 382.455 141.9192 
L 386.64 141.9192 
L 386.64 136.3752 
L 382.455 136.3752 
z
" clip-path="url(#pa855efe61e)" style="fill: #16a34a; opacity: 0.680014; stroke: #111111; stroke-width: 0.25; stroke-linejoin: miter"/>
   </g>
   <g id="patch_55">
    <path d="M 386.64 141.9192 
L 390.825 141.9192 
L 390.825 136.3752 
L 386.64 136.3752 
z
" clip-path="url(#pa855efe61e)" style="fill: #16a34a; opacity: 0.609845; stroke: #111111; stroke-width: 0.25; stroke-linejoin: miter"/>
   </g>
   <g id="patch_56">
    <path d="M 445.788 227.0196 
L 614.862 227.0196 
Q 617.373 227.0196 617.373 224.5248 
L 617.373 45.4536 
Q 617.373 42.9588 614.862 42.9588 
L 445.788 42.9588 
Q 443.277 42.9588 443.277 45.4536 
L 443.277 224.5248 
Q 443.277 227.0196 445.788 227.0196 
L 445.788 227.0196 
z
" clip-path="url(#pa855efe61e)" style="fill: none; stroke: #16a34a; stroke-width: 1.7; stroke-linejoin: miter"/>
   </g>
   <g id="patch_57">
    <path d="M 467.55 103.3884 
L 473.688 103.3884 
L 473.688 95.904 
L 467.55 95.904 
z
" clip-path="url(#pa855efe61e)" style="fill: #1e88ff; opacity: 0.620524; stroke: #111111; stroke-width: 0.25; stroke-linejoin: miter"/>
   </g>
   <g id="patch_58">
    <path d="M 467.55 110.8728 
L 473.688 110.8728 
L 473.688 103.3884 
L 467.55 103.3884 
z
" clip-path="url(#pa855efe61e)" style="fill: #1e88ff; opacity: 0.358642; stroke: #111111; stroke-width: 0.25; stroke-linejoin: miter"/>
   </g>
   <g id="patch_59">
    <path d="M 467.55 118.3572 
L 473.688 118.3572 
L 473.688 110.8728 
L 467.55 110.8728 
z
" clip-path="url(#pa855efe61e)" style="fill: #1e88ff; opacity: 0.22647; stroke: #111111; stroke-width: 0.25; stroke-linejoin: miter"/>
   </g>
   <g id="patch_60">
    <path d="M 467.55 125.8416 
L 473.688 125.8416 
L 473.688 118.3572 
L 467.55 118.3572 
z
" clip-path="url(#pa855efe61e)" style="fill: #1e88ff; opacity: 0.346772; stroke: #111111; stroke-width: 0.25; stroke-linejoin: miter"/>
   </g>
   <g id="patch_61">
    <path d="M 467.55 133.326 
L 473.688 133.326 
L 473.688 125.8416 
L 467.55 125.8416 
z
" clip-path="url(#pa855efe61e)" style="fill: #1e88ff; opacity: 0.512807; stroke: #111111; stroke-width: 0.25; stroke-linejoin: miter"/>
   </g>
   <g id="patch_62">
    <path d="M 467.55 140.8104 
L 473.688 140.8104 
L 473.688 133.326 
L 467.55 133.326 
z
" clip-path="url(#pa855efe61e)" style="fill: #1e88ff; opacity: 0.234095; stroke: #111111; stroke-width: 0.25; stroke-linejoin: miter"/>
   </g>
   <g id="patch_63">
    <path d="M 467.55 148.2948 
L 473.688 148.2948 
L 473.688 140.8104 
L 467.55 140.8104 
z
" clip-path="url(#pa855efe61e)" style="fill: #1e88ff; opacity: 0.93; stroke: #111111; stroke-width: 0.25; stroke-linejoin: miter"/>
   </g>
   <g id="patch_64">
    <path d="M 467.55 155.7792 
L 473.688 155.7792 
L 473.688 148.2948 
L 467.55 148.2948 
z
" clip-path="url(#pa855efe61e)" style="fill: #1e88ff; opacity: 0.440519; stroke: #111111; stroke-width: 0.25; stroke-linejoin: miter"/>
   </g>
   <g id="patch_65">
    <path d="M 467.55 163.2636 
L 473.688 163.2636 
L 473.688 155.7792 
L 467.55 155.7792 
z
" clip-path="url(#pa855efe61e)" style="fill: #1e88ff; opacity: 0.740884; stroke: #111111; stroke-width: 0.25; stroke-linejoin: miter"/>
   </g>
   <g id="patch_66">
    <path d="M 467.55 170.748 
L 473.688 170.748 
L 473.688 163.2636 
L 467.55 163.2636 
z
" clip-path="url(#pa855efe61e)" style="fill: #1e88ff; opacity: 0.740884; stroke: #111111; stroke-width: 0.25; stroke-linejoin: miter"/>
   </g>
   <g id="patch_67">
    <path d="M 467.55 178.2324 
L 473.688 178.2324 
L 473.688 170.748 
L 467.55 170.748 
z
" clip-path="url(#pa855efe61e)" style="fill: #1e88ff; opacity: 0.779046; stroke: #111111; stroke-width: 0.25; stroke-linejoin: miter"/>
   </g>
   <g id="patch_68">
    <path d="M 467.55 185.7168 
L 473.688 185.7168 
L 473.688 178.2324 
L 467.55 178.2324 
z
" clip-path="url(#pa855efe61e)" style="fill: #1e88ff; opacity: 0.507769; stroke: #111111; stroke-width: 0.25; stroke-linejoin: miter"/>
   </g>
   <g id="patch_69">
    <path d="M 467.55 193.2012 
L 473.688 193.2012 
L 473.688 185.7168 
L 467.55 185.7168 
z
" clip-path="url(#pa855efe61e)" style="fill: #1e88ff; opacity: 0.276774; stroke: #111111; stroke-width: 0.25; stroke-linejoin: miter"/>
   </g>
   <g id="patch_70">
    <path d="M 540.09 141.9192 
L 544.275 141.9192 
L 544.275 136.3752 
L 540.09 136.3752 
z
" clip-path="url(#pa855efe61e)" style="fill: #16a34a; opacity: 0.868409; stroke: #111111; stroke-width: 0.25; stroke-linejoin: miter"/>
   </g>
   <g id="patch_71">
    <path d="M 544.275 141.9192 
L 548.46 141.9192 
L 548.46 136.3752 
L 544.275 136.3752 
z
" clip-path="url(#pa855efe61e)" style="fill: #16a34a; opacity: 0.250206; stroke: #111111; stroke-width: 0.25; stroke-linejoin: miter"/>
   </g>
   <g id="patch_72">
    <path d="M 548.46 141.9192 
L 552.645 141.9192 
L 552.645 136.3752 
L 548.46 136.3752 
z
" clip-path="url(#pa855efe61e)" style="fill: #16a34a; opacity: 0.455961; stroke: #111111; stroke-width: 0.25; stroke-linejoin: miter"/>
   </g>
   <g id="patch_73">
    <path d="M 552.645 141.9192 
L 556.83 141.9192 
L 556.83 136.3752 
L 552.645 136.3752 
z
" clip-path="url(#pa855efe61e)" style="fill: #16a34a; opacity: 0.421063; stroke: #111111; stroke-width: 0.25; stroke-linejoin: miter"/>
   </g>
   <g id="patch_74">
    <path d="M 556.83 141.9192 
L 561.015 141.9192 
L 561.015 136.3752 
L 556.83 136.3752 
z
" clip-path="url(#pa855efe61e)" style="fill: #16a34a; opacity: 0.540728; stroke: #111111; stroke-width: 0.25; stroke-linejoin: miter"/>
   </g>
   <g id="patch_75">
    <path d="M 561.015 141.9192 
L 565.2 141.9192 
L 565.2 136.3752 
L 561.015 136.3752 
z
" clip-path="url(#pa855efe61e)" style="fill: #16a34a; opacity: 0.421063; stroke: #111111; stroke-width: 0.25; stroke-linejoin: miter"/>
   </g>
   <g id="patch_76">
    <path d="M 565.2 141.9192 
L 569.385 141.9192 
L 569.385 136.3752 
L 565.2 136.3752 
z
" clip-path="url(#pa855efe61e)" style="fill: #16a34a; opacity: 0.421063; stroke: #111111; stroke-width: 0.25; stroke-linejoin: miter"/>
   </g>
   <g id="patch_77">
    <path d="M 569.385 141.9192 
L 573.57 141.9192 
L 573.57 136.3752 
L 569.385 136.3752 
z
" clip-path="url(#pa855efe61e)" style="fill: #16a34a; opacity: 0.536909; stroke: #111111; stroke-width: 0.25; stroke-linejoin: miter"/>
   </g>
   <g id="patch_78">
    <path d="M 573.57 141.9192 
L 577.755 141.9192 
L 577.755 136.3752 
L 573.57 136.3752 
z
" clip-path="url(#pa855efe61e)" style="fill: #16a34a; opacity: 0.653807; stroke: #111111; stroke-width: 0.25; stroke-linejoin: miter"/>
   </g>
   <g id="patch_79">
    <path d="M 577.755 141.9192 
L 581.94 141.9192 
L 581.94 136.3752 
L 577.755 136.3752 
z
" clip-path="url(#pa855efe61e)" style="fill: #16a34a; opacity: 0.93; stroke: #111111; stroke-width: 0.25; stroke-linejoin: miter"/>
   </g>
   <g id="patch_80">
    <path d="M 581.94 141.9192 
L 586.125 141.9192 
L 586.125 136.3752 
L 581.94 136.3752 
z
" clip-path="url(#pa855efe61e)" style="fill: #16a34a; opacity: 0.765369; stroke: #111111; stroke-width: 0.25; stroke-linejoin: miter"/>
   </g>
   <g id="patch_81">
    <path d="M 586.125 141.9192 
L 590.31 141.9192 
L 590.31 136.3752 
L 586.125 136.3752 
z
" clip-path="url(#pa855efe61e)" style="fill: #16a34a; opacity: 0.272225; stroke: #111111; stroke-width: 0.25; stroke-linejoin: miter"/>
   </g>
   <g id="patch_82">
    <path d="M 590.31 141.9192 
L 594.495 141.9192 
L 594.495 136.3752 
L 590.31 136.3752 
z
" clip-path="url(#pa855efe61e)" style="fill: #16a34a; opacity: 0.835662; stroke: #111111; stroke-width: 0.25; stroke-linejoin: miter"/>
   </g>
   <g id="text_1">
    <!-- Ein Rang-1-Beitrag besteht immer aus drei Teilen -->
    <g style="fill: #111111" transform="translate(32.31 36.824484) scale(0.18 -0.18)">
     <defs>
      <path id="DejaVuSerif-28" d="M 353 0 
L 353 331 
L 947 331 
L 947 4331 
L 353 4331 
L 353 4666 
L 4109 4666 
L 4109 3628 
L 3725 3628 
L 3725 4281 
L 1581 4281 
L 1581 2719 
L 3109 2719 
L 3109 3303 
L 3494 3303 
L 3494 1753 
L 3109 1753 
L 3109 2338 
L 1581 2338 
L 1581 384 
L 3775 384 
L 3775 1038 
L 4159 1038 
L 4159 0 
L 353 0 
z
" transform="scale(0.015625)"/>
      <path id="DejaVuSerif-4c" d="M 622 4353 
Q 622 4497 726 4603 
Q 831 4709 978 4709 
Q 1122 4709 1226 4603 
Q 1331 4497 1331 4353 
Q 1331 4206 1228 4103 
Q 1125 4000 978 4000 
Q 831 4000 726 4103 
Q 622 4206 622 4353 
z
M 1356 331 
L 1900 331 
L 1900 0 
L 231 0 
L 231 331 
L 781 331 
L 781 2988 
L 231 2988 
L 231 3322 
L 1356 3322 
L 1356 331 
z
" transform="scale(0.015625)"/>
      <path id="DejaVuSerif-51" d="M 263 0 
L 263 331 
L 781 331 
L 781 2988 
L 231 2988 
L 231 3322 
L 1356 3322 
L 1356 2731 
Q 1516 3069 1770 3241 
Q 2025 3413 2363 3413 
Q 2913 3413 3172 3097 
Q 3431 2781 3431 2113 
L 3431 331 
L 3944 331 
L 3944 0 
L 2356 0 
L 2356 331 
L 2853 331 
L 2853 1931 
Q 2853 2541 2703 2767 
Q 2553 2994 2175 2994 
Q 1775 2994 1565 2701 
Q 1356 2409 1356 1850 
L 1356 331 
L 1856 331 
L 1856 0 
L 263 0 
z
" transform="scale(0.015625)"/>
      <path id="DejaVuSerif-3" transform="scale(0.015625)"/>
      <path id="DejaVuSerif-35" d="M 3066 2316 
Q 3284 2256 3442 2114 
Q 3600 1972 3725 1716 
L 4403 331 
L 4972 331 
L 4972 0 
L 3872 0 
L 3144 1484 
Q 2934 1916 2759 2042 
Q 2584 2169 2278 2169 
L 1581 2169 
L 1581 331 
L 2241 331 
L 2241 0 
L 353 0 
L 353 331 
L 947 331 
L 947 4331 
L 353 4331 
L 353 4666 
L 2719 4666 
Q 3400 4666 3770 4341 
Q 4141 4016 4141 3419 
Q 4141 2938 3870 2661 
Q 3600 2384 3066 2316 
z
M 1581 2503 
L 2503 2503 
Q 2975 2503 3200 2726 
Q 3425 2950 3425 3419 
Q 3425 3888 3200 4109 
Q 2975 4331 2503 4331 
L 1581 4331 
L 1581 2503 
z
" transform="scale(0.015625)"/>
      <path id="DejaVuSerif-44" d="M 2547 1044 
L 2547 1747 
L 1806 1747 
Q 1378 1747 1168 1562 
Q 959 1378 959 997 
Q 959 650 1171 447 
Q 1384 244 1747 244 
Q 2106 244 2326 466 
Q 2547 688 2547 1044 
z
M 3122 2075 
L 3122 331 
L 3634 331 
L 3634 0 
L 2547 0 
L 2547 359 
Q 2356 128 2106 18 
Q 1856 -91 1522 -91 
Q 969 -91 644 203 
Q 319 497 319 997 
Q 319 1513 691 1797 
Q 1063 2081 1741 2081 
L 2547 2081 
L 2547 2309 
Q 2547 2688 2317 2895 
Q 2088 3103 1672 3103 
Q 1328 3103 1125 2947 
Q 922 2791 872 2484 
L 575 2484 
L 575 3156 
Q 875 3284 1158 3348 
Q 1441 3413 1709 3413 
Q 2400 3413 2761 3070 
Q 3122 2728 3122 2075 
z
" transform="scale(0.015625)"/>
      <path id="DejaVuSerif-4a" d="M 3359 2988 
L 3359 72 
Q 3359 -644 2965 -1033 
Q 2572 -1422 1844 -1422 
Q 1516 -1422 1216 -1362 
Q 916 -1303 641 -1184 
L 641 -488 
L 941 -488 
Q 997 -813 1206 -963 
Q 1416 -1113 1806 -1113 
Q 2313 -1113 2548 -827 
Q 2784 -541 2784 72 
L 2784 519 
Q 2616 206 2355 57 
Q 2094 -91 1709 -91 
Q 1097 -91 708 395 
Q 319 881 319 1663 
Q 319 2444 706 2928 
Q 1094 3413 1709 3413 
Q 2094 3413 2355 3264 
Q 2616 3116 2784 2803 
L 2784 3322 
L 3909 3322 
L 3909 2988 
L 3359 2988 
z
M 2784 1825 
Q 2784 2422 2554 2737 
Q 2325 3053 1888 3053 
Q 1444 3053 1217 2703 
Q 991 2353 991 1663 
Q 991 975 1217 622 
Q 1444 269 1888 269 
Q 2325 269 2554 583 
Q 2784 897 2784 1497 
L 2784 1825 
z
" transform="scale(0.015625)"/>
      <path id="DejaVuSerif-10" d="M 281 1959 
L 1881 1959 
L 1881 1472 
L 281 1472 
L 281 1959 
z
" transform="scale(0.015625)"/>
      <path id="DejaVuSerif-14" d="M 909 0 
L 909 331 
L 1722 331 
L 1722 4213 
L 781 3603 
L 781 4013 
L 1919 4750 
L 2350 4750 
L 2350 331 
L 3163 331 
L 3163 0 
L 909 0 
z
" transform="scale(0.015625)"/>
      <path id="DejaVuSerif-25" d="M 1581 331 
L 2516 331 
Q 3078 331 3337 575 
Q 3597 819 3597 1350 
Q 3597 1878 3339 2120 
Q 3081 2363 2516 2363 
L 1581 2363 
L 1581 331 
z
M 1581 2694 
L 2375 2694 
Q 2888 2694 3123 2891 
Q 3359 3088 3359 3513 
Q 3359 3941 3123 4136 
Q 2888 4331 2375 4331 
L 1581 4331 
L 1581 2694 
z
M 353 0 
L 353 331 
L 947 331 
L 947 4331 
L 353 4331 
L 353 4666 
L 2656 4666 
Q 3363 4666 3720 4377 
Q 4078 4088 4078 3513 
Q 4078 3097 3829 2850 
Q 3581 2603 3103 2547 
Q 3697 2472 4005 2167 
Q 4313 1863 4313 1350 
Q 4313 656 3875 328 
Q 3438 0 2509 0 
L 353 0 
z
" transform="scale(0.015625)"/>
      <path id="DejaVuSerif-48" d="M 3469 1600 
L 991 1600 
L 991 1575 
Q 991 903 1244 561 
Q 1497 219 1991 219 
Q 2369 219 2611 417 
Q 2853 616 2950 1006 
L 3413 1006 
Q 3275 459 2904 184 
Q 2534 -91 1931 -91 
Q 1203 -91 761 389 
Q 319 869 319 1663 
Q 319 2450 753 2931 
Q 1188 3413 1894 3413 
Q 2647 3413 3050 2948 
Q 3453 2484 3469 1600 
z
M 2791 1931 
Q 2772 2513 2545 2808 
Q 2319 3103 1894 3103 
Q 1497 3103 1269 2806 
Q 1041 2509 991 1931 
L 2791 1931 
z
" transform="scale(0.015625)"/>
      <path id="DejaVuSerif-57" d="M 691 2988 
L 184 2988 
L 184 3322 
L 691 3322 
L 691 4353 
L 1269 4353 
L 1269 3322 
L 2350 3322 
L 2350 2988 
L 1269 2988 
L 1269 878 
Q 1269 456 1350 337 
Q 1431 219 1650 219 
Q 1875 219 1978 351 
Q 2081 484 2088 781 
L 2522 781 
Q 2497 328 2275 118 
Q 2053 -91 1600 -91 
Q 1103 -91 897 129 
Q 691 350 691 878 
L 691 2988 
z
" transform="scale(0.015625)"/>
      <path id="DejaVuSerif-55" d="M 3059 3328 
L 3059 2497 
L 2728 2497 
Q 2713 2744 2591 2866 
Q 2469 2988 2234 2988 
Q 1809 2988 1582 2694 
Q 1356 2400 1356 1850 
L 1356 331 
L 2022 331 
L 2022 0 
L 263 0 
L 263 331 
L 781 331 
L 781 2994 
L 231 2994 
L 231 3322 
L 1356 3322 
L 1356 2731 
Q 1525 3078 1790 3245 
Q 2056 3413 2438 3413 
Q 2578 3413 2733 3391 
Q 2888 3369 3059 3328 
z
" transform="scale(0.015625)"/>
      <path id="DejaVuSerif-45" d="M 738 331 
L 738 4531 
L 184 4531 
L 184 4863 
L 1313 4863 
L 1313 2803 
Q 1481 3116 1742 3264 
Q 2003 3413 2388 3413 
Q 3000 3413 3387 2928 
Q 3775 2444 3775 1663 
Q 3775 881 3387 395 
Q 3000 -91 2388 -91 
Q 2003 -91 1742 57 
Q 1481 206 1313 519 
L 1313 0 
L 184 0 
L 184 331 
L 738 331 
z
M 1313 1497 
Q 1313 897 1542 583 
Q 1772 269 2209 269 
Q 2650 269 2876 622 
Q 3103 975 3103 1663 
Q 3103 2353 2876 2703 
Q 2650 3053 2209 3053 
Q 1772 3053 1542 2737 
Q 1313 2422 1313 1825 
L 1313 1497 
z
" transform="scale(0.015625)"/>
      <path id="DejaVuSerif-56" d="M 359 184 
L 359 959 
L 691 959 
Q 703 588 923 403 
Q 1144 219 1575 219 
Q 1963 219 2166 364 
Q 2369 509 2369 788 
Q 2369 1006 2220 1140 
Q 2072 1275 1594 1428 
L 1178 1569 
Q 750 1706 558 1912 
Q 366 2119 366 2438 
Q 366 2894 700 3153 
Q 1034 3413 1625 3413 
Q 1888 3413 2178 3344 
Q 2469 3275 2778 3144 
L 2778 2419 
L 2447 2419 
Q 2434 2741 2221 2922 
Q 2009 3103 1644 3103 
Q 1281 3103 1095 2975 
Q 909 2847 909 2591 
Q 909 2381 1050 2254 
Q 1191 2128 1613 1997 
L 2069 1856 
Q 2541 1709 2748 1489 
Q 2956 1269 2956 922 
Q 2956 450 2595 179 
Q 2234 -91 1600 -91 
Q 1278 -91 972 -22 
Q 666 47 359 184 
z
" transform="scale(0.015625)"/>
      <path id="DejaVuSerif-4b" d="M 263 0 
L 263 331 
L 781 331 
L 781 4531 
L 231 4531 
L 231 4863 
L 1356 4863 
L 1356 2731 
Q 1516 3069 1770 3241 
Q 2025 3413 2363 3413 
Q 2913 3413 3172 3097 
Q 3431 2781 3431 2113 
L 3431 331 
L 3944 331 
L 3944 0 
L 2356 0 
L 2356 331 
L 2853 331 
L 2853 1931 
Q 2853 2541 2704 2764 
Q 2556 2988 2175 2988 
Q 1775 2988 1565 2697 
Q 1356 2406 1356 1850 
L 1356 331 
L 1856 331 
L 1856 0 
L 263 0 
z
" transform="scale(0.015625)"/>
      <path id="DejaVuSerif-50" d="M 3316 2675 
Q 3481 3041 3739 3227 
Q 3997 3413 4341 3413 
Q 4863 3413 5119 3089 
Q 5375 2766 5375 2113 
L 5375 331 
L 5894 331 
L 5894 0 
L 4300 0 
L 4300 331 
L 4800 331 
L 4800 2047 
Q 4800 2556 4650 2772 
Q 4500 2988 4153 2988 
Q 3769 2988 3567 2697 
Q 3366 2406 3366 1850 
L 3366 331 
L 3866 331 
L 3866 0 
L 2291 0 
L 2291 331 
L 2791 331 
L 2791 2069 
Q 2791 2566 2641 2777 
Q 2491 2988 2144 2988 
Q 1759 2988 1557 2697 
Q 1356 2406 1356 1850 
L 1356 331 
L 1856 331 
L 1856 0 
L 263 0 
L 263 331 
L 781 331 
L 781 2994 
L 231 2994 
L 231 3322 
L 1356 3322 
L 1356 2731 
Q 1516 3063 1762 3238 
Q 2009 3413 2322 3413 
Q 2709 3413 2968 3220 
Q 3228 3028 3316 2675 
z
" transform="scale(0.015625)"/>
      <path id="DejaVuSerif-58" d="M 2266 3322 
L 3341 3322 
L 3341 331 
L 3884 331 
L 3884 0 
L 2766 0 
L 2766 588 
Q 2606 256 2353 82 
Q 2100 -91 1766 -91 
Q 1213 -91 952 223 
Q 691 538 691 1209 
L 691 2988 
L 172 2988 
L 172 3322 
L 1269 3322 
L 1269 1388 
Q 1269 781 1417 556 
Q 1566 331 1947 331 
Q 2347 331 2556 625 
Q 2766 919 2766 1478 
L 2766 2988 
L 2266 2988 
L 2266 3322 
z
" transform="scale(0.015625)"/>
      <path id="DejaVuSerif-47" d="M 3359 331 
L 3909 331 
L 3909 0 
L 2784 0 
L 2784 519 
Q 2616 206 2355 57 
Q 2094 -91 1709 -91 
Q 1097 -91 708 395 
Q 319 881 319 1663 
Q 319 2444 706 2928 
Q 1094 3413 1709 3413 
Q 2094 3413 2355 3264 
Q 2616 3116 2784 2803 
L 2784 4531 
L 2241 4531 
L 2241 4863 
L 3359 4863 
L 3359 331 
z
M 2784 1497 
L 2784 1825 
Q 2784 2422 2554 2737 
Q 2325 3053 1888 3053 
Q 1444 3053 1217 2703 
Q 991 2353 991 1663 
Q 991 975 1217 622 
Q 1444 269 1888 269 
Q 2325 269 2554 583 
Q 2784 897 2784 1497 
z
" transform="scale(0.015625)"/>
      <path id="DejaVuSerif-37" d="M 1222 0 
L 1222 331 
L 1819 331 
L 1819 4294 
L 447 4294 
L 447 3566 
L 63 3566 
L 63 4666 
L 4206 4666 
L 4206 3566 
L 3822 3566 
L 3822 4294 
L 2450 4294 
L 2450 331 
L 3047 331 
L 3047 0 
L 1222 0 
z
" transform="scale(0.015625)"/>
      <path id="DejaVuSerif-4f" d="M 1313 331 
L 1856 331 
L 1856 0 
L 184 0 
L 184 331 
L 738 331 
L 738 4531 
L 184 4531 
L 184 4863 
L 1313 4863 
L 1313 331 
z
" transform="scale(0.015625)"/>
     </defs>
     <use xlink:href="#DejaVuSerif-28"/>
     <use xlink:href="#DejaVuSerif-4c" transform="translate(73 0)"/>
     <use xlink:href="#DejaVuSerif-51" transform="translate(104.984375 0)"/>
     <use xlink:href="#DejaVuSerif-3" transform="translate(169.390625 0)"/>
     <use xlink:href="#DejaVuSerif-35" transform="translate(201.171875 0)"/>
     <use xlink:href="#DejaVuSerif-44" transform="translate(278.765625 0)"/>
     <use xlink:href="#DejaVuSerif-51" transform="translate(338.390625 0)"/>
     <use xlink:href="#DejaVuSerif-4a" transform="translate(402.796875 0)"/>
     <use xlink:href="#DejaVuSerif-10" transform="translate(466.8125 0)"/>
     <use xlink:href="#DejaVuSerif-14" transform="translate(500.609375 0)"/>
     <use xlink:href="#DejaVuSerif-10" transform="translate(564.234375 0)"/>
     <use xlink:href="#DejaVuSerif-25" transform="translate(598.03125 0)"/>
     <use xlink:href="#DejaVuSerif-48" transform="translate(671.515625 0)"/>
     <use xlink:href="#DejaVuSerif-4c" transform="translate(730.703125 0)"/>
     <use xlink:href="#DejaVuSerif-57" transform="translate(762.6875 0)"/>
     <use xlink:href="#DejaVuSerif-55" transform="translate(802.875 0)"/>
     <use xlink:href="#DejaVuSerif-44" transform="translate(850.671875 0)"/>
     <use xlink:href="#DejaVuSerif-4a" transform="translate(910.296875 0)"/>
     <use xlink:href="#DejaVuSerif-3" transform="translate(974.3125 0)"/>
     <use xlink:href="#DejaVuSerif-45" transform="translate(1006.09375 0)"/>
     <use xlink:href="#DejaVuSerif-48" transform="translate(1070.109375 0)"/>
     <use xlink:href="#DejaVuSerif-56" transform="translate(1129.296875 0)"/>
     <use xlink:href="#DejaVuSerif-57" transform="translate(1180.609375 0)"/>
     <use xlink:href="#DejaVuSerif-48" transform="translate(1220.796875 0)"/>
     <use xlink:href="#DejaVuSerif-4b" transform="translate(1279.984375 0)"/>
     <use xlink:href="#DejaVuSerif-57" transform="translate(1344.390625 0)"/>
     <use xlink:href="#DejaVuSerif-3" transform="translate(1384.578125 0)"/>
     <use xlink:href="#DejaVuSerif-4c" transform="translate(1416.359375 0)"/>
     <use xlink:href="#DejaVuSerif-50" transform="translate(1448.34375 0)"/>
     <use xlink:href="#DejaVuSerif-50" transform="translate(1543.171875 0)"/>
     <use xlink:href="#DejaVuSerif-48" transform="translate(1638 0)"/>
     <use xlink:href="#DejaVuSerif-55" transform="translate(1697.1875 0)"/>
     <use xlink:href="#DejaVuSerif-3" transform="translate(1744.984375 0)"/>
     <use xlink:href="#DejaVuSerif-44" transform="translate(1776.765625 0)"/>
     <use xlink:href="#DejaVuSerif-58" transform="translate(1836.390625 0)"/>
     <use xlink:href="#DejaVuSerif-56" transform="translate(1900.796875 0)"/>
     <use xlink:href="#DejaVuSerif-3" transform="translate(1952.109375 0)"/>
     <use xlink:href="#DejaVuSerif-47" transform="translate(1983.890625 0)"/>
     <use xlink:href="#DejaVuSerif-55" transform="translate(2047.90625 0)"/>
     <use xlink:href="#DejaVuSerif-48" transform="translate(2095.703125 0)"/>
     <use xlink:href="#DejaVuSerif-4c" transform="translate(2154.890625 0)"/>
     <use xlink:href="#DejaVuSerif-3" transform="translate(2186.875 0)"/>
     <use xlink:href="#DejaVuSerif-37" transform="translate(2218.65625 0)"/>
     <use xlink:href="#DejaVuSerif-48" transform="translate(2277.59375 0)"/>
     <use xlink:href="#DejaVuSerif-4c" transform="translate(2336.78125 0)"/>
     <use xlink:href="#DejaVuSerif-4f" transform="translate(2368.765625 0)"/>
     <use xlink:href="#DejaVuSerif-48" transform="translate(2400.75 0)"/>
     <use xlink:href="#DejaVuSerif-51" transform="translate(2459.9375 0)"/>
    </g>
   </g>
   <g id="text_2">
    <!-- $\sigma_1u_1v_1^T$ -->
    <g style="fill: #111111" transform="translate(95.526 69.6132) scale(0.18 -0.18)">
     <defs>
      <path id="Cmmi10-15" d="M 1197 -72 
Q 913 -72 692 64 
Q 472 200 351 431 
Q 231 663 231 941 
Q 231 1238 365 1566 
Q 500 1894 733 2166 
Q 966 2438 1259 2598 
Q 1553 2759 1863 2759 
L 3475 2759 
Q 3541 2759 3587 2715 
Q 3634 2672 3634 2597 
Q 3634 2503 3567 2433 
Q 3500 2363 3406 2363 
L 2625 2363 
Q 2809 2088 2809 1697 
Q 2809 1375 2684 1062 
Q 2559 750 2337 492 
Q 2116 234 1820 81 
Q 1525 -72 1197 -72 
z
M 1203 97 
Q 1553 97 1823 370 
Q 2094 644 2237 1039 
Q 2381 1434 2381 1772 
Q 2381 2047 2229 2205 
Q 2078 2363 1806 2363 
Q 1434 2363 1173 2113 
Q 913 1863 783 1484 
Q 653 1106 653 756 
Q 653 481 798 289 
Q 944 97 1203 97 
z
" transform="scale(0.015625)"/>
      <path id="Cmr10-64" d="M 594 0 
L 594 225 
Q 1394 225 1394 428 
L 1394 3788 
Q 1063 3628 556 3628 
L 556 3853 
Q 1341 3853 1741 4263 
L 1831 4263 
Q 1853 4263 1873 4245 
Q 1894 4228 1894 4206 
L 1894 428 
Q 1894 225 2694 225 
L 2694 0 
L 594 0 
z
" transform="scale(0.015625)"/>
      <path id="Cmmi10-60" d="M 678 697 
Q 678 906 734 1126 
Q 791 1347 892 1617 
Q 994 1888 1069 2088 
Q 1153 2322 1153 2472 
Q 1153 2663 1013 2663 
Q 759 2663 595 2402 
Q 431 2141 353 1819 
Q 341 1778 300 1778 
L 225 1778 
Q 172 1778 172 1838 
L 172 1856 
Q 275 2238 487 2533 
Q 700 2828 1025 2828 
Q 1253 2828 1411 2678 
Q 1569 2528 1569 2297 
Q 1569 2178 1516 2047 
Q 1488 1969 1388 1706 
Q 1288 1444 1234 1272 
Q 1181 1100 1147 934 
Q 1113 769 1113 603 
Q 1113 391 1203 244 
Q 1294 97 1497 97 
Q 1906 97 2216 603 
Q 2222 628 2226 651 
Q 2231 675 2234 697 
L 2694 2553 
Q 2716 2638 2794 2698 
Q 2872 2759 2963 2759 
Q 3041 2759 3098 2709 
Q 3156 2659 3156 2578 
Q 3156 2541 3150 2528 
L 2688 684 
Q 2644 494 2644 372 
Q 2644 97 2828 97 
Q 3034 97 3136 351 
Q 3238 606 3309 941 
Q 3322 978 3359 978 
L 3438 978 
Q 3463 978 3478 956 
Q 3494 934 3494 916 
Q 3425 641 3361 444 
Q 3297 247 3159 87 
Q 3022 -72 2816 -72 
Q 2613 -72 2452 39 
Q 2291 150 2234 341 
Q 2088 153 1894 40 
Q 1700 -72 1484 -72 
Q 1116 -72 897 129 
Q 678 331 678 697 
z
" transform="scale(0.015625)"/>
      <path id="Cmmi10-38" d="M 684 722 
Q 684 866 718 1037 
Q 753 1209 787 1320 
Q 822 1431 944 1753 
Q 1066 2075 1069 2088 
Q 1153 2322 1153 2472 
Q 1153 2663 1013 2663 
Q 759 2663 595 2402 
Q 431 2141 353 1819 
Q 341 1778 300 1778 
L 225 1778 
Q 172 1778 172 1838 
L 172 1856 
Q 275 2238 487 2533 
Q 700 2828 1025 2828 
Q 1253 2828 1411 2678 
Q 1569 2528 1569 2297 
Q 1569 2178 1516 2047 
Q 1391 1722 1319 1526 
Q 1247 1331 1186 1089 
Q 1125 847 1125 641 
Q 1125 400 1236 248 
Q 1347 97 1581 97 
Q 2025 97 2381 781 
Q 2494 1003 2594 1303 
Q 2694 1603 2694 1791 
Q 2694 1984 2631 2092 
Q 2569 2200 2469 2317 
Q 2369 2434 2369 2503 
Q 2369 2628 2472 2731 
Q 2575 2834 2700 2834 
Q 2853 2834 2920 2693 
Q 2988 2553 2988 2375 
Q 2988 2163 2927 1869 
Q 2866 1575 2758 1259 
Q 2650 944 2559 763 
Q 2138 -72 1575 -72 
Q 1172 -72 928 129 
Q 684 331 684 722 
z
" transform="scale(0.015625)"/>
      <path id="Cmmi10-78" d="M 294 84 
Q 297 100 308 140 
Q 319 181 336 203 
Q 353 225 384 225 
Q 934 225 1113 256 
Q 1284 300 1319 441 
L 2194 3956 
Q 2222 4034 2222 4097 
Q 2222 4147 1997 4147 
L 1625 4147 
Q 1197 4147 964 4015 
Q 731 3884 622 3668 
Q 513 3453 341 2963 
Q 319 2906 275 2906 
L 219 2906 
Q 153 2906 153 2988 
L 609 4313 
Q 622 4372 672 4372 
L 4453 4372 
Q 4519 4372 4519 4288 
L 4306 2963 
Q 4306 2944 4284 2925 
Q 4263 2906 4244 2906 
L 4184 2906 
Q 4122 2906 4122 2988 
Q 4191 3441 4191 3628 
Q 4191 3853 4097 3968 
Q 4003 4084 3853 4115 
Q 3703 4147 3463 4147 
L 3084 4147 
Q 2913 4147 2853 4115 
Q 2794 4084 2753 3928 
L 1875 416 
Q 1872 403 1870 390 
Q 1869 378 1863 359 
Q 1863 278 1959 256 
Q 2125 225 2669 225 
Q 2731 225 2731 141 
Q 2709 50 2696 25 
Q 2684 0 2625 0 
L 359 0 
Q 294 0 294 84 
z
" transform="scale(0.015625)"/>
     </defs>
     <use xlink:href="#Cmmi10-15" transform="translate(0 0.892016)"/>
     <use xlink:href="#Cmr10-64" transform="translate(57.080078 -14.107946) scale(0.7)"/>
     <use xlink:href="#Cmmi10-60" transform="translate(97.800494 0.892016)"/>
     <use xlink:href="#Cmr10-64" transform="translate(154.978228 -14.107946) scale(0.7)"/>
     <use xlink:href="#Cmmi10-38" transform="translate(195.698643 0.892016)"/>
     <use xlink:href="#Cmmi10-78" transform="translate(255.367185 42.18125) scale(0.7)"/>
     <use xlink:href="#Cmr10-64" transform="translate(244.087315 -29.445312) scale(0.7)"/>
    </g>
   </g>
   <g id="text_3">
    <!-- $u_1$ -->
    <g style="fill: #1e88ff" transform="translate(56.14 200.995919) scale(0.14 -0.14)">
     <use xlink:href="#Cmmi10-60" transform="translate(0 0.8125)"/>
     <use xlink:href="#Cmr10-64" transform="translate(57.177734 -14.187462) scale(0.7)"/>
    </g>
   </g>
   <g id="text_4">
    <!-- $\sigma_1$ -->
    <g style="fill: #f2aa00" transform="translate(99.8 144.41225) scale(0.16 -0.16)">
     <use xlink:href="#Cmmi10-15" transform="translate(0 0.890625)"/>
     <use xlink:href="#Cmr10-64" transform="translate(57.080078 -14.109337) scale(0.7)"/>
    </g>
   </g>
   <g id="text_5">
    <!-- 2484 -->
    <g style="fill: #666666" transform="translate(92.37 166.103587) scale(0.12 -0.12)">
     <defs>
      <path id="DejaVuSerif-15" d="M 819 3553 
L 469 3553 
L 469 4384 
Q 803 4563 1142 4656 
Q 1481 4750 1806 4750 
Q 2534 4750 2956 4397 
Q 3378 4044 3378 3438 
Q 3378 2753 2422 1800 
Q 2347 1728 2309 1691 
L 1131 513 
L 3078 513 
L 3078 1088 
L 3444 1088 
L 3444 0 
L 434 0 
L 434 341 
L 1850 1753 
Q 2319 2222 2519 2614 
Q 2719 3006 2719 3438 
Q 2719 3909 2473 4175 
Q 2228 4441 1797 4441 
Q 1350 4441 1106 4219 
Q 863 3997 819 3553 
z
" transform="scale(0.015625)"/>
      <path id="DejaVuSerif-17" d="M 2234 1581 
L 2234 4063 
L 641 1581 
L 2234 1581 
z
M 3609 0 
L 1484 0 
L 1484 331 
L 2234 331 
L 2234 1247 
L 197 1247 
L 197 1588 
L 2241 4750 
L 2859 4750 
L 2859 1581 
L 3750 1581 
L 3750 1247 
L 2859 1247 
L 2859 331 
L 3609 331 
L 3609 0 
z
" transform="scale(0.015625)"/>
      <path id="DejaVuSerif-1b" d="M 2981 1275 
Q 2981 1775 2732 2051 
Q 2484 2328 2034 2328 
Q 1584 2328 1336 2051 
Q 1088 1775 1088 1275 
Q 1088 772 1336 495 
Q 1584 219 2034 219 
Q 2484 219 2732 495 
Q 2981 772 2981 1275 
z
M 2853 3541 
Q 2853 3966 2637 4203 
Q 2422 4441 2034 4441 
Q 1650 4441 1433 4203 
Q 1216 3966 1216 3541 
Q 1216 3113 1433 2875 
Q 1650 2638 2034 2638 
Q 2422 2638 2637 2875 
Q 2853 3113 2853 3541 
z
M 2516 2484 
Q 3047 2413 3344 2092 
Q 3641 1772 3641 1275 
Q 3641 619 3225 264 
Q 2809 -91 2034 -91 
Q 1263 -91 845 264 
Q 428 619 428 1275 
Q 428 1772 725 2092 
Q 1022 2413 1556 2484 
Q 1084 2569 832 2842 
Q 581 3116 581 3541 
Q 581 4103 968 4426 
Q 1356 4750 2034 4750 
Q 2713 4750 3100 4426 
Q 3488 4103 3488 3541 
Q 3488 3116 3236 2842 
Q 2984 2569 2516 2484 
z
" transform="scale(0.015625)"/>
     </defs>
     <use xlink:href="#DejaVuSerif-15"/>
     <use xlink:href="#DejaVuSerif-17" transform="translate(63.625 0)"/>
     <use xlink:href="#DejaVuSerif-1b" transform="translate(127.25 0)"/>
     <use xlink:href="#DejaVuSerif-17" transform="translate(190.875 0)"/>
    </g>
   </g>
   <g id="text_6">
    <!-- $v_1^T$ -->
    <g style="fill: #16a34a" transform="translate(152.044 168.2252) scale(0.14 -0.14)">
     <use xlink:href="#Cmmi10-38" transform="translate(0 0.892016)"/>
     <use xlink:href="#Cmmi10-78" transform="translate(59.668541 42.18125) scale(0.7)"/>
     <use xlink:href="#Cmr10-64" transform="translate(48.388672 -29.445312) scale(0.7)"/>
    </g>
   </g>
   <g id="text_7">
    <!-- ergibt eine Rang-1-Matrix -->
    <g style="fill: #666666" transform="translate(43.461 211.564856) scale(0.12 -0.12)">
     <defs>
      <path id="DejaVuSerif-30" d="M 353 0 
L 353 331 
L 947 331 
L 947 4331 
L 319 4331 
L 319 4666 
L 1678 4666 
L 3316 1344 
L 4953 4666 
L 6228 4666 
L 6228 4331 
L 5606 4331 
L 5606 331 
L 6203 331 
L 6203 0 
L 4378 0 
L 4378 331 
L 4972 331 
L 4972 3938 
L 3372 684 
L 2931 684 
L 1331 3938 
L 1331 331 
L 1925 331 
L 1925 0 
L 353 0 
z
" transform="scale(0.015625)"/>
      <path id="DejaVuSerif-5b" d="M 1863 2028 
L 2559 2988 
L 2113 2988 
L 2113 3322 
L 3391 3322 
L 3391 2988 
L 2950 2988 
L 2059 1759 
L 3097 331 
L 3531 331 
L 3531 0 
L 1997 0 
L 1997 331 
L 2419 331 
L 1697 1325 
L 972 331 
L 1403 331 
L 1403 0 
L 141 0 
L 141 331 
L 581 331 
L 1497 1594 
L 488 2988 
L 78 2988 
L 78 3322 
L 1563 3322 
L 1563 2988 
L 1166 2988 
L 1863 2028 
z
" transform="scale(0.015625)"/>
     </defs>
     <use xlink:href="#DejaVuSerif-48"/>
     <use xlink:href="#DejaVuSerif-55" transform="translate(59.1875 0)"/>
     <use xlink:href="#DejaVuSerif-4a" transform="translate(106.984375 0)"/>
     <use xlink:href="#DejaVuSerif-4c" transform="translate(171 0)"/>
     <use xlink:href="#DejaVuSerif-45" transform="translate(202.984375 0)"/>
     <use xlink:href="#DejaVuSerif-57" transform="translate(267 0)"/>
     <use xlink:href="#DejaVuSerif-3" transform="translate(307.1875 0)"/>
     <use xlink:href="#DejaVuSerif-48" transform="translate(338.96875 0)"/>
     <use xlink:href="#DejaVuSerif-4c" transform="translate(398.15625 0)"/>
     <use xlink:href="#DejaVuSerif-51" transform="translate(430.140625 0)"/>
     <use xlink:href="#DejaVuSerif-48" transform="translate(494.546875 0)"/>
     <use xlink:href="#DejaVuSerif-3" transform="translate(553.734375 0)"/>
     <use xlink:href="#DejaVuSerif-35" transform="translate(585.515625 0)"/>
     <use xlink:href="#DejaVuSerif-44" transform="translate(663.109375 0)"/>
     <use xlink:href="#DejaVuSerif-51" transform="translate(722.734375 0)"/>
     <use xlink:href="#DejaVuSerif-4a" transform="translate(787.140625 0)"/>
     <use xlink:href="#DejaVuSerif-10" transform="translate(851.15625 0)"/>
     <use xlink:href="#DejaVuSerif-14" transform="translate(884.953125 0)"/>
     <use xlink:href="#DejaVuSerif-10" transform="translate(948.578125 0)"/>
     <use xlink:href="#DejaVuSerif-30" transform="translate(982.375 0)"/>
     <use xlink:href="#DejaVuSerif-44" transform="translate(1084.765625 0)"/>
     <use xlink:href="#DejaVuSerif-57" transform="translate(1144.390625 0)"/>
     <use xlink:href="#DejaVuSerif-55" transform="translate(1184.578125 0)"/>
     <use xlink:href="#DejaVuSerif-4c" transform="translate(1232.375 0)"/>
     <use xlink:href="#DejaVuSerif-5b" transform="translate(1264.359375 0)"/>
    </g>
   </g>
   <g id="text_8">
    <!-- $\sigma_2u_2v_2^T$ -->
    <g style="fill: #111111" transform="translate(299.196 69.6132) scale(0.18 -0.18)">
     <defs>
      <path id="Cmr10-31" d="M 319 0 
L 319 172 
Q 319 188 331 206 
L 1325 1306 
Q 1550 1550 1690 1715 
Q 1831 1881 1968 2097 
Q 2106 2313 2186 2536 
Q 2266 2759 2266 3009 
Q 2266 3272 2169 3511 
Q 2072 3750 1880 3894 
Q 1688 4038 1416 4038 
Q 1138 4038 916 3870 
Q 694 3703 603 3438 
Q 628 3444 672 3444 
Q 816 3444 917 3347 
Q 1019 3250 1019 3097 
Q 1019 2950 917 2848 
Q 816 2747 672 2747 
Q 522 2747 420 2851 
Q 319 2956 319 3097 
Q 319 3338 409 3548 
Q 500 3759 670 3923 
Q 841 4088 1055 4175 
Q 1269 4263 1509 4263 
Q 1875 4263 2190 4108 
Q 2506 3953 2690 3670 
Q 2875 3388 2875 3009 
Q 2875 2731 2753 2481 
Q 2631 2231 2440 2026 
Q 2250 1822 1953 1562 
Q 1656 1303 1563 1216 
L 838 519 
L 1453 519 
Q 1906 519 2211 526 
Q 2516 534 2534 550 
Q 2609 631 2688 1141 
L 2875 1141 
L 2694 0 
L 319 0 
z
" transform="scale(0.015625)"/>
     </defs>
     <use xlink:href="#Cmmi10-15" transform="translate(0 0.892016)"/>
     <use xlink:href="#Cmr10-31" transform="translate(57.080078 -14.107946) scale(0.7)"/>
     <use xlink:href="#Cmmi10-60" transform="translate(97.800494 0.892016)"/>
     <use xlink:href="#Cmr10-31" transform="translate(154.978228 -14.107946) scale(0.7)"/>
     <use xlink:href="#Cmmi10-38" transform="translate(195.698643 0.892016)"/>
     <use xlink:href="#Cmmi10-78" transform="translate(255.367185 42.18125) scale(0.7)"/>
     <use xlink:href="#Cmr10-31" transform="translate(244.087315 -29.445312) scale(0.7)"/>
    </g>
   </g>
   <g id="text_9">
    <!-- $u_2$ -->
    <g style="fill: #1e88ff" transform="translate(259.81 200.995919) scale(0.14 -0.14)">
     <use xlink:href="#Cmmi10-60" transform="translate(0 0.8125)"/>
     <use xlink:href="#Cmr10-31" transform="translate(57.177734 -14.187462) scale(0.7)"/>
    </g>
   </g>
   <g id="text_10">
    <!-- $\sigma_2$ -->
    <g style="fill: #f2aa00" transform="translate(303.47 144.41225) scale(0.16 -0.16)">
     <use xlink:href="#Cmmi10-15" transform="translate(0 0.890625)"/>
     <use xlink:href="#Cmr10-31" transform="translate(57.080078 -14.109337) scale(0.7)"/>
    </g>
   </g>
   <g id="text_11">
    <!-- 318 -->
    <g style="fill: #666666" transform="translate(299.8575 166.103587) scale(0.12 -0.12)">
     <defs>
      <path id="DejaVuSerif-16" d="M 622 4469 
Q 988 4606 1323 4678 
Q 1659 4750 1953 4750 
Q 2638 4750 3022 4454 
Q 3406 4159 3406 3634 
Q 3406 3213 3140 2930 
Q 2875 2647 2388 2547 
Q 2963 2466 3280 2130 
Q 3597 1794 3597 1259 
Q 3597 606 3158 257 
Q 2719 -91 1894 -91 
Q 1528 -91 1179 -12 
Q 831 66 488 225 
L 488 1131 
L 838 1131 
Q 869 681 1141 450 
Q 1413 219 1906 219 
Q 2384 219 2661 495 
Q 2938 772 2938 1253 
Q 2938 1803 2653 2086 
Q 2369 2369 1819 2369 
L 1522 2369 
L 1522 2688 
L 1678 2688 
Q 2225 2688 2498 2914 
Q 2772 3141 2772 3597 
Q 2772 4006 2547 4223 
Q 2322 4441 1900 4441 
Q 1478 4441 1245 4241 
Q 1013 4041 972 3647 
L 622 3647 
L 622 4469 
z
" transform="scale(0.015625)"/>
     </defs>
     <use xlink:href="#DejaVuSerif-16"/>
     <use xlink:href="#DejaVuSerif-14" transform="translate(63.625 0)"/>
     <use xlink:href="#DejaVuSerif-1b" transform="translate(127.25 0)"/>
    </g>
   </g>
   <g id="text_12">
    <!-- $v_2^T$ -->
    <g style="fill: #16a34a" transform="translate(355.714 168.2252) scale(0.14 -0.14)">
     <use xlink:href="#Cmmi10-38" transform="translate(0 0.892016)"/>
     <use xlink:href="#Cmmi10-78" transform="translate(59.668541 42.18125) scale(0.7)"/>
     <use xlink:href="#Cmr10-31" transform="translate(48.388672 -29.445312) scale(0.7)"/>
    </g>
   </g>
   <g id="text_13">
    <!-- ergibt eine Rang-1-Matrix -->
    <g style="fill: #666666" transform="translate(247.131 211.564856) scale(0.12 -0.12)">
     <use xlink:href="#DejaVuSerif-48"/>
     <use xlink:href="#DejaVuSerif-55" transform="translate(59.1875 0)"/>
     <use xlink:href="#DejaVuSerif-4a" transform="translate(106.984375 0)"/>
     <use xlink:href="#DejaVuSerif-4c" transform="translate(171 0)"/>
     <use xlink:href="#DejaVuSerif-45" transform="translate(202.984375 0)"/>
     <use xlink:href="#DejaVuSerif-57" transform="translate(267 0)"/>
     <use xlink:href="#DejaVuSerif-3" transform="translate(307.1875 0)"/>
     <use xlink:href="#DejaVuSerif-48" transform="translate(338.96875 0)"/>
     <use xlink:href="#DejaVuSerif-4c" transform="translate(398.15625 0)"/>
     <use xlink:href="#DejaVuSerif-51" transform="translate(430.140625 0)"/>
     <use xlink:href="#DejaVuSerif-48" transform="translate(494.546875 0)"/>
     <use xlink:href="#DejaVuSerif-3" transform="translate(553.734375 0)"/>
     <use xlink:href="#DejaVuSerif-35" transform="translate(585.515625 0)"/>
     <use xlink:href="#DejaVuSerif-44" transform="translate(663.109375 0)"/>
     <use xlink:href="#DejaVuSerif-51" transform="translate(722.734375 0)"/>
     <use xlink:href="#DejaVuSerif-4a" transform="translate(787.140625 0)"/>
     <use xlink:href="#DejaVuSerif-10" transform="translate(851.15625 0)"/>
     <use xlink:href="#DejaVuSerif-14" transform="translate(884.953125 0)"/>
     <use xlink:href="#DejaVuSerif-10" transform="translate(948.578125 0)"/>
     <use xlink:href="#DejaVuSerif-30" transform="translate(982.375 0)"/>
     <use xlink:href="#DejaVuSerif-44" transform="translate(1084.765625 0)"/>
     <use xlink:href="#DejaVuSerif-57" transform="translate(1144.390625 0)"/>
     <use xlink:href="#DejaVuSerif-55" transform="translate(1184.578125 0)"/>
     <use xlink:href="#DejaVuSerif-4c" transform="translate(1232.375 0)"/>
     <use xlink:href="#DejaVuSerif-5b" transform="translate(1264.359375 0)"/>
    </g>
   </g>
   <g id="text_14">
    <!-- $\sigma_3u_3v_3^T$ -->
    <g style="fill: #111111" transform="translate(502.866 69.5232) scale(0.18 -0.18)">
     <defs>
      <path id="Cmr10-6e" d="M 609 494 
Q 759 275 1012 169 
Q 1266 63 1556 63 
Q 1928 63 2084 380 
Q 2241 697 2241 1100 
Q 2241 1281 2208 1462 
Q 2175 1644 2097 1800 
Q 2019 1956 1883 2050 
Q 1747 2144 1550 2144 
L 1125 2144 
Q 1069 2144 1069 2203 
L 1069 2259 
Q 1069 2309 1125 2309 
L 1478 2338 
Q 1703 2338 1851 2506 
Q 2000 2675 2069 2917 
Q 2138 3159 2138 3378 
Q 2138 3684 1994 3881 
Q 1850 4078 1556 4078 
Q 1313 4078 1091 3986 
Q 869 3894 738 3706 
Q 750 3709 759 3711 
Q 769 3713 781 3713 
Q 925 3713 1022 3613 
Q 1119 3513 1119 3372 
Q 1119 3234 1022 3134 
Q 925 3034 781 3034 
Q 641 3034 541 3134 
Q 441 3234 441 3372 
Q 441 3647 606 3850 
Q 772 4053 1033 4158 
Q 1294 4263 1556 4263 
Q 1750 4263 1965 4205 
Q 2181 4147 2356 4039 
Q 2531 3931 2642 3762 
Q 2753 3594 2753 3378 
Q 2753 3109 2633 2881 
Q 2513 2653 2303 2487 
Q 2094 2322 1844 2241 
Q 2122 2188 2372 2031 
Q 2622 1875 2773 1631 
Q 2925 1388 2925 1106 
Q 2925 753 2731 467 
Q 2538 181 2222 20 
Q 1906 -141 1556 -141 
Q 1256 -141 954 -26 
Q 653 88 461 316 
Q 269 544 269 863 
Q 269 1022 375 1128 
Q 481 1234 641 1234 
Q 744 1234 830 1186 
Q 916 1138 964 1050 
Q 1013 963 1013 863 
Q 1013 706 903 600 
Q 794 494 641 494 
L 609 494 
z
" transform="scale(0.015625)"/>
     </defs>
     <use xlink:href="#Cmmi10-15" transform="translate(0 0.892016)"/>
     <use xlink:href="#Cmr10-6e" transform="translate(57.080078 -14.107946) scale(0.7)"/>
     <use xlink:href="#Cmmi10-60" transform="translate(97.800494 0.892016)"/>
     <use xlink:href="#Cmr10-6e" transform="translate(154.978228 -14.107946) scale(0.7)"/>
     <use xlink:href="#Cmmi10-38" transform="translate(195.698643 0.892016)"/>
     <use xlink:href="#Cmmi10-78" transform="translate(255.367185 42.18125) scale(0.7)"/>
     <use xlink:href="#Cmr10-6e" transform="translate(244.087315 -29.445312) scale(0.7)"/>
    </g>
   </g>
   <g id="text_15">
    <!-- $u_3$ -->
    <g style="fill: #1e88ff" transform="translate(463.48 200.995919) scale(0.14 -0.14)">
     <use xlink:href="#Cmmi10-60" transform="translate(0 0.8125)"/>
     <use xlink:href="#Cmr10-6e" transform="translate(57.177734 -14.187462) scale(0.7)"/>
    </g>
   </g>
   <g id="text_16">
    <!-- $\sigma_3$ -->
    <g style="fill: #f2aa00" transform="translate(507.14 144.41225) scale(0.16 -0.16)">
     <use xlink:href="#Cmmi10-15" transform="translate(0 0.890625)"/>
     <use xlink:href="#Cmr10-6e" transform="translate(57.080078 -14.109337) scale(0.7)"/>
    </g>
   </g>
   <g id="text_17">
    <!-- 230 -->
    <g style="fill: #666666" transform="translate(503.5275 166.103587) scale(0.12 -0.12)">
     <defs>
      <path id="DejaVuSerif-13" d="M 2034 219 
Q 2513 219 2750 744 
Q 2988 1269 2988 2328 
Q 2988 3391 2750 3916 
Q 2513 4441 2034 4441 
Q 1556 4441 1318 3916 
Q 1081 3391 1081 2328 
Q 1081 1269 1318 744 
Q 1556 219 2034 219 
z
M 2034 -91 
Q 1275 -91 848 546 
Q 422 1184 422 2328 
Q 422 3475 848 4112 
Q 1275 4750 2034 4750 
Q 2797 4750 3222 4112 
Q 3647 3475 3647 2328 
Q 3647 1184 3222 546 
Q 2797 -91 2034 -91 
z
" transform="scale(0.015625)"/>
     </defs>
     <use xlink:href="#DejaVuSerif-15"/>
     <use xlink:href="#DejaVuSerif-16" transform="translate(63.625 0)"/>
     <use xlink:href="#DejaVuSerif-13" transform="translate(127.25 0)"/>
    </g>
   </g>
   <g id="text_18">
    <!-- $v_3^T$ -->
    <g style="fill: #16a34a" transform="translate(559.384 168.1552) scale(0.14 -0.14)">
     <use xlink:href="#Cmmi10-38" transform="translate(0 0.892016)"/>
     <use xlink:href="#Cmmi10-78" transform="translate(59.668541 42.18125) scale(0.7)"/>
     <use xlink:href="#Cmr10-6e" transform="translate(48.388672 -29.445312) scale(0.7)"/>
    </g>
   </g>
   <g id="text_19">
    <!-- ergibt eine Rang-1-Matrix -->
    <g style="fill: #666666" transform="translate(450.801 211.564856) scale(0.12 -0.12)">
     <use xlink:href="#DejaVuSerif-48"/>
     <use xlink:href="#DejaVuSerif-55" transform="translate(59.1875 0)"/>
     <use xlink:href="#DejaVuSerif-4a" transform="translate(106.984375 0)"/>
     <use xlink:href="#DejaVuSerif-4c" transform="translate(171 0)"/>
     <use xlink:href="#DejaVuSerif-45" transform="translate(202.984375 0)"/>
     <use xlink:href="#DejaVuSerif-57" transform="translate(267 0)"/>
     <use xlink:href="#DejaVuSerif-3" transform="translate(307.1875 0)"/>
     <use xlink:href="#DejaVuSerif-48" transform="translate(338.96875 0)"/>
     <use xlink:href="#DejaVuSerif-4c" transform="translate(398.15625 0)"/>
     <use xlink:href="#DejaVuSerif-51" transform="translate(430.140625 0)"/>
     <use xlink:href="#DejaVuSerif-48" transform="translate(494.546875 0)"/>
     <use xlink:href="#DejaVuSerif-3" transform="translate(553.734375 0)"/>
     <use xlink:href="#DejaVuSerif-35" transform="translate(585.515625 0)"/>
     <use xlink:href="#DejaVuSerif-44" transform="translate(663.109375 0)"/>
     <use xlink:href="#DejaVuSerif-51" transform="translate(722.734375 0)"/>
     <use xlink:href="#DejaVuSerif-4a" transform="translate(787.140625 0)"/>
     <use xlink:href="#DejaVuSerif-10" transform="translate(851.15625 0)"/>
     <use xlink:href="#DejaVuSerif-14" transform="translate(884.953125 0)"/>
     <use xlink:href="#DejaVuSerif-10" transform="translate(948.578125 0)"/>
     <use xlink:href="#DejaVuSerif-30" transform="translate(982.375 0)"/>
     <use xlink:href="#DejaVuSerif-44" transform="translate(1084.765625 0)"/>
     <use xlink:href="#DejaVuSerif-57" transform="translate(1144.390625 0)"/>
     <use xlink:href="#DejaVuSerif-55" transform="translate(1184.578125 0)"/>
     <use xlink:href="#DejaVuSerif-4c" transform="translate(1232.375 0)"/>
     <use xlink:href="#DejaVuSerif-5b" transform="translate(1264.359375 0)"/>
    </g>
   </g>
  </g>
 </g>
 <defs>
  <clipPath id="pa855efe61e">
   <rect x="7.2" y="7.2" width="669.6" height="252.252"/>
  </clipPath>
 </defs>
</svg>
