<?xml version="1.0" encoding="utf-8" standalone="no"?>
<!DOCTYPE svg PUBLIC "-//W3C//DTD SVG 1.1//EN"
  "http://www.w3.org/Graphics/SVG/1.1/DTD/svg11.dtd">
<svg xmlns:xlink="http://www.w3.org/1999/xlink" width="254.34pt" height="190.502752pt" viewBox="0 0 254.34 190.502752" xmlns="http://www.w3.org/2000/svg" version="1.1">
 <metadata>
  <rdf:RDF xmlns:dc="http://purl.org/dc/elements/1.1/" xmlns:cc="http://creativecommons.org/ns#" xmlns:rdf="http://www.w3.org/1999/02/22-rdf-syntax-ns#">
   <cc:Work>
    <dc:type rdf:resource="http://purl.org/dc/dcmitype/StillImage"/>
    <dc:date>2026-06-12T19:40:02.004802</dc:date>
    <dc:format>image/svg+xml</dc:format>
    <dc:creator>
     <cc:Agent>
      <dc:title>Matplotlib v3.11.0, https://matplotlib.org/</dc:title>
     </cc:Agent>
    </dc:creator>
   </cc:Work>
  </rdf:RDF>
 </metadata>
 <defs>
  <style type="text/css">*{stroke-linejoin: round; stroke-linecap: butt}</style>
 </defs>
 <g id="figure_1">
  <g id="patch_1">
   <path d="M 0 190.502752 
L 254.34 190.502752 
L 254.34 0 
L 0 0 
L 0 190.502752 
z
" style="fill: none"/>
  </g>
  <g id="axes_1">
   <g id="patch_2">
    <path d="M 166.983968 58.985412 
C 165.10573 55.452961 162.679416 52.24043 159.795462 49.467562 
C 156.911508 46.694694 153.606198 44.396374 150.002731 42.658268 
C 146.399264 40.920162 142.542976 39.764137 138.577603 39.233282 
C 134.612231 38.702427 130.587662 38.803421 126.653907 39.5325 
C 122.720151 40.261578 118.9267 41.609569 115.414947 43.526227 
C 111.903194 45.442885 108.717321 47.904097 105.976076 50.818126 
C 103.234832 53.732155 100.972703 57.062339 99.274007 60.684551 
C 97.575311 64.306763 96.46142 68.175432 95.973851 72.146359 
C 95.486283 76.117286 95.631171 80.140514 96.403116 84.066082 
C 97.175061 87.991651 98.56435 91.770173 100.519201 95.260809 
C 102.474051 98.751446 104.969869 101.910283 107.913626 104.619578 
C 110.857384 107.328873 114.212045 109.554541 117.852571 111.213624 
C 121.493097 112.872708 125.373686 113.944333 129.349696 114.388557 
C 133.325705 114.832782 137.347113 114.644016 141.264027 113.829297 
C 145.180942 113.014577 148.944085 111.584154 152.41319 109.591344 
C 155.882295 107.598533 159.013719 105.068407 161.690742 102.095272 
" clip-path="url(#p36cfca6bf4)" style="fill: none; stroke: #111111; stroke-width: 4.6; stroke-linejoin: miter"/>
   </g>
   <g id="patch_3">
    <path d="M 160.612755 99.628686 
Q 163.490673 102.074916 162.449969 101.190318 
" clip-path="url(#p36cfca6bf4)" style="fill: none; stroke: #111111; stroke-width: 4.6; stroke-linecap: round"/>
    <path d="M 157.718326 90.081243 
L 162.449969 101.190318 
L 150.723723 98.310187 
z
" clip-path="url(#p36cfca6bf4)" style="fill: #111111; stroke: #111111; stroke-width: 4.6; stroke-linecap: round"/>
   </g>
   <g id="patch_4">
    <path d="M 89.413477 151.604257 
Q 148.085485 151.604257 206.757493 151.604257 
" clip-path="url(#p36cfca6bf4)" style="fill: none; stroke: #111111; stroke-width: 4.8; stroke-linecap: round"/>
    <path d="M 98.213477 156.004257 
L 89.413477 151.604257 
L 98.213477 147.204257 
z
" clip-path="url(#p36cfca6bf4)" style="fill: #111111; stroke: #111111; stroke-width: 4.8; stroke-linecap: round"/>
    <path d="M 197.957493 147.204257 
L 206.757493 151.604257 
L 197.957493 156.004257 
z
" clip-path="url(#p36cfca6bf4)" style="fill: #111111; stroke: #111111; stroke-width: 4.8; stroke-linecap: round"/>
   </g>
   <g id="patch_5">
    <path d="M 220.724587 134.109348 
Q 220.724587 88.647529 220.724587 43.18571 
" clip-path="url(#p36cfca6bf4)" style="fill: none; stroke: #111111; stroke-width: 4.8; stroke-linecap: round"/>
    <path d="M 225.124587 125.309348 
L 220.724587 134.109348 
L 216.324587 125.309348 
z
" clip-path="url(#p36cfca6bf4)" style="fill: #111111; stroke: #111111; stroke-width: 4.8; stroke-linecap: round"/>
    <path d="M 216.324587 51.98571 
L 220.724587 43.18571 
L 225.124587 51.98571 
z
" clip-path="url(#p36cfca6bf4)" style="fill: #111111; stroke: #111111; stroke-width: 4.8; stroke-linecap: round"/>
   </g>
   <g id="text_1">
    <!-- Rotieren -->
    <g style="fill: #666666" transform="translate(11.602569 80.657072) scale(0.15 -0.15)">
     <defs>
      <path id="DejaVuSerif-35" d="M 3066 2316 
Q 3284 2256 3442 2114 
Q 3600 1972 3725 1716 
L 4403 331 
L 4972 331 
L 4972 0 
L 3872 0 
L 3144 1484 
Q 2934 1916 2759 2042 
Q 2584 2169 2278 2169 
L 1581 2169 
L 1581 331 
L 2241 331 
L 2241 0 
L 353 0 
L 353 331 
L 947 331 
L 947 4331 
L 353 4331 
L 353 4666 
L 2719 4666 
Q 3400 4666 3770 4341 
Q 4141 4016 4141 3419 
Q 4141 2938 3870 2661 
Q 3600 2384 3066 2316 
z
M 1581 2503 
L 2503 2503 
Q 2975 2503 3200 2726 
Q 3425 2950 3425 3419 
Q 3425 3888 3200 4109 
Q 2975 4331 2503 4331 
L 1581 4331 
L 1581 2503 
z
" transform="scale(0.015625)"/>
      <path id="DejaVuSerif-52" d="M 1925 219 
Q 2388 219 2623 584 
Q 2859 950 2859 1663 
Q 2859 2375 2623 2739 
Q 2388 3103 1925 3103 
Q 1463 3103 1227 2739 
Q 991 2375 991 1663 
Q 991 950 1228 584 
Q 1466 219 1925 219 
z
M 1925 -91 
Q 1200 -91 759 389 
Q 319 869 319 1663 
Q 319 2456 758 2934 
Q 1197 3413 1925 3413 
Q 2653 3413 3092 2934 
Q 3531 2456 3531 1663 
Q 3531 869 3092 389 
Q 2653 -91 1925 -91 
z
" transform="scale(0.015625)"/>
      <path id="DejaVuSerif-57" d="M 691 2988 
L 184 2988 
L 184 3322 
L 691 3322 
L 691 4353 
L 1269 4353 
L 1269 3322 
L 2350 3322 
L 2350 2988 
L 1269 2988 
L 1269 878 
Q 1269 456 1350 337 
Q 1431 219 1650 219 
Q 1875 219 1978 351 
Q 2081 484 2088 781 
L 2522 781 
Q 2497 328 2275 118 
Q 2053 -91 1600 -91 
Q 1103 -91 897 129 
Q 691 350 691 878 
L 691 2988 
z
" transform="scale(0.015625)"/>
      <path id="DejaVuSerif-4c" d="M 622 4353 
Q 622 4497 726 4603 
Q 831 4709 978 4709 
Q 1122 4709 1226 4603 
Q 1331 4497 1331 4353 
Q 1331 4206 1228 4103 
Q 1125 4000 978 4000 
Q 831 4000 726 4103 
Q 622 4206 622 4353 
z
M 1356 331 
L 1900 331 
L 1900 0 
L 231 0 
L 231 331 
L 781 331 
L 781 2988 
L 231 2988 
L 231 3322 
L 1356 3322 
L 1356 331 
z
" transform="scale(0.015625)"/>
      <path id="DejaVuSerif-48" d="M 3469 1600 
L 991 1600 
L 991 1575 
Q 991 903 1244 561 
Q 1497 219 1991 219 
Q 2369 219 2611 417 
Q 2853 616 2950 1006 
L 3413 1006 
Q 3275 459 2904 184 
Q 2534 -91 1931 -91 
Q 1203 -91 761 389 
Q 319 869 319 1663 
Q 319 2450 753 2931 
Q 1188 3413 1894 3413 
Q 2647 3413 3050 2948 
Q 3453 2484 3469 1600 
z
M 2791 1931 
Q 2772 2513 2545 2808 
Q 2319 3103 1894 3103 
Q 1497 3103 1269 2806 
Q 1041 2509 991 1931 
L 2791 1931 
z
" transform="scale(0.015625)"/>
      <path id="DejaVuSerif-55" d="M 3059 3328 
L 3059 2497 
L 2728 2497 
Q 2713 2744 2591 2866 
Q 2469 2988 2234 2988 
Q 1809 2988 1582 2694 
Q 1356 2400 1356 1850 
L 1356 331 
L 2022 331 
L 2022 0 
L 263 0 
L 263 331 
L 781 331 
L 781 2994 
L 231 2994 
L 231 3322 
L 1356 3322 
L 1356 2731 
Q 1525 3078 1790 3245 
Q 2056 3413 2438 3413 
Q 2578 3413 2733 3391 
Q 2888 3369 3059 3328 
z
" transform="scale(0.015625)"/>
      <path id="DejaVuSerif-51" d="M 263 0 
L 263 331 
L 781 331 
L 781 2988 
L 231 2988 
L 231 3322 
L 1356 3322 
L 1356 2731 
Q 1516 3069 1770 3241 
Q 2025 3413 2363 3413 
Q 2913 3413 3172 3097 
Q 3431 2781 3431 2113 
L 3431 331 
L 3944 331 
L 3944 0 
L 2356 0 
L 2356 331 
L 2853 331 
L 2853 1931 
Q 2853 2541 2703 2767 
Q 2553 2994 2175 2994 
Q 1775 2994 1565 2701 
Q 1356 2409 1356 1850 
L 1356 331 
L 1856 331 
L 1856 0 
L 263 0 
z
" transform="scale(0.015625)"/>
     </defs>
     <use xlink:href="#DejaVuSerif-35"/>
     <use xlink:href="#DejaVuSerif-52" transform="translate(75.296875 0)"/>
     <use xlink:href="#DejaVuSerif-57" transform="translate(135.5 0)"/>
     <use xlink:href="#DejaVuSerif-4c" transform="translate(175.6875 0)"/>
     <use xlink:href="#DejaVuSerif-48" transform="translate(207.671875 0)"/>
     <use xlink:href="#DejaVuSerif-55" transform="translate(266.859375 0)"/>
     <use xlink:href="#DejaVuSerif-48" transform="translate(314.65625 0)"/>
     <use xlink:href="#DejaVuSerif-51" transform="translate(373.84375 0)"/>
    </g>
   </g>
   <g id="text_2">
    <!-- Skalieren -->
    <g style="fill: #666666" transform="translate(111.83728 175.378128) scale(0.15 -0.15)">
     <defs>
      <path id="DejaVuSerif-36" d="M 594 225 
L 594 1288 
L 953 1284 
Q 969 753 1261 498 
Q 1553 244 2150 244 
Q 2706 244 2998 464 
Q 3291 684 3291 1106 
Q 3291 1444 3114 1625 
Q 2938 1806 2369 1978 
L 1753 2163 
Q 1084 2366 811 2669 
Q 538 2972 538 3500 
Q 538 4094 959 4422 
Q 1381 4750 2144 4750 
Q 2469 4750 2856 4679 
Q 3244 4609 3681 4475 
L 3681 3481 
L 3328 3481 
Q 3275 3975 2998 4195 
Q 2722 4416 2156 4416 
Q 1663 4416 1405 4214 
Q 1147 4013 1147 3628 
Q 1147 3294 1340 3103 
Q 1534 2913 2163 2725 
L 2741 2553 
Q 3375 2363 3645 2067 
Q 3916 1772 3916 1275 
Q 3916 597 3481 253 
Q 3047 -91 2188 -91 
Q 1803 -91 1404 -12 
Q 1006 66 594 225 
z
" transform="scale(0.015625)"/>
      <path id="DejaVuSerif-4e" d="M 1831 0 
L 219 0 
L 219 331 
L 738 331 
L 738 4531 
L 184 4531 
L 184 4863 
L 1313 4863 
L 1313 1697 
L 2713 2988 
L 2234 2988 
L 2234 3322 
L 3738 3322 
L 3738 2988 
L 3169 2988 
L 2181 2075 
L 3444 331 
L 3922 331 
L 3922 0 
L 2284 0 
L 2284 331 
L 2759 331 
L 1766 1697 
L 1313 1275 
L 1313 331 
L 1831 331 
L 1831 0 
z
" transform="scale(0.015625)"/>
      <path id="DejaVuSerif-44" d="M 2547 1044 
L 2547 1747 
L 1806 1747 
Q 1378 1747 1168 1562 
Q 959 1378 959 997 
Q 959 650 1171 447 
Q 1384 244 1747 244 
Q 2106 244 2326 466 
Q 2547 688 2547 1044 
z
M 3122 2075 
L 3122 331 
L 3634 331 
L 3634 0 
L 2547 0 
L 2547 359 
Q 2356 128 2106 18 
Q 1856 -91 1522 -91 
Q 969 -91 644 203 
Q 319 497 319 997 
Q 319 1513 691 1797 
Q 1063 2081 1741 2081 
L 2547 2081 
L 2547 2309 
Q 2547 2688 2317 2895 
Q 2088 3103 1672 3103 
Q 1328 3103 1125 2947 
Q 922 2791 872 2484 
L 575 2484 
L 575 3156 
Q 875 3284 1158 3348 
Q 1441 3413 1709 3413 
Q 2400 3413 2761 3070 
Q 3122 2728 3122 2075 
z
" transform="scale(0.015625)"/>
      <path id="DejaVuSerif-4f" d="M 1313 331 
L 1856 331 
L 1856 0 
L 184 0 
L 184 331 
L 738 331 
L 738 4531 
L 184 4531 
L 184 4863 
L 1313 4863 
L 1313 331 
z
" transform="scale(0.015625)"/>
     </defs>
     <use xlink:href="#DejaVuSerif-36"/>
     <use xlink:href="#DejaVuSerif-4e" transform="translate(68.5 0)"/>
     <use xlink:href="#DejaVuSerif-44" transform="translate(129.09375 0)"/>
     <use xlink:href="#DejaVuSerif-4f" transform="translate(188.71875 0)"/>
     <use xlink:href="#DejaVuSerif-4c" transform="translate(220.703125 0)"/>
     <use xlink:href="#DejaVuSerif-48" transform="translate(252.6875 0)"/>
     <use xlink:href="#DejaVuSerif-55" transform="translate(311.875 0)"/>
     <use xlink:href="#DejaVuSerif-48" transform="translate(359.671875 0)"/>
     <use xlink:href="#DejaVuSerif-51" transform="translate(418.859375 0)"/>
    </g>
   </g>
  </g>
 </g>
 <defs>
  <clipPath id="p36cfca6bf4">
   <rect x="7.2" y="7.2" width="239.94" height="176.102752"/>
  </clipPath>
 </defs>
</svg>
