<?xml version="1.0" encoding="utf-8" standalone="no"?>
<!DOCTYPE svg PUBLIC "-//W3C//DTD SVG 1.1//EN"
  "http://www.w3.org/Graphics/SVG/1.1/DTD/svg11.dtd">
<svg xmlns:xlink="http://www.w3.org/1999/xlink" width="650.52pt" height="230.616pt" viewBox="0 0 650.52 230.616" xmlns="http://www.w3.org/2000/svg" version="1.1">
 <metadata>
  <rdf:RDF xmlns:dc="http://purl.org/dc/elements/1.1/" xmlns:cc="http://creativecommons.org/ns#" xmlns:rdf="http://www.w3.org/1999/02/22-rdf-syntax-ns#">
   <cc:Work>
    <dc:type rdf:resource="http://purl.org/dc/dcmitype/StillImage"/>
    <dc:date>2026-06-15T01:04:51.724743</dc:date>
    <dc:format>image/svg+xml</dc:format>
    <dc:creator>
     <cc:Agent>
      <dc:title>Matplotlib v3.11.0, https://matplotlib.org/</dc:title>
     </cc:Agent>
    </dc:creator>
   </cc:Work>
  </rdf:RDF>
 </metadata>
 <defs>
  <style type="text/css">*{stroke-linejoin: round; stroke-linecap: butt}</style>
 </defs>
 <g id="figure_1">
  <g id="patch_1">
   <path d="M 0 230.616 
L 650.52 230.616 
L 650.52 0 
L 0 0 
L 0 230.616 
z
" style="fill: none"/>
  </g>
  <g id="axes_1">
   <g id="patch_2">
    <path d="M 35.1 67.0752 
L 56.304 67.0752 
L 56.304 47.1168 
L 35.1 47.1168 
z
" clip-path="url(#p360b866f17)" style="fill: #ffffff; stroke: #111111; stroke-width: 1.05; stroke-linejoin: miter"/>
   </g>
   <g id="patch_3">
    <path d="M 56.304 67.0752 
L 77.508 67.0752 
L 77.508 47.1168 
L 56.304 47.1168 
z
" clip-path="url(#p360b866f17)" style="fill: #ffffff; stroke: #111111; stroke-width: 1.05; stroke-linejoin: miter"/>
   </g>
   <g id="patch_4">
    <path d="M 77.508 67.0752 
L 98.712 67.0752 
L 98.712 47.1168 
L 77.508 47.1168 
z
" clip-path="url(#p360b866f17)" style="fill: #ffffff; stroke: #111111; stroke-width: 1.05; stroke-linejoin: miter"/>
   </g>
   <g id="patch_5">
    <path d="M 98.712 67.0752 
L 119.916 67.0752 
L 119.916 47.1168 
L 98.712 47.1168 
z
" clip-path="url(#p360b866f17)" style="fill: #ffffff; stroke: #111111; stroke-width: 1.05; stroke-linejoin: miter"/>
   </g>
   <g id="patch_6">
    <path d="M 35.1 87.0336 
L 56.304 87.0336 
L 56.304 67.0752 
L 35.1 67.0752 
z
" clip-path="url(#p360b866f17)" style="fill: #ffffff; stroke: #111111; stroke-width: 1.05; stroke-linejoin: miter"/>
   </g>
   <g id="patch_7">
    <path d="M 56.304 87.0336 
L 77.508 87.0336 
L 77.508 67.0752 
L 56.304 67.0752 
z
" clip-path="url(#p360b866f17)" style="fill: #ffffff; stroke: #111111; stroke-width: 1.05; stroke-linejoin: miter"/>
   </g>
   <g id="patch_8">
    <path d="M 77.508 87.0336 
L 98.712 87.0336 
L 98.712 67.0752 
L 77.508 67.0752 
z
" clip-path="url(#p360b866f17)" style="fill: #ffffff; stroke: #111111; stroke-width: 1.05; stroke-linejoin: miter"/>
   </g>
   <g id="patch_9">
    <path d="M 98.712 87.0336 
L 119.916 87.0336 
L 119.916 67.0752 
L 98.712 67.0752 
z
" clip-path="url(#p360b866f17)" style="fill: #ffffff; stroke: #111111; stroke-width: 1.05; stroke-linejoin: miter"/>
   </g>
   <g id="patch_10">
    <path d="M 35.1 106.992 
L 56.304 106.992 
L 56.304 87.0336 
L 35.1 87.0336 
z
" clip-path="url(#p360b866f17)" style="fill: #ffffff; stroke: #111111; stroke-width: 1.05; stroke-linejoin: miter"/>
   </g>
   <g id="patch_11">
    <path d="M 56.304 106.992 
L 77.508 106.992 
L 77.508 87.0336 
L 56.304 87.0336 
z
" clip-path="url(#p360b866f17)" style="fill: #ffffff; stroke: #111111; stroke-width: 1.05; stroke-linejoin: miter"/>
   </g>
   <g id="patch_12">
    <path d="M 77.508 106.992 
L 98.712 106.992 
L 98.712 87.0336 
L 77.508 87.0336 
z
" clip-path="url(#p360b866f17)" style="fill: #ffffff; stroke: #111111; stroke-width: 1.05; stroke-linejoin: miter"/>
   </g>
   <g id="patch_13">
    <path d="M 98.712 106.992 
L 119.916 106.992 
L 119.916 87.0336 
L 98.712 87.0336 
z
" clip-path="url(#p360b866f17)" style="fill: #ffffff; stroke: #111111; stroke-width: 1.05; stroke-linejoin: miter"/>
   </g>
   <g id="patch_14">
    <path d="M 35.1 126.9504 
L 56.304 126.9504 
L 56.304 106.992 
L 35.1 106.992 
z
" clip-path="url(#p360b866f17)" style="fill: #ffffff; stroke: #111111; stroke-width: 1.05; stroke-linejoin: miter"/>
   </g>
   <g id="patch_15">
    <path d="M 56.304 126.9504 
L 77.508 126.9504 
L 77.508 106.992 
L 56.304 106.992 
z
" clip-path="url(#p360b866f17)" style="fill: #ffffff; stroke: #111111; stroke-width: 1.05; stroke-linejoin: miter"/>
   </g>
   <g id="patch_16">
    <path d="M 77.508 126.9504 
L 98.712 126.9504 
L 98.712 106.992 
L 77.508 106.992 
z
" clip-path="url(#p360b866f17)" style="fill: #ffffff; stroke: #111111; stroke-width: 1.05; stroke-linejoin: miter"/>
   </g>
   <g id="patch_17">
    <path d="M 98.712 126.9504 
L 119.916 126.9504 
L 119.916 106.992 
L 98.712 106.992 
z
" clip-path="url(#p360b866f17)" style="fill: #ffffff; stroke: #111111; stroke-width: 1.05; stroke-linejoin: miter"/>
   </g>
   <g id="patch_18">
    <path d="M 175.158 161.6004 
L 294.012 161.6004 
Q 296.523 161.6004 296.523 159.1056 
L 296.523 52.1064 
Q 296.523 49.6116 294.012 49.6116 
L 175.158 49.6116 
Q 172.647 49.6116 172.647 52.1064 
L 172.647 159.1056 
Q 172.647 161.6004 175.158 161.6004 
L 175.158 161.6004 
z
" clip-path="url(#p360b866f17)" style="fill: none; stroke: #d6d6d6; stroke-width: 1.35; stroke-linejoin: miter"/>
   </g>
   <g id="patch_19">
    <path d="M 187.434 80.3808 
L 201.942 80.3808 
L 201.942 64.8576 
L 187.434 64.8576 
L 187.434 80.3808 
z
" clip-path="url(#p360b866f17)" style="fill: none; stroke: #1e88ff; stroke-width: 1.05; stroke-linejoin: miter"/>
   </g>
   <g id="patch_20">
    <path d="M 187.434 95.904 
L 201.942 95.904 
L 201.942 80.3808 
L 187.434 80.3808 
L 187.434 95.904 
z
" clip-path="url(#p360b866f17)" style="fill: none; stroke: #1e88ff; stroke-width: 1.05; stroke-linejoin: miter"/>
   </g>
   <g id="patch_21">
    <path d="M 187.434 111.4272 
L 201.942 111.4272 
L 201.942 95.904 
L 187.434 95.904 
L 187.434 111.4272 
z
" clip-path="url(#p360b866f17)" style="fill: none; stroke: #1e88ff; stroke-width: 1.05; stroke-linejoin: miter"/>
   </g>
   <g id="patch_22">
    <path d="M 187.434 126.9504 
L 201.942 126.9504 
L 201.942 111.4272 
L 187.434 111.4272 
L 187.434 126.9504 
z
" clip-path="url(#p360b866f17)" style="fill: none; stroke: #1e88ff; stroke-width: 1.05; stroke-linejoin: miter"/>
   </g>
   <g id="patch_23">
    <path d="M 237.096 114.7536 
L 251.604 114.7536 
L 251.604 99.2304 
L 237.096 99.2304 
L 237.096 114.7536 
z
" clip-path="url(#p360b866f17)" style="fill: none; stroke: #16a34a; stroke-width: 1.05; stroke-linejoin: miter"/>
   </g>
   <g id="patch_24">
    <path d="M 251.604 114.7536 
L 266.112 114.7536 
L 266.112 99.2304 
L 251.604 99.2304 
L 251.604 114.7536 
z
" clip-path="url(#p360b866f17)" style="fill: none; stroke: #16a34a; stroke-width: 1.05; stroke-linejoin: miter"/>
   </g>
   <g id="patch_25">
    <path d="M 266.112 114.7536 
L 280.62 114.7536 
L 280.62 99.2304 
L 266.112 99.2304 
L 266.112 114.7536 
z
" clip-path="url(#p360b866f17)" style="fill: none; stroke: #16a34a; stroke-width: 1.05; stroke-linejoin: miter"/>
   </g>
   <g id="patch_26">
    <path d="M 280.62 114.7536 
L 295.128 114.7536 
L 295.128 99.2304 
L 280.62 99.2304 
L 280.62 114.7536 
z
" clip-path="url(#p360b866f17)" style="fill: none; stroke: #16a34a; stroke-width: 1.05; stroke-linejoin: miter"/>
   </g>
   <g id="patch_27">
    <path d="M 338.094 161.6004 
L 456.948 161.6004 
Q 459.459 161.6004 459.459 159.1056 
L 459.459 52.1064 
Q 459.459 49.6116 456.948 49.6116 
L 338.094 49.6116 
Q 335.583 49.6116 335.583 52.1064 
L 335.583 159.1056 
Q 335.583 161.6004 338.094 161.6004 
L 338.094 161.6004 
z
" clip-path="url(#p360b866f17)" style="fill: none; stroke: #d6d6d6; stroke-width: 1.35; stroke-linejoin: miter"/>
   </g>
   <g id="patch_28">
    <path d="M 350.37 80.3808 
L 364.878 80.3808 
L 364.878 64.8576 
L 350.37 64.8576 
L 350.37 80.3808 
z
" clip-path="url(#p360b866f17)" style="fill: none; stroke: #1e88ff; stroke-width: 1.05; stroke-linejoin: miter"/>
   </g>
   <g id="patch_29">
    <path d="M 350.37 95.904 
L 364.878 95.904 
L 364.878 80.3808 
L 350.37 80.3808 
L 350.37 95.904 
z
" clip-path="url(#p360b866f17)" style="fill: none; stroke: #1e88ff; stroke-width: 1.05; stroke-linejoin: miter"/>
   </g>
   <g id="patch_30">
    <path d="M 350.37 111.4272 
L 364.878 111.4272 
L 364.878 95.904 
L 350.37 95.904 
L 350.37 111.4272 
z
" clip-path="url(#p360b866f17)" style="fill: none; stroke: #1e88ff; stroke-width: 1.05; stroke-linejoin: miter"/>
   </g>
   <g id="patch_31">
    <path d="M 350.37 126.9504 
L 364.878 126.9504 
L 364.878 111.4272 
L 350.37 111.4272 
L 350.37 126.9504 
z
" clip-path="url(#p360b866f17)" style="fill: none; stroke: #1e88ff; stroke-width: 1.05; stroke-linejoin: miter"/>
   </g>
   <g id="patch_32">
    <path d="M 400.032 114.7536 
L 414.54 114.7536 
L 414.54 99.2304 
L 400.032 99.2304 
L 400.032 114.7536 
z
" clip-path="url(#p360b866f17)" style="fill: none; stroke: #16a34a; stroke-width: 1.05; stroke-linejoin: miter"/>
   </g>
   <g id="patch_33">
    <path d="M 414.54 114.7536 
L 429.048 114.7536 
L 429.048 99.2304 
L 414.54 99.2304 
L 414.54 114.7536 
z
" clip-path="url(#p360b866f17)" style="fill: none; stroke: #16a34a; stroke-width: 1.05; stroke-linejoin: miter"/>
   </g>
   <g id="patch_34">
    <path d="M 429.048 114.7536 
L 443.556 114.7536 
L 443.556 99.2304 
L 429.048 99.2304 
L 429.048 114.7536 
z
" clip-path="url(#p360b866f17)" style="fill: none; stroke: #16a34a; stroke-width: 1.05; stroke-linejoin: miter"/>
   </g>
   <g id="patch_35">
    <path d="M 443.556 114.7536 
L 458.064 114.7536 
L 458.064 99.2304 
L 443.556 99.2304 
L 443.556 114.7536 
z
" clip-path="url(#p360b866f17)" style="fill: none; stroke: #16a34a; stroke-width: 1.05; stroke-linejoin: miter"/>
   </g>
   <g id="patch_36">
    <path d="M 501.03 161.6004 
L 619.884 161.6004 
Q 622.395 161.6004 622.395 159.1056 
L 622.395 52.1064 
Q 622.395 49.6116 619.884 49.6116 
L 501.03 49.6116 
Q 498.519 49.6116 498.519 52.1064 
L 498.519 159.1056 
Q 498.519 161.6004 501.03 161.6004 
L 501.03 161.6004 
z
" clip-path="url(#p360b866f17)" style="fill: none; stroke: #d6d6d6; stroke-width: 1.35; stroke-linejoin: miter"/>
   </g>
   <g id="patch_37">
    <path d="M 513.306 80.3808 
L 527.814 80.3808 
L 527.814 64.8576 
L 513.306 64.8576 
L 513.306 80.3808 
z
" clip-path="url(#p360b866f17)" style="fill: none; stroke: #1e88ff; stroke-width: 1.05; stroke-linejoin: miter"/>
   </g>
   <g id="patch_38">
    <path d="M 513.306 95.904 
L 527.814 95.904 
L 527.814 80.3808 
L 513.306 80.3808 
L 513.306 95.904 
z
" clip-path="url(#p360b866f17)" style="fill: none; stroke: #1e88ff; stroke-width: 1.05; stroke-linejoin: miter"/>
   </g>
   <g id="patch_39">
    <path d="M 513.306 111.4272 
L 527.814 111.4272 
L 527.814 95.904 
L 513.306 95.904 
L 513.306 111.4272 
z
" clip-path="url(#p360b866f17)" style="fill: none; stroke: #1e88ff; stroke-width: 1.05; stroke-linejoin: miter"/>
   </g>
   <g id="patch_40">
    <path d="M 513.306 126.9504 
L 527.814 126.9504 
L 527.814 111.4272 
L 513.306 111.4272 
L 513.306 126.9504 
z
" clip-path="url(#p360b866f17)" style="fill: none; stroke: #1e88ff; stroke-width: 1.05; stroke-linejoin: miter"/>
   </g>
   <g id="patch_41">
    <path d="M 562.968 114.7536 
L 577.476 114.7536 
L 577.476 99.2304 
L 562.968 99.2304 
L 562.968 114.7536 
z
" clip-path="url(#p360b866f17)" style="fill: none; stroke: #16a34a; stroke-width: 1.05; stroke-linejoin: miter"/>
   </g>
   <g id="patch_42">
    <path d="M 577.476 114.7536 
L 591.984 114.7536 
L 591.984 99.2304 
L 577.476 99.2304 
L 577.476 114.7536 
z
" clip-path="url(#p360b866f17)" style="fill: none; stroke: #16a34a; stroke-width: 1.05; stroke-linejoin: miter"/>
   </g>
   <g id="patch_43">
    <path d="M 591.984 114.7536 
L 606.492 114.7536 
L 606.492 99.2304 
L 591.984 99.2304 
L 591.984 114.7536 
z
" clip-path="url(#p360b866f17)" style="fill: none; stroke: #16a34a; stroke-width: 1.05; stroke-linejoin: miter"/>
   </g>
   <g id="patch_44">
    <path d="M 606.492 114.7536 
L 621 114.7536 
L 621 99.2304 
L 606.492 99.2304 
L 606.492 114.7536 
z
" clip-path="url(#p360b866f17)" style="fill: none; stroke: #16a34a; stroke-width: 1.05; stroke-linejoin: miter"/>
   </g>
   <g id="text_1">
    <!-- 3 -->
    <g style="fill: #111111" transform="translate(40.831531 60.732719) scale(0.14 -0.14)">
     <defs>
      <path id="DejaVuSerif-Bold-16" d="M 550 4531 
Q 963 4641 1350 4695 
Q 1738 4750 2106 4750 
Q 2950 4750 3401 4448 
Q 3853 4147 3853 3584 
Q 3853 3163 3593 2900 
Q 3334 2638 2834 2547 
Q 3444 2450 3744 2131 
Q 4044 1813 4044 1259 
Q 4044 606 3526 257 
Q 3009 -91 2028 -91 
Q 1659 -91 1267 -28 
Q 875 34 447 159 
L 447 1184 
L 825 1184 
Q 859 741 1103 508 
Q 1347 275 1778 275 
Q 2253 275 2512 539 
Q 2772 803 2772 1288 
Q 2772 1794 2501 2069 
Q 2231 2344 1734 2344 
L 1528 2344 
L 1528 2719 
L 1691 2719 
Q 2150 2719 2381 2931 
Q 2613 3144 2613 3566 
Q 2613 3963 2395 4173 
Q 2178 4384 1772 4384 
Q 1403 4384 1187 4182 
Q 972 3981 928 3597 
L 550 3597 
L 550 4531 
z
" transform="scale(0.015625)"/>
     </defs>
     <use xlink:href="#DejaVuSerif-Bold-16"/>
    </g>
   </g>
   <g id="text_2">
    <!-- 1 -->
    <g style="fill: #111111" transform="translate(62.035531 60.732719) scale(0.14 -0.14)">
     <defs>
      <path id="DejaVuSerif-Bold-14" d="M 878 0 
L 878 378 
L 1753 378 
L 1753 4153 
L 781 3578 
L 781 4044 
L 1953 4750 
L 2938 4750 
L 2938 378 
L 3816 378 
L 3816 0 
L 878 0 
z
" transform="scale(0.015625)"/>
     </defs>
     <use xlink:href="#DejaVuSerif-Bold-14"/>
    </g>
   </g>
   <g id="text_3">
    <!-- 4 -->
    <g style="fill: #111111" transform="translate(83.239531 60.732719) scale(0.14 -0.14)">
     <defs>
      <path id="DejaVuSerif-Bold-17" d="M 4084 0 
L 1516 0 
L 1516 378 
L 2209 378 
L 2209 1228 
L 263 1228 
L 263 1588 
L 2216 4750 
L 3391 4750 
L 3391 1631 
L 4191 1631 
L 4191 1228 
L 3391 1228 
L 3391 378 
L 4084 378 
L 4084 0 
z
M 2209 1631 
L 2209 3897 
L 819 1631 
L 2209 1631 
z
" transform="scale(0.015625)"/>
     </defs>
     <use xlink:href="#DejaVuSerif-Bold-17"/>
    </g>
   </g>
   <g id="text_4">
    <!-- 1 -->
    <g style="fill: #111111" transform="translate(104.443531 60.732719) scale(0.14 -0.14)">
     <use xlink:href="#DejaVuSerif-Bold-14"/>
    </g>
   </g>
   <g id="text_5">
    <!-- 5 -->
    <g style="fill: #111111" transform="translate(40.831531 80.691119) scale(0.14 -0.14)">
     <defs>
      <path id="DejaVuSerif-Bold-18" d="M 3609 4666 
L 3609 3847 
L 1113 3847 
L 1113 2822 
Q 1319 2981 1572 3062 
Q 1825 3144 2106 3144 
Q 2969 3144 3469 2708 
Q 3969 2272 3969 1522 
Q 3969 759 3469 334 
Q 2969 -91 2069 -91 
Q 1688 -91 1311 -28 
Q 934 34 525 166 
L 525 1184 
L 900 1184 
Q 919 725 1139 500 
Q 1359 275 1791 275 
Q 2250 275 2472 583 
Q 2694 891 2694 1522 
Q 2694 2144 2476 2451 
Q 2259 2759 1819 2759 
Q 1581 2759 1395 2661 
Q 1209 2563 1050 2356 
L 738 2356 
L 738 4666 
L 3609 4666 
z
" transform="scale(0.015625)"/>
     </defs>
     <use xlink:href="#DejaVuSerif-Bold-18"/>
    </g>
   </g>
   <g id="text_6">
    <!-- 9 -->
    <g style="fill: #111111" transform="translate(62.035531 80.691119) scale(0.14 -0.14)">
     <defs>
      <path id="DejaVuSerif-Bold-1c" d="M 2181 4384 
Q 1859 4384 1723 4111 
Q 1588 3838 1588 3163 
Q 1588 2488 1723 2214 
Q 1859 1941 2181 1941 
Q 2503 1941 2640 2214 
Q 2778 2488 2778 3163 
Q 2778 3838 2640 4111 
Q 2503 4384 2181 4384 
z
M 2878 1900 
Q 2672 1734 2420 1651 
Q 2169 1569 1875 1569 
Q 1163 1569 755 1986 
Q 347 2403 347 3138 
Q 347 3913 803 4331 
Q 1259 4750 2106 4750 
Q 3063 4750 3556 4172 
Q 4050 3594 4050 2478 
Q 4050 1206 3503 557 
Q 2956 -91 1881 -91 
Q 1600 -91 1278 -44 
Q 956 3 588 97 
L 588 922 
L 966 922 
Q 1044 603 1261 439 
Q 1478 275 1825 275 
Q 2375 275 2625 658 
Q 2875 1041 2878 1900 
z
" transform="scale(0.015625)"/>
     </defs>
     <use xlink:href="#DejaVuSerif-Bold-1c"/>
    </g>
   </g>
   <g id="text_7">
    <!-- 2 -->
    <g style="fill: #111111" transform="translate(83.239531 80.691119) scale(0.14 -0.14)">
     <defs>
      <path id="DejaVuSerif-Bold-15" d="M 844 3513 
L 469 3513 
L 469 4519 
Q 850 4634 1223 4692 
Q 1597 4750 1978 4750 
Q 2869 4750 3367 4386 
Q 3866 4022 3866 3372 
Q 3866 2909 3591 2542 
Q 3316 2175 2541 1672 
L 1241 819 
L 3450 819 
L 3450 1369 
L 3878 1369 
L 3878 0 
L 428 0 
L 428 763 
L 1119 1241 
Q 2003 1850 2297 2278 
Q 2591 2706 2591 3278 
Q 2591 3819 2367 4101 
Q 2144 4384 1716 4384 
Q 1347 4384 1125 4161 
Q 903 3938 844 3513 
z
" transform="scale(0.015625)"/>
     </defs>
     <use xlink:href="#DejaVuSerif-Bold-15"/>
    </g>
   </g>
   <g id="text_8">
    <!-- 6 -->
    <g style="fill: #111111" transform="translate(104.443531 80.691119) scale(0.14 -0.14)">
     <defs>
      <path id="DejaVuSerif-Bold-19" d="M 1575 2766 
Q 1778 2928 2029 3009 
Q 2281 3091 2578 3091 
Q 3294 3091 3701 2672 
Q 4109 2253 4109 1522 
Q 4109 750 3650 329 
Q 3191 -91 2344 -91 
Q 1388 -91 895 486 
Q 403 1063 403 2181 
Q 403 3453 950 4101 
Q 1497 4750 2572 4750 
Q 2853 4750 3175 4703 
Q 3497 4656 3866 4563 
L 3866 3738 
L 3488 3738 
Q 3409 4056 3192 4220 
Q 2975 4384 2631 4384 
Q 2075 4384 1826 4003 
Q 1578 3622 1575 2766 
z
M 2272 275 
Q 2594 275 2731 548 
Q 2869 822 2869 1497 
Q 2869 2172 2731 2445 
Q 2594 2719 2272 2719 
Q 1950 2719 1814 2445 
Q 1678 2172 1678 1497 
Q 1678 822 1814 548 
Q 1950 275 2272 275 
z
" transform="scale(0.015625)"/>
     </defs>
     <use xlink:href="#DejaVuSerif-Bold-19"/>
    </g>
   </g>
   <g id="text_9">
    <!-- 5 -->
    <g style="fill: #111111" transform="translate(40.831531 100.649519) scale(0.14 -0.14)">
     <use xlink:href="#DejaVuSerif-Bold-18"/>
    </g>
   </g>
   <g id="text_10">
    <!-- 3 -->
    <g style="fill: #111111" transform="translate(62.035531 100.649519) scale(0.14 -0.14)">
     <use xlink:href="#DejaVuSerif-Bold-16"/>
    </g>
   </g>
   <g id="text_11">
    <!-- 5 -->
    <g style="fill: #111111" transform="translate(83.239531 100.649519) scale(0.14 -0.14)">
     <use xlink:href="#DejaVuSerif-Bold-18"/>
    </g>
   </g>
   <g id="text_12">
    <!-- 8 -->
    <g style="fill: #111111" transform="translate(104.443531 100.649519) scale(0.14 -0.14)">
     <defs>
      <path id="DejaVuSerif-Bold-1b" d="M 2975 2484 
Q 3531 2394 3820 2075 
Q 4109 1756 4109 1241 
Q 4109 597 3623 253 
Q 3138 -91 2222 -91 
Q 1306 -91 818 253 
Q 331 597 331 1241 
Q 331 1756 622 2075 
Q 913 2394 1466 2484 
Q 975 2597 731 2861 
Q 488 3125 488 3531 
Q 488 4125 931 4437 
Q 1375 4750 2222 4750 
Q 3066 4750 3511 4437 
Q 3956 4125 3956 3531 
Q 3956 3125 3711 2861 
Q 3466 2597 2975 2484 
z
M 2747 3519 
Q 2747 4013 2628 4198 
Q 2509 4384 2222 4384 
Q 1931 4384 1814 4198 
Q 1697 4013 1697 3519 
Q 1697 3028 1814 2845 
Q 1931 2663 2222 2663 
Q 2513 2663 2630 2845 
Q 2747 3028 2747 3519 
z
M 2869 1294 
Q 2869 1866 2723 2081 
Q 2578 2297 2222 2297 
Q 1863 2297 1719 2081 
Q 1575 1866 1575 1294 
Q 1575 716 1720 495 
Q 1866 275 2222 275 
Q 2575 275 2722 495 
Q 2869 716 2869 1294 
z
" transform="scale(0.015625)"/>
     </defs>
     <use xlink:href="#DejaVuSerif-Bold-1b"/>
    </g>
   </g>
   <g id="text_13">
    <!-- 9 -->
    <g style="fill: #111111" transform="translate(40.831531 120.607919) scale(0.14 -0.14)">
     <use xlink:href="#DejaVuSerif-Bold-1c"/>
    </g>
   </g>
   <g id="text_14">
    <!-- 7 -->
    <g style="fill: #111111" transform="translate(62.035531 120.607919) scale(0.14 -0.14)">
     <defs>
      <path id="DejaVuSerif-Bold-1a" d="M 3922 3872 
L 1997 0 
L 1363 0 
L 3238 3781 
L 934 3781 
L 934 3150 
L 506 3150 
L 506 4666 
L 3922 4666 
L 3922 3872 
z
" transform="scale(0.015625)"/>
     </defs>
     <use xlink:href="#DejaVuSerif-Bold-1a"/>
    </g>
   </g>
   <g id="text_15">
    <!-- 9 -->
    <g style="fill: #111111" transform="translate(83.239531 120.607919) scale(0.14 -0.14)">
     <use xlink:href="#DejaVuSerif-Bold-1c"/>
    </g>
   </g>
   <g id="text_16">
    <!-- 3 -->
    <g style="fill: #111111" transform="translate(104.443531 120.607919) scale(0.14 -0.14)">
     <use xlink:href="#DejaVuSerif-Bold-16"/>
    </g>
   </g>
   <g id="text_17">
    <!-- Rang 4 -->
    <g style="fill: #666666" transform="translate(50.429484 169.654884) scale(0.15 -0.15)">
     <defs>
      <path id="DejaVuSerif-35" d="M 3066 2316 
Q 3284 2256 3442 2114 
Q 3600 1972 3725 1716 
L 4403 331 
L 4972 331 
L 4972 0 
L 3872 0 
L 3144 1484 
Q 2934 1916 2759 2042 
Q 2584 2169 2278 2169 
L 1581 2169 
L 1581 331 
L 2241 331 
L 2241 0 
L 353 0 
L 353 331 
L 947 331 
L 947 4331 
L 353 4331 
L 353 4666 
L 2719 4666 
Q 3400 4666 3770 4341 
Q 4141 4016 4141 3419 
Q 4141 2938 3870 2661 
Q 3600 2384 3066 2316 
z
M 1581 2503 
L 2503 2503 
Q 2975 2503 3200 2726 
Q 3425 2950 3425 3419 
Q 3425 3888 3200 4109 
Q 2975 4331 2503 4331 
L 1581 4331 
L 1581 2503 
z
" transform="scale(0.015625)"/>
      <path id="DejaVuSerif-44" d="M 2547 1044 
L 2547 1747 
L 1806 1747 
Q 1378 1747 1168 1562 
Q 959 1378 959 997 
Q 959 650 1171 447 
Q 1384 244 1747 244 
Q 2106 244 2326 466 
Q 2547 688 2547 1044 
z
M 3122 2075 
L 3122 331 
L 3634 331 
L 3634 0 
L 2547 0 
L 2547 359 
Q 2356 128 2106 18 
Q 1856 -91 1522 -91 
Q 969 -91 644 203 
Q 319 497 319 997 
Q 319 1513 691 1797 
Q 1063 2081 1741 2081 
L 2547 2081 
L 2547 2309 
Q 2547 2688 2317 2895 
Q 2088 3103 1672 3103 
Q 1328 3103 1125 2947 
Q 922 2791 872 2484 
L 575 2484 
L 575 3156 
Q 875 3284 1158 3348 
Q 1441 3413 1709 3413 
Q 2400 3413 2761 3070 
Q 3122 2728 3122 2075 
z
" transform="scale(0.015625)"/>
      <path id="DejaVuSerif-51" d="M 263 0 
L 263 331 
L 781 331 
L 781 2988 
L 231 2988 
L 231 3322 
L 1356 3322 
L 1356 2731 
Q 1516 3069 1770 3241 
Q 2025 3413 2363 3413 
Q 2913 3413 3172 3097 
Q 3431 2781 3431 2113 
L 3431 331 
L 3944 331 
L 3944 0 
L 2356 0 
L 2356 331 
L 2853 331 
L 2853 1931 
Q 2853 2541 2703 2767 
Q 2553 2994 2175 2994 
Q 1775 2994 1565 2701 
Q 1356 2409 1356 1850 
L 1356 331 
L 1856 331 
L 1856 0 
L 263 0 
z
" transform="scale(0.015625)"/>
      <path id="DejaVuSerif-4a" d="M 3359 2988 
L 3359 72 
Q 3359 -644 2965 -1033 
Q 2572 -1422 1844 -1422 
Q 1516 -1422 1216 -1362 
Q 916 -1303 641 -1184 
L 641 -488 
L 941 -488 
Q 997 -813 1206 -963 
Q 1416 -1113 1806 -1113 
Q 2313 -1113 2548 -827 
Q 2784 -541 2784 72 
L 2784 519 
Q 2616 206 2355 57 
Q 2094 -91 1709 -91 
Q 1097 -91 708 395 
Q 319 881 319 1663 
Q 319 2444 706 2928 
Q 1094 3413 1709 3413 
Q 2094 3413 2355 3264 
Q 2616 3116 2784 2803 
L 2784 3322 
L 3909 3322 
L 3909 2988 
L 3359 2988 
z
M 2784 1825 
Q 2784 2422 2554 2737 
Q 2325 3053 1888 3053 
Q 1444 3053 1217 2703 
Q 991 2353 991 1663 
Q 991 975 1217 622 
Q 1444 269 1888 269 
Q 2325 269 2554 583 
Q 2784 897 2784 1497 
L 2784 1825 
z
" transform="scale(0.015625)"/>
      <path id="DejaVuSerif-3" transform="scale(0.015625)"/>
      <path id="DejaVuSerif-17" d="M 2234 1581 
L 2234 4063 
L 641 1581 
L 2234 1581 
z
M 3609 0 
L 1484 0 
L 1484 331 
L 2234 331 
L 2234 1247 
L 197 1247 
L 197 1588 
L 2241 4750 
L 2859 4750 
L 2859 1581 
L 3750 1581 
L 3750 1247 
L 2859 1247 
L 2859 331 
L 3609 331 
L 3609 0 
z
" transform="scale(0.015625)"/>
     </defs>
     <use xlink:href="#DejaVuSerif-35"/>
     <use xlink:href="#DejaVuSerif-44" transform="translate(77.59375 0)"/>
     <use xlink:href="#DejaVuSerif-51" transform="translate(137.21875 0)"/>
     <use xlink:href="#DejaVuSerif-4a" transform="translate(201.625 0)"/>
     <use xlink:href="#DejaVuSerif-3" transform="translate(265.640625 0)"/>
     <use xlink:href="#DejaVuSerif-17" transform="translate(297.421875 0)"/>
    </g>
   </g>
   <g id="text_18">
    <!-- = -->
    <g style="fill: #666666" transform="translate(131.064375 117.661575) scale(0.24 -0.24)">
     <defs>
      <path id="DejaVuSerif-20" d="M 678 2894 
L 4684 2894 
L 4684 2394 
L 678 2394 
L 678 2894 
z
M 678 1619 
L 4684 1619 
L 4684 1119 
L 678 1119 
L 678 1619 
z
" transform="scale(0.015625)"/>
     </defs>
     <use xlink:href="#DejaVuSerif-20"/>
    </g>
   </g>
   <g id="text_19">
    <!-- $u_1$ -->
    <g style="fill: #1e88ff" transform="translate(187.338 152.468484) scale(0.15 -0.15)">
     <defs>
      <path id="Cmmi10-60" d="M 678 697 
Q 678 906 734 1126 
Q 791 1347 892 1617 
Q 994 1888 1069 2088 
Q 1153 2322 1153 2472 
Q 1153 2663 1013 2663 
Q 759 2663 595 2402 
Q 431 2141 353 1819 
Q 341 1778 300 1778 
L 225 1778 
Q 172 1778 172 1838 
L 172 1856 
Q 275 2238 487 2533 
Q 700 2828 1025 2828 
Q 1253 2828 1411 2678 
Q 1569 2528 1569 2297 
Q 1569 2178 1516 2047 
Q 1488 1969 1388 1706 
Q 1288 1444 1234 1272 
Q 1181 1100 1147 934 
Q 1113 769 1113 603 
Q 1113 391 1203 244 
Q 1294 97 1497 97 
Q 1906 97 2216 603 
Q 2222 628 2226 651 
Q 2231 675 2234 697 
L 2694 2553 
Q 2716 2638 2794 2698 
Q 2872 2759 2963 2759 
Q 3041 2759 3098 2709 
Q 3156 2659 3156 2578 
Q 3156 2541 3150 2528 
L 2688 684 
Q 2644 494 2644 372 
Q 2644 97 2828 97 
Q 3034 97 3136 351 
Q 3238 606 3309 941 
Q 3322 978 3359 978 
L 3438 978 
Q 3463 978 3478 956 
Q 3494 934 3494 916 
Q 3425 641 3361 444 
Q 3297 247 3159 87 
Q 3022 -72 2816 -72 
Q 2613 -72 2452 39 
Q 2291 150 2234 341 
Q 2088 153 1894 40 
Q 1700 -72 1484 -72 
Q 1116 -72 897 129 
Q 678 331 678 697 
z
" transform="scale(0.015625)"/>
      <path id="Cmr10-64" d="M 594 0 
L 594 225 
Q 1394 225 1394 428 
L 1394 3788 
Q 1063 3628 556 3628 
L 556 3853 
Q 1341 3853 1741 4263 
L 1831 4263 
Q 1853 4263 1873 4245 
Q 1894 4228 1894 4206 
L 1894 428 
Q 1894 225 2694 225 
L 2694 0 
L 594 0 
z
" transform="scale(0.015625)"/>
     </defs>
     <use xlink:href="#Cmmi10-60" transform="translate(0 0.8125)"/>
     <use xlink:href="#Cmr10-64" transform="translate(57.177734 -14.187462) scale(0.7)"/>
    </g>
   </g>
   <g id="text_20">
    <!-- $\sigma_1$ -->
    <g style="fill: #f2aa00" transform="translate(209.794 114.734416) scale(0.17 -0.17)">
     <defs>
      <path id="Cmmi10-15" d="M 1197 -72 
Q 913 -72 692 64 
Q 472 200 351 431 
Q 231 663 231 941 
Q 231 1238 365 1566 
Q 500 1894 733 2166 
Q 966 2438 1259 2598 
Q 1553 2759 1863 2759 
L 3475 2759 
Q 3541 2759 3587 2715 
Q 3634 2672 3634 2597 
Q 3634 2503 3567 2433 
Q 3500 2363 3406 2363 
L 2625 2363 
Q 2809 2088 2809 1697 
Q 2809 1375 2684 1062 
Q 2559 750 2337 492 
Q 2116 234 1820 81 
Q 1525 -72 1197 -72 
z
M 1203 97 
Q 1553 97 1823 370 
Q 2094 644 2237 1039 
Q 2381 1434 2381 1772 
Q 2381 2047 2229 2205 
Q 2078 2363 1806 2363 
Q 1434 2363 1173 2113 
Q 913 1863 783 1484 
Q 653 1106 653 756 
Q 653 481 798 289 
Q 944 97 1203 97 
z
" transform="scale(0.015625)"/>
     </defs>
     <use xlink:href="#Cmmi10-15" transform="translate(0 0.890625)"/>
     <use xlink:href="#Cmr10-64" transform="translate(57.080078 -14.109337) scale(0.7)"/>
    </g>
   </g>
   <g id="text_21">
    <!-- $v_1^T$ -->
    <g style="fill: #16a34a" transform="translate(258.087 152.997) scale(0.15 -0.15)">
     <defs>
      <path id="Cmmi10-38" d="M 684 722 
Q 684 866 718 1037 
Q 753 1209 787 1320 
Q 822 1431 944 1753 
Q 1066 2075 1069 2088 
Q 1153 2322 1153 2472 
Q 1153 2663 1013 2663 
Q 759 2663 595 2402 
Q 431 2141 353 1819 
Q 341 1778 300 1778 
L 225 1778 
Q 172 1778 172 1838 
L 172 1856 
Q 275 2238 487 2533 
Q 700 2828 1025 2828 
Q 1253 2828 1411 2678 
Q 1569 2528 1569 2297 
Q 1569 2178 1516 2047 
Q 1391 1722 1319 1526 
Q 1247 1331 1186 1089 
Q 1125 847 1125 641 
Q 1125 400 1236 248 
Q 1347 97 1581 97 
Q 2025 97 2381 781 
Q 2494 1003 2594 1303 
Q 2694 1603 2694 1791 
Q 2694 1984 2631 2092 
Q 2569 2200 2469 2317 
Q 2369 2434 2369 2503 
Q 2369 2628 2472 2731 
Q 2575 2834 2700 2834 
Q 2853 2834 2920 2693 
Q 2988 2553 2988 2375 
Q 2988 2163 2927 1869 
Q 2866 1575 2758 1259 
Q 2650 944 2559 763 
Q 2138 -72 1575 -72 
Q 1172 -72 928 129 
Q 684 331 684 722 
z
" transform="scale(0.015625)"/>
      <path id="Cmmi10-78" d="M 294 84 
Q 297 100 308 140 
Q 319 181 336 203 
Q 353 225 384 225 
Q 934 225 1113 256 
Q 1284 300 1319 441 
L 2194 3956 
Q 2222 4034 2222 4097 
Q 2222 4147 1997 4147 
L 1625 4147 
Q 1197 4147 964 4015 
Q 731 3884 622 3668 
Q 513 3453 341 2963 
Q 319 2906 275 2906 
L 219 2906 
Q 153 2906 153 2988 
L 609 4313 
Q 622 4372 672 4372 
L 4453 4372 
Q 4519 4372 4519 4288 
L 4306 2963 
Q 4306 2944 4284 2925 
Q 4263 2906 4244 2906 
L 4184 2906 
Q 4122 2906 4122 2988 
Q 4191 3441 4191 3628 
Q 4191 3853 4097 3968 
Q 4003 4084 3853 4115 
Q 3703 4147 3463 4147 
L 3084 4147 
Q 2913 4147 2853 4115 
Q 2794 4084 2753 3928 
L 1875 416 
Q 1872 403 1870 390 
Q 1869 378 1863 359 
Q 1863 278 1959 256 
Q 2125 225 2669 225 
Q 2731 225 2731 141 
Q 2709 50 2696 25 
Q 2684 0 2625 0 
L 359 0 
Q 294 0 294 84 
z
" transform="scale(0.015625)"/>
     </defs>
     <use xlink:href="#Cmmi10-38" transform="translate(0 0.892016)"/>
     <use xlink:href="#Cmmi10-78" transform="translate(59.668541 42.18125) scale(0.7)"/>
     <use xlink:href="#Cmr10-64" transform="translate(48.388672 -29.445312) scale(0.7)"/>
    </g>
   </g>
   <g id="text_22">
    <!-- $\sigma_1 u_1 v_1^T$ -->
    <g style="fill: #111111" transform="translate(212.214 61.521) scale(0.15 -0.15)">
     <use xlink:href="#Cmmi10-15" transform="translate(0 0.892016)"/>
     <use xlink:href="#Cmr10-64" transform="translate(57.080078 -14.107946) scale(0.7)"/>
     <use xlink:href="#Cmmi10-60" transform="translate(97.800494 0.892016)"/>
     <use xlink:href="#Cmr10-64" transform="translate(154.978228 -14.107946) scale(0.7)"/>
     <use xlink:href="#Cmmi10-38" transform="translate(195.698643 0.892016)"/>
     <use xlink:href="#Cmmi10-78" transform="translate(255.367185 42.18125) scale(0.7)"/>
     <use xlink:href="#Cmr10-64" transform="translate(244.087315 -29.445312) scale(0.7)"/>
    </g>
   </g>
   <g id="text_23">
    <!-- + -->
    <g style="fill: #666666" transform="translate(303.766344 116.033244) scale(0.22 -0.22)">
     <defs>
      <path id="DejaVuSerif-e" d="M 2931 4013 
L 2931 2259 
L 4684 2259 
L 4684 1753 
L 2931 1753 
L 2931 0 
L 2431 0 
L 2431 1753 
L 678 1753 
L 678 2259 
L 2431 2259 
L 2431 4013 
L 2931 4013 
z
" transform="scale(0.015625)"/>
     </defs>
     <use xlink:href="#DejaVuSerif-e"/>
    </g>
   </g>
   <g id="text_24">
    <!-- $u_2$ -->
    <g style="fill: #1e88ff" transform="translate(350.274 152.468484) scale(0.15 -0.15)">
     <defs>
      <path id="Cmr10-31" d="M 319 0 
L 319 172 
Q 319 188 331 206 
L 1325 1306 
Q 1550 1550 1690 1715 
Q 1831 1881 1968 2097 
Q 2106 2313 2186 2536 
Q 2266 2759 2266 3009 
Q 2266 3272 2169 3511 
Q 2072 3750 1880 3894 
Q 1688 4038 1416 4038 
Q 1138 4038 916 3870 
Q 694 3703 603 3438 
Q 628 3444 672 3444 
Q 816 3444 917 3347 
Q 1019 3250 1019 3097 
Q 1019 2950 917 2848 
Q 816 2747 672 2747 
Q 522 2747 420 2851 
Q 319 2956 319 3097 
Q 319 3338 409 3548 
Q 500 3759 670 3923 
Q 841 4088 1055 4175 
Q 1269 4263 1509 4263 
Q 1875 4263 2190 4108 
Q 2506 3953 2690 3670 
Q 2875 3388 2875 3009 
Q 2875 2731 2753 2481 
Q 2631 2231 2440 2026 
Q 2250 1822 1953 1562 
Q 1656 1303 1563 1216 
L 838 519 
L 1453 519 
Q 1906 519 2211 526 
Q 2516 534 2534 550 
Q 2609 631 2688 1141 
L 2875 1141 
L 2694 0 
L 319 0 
z
" transform="scale(0.015625)"/>
     </defs>
     <use xlink:href="#Cmmi10-60" transform="translate(0 0.8125)"/>
     <use xlink:href="#Cmr10-31" transform="translate(57.177734 -14.187462) scale(0.7)"/>
    </g>
   </g>
   <g id="text_25">
    <!-- $\sigma_2$ -->
    <g style="fill: #f2aa00" transform="translate(372.73 114.734416) scale(0.17 -0.17)">
     <use xlink:href="#Cmmi10-15" transform="translate(0 0.890625)"/>
     <use xlink:href="#Cmr10-31" transform="translate(57.080078 -14.109337) scale(0.7)"/>
    </g>
   </g>
   <g id="text_26">
    <!-- $v_2^T$ -->
    <g style="fill: #16a34a" transform="translate(421.023 152.997) scale(0.15 -0.15)">
     <use xlink:href="#Cmmi10-38" transform="translate(0 0.892016)"/>
     <use xlink:href="#Cmmi10-78" transform="translate(59.668541 42.18125) scale(0.7)"/>
     <use xlink:href="#Cmr10-31" transform="translate(48.388672 -29.445312) scale(0.7)"/>
    </g>
   </g>
   <g id="text_27">
    <!-- $\sigma_2 u_2 v_2^T$ -->
    <g style="fill: #111111" transform="translate(375.15 61.521) scale(0.15 -0.15)">
     <use xlink:href="#Cmmi10-15" transform="translate(0 0.892016)"/>
     <use xlink:href="#Cmr10-31" transform="translate(57.080078 -14.107946) scale(0.7)"/>
     <use xlink:href="#Cmmi10-60" transform="translate(97.800494 0.892016)"/>
     <use xlink:href="#Cmr10-31" transform="translate(154.978228 -14.107946) scale(0.7)"/>
     <use xlink:href="#Cmmi10-38" transform="translate(195.698643 0.892016)"/>
     <use xlink:href="#Cmmi10-78" transform="translate(255.367185 42.18125) scale(0.7)"/>
     <use xlink:href="#Cmr10-31" transform="translate(244.087315 -29.445312) scale(0.7)"/>
    </g>
   </g>
   <g id="text_28">
    <!-- + -->
    <g style="fill: #666666" transform="translate(466.702344 116.033244) scale(0.22 -0.22)">
     <use xlink:href="#DejaVuSerif-e"/>
    </g>
   </g>
   <g id="text_29">
    <!-- $u_k$ -->
    <g style="fill: #1e88ff" transform="translate(513.06 152.468484) scale(0.15 -0.15)">
     <defs>
      <path id="Cmmi10-3e" d="M 341 116 
Q 341 153 347 172 
L 1275 3872 
Q 1300 3981 1306 4044 
Q 1306 4147 891 4147 
Q 825 4147 825 4231 
Q 828 4247 839 4287 
Q 850 4328 867 4350 
Q 884 4372 916 4372 
L 1778 4441 
L 1797 4441 
Q 1797 4434 1819 4423 
Q 1841 4413 1844 4409 
Q 1856 4378 1856 4359 
L 1184 1684 
Q 1416 1781 1767 2145 
Q 2119 2509 2317 2668 
Q 2516 2828 2816 2828 
Q 2994 2828 3119 2706 
Q 3244 2584 3244 2406 
Q 3244 2294 3197 2198 
Q 3150 2103 3065 2043 
Q 2981 1984 2869 1984 
Q 2766 1984 2695 2048 
Q 2625 2113 2625 2216 
Q 2625 2369 2733 2473 
Q 2841 2578 2994 2578 
Q 2931 2663 2803 2663 
Q 2613 2663 2436 2553 
Q 2259 2444 2054 2239 
Q 1850 2034 1681 1864 
Q 1513 1694 1369 1606 
Q 1747 1563 2025 1408 
Q 2303 1253 2303 934 
Q 2303 869 2278 769 
Q 2222 528 2222 384 
Q 2222 97 2419 97 
Q 2650 97 2770 350 
Q 2891 603 2969 941 
Q 2981 978 3022 978 
L 3097 978 
Q 3122 978 3139 962 
Q 3156 947 3156 922 
Q 3156 916 3150 903 
Q 2909 -72 2406 -72 
Q 2225 -72 2086 12 
Q 1947 97 1872 242 
Q 1797 388 1797 569 
Q 1797 672 1825 781 
Q 1844 856 1844 922 
Q 1844 1169 1625 1297 
Q 1406 1425 1125 1453 
L 800 147 
Q 775 50 703 -11 
Q 631 -72 538 -72 
Q 456 -72 398 -17 
Q 341 38 341 116 
z
" transform="scale(0.015625)"/>
     </defs>
     <use xlink:href="#Cmmi10-60" transform="translate(0 0.8125)"/>
     <use xlink:href="#Cmmi10-3e" transform="translate(57.177734 -14.187462) scale(0.7)"/>
    </g>
   </g>
   <g id="text_30">
    <!-- $\sigma_k$ -->
    <g style="fill: #f2aa00" transform="translate(535.496 114.734416) scale(0.17 -0.17)">
     <use xlink:href="#Cmmi10-15" transform="translate(0 0.890625)"/>
     <use xlink:href="#Cmmi10-3e" transform="translate(57.080078 -14.109337) scale(0.7)"/>
    </g>
   </g>
   <g id="text_31">
    <!-- $v_k^T$ -->
    <g style="fill: #16a34a" transform="translate(583.959 152.772) scale(0.15 -0.15)">
     <use xlink:href="#Cmmi10-38" transform="translate(0 0.892016)"/>
     <use xlink:href="#Cmmi10-78" transform="translate(59.668541 42.18125) scale(0.7)"/>
     <use xlink:href="#Cmmi10-3e" transform="translate(48.388672 -31.392187) scale(0.7)"/>
    </g>
   </g>
   <g id="text_32">
    <!-- $\sigma_k u_k v_k^T$ -->
    <g style="fill: #111111" transform="translate(537.861 61.296) scale(0.15 -0.15)">
     <use xlink:href="#Cmmi10-15" transform="translate(0 0.892016)"/>
     <use xlink:href="#Cmmi10-3e" transform="translate(57.080078 -14.107946) scale(0.7)"/>
     <use xlink:href="#Cmmi10-60" transform="translate(99.201861 0.892016)"/>
     <use xlink:href="#Cmmi10-3e" transform="translate(156.379595 -14.107946) scale(0.7)"/>
     <use xlink:href="#Cmmi10-38" transform="translate(198.501378 0.892016)"/>
     <use xlink:href="#Cmmi10-78" transform="translate(258.169919 42.18125) scale(0.7)"/>
     <use xlink:href="#Cmmi10-3e" transform="translate(246.89005 -31.392187) scale(0.7)"/>
    </g>
   </g>
   <g id="text_33">
    <!-- $A_k = \sigma_1 u_1 v_1^T + \sigma_2 u_2 v_2^T + \dots + \sigma_k u_k v_k^T$ -->
    <g style="fill: #111111" transform="translate(182.021 203.788) scale(0.19 -0.19)">
     <defs>
      <path id="Cmmi10-5c" d="M 288 0 
Q 225 0 225 84 
Q 250 225 306 225 
Q 566 225 755 328 
Q 944 431 1081 647 
Q 1094 659 1094 659 
L 3378 4513 
Q 3428 4581 3500 4581 
L 3584 4581 
Q 3603 4581 3622 4573 
Q 3641 4566 3655 4548 
Q 3669 4531 3669 4513 
L 4056 378 
Q 4056 350 4084 294 
Q 4147 225 4563 225 
Q 4628 225 4628 141 
Q 4606 56 4592 28 
Q 4578 0 4519 0 
L 2919 0 
Q 2859 0 2859 84 
Q 2894 225 2944 225 
Q 3450 225 3481 397 
L 3384 1453 
L 1806 1453 
L 1294 594 
Q 1247 525 1247 434 
Q 1247 322 1355 273 
Q 1463 225 1594 225 
Q 1656 225 1656 141 
Q 1634 50 1621 25 
Q 1609 0 1550 0 
L 288 0 
z
M 1931 1678 
L 3359 1678 
L 3169 3750 
L 1931 1678 
z
" transform="scale(0.015625)"/>
      <path id="Cmr10-29" d="M 481 850 
Q 428 850 393 890 
Q 359 931 359 978 
Q 359 1031 393 1068 
Q 428 1106 481 1106 
L 4500 1106 
Q 4547 1106 4581 1068 
Q 4616 1031 4616 978 
Q 4616 931 4581 890 
Q 4547 850 4500 850 
L 481 850 
z
M 481 2094 
Q 428 2094 393 2131 
Q 359 2169 359 2222 
Q 359 2269 393 2309 
Q 428 2350 481 2350 
L 4500 2350 
Q 4547 2350 4581 2309 
Q 4616 2269 4616 2222 
Q 4616 2169 4581 2131 
Q 4547 2094 4500 2094 
L 481 2094 
z
" transform="scale(0.015625)"/>
      <path id="Cmr10-4c" d="M 481 1472 
Q 428 1472 393 1512 
Q 359 1553 359 1600 
Q 359 1647 393 1687 
Q 428 1728 481 1728 
L 2363 1728 
L 2363 3616 
Q 2363 3666 2400 3698 
Q 2438 3731 2491 3731 
Q 2538 3731 2578 3698 
Q 2619 3666 2619 3616 
L 2619 1728 
L 4500 1728 
Q 4547 1728 4581 1687 
Q 4616 1647 4616 1600 
Q 4616 1553 4581 1512 
Q 4547 1472 4500 1472 
L 2619 1472 
L 2619 -416 
Q 2619 -466 2578 -498 
Q 2538 -531 2491 -531 
Q 2438 -531 2400 -498 
Q 2363 -466 2363 -416 
L 2363 1472 
L 481 1472 
z
" transform="scale(0.015625)"/>
      <path id="STIXGeneral-Regular-32d" d="M 5683 275 
Q 5683 134 5577 32 
Q 5472 -70 5325 -70 
Q 5178 -70 5075 32 
Q 4973 134 4973 281 
Q 4973 429 5078 534 
Q 5184 640 5331 640 
Q 5472 640 5577 531 
Q 5683 422 5683 275 
z
M 3552 275 
Q 3552 134 3446 32 
Q 3341 -70 3193 -70 
Q 3046 -70 2944 32 
Q 2842 134 2842 281 
Q 2842 429 2947 534 
Q 3053 640 3200 640 
Q 3341 640 3446 531 
Q 3552 422 3552 275 
z
M 1421 275 
Q 1421 134 1315 32 
Q 1210 -70 1062 -70 
Q 915 -70 812 32 
Q 710 134 710 281 
Q 710 429 816 534 
Q 922 640 1069 640 
Q 1210 640 1315 531 
Q 1421 422 1421 275 
z
" transform="scale(0.015625)"/>
     </defs>
     <use xlink:href="#Cmmi10-5c" transform="translate(0 0.892016)"/>
     <use xlink:href="#Cmmi10-3e" transform="translate(75 -14.107946) scale(0.7)"/>
     <use xlink:href="#Cmr10-29" transform="translate(137.12184 0.892016)"/>
     <use xlink:href="#Cmmi10-15" transform="translate(234.807444 0.892016)"/>
     <use xlink:href="#Cmr10-64" transform="translate(291.887522 -14.107946) scale(0.7)"/>
     <use xlink:href="#Cmmi10-60" transform="translate(332.607938 0.892016)"/>
     <use xlink:href="#Cmr10-64" transform="translate(389.785672 -14.107946) scale(0.7)"/>
     <use xlink:href="#Cmmi10-38" transform="translate(430.506087 0.892016)"/>
     <use xlink:href="#Cmmi10-78" transform="translate(490.174629 42.18125) scale(0.7)"/>
     <use xlink:href="#Cmr10-64" transform="translate(478.894759 -29.445312) scale(0.7)"/>
     <use xlink:href="#Cmr10-4c" transform="translate(556.774008 0.892016)"/>
     <use xlink:href="#Cmmi10-15" transform="translate(654.459612 0.892016)"/>
     <use xlink:href="#Cmr10-31" transform="translate(711.53969 -14.107946) scale(0.7)"/>
     <use xlink:href="#Cmmi10-60" transform="translate(752.260105 0.892016)"/>
     <use xlink:href="#Cmr10-31" transform="translate(809.43784 -14.107946) scale(0.7)"/>
     <use xlink:href="#Cmmi10-38" transform="translate(850.158255 0.892016)"/>
     <use xlink:href="#Cmmi10-78" transform="translate(909.826796 42.18125) scale(0.7)"/>
     <use xlink:href="#Cmr10-31" transform="translate(898.546927 -29.445312) scale(0.7)"/>
     <use xlink:href="#Cmr10-4c" transform="translate(976.426175 0.892016)"/>
     <use xlink:href="#STIXGeneral-Regular-32d" transform="translate(1094.111837 0.892016)"/>
     <use xlink:href="#Cmr10-4c" transform="translate(1234.11186 0.892016)"/>
     <use xlink:href="#Cmmi10-15" transform="translate(1331.797464 0.892016)"/>
     <use xlink:href="#Cmmi10-3e" transform="translate(1388.877542 -14.107946) scale(0.7)"/>
     <use xlink:href="#Cmmi10-60" transform="translate(1430.999324 0.892016)"/>
     <use xlink:href="#Cmmi10-3e" transform="translate(1488.177059 -14.107946) scale(0.7)"/>
     <use xlink:href="#Cmmi10-38" transform="translate(1530.298841 0.892016)"/>
     <use xlink:href="#Cmmi10-78" transform="translate(1589.967383 42.18125) scale(0.7)"/>
     <use xlink:href="#Cmmi10-3e" transform="translate(1578.687513 -31.392187) scale(0.7)"/>
    </g>
   </g>
  </g>
 </g>
 <defs>
  <clipPath id="p360b866f17">
   <rect x="7.2" y="7.2" width="636.12" height="216.216"/>
  </clipPath>
 </defs>
</svg>
