<?xml version="1.0" encoding="utf-8" standalone="no"?>
<!DOCTYPE svg PUBLIC "-//W3C//DTD SVG 1.1//EN"
  "http://www.w3.org/Graphics/SVG/1.1/DTD/svg11.dtd">
<svg xmlns:xlink="http://www.w3.org/1999/xlink" width="639.36pt" height="225.072pt" viewBox="0 0 639.36 225.072" xmlns="http://www.w3.org/2000/svg" version="1.1">
 <metadata>
  <rdf:RDF xmlns:dc="http://purl.org/dc/elements/1.1/" xmlns:cc="http://creativecommons.org/ns#" xmlns:rdf="http://www.w3.org/1999/02/22-rdf-syntax-ns#">
   <cc:Work>
    <dc:type rdf:resource="http://purl.org/dc/dcmitype/StillImage"/>
    <dc:date>2026-06-09T18:12:53.706501</dc:date>
    <dc:format>image/svg+xml</dc:format>
    <dc:creator>
     <cc:Agent>
      <dc:title>Matplotlib v3.10.9, https://matplotlib.org/</dc:title>
     </cc:Agent>
    </dc:creator>
   </cc:Work>
  </rdf:RDF>
 </metadata>
 <defs>
  <style type="text/css">*{stroke-linejoin: round; stroke-linecap: butt}</style>
 </defs>
 <g id="figure_1">
  <g id="patch_1">
   <path d="M 0 225.072 
L 639.36 225.072 
L 639.36 -0 
L 0 -0 
L 0 225.072 
z
" style="fill: none"/>
  </g>
  <g id="axes_1">
   <g id="patch_2">
    <path d="M 37.89 68.184 
L 61.326 68.184 
L 61.326 46.5624 
L 37.89 46.5624 
z
" clip-path="url(#peea7de7d5d)" style="fill: #ffffff; stroke: #111111; stroke-width: 1.05; stroke-linejoin: miter"/>
   </g>
   <g id="patch_3">
    <path d="M 61.326 68.184 
L 84.762 68.184 
L 84.762 46.5624 
L 61.326 46.5624 
z
" clip-path="url(#peea7de7d5d)" style="fill: #ffffff; stroke: #111111; stroke-width: 1.05; stroke-linejoin: miter"/>
   </g>
   <g id="patch_4">
    <path d="M 84.762 68.184 
L 108.198 68.184 
L 108.198 46.5624 
L 84.762 46.5624 
z
" clip-path="url(#peea7de7d5d)" style="fill: #ffffff; stroke: #111111; stroke-width: 1.05; stroke-linejoin: miter"/>
   </g>
   <g id="patch_5">
    <path d="M 108.198 68.184 
L 131.634 68.184 
L 131.634 46.5624 
L 108.198 46.5624 
z
" clip-path="url(#peea7de7d5d)" style="fill: #ffffff; stroke: #111111; stroke-width: 1.05; stroke-linejoin: miter"/>
   </g>
   <g id="patch_6">
    <path d="M 37.89 89.8056 
L 61.326 89.8056 
L 61.326 68.184 
L 37.89 68.184 
z
" clip-path="url(#peea7de7d5d)" style="fill: #ffffff; stroke: #111111; stroke-width: 1.05; stroke-linejoin: miter"/>
   </g>
   <g id="patch_7">
    <path d="M 61.326 89.8056 
L 84.762 89.8056 
L 84.762 68.184 
L 61.326 68.184 
z
" clip-path="url(#peea7de7d5d)" style="fill: #ffffff; stroke: #111111; stroke-width: 1.05; stroke-linejoin: miter"/>
   </g>
   <g id="patch_8">
    <path d="M 84.762 89.8056 
L 108.198 89.8056 
L 108.198 68.184 
L 84.762 68.184 
z
" clip-path="url(#peea7de7d5d)" style="fill: #ffffff; stroke: #111111; stroke-width: 1.05; stroke-linejoin: miter"/>
   </g>
   <g id="patch_9">
    <path d="M 108.198 89.8056 
L 131.634 89.8056 
L 131.634 68.184 
L 108.198 68.184 
z
" clip-path="url(#peea7de7d5d)" style="fill: #ffffff; stroke: #111111; stroke-width: 1.05; stroke-linejoin: miter"/>
   </g>
   <g id="patch_10">
    <path d="M 37.89 111.4272 
L 61.326 111.4272 
L 61.326 89.8056 
L 37.89 89.8056 
z
" clip-path="url(#peea7de7d5d)" style="fill: #ffffff; stroke: #111111; stroke-width: 1.05; stroke-linejoin: miter"/>
   </g>
   <g id="patch_11">
    <path d="M 61.326 111.4272 
L 84.762 111.4272 
L 84.762 89.8056 
L 61.326 89.8056 
z
" clip-path="url(#peea7de7d5d)" style="fill: #ffffff; stroke: #111111; stroke-width: 1.05; stroke-linejoin: miter"/>
   </g>
   <g id="patch_12">
    <path d="M 84.762 111.4272 
L 108.198 111.4272 
L 108.198 89.8056 
L 84.762 89.8056 
z
" clip-path="url(#peea7de7d5d)" style="fill: #ffffff; stroke: #111111; stroke-width: 1.05; stroke-linejoin: miter"/>
   </g>
   <g id="patch_13">
    <path d="M 108.198 111.4272 
L 131.634 111.4272 
L 131.634 89.8056 
L 108.198 89.8056 
z
" clip-path="url(#peea7de7d5d)" style="fill: #ffffff; stroke: #111111; stroke-width: 1.05; stroke-linejoin: miter"/>
   </g>
   <g id="patch_14">
    <path d="M 37.89 133.0488 
L 61.326 133.0488 
L 61.326 111.4272 
L 37.89 111.4272 
z
" clip-path="url(#peea7de7d5d)" style="fill: #ffffff; stroke: #111111; stroke-width: 1.05; stroke-linejoin: miter"/>
   </g>
   <g id="patch_15">
    <path d="M 61.326 133.0488 
L 84.762 133.0488 
L 84.762 111.4272 
L 61.326 111.4272 
z
" clip-path="url(#peea7de7d5d)" style="fill: #ffffff; stroke: #111111; stroke-width: 1.05; stroke-linejoin: miter"/>
   </g>
   <g id="patch_16">
    <path d="M 84.762 133.0488 
L 108.198 133.0488 
L 108.198 111.4272 
L 84.762 111.4272 
z
" clip-path="url(#peea7de7d5d)" style="fill: #ffffff; stroke: #111111; stroke-width: 1.05; stroke-linejoin: miter"/>
   </g>
   <g id="patch_17">
    <path d="M 108.198 133.0488 
L 131.634 133.0488 
L 131.634 111.4272 
L 108.198 111.4272 
z
" clip-path="url(#peea7de7d5d)" style="fill: #ffffff; stroke: #111111; stroke-width: 1.05; stroke-linejoin: miter"/>
   </g>
   <g id="patch_18">
    <path d="M 205.29 68.184 
L 228.726 68.184 
L 228.726 46.5624 
L 205.29 46.5624 
z
" clip-path="url(#peea7de7d5d)" style="fill: #19a7ff; stroke: #111111; stroke-width: 1.05; stroke-linejoin: miter"/>
   </g>
   <g id="patch_19">
    <path d="M 205.29 89.8056 
L 228.726 89.8056 
L 228.726 68.184 
L 205.29 68.184 
z
" clip-path="url(#peea7de7d5d)" style="fill: #19a7ff; stroke: #111111; stroke-width: 1.05; stroke-linejoin: miter"/>
   </g>
   <g id="patch_20">
    <path d="M 205.29 111.4272 
L 228.726 111.4272 
L 228.726 89.8056 
L 205.29 89.8056 
z
" clip-path="url(#peea7de7d5d)" style="fill: #19a7ff; stroke: #111111; stroke-width: 1.05; stroke-linejoin: miter"/>
   </g>
   <g id="patch_21">
    <path d="M 205.29 133.0488 
L 228.726 133.0488 
L 228.726 111.4272 
L 205.29 111.4272 
z
" clip-path="url(#peea7de7d5d)" style="fill: #19a7ff; stroke: #111111; stroke-width: 1.05; stroke-linejoin: miter"/>
   </g>
   <g id="patch_22">
    <path d="M 246.582 105.373152 
L 270.018 105.373152 
L 270.018 83.751552 
L 246.582 83.751552 
z
" clip-path="url(#peea7de7d5d)" style="fill: #55c63a; stroke: #111111; stroke-width: 1.05; stroke-linejoin: miter"/>
   </g>
   <g id="patch_23">
    <path d="M 270.018 105.373152 
L 293.454 105.373152 
L 293.454 83.751552 
L 270.018 83.751552 
z
" clip-path="url(#peea7de7d5d)" style="fill: #55c63a; stroke: #111111; stroke-width: 1.05; stroke-linejoin: miter"/>
   </g>
   <g id="patch_24">
    <path d="M 293.454 105.373152 
L 316.89 105.373152 
L 316.89 83.751552 
L 293.454 83.751552 
z
" clip-path="url(#peea7de7d5d)" style="fill: #55c63a; stroke: #111111; stroke-width: 1.05; stroke-linejoin: miter"/>
   </g>
   <g id="patch_25">
    <path d="M 316.89 105.373152 
L 340.326 105.373152 
L 340.326 83.751552 
L 316.89 83.751552 
z
" clip-path="url(#peea7de7d5d)" style="fill: #55c63a; stroke: #111111; stroke-width: 1.05; stroke-linejoin: miter"/>
   </g>
   <g id="patch_26">
    <path d="M 378.27 68.184 
L 401.706 68.184 
L 401.706 46.5624 
L 378.27 46.5624 
z
" clip-path="url(#peea7de7d5d)" style="fill: #19a7ff; stroke: #111111; stroke-width: 1.05; stroke-linejoin: miter"/>
   </g>
   <g id="patch_27">
    <path d="M 378.27 89.8056 
L 401.706 89.8056 
L 401.706 68.184 
L 378.27 68.184 
z
" clip-path="url(#peea7de7d5d)" style="fill: #19a7ff; stroke: #111111; stroke-width: 1.05; stroke-linejoin: miter"/>
   </g>
   <g id="patch_28">
    <path d="M 378.27 111.4272 
L 401.706 111.4272 
L 401.706 89.8056 
L 378.27 89.8056 
z
" clip-path="url(#peea7de7d5d)" style="fill: #19a7ff; stroke: #111111; stroke-width: 1.05; stroke-linejoin: miter"/>
   </g>
   <g id="patch_29">
    <path d="M 378.27 133.0488 
L 401.706 133.0488 
L 401.706 111.4272 
L 378.27 111.4272 
z
" clip-path="url(#peea7de7d5d)" style="fill: #19a7ff; stroke: #111111; stroke-width: 1.05; stroke-linejoin: miter"/>
   </g>
   <g id="patch_30">
    <path d="M 419.562 105.373152 
L 442.998 105.373152 
L 442.998 83.751552 
L 419.562 83.751552 
z
" clip-path="url(#peea7de7d5d)" style="fill: #55c63a; stroke: #111111; stroke-width: 1.05; stroke-linejoin: miter"/>
   </g>
   <g id="patch_31">
    <path d="M 442.998 105.373152 
L 466.434 105.373152 
L 466.434 83.751552 
L 442.998 83.751552 
z
" clip-path="url(#peea7de7d5d)" style="fill: #55c63a; stroke: #111111; stroke-width: 1.05; stroke-linejoin: miter"/>
   </g>
   <g id="patch_32">
    <path d="M 466.434 105.373152 
L 489.87 105.373152 
L 489.87 83.751552 
L 466.434 83.751552 
z
" clip-path="url(#peea7de7d5d)" style="fill: #55c63a; stroke: #111111; stroke-width: 1.05; stroke-linejoin: miter"/>
   </g>
   <g id="patch_33">
    <path d="M 489.87 105.373152 
L 513.306 105.373152 
L 513.306 83.751552 
L 489.87 83.751552 
z
" clip-path="url(#peea7de7d5d)" style="fill: #55c63a; stroke: #111111; stroke-width: 1.05; stroke-linejoin: miter"/>
   </g>
   <g id="text_1">
    <!-- 3 -->
    <g style="fill: #111111" transform="translate(44.737531 61.236325) scale(0.14 -0.14)">
     <defs>
      <path id="DejaVuSerif-Bold-33" d="M 550 4531 
Q 963 4641 1350 4695 
Q 1738 4750 2106 4750 
Q 2950 4750 3401 4448 
Q 3853 4147 3853 3584 
Q 3853 3163 3593 2900 
Q 3334 2638 2834 2547 
Q 3444 2450 3744 2131 
Q 4044 1813 4044 1259 
Q 4044 606 3526 257 
Q 3009 -91 2028 -91 
Q 1659 -91 1267 -28 
Q 875 34 447 159 
L 447 1184 
L 825 1184 
Q 859 741 1103 508 
Q 1347 275 1778 275 
Q 2253 275 2512 539 
Q 2772 803 2772 1288 
Q 2772 1794 2501 2069 
Q 2231 2344 1734 2344 
L 1528 2344 
L 1528 2719 
L 1691 2719 
Q 2150 2719 2381 2931 
Q 2613 3144 2613 3566 
Q 2613 3963 2395 4173 
Q 2178 4384 1772 4384 
Q 1403 4384 1187 4182 
Q 972 3981 928 3597 
L 550 3597 
L 550 4531 
z
" transform="scale(0.015625)"/>
     </defs>
     <use xlink:href="#DejaVuSerif-Bold-33"/>
    </g>
   </g>
   <g id="text_2">
    <!-- 1 -->
    <g style="fill: #111111" transform="translate(68.173531 61.236325) scale(0.14 -0.14)">
     <defs>
      <path id="DejaVuSerif-Bold-31" d="M 878 0 
L 878 378 
L 1753 378 
L 1753 4153 
L 781 3578 
L 781 4044 
L 1953 4750 
L 2938 4750 
L 2938 378 
L 3816 378 
L 3816 0 
L 878 0 
z
" transform="scale(0.015625)"/>
     </defs>
     <use xlink:href="#DejaVuSerif-Bold-31"/>
    </g>
   </g>
   <g id="text_3">
    <!-- 4 -->
    <g style="fill: #111111" transform="translate(91.609531 61.236325) scale(0.14 -0.14)">
     <defs>
      <path id="DejaVuSerif-Bold-34" d="M 4084 0 
L 1516 0 
L 1516 378 
L 2209 378 
L 2209 1228 
L 263 1228 
L 263 1588 
L 2216 4750 
L 3391 4750 
L 3391 1631 
L 4191 1631 
L 4191 1228 
L 3391 1228 
L 3391 378 
L 4084 378 
L 4084 0 
z
M 2209 1631 
L 2209 3897 
L 819 1631 
L 2209 1631 
z
" transform="scale(0.015625)"/>
     </defs>
     <use xlink:href="#DejaVuSerif-Bold-34"/>
    </g>
   </g>
   <g id="text_4">
    <!-- 1 -->
    <g style="fill: #111111" transform="translate(115.045531 61.236325) scale(0.14 -0.14)">
     <use xlink:href="#DejaVuSerif-Bold-31"/>
    </g>
   </g>
   <g id="text_5">
    <!-- 5 -->
    <g style="fill: #111111" transform="translate(44.737531 82.857925) scale(0.14 -0.14)">
     <defs>
      <path id="DejaVuSerif-Bold-35" d="M 3609 4666 
L 3609 3847 
L 1113 3847 
L 1113 2822 
Q 1319 2981 1572 3062 
Q 1825 3144 2106 3144 
Q 2969 3144 3469 2708 
Q 3969 2272 3969 1522 
Q 3969 759 3469 334 
Q 2969 -91 2069 -91 
Q 1688 -91 1311 -28 
Q 934 34 525 166 
L 525 1184 
L 900 1184 
Q 919 725 1139 500 
Q 1359 275 1791 275 
Q 2250 275 2472 583 
Q 2694 891 2694 1522 
Q 2694 2144 2476 2451 
Q 2259 2759 1819 2759 
Q 1581 2759 1395 2661 
Q 1209 2563 1050 2356 
L 738 2356 
L 738 4666 
L 3609 4666 
z
" transform="scale(0.015625)"/>
     </defs>
     <use xlink:href="#DejaVuSerif-Bold-35"/>
    </g>
   </g>
   <g id="text_6">
    <!-- 9 -->
    <g style="fill: #111111" transform="translate(68.173531 82.857925) scale(0.14 -0.14)">
     <defs>
      <path id="DejaVuSerif-Bold-39" d="M 2181 4384 
Q 1859 4384 1723 4111 
Q 1588 3838 1588 3163 
Q 1588 2488 1723 2214 
Q 1859 1941 2181 1941 
Q 2503 1941 2640 2214 
Q 2778 2488 2778 3163 
Q 2778 3838 2640 4111 
Q 2503 4384 2181 4384 
z
M 2878 1900 
Q 2672 1734 2420 1651 
Q 2169 1569 1875 1569 
Q 1163 1569 755 1986 
Q 347 2403 347 3138 
Q 347 3913 803 4331 
Q 1259 4750 2106 4750 
Q 3063 4750 3556 4172 
Q 4050 3594 4050 2478 
Q 4050 1206 3503 557 
Q 2956 -91 1881 -91 
Q 1600 -91 1278 -44 
Q 956 3 588 97 
L 588 922 
L 966 922 
Q 1044 603 1261 439 
Q 1478 275 1825 275 
Q 2375 275 2625 658 
Q 2875 1041 2878 1900 
z
" transform="scale(0.015625)"/>
     </defs>
     <use xlink:href="#DejaVuSerif-Bold-39"/>
    </g>
   </g>
   <g id="text_7">
    <!-- 2 -->
    <g style="fill: #111111" transform="translate(91.609531 82.857925) scale(0.14 -0.14)">
     <defs>
      <path id="DejaVuSerif-Bold-32" d="M 844 3513 
L 469 3513 
L 469 4519 
Q 850 4634 1223 4692 
Q 1597 4750 1978 4750 
Q 2869 4750 3367 4386 
Q 3866 4022 3866 3372 
Q 3866 2909 3591 2542 
Q 3316 2175 2541 1672 
L 1241 819 
L 3450 819 
L 3450 1369 
L 3878 1369 
L 3878 0 
L 428 0 
L 428 763 
L 1119 1241 
Q 2003 1850 2297 2278 
Q 2591 2706 2591 3278 
Q 2591 3819 2367 4101 
Q 2144 4384 1716 4384 
Q 1347 4384 1125 4161 
Q 903 3938 844 3513 
z
" transform="scale(0.015625)"/>
     </defs>
     <use xlink:href="#DejaVuSerif-Bold-32"/>
    </g>
   </g>
   <g id="text_8">
    <!-- 6 -->
    <g style="fill: #111111" transform="translate(115.045531 82.857925) scale(0.14 -0.14)">
     <defs>
      <path id="DejaVuSerif-Bold-36" d="M 1575 2766 
Q 1778 2928 2029 3009 
Q 2281 3091 2578 3091 
Q 3294 3091 3701 2672 
Q 4109 2253 4109 1522 
Q 4109 750 3650 329 
Q 3191 -91 2344 -91 
Q 1388 -91 895 486 
Q 403 1063 403 2181 
Q 403 3453 950 4101 
Q 1497 4750 2572 4750 
Q 2853 4750 3175 4703 
Q 3497 4656 3866 4563 
L 3866 3738 
L 3488 3738 
Q 3409 4056 3192 4220 
Q 2975 4384 2631 4384 
Q 2075 4384 1826 4003 
Q 1578 3622 1575 2766 
z
M 2272 275 
Q 2594 275 2731 548 
Q 2869 822 2869 1497 
Q 2869 2172 2731 2445 
Q 2594 2719 2272 2719 
Q 1950 2719 1814 2445 
Q 1678 2172 1678 1497 
Q 1678 822 1814 548 
Q 1950 275 2272 275 
z
" transform="scale(0.015625)"/>
     </defs>
     <use xlink:href="#DejaVuSerif-Bold-36"/>
    </g>
   </g>
   <g id="text_9">
    <!-- 5 -->
    <g style="fill: #111111" transform="translate(44.737531 104.479525) scale(0.14 -0.14)">
     <use xlink:href="#DejaVuSerif-Bold-35"/>
    </g>
   </g>
   <g id="text_10">
    <!-- 3 -->
    <g style="fill: #111111" transform="translate(68.173531 104.479525) scale(0.14 -0.14)">
     <use xlink:href="#DejaVuSerif-Bold-33"/>
    </g>
   </g>
   <g id="text_11">
    <!-- 5 -->
    <g style="fill: #111111" transform="translate(91.609531 104.479525) scale(0.14 -0.14)">
     <use xlink:href="#DejaVuSerif-Bold-35"/>
    </g>
   </g>
   <g id="text_12">
    <!-- 8 -->
    <g style="fill: #111111" transform="translate(115.045531 104.479525) scale(0.14 -0.14)">
     <defs>
      <path id="DejaVuSerif-Bold-38" d="M 2975 2484 
Q 3531 2394 3820 2075 
Q 4109 1756 4109 1241 
Q 4109 597 3623 253 
Q 3138 -91 2222 -91 
Q 1306 -91 818 253 
Q 331 597 331 1241 
Q 331 1756 622 2075 
Q 913 2394 1466 2484 
Q 975 2597 731 2861 
Q 488 3125 488 3531 
Q 488 4125 931 4437 
Q 1375 4750 2222 4750 
Q 3066 4750 3511 4437 
Q 3956 4125 3956 3531 
Q 3956 3125 3711 2861 
Q 3466 2597 2975 2484 
z
M 2747 3519 
Q 2747 4013 2628 4198 
Q 2509 4384 2222 4384 
Q 1931 4384 1814 4198 
Q 1697 4013 1697 3519 
Q 1697 3028 1814 2845 
Q 1931 2663 2222 2663 
Q 2513 2663 2630 2845 
Q 2747 3028 2747 3519 
z
M 2869 1294 
Q 2869 1866 2723 2081 
Q 2578 2297 2222 2297 
Q 1863 2297 1719 2081 
Q 1575 1866 1575 1294 
Q 1575 716 1720 495 
Q 1866 275 2222 275 
Q 2575 275 2722 495 
Q 2869 716 2869 1294 
z
" transform="scale(0.015625)"/>
     </defs>
     <use xlink:href="#DejaVuSerif-Bold-38"/>
    </g>
   </g>
   <g id="text_13">
    <!-- 9 -->
    <g style="fill: #111111" transform="translate(44.737531 126.101125) scale(0.14 -0.14)">
     <use xlink:href="#DejaVuSerif-Bold-39"/>
    </g>
   </g>
   <g id="text_14">
    <!-- 7 -->
    <g style="fill: #111111" transform="translate(68.173531 126.101125) scale(0.14 -0.14)">
     <defs>
      <path id="DejaVuSerif-Bold-37" d="M 3922 3872 
L 1997 0 
L 1363 0 
L 3238 3781 
L 934 3781 
L 934 3150 
L 506 3150 
L 506 4666 
L 3922 4666 
L 3922 3872 
z
" transform="scale(0.015625)"/>
     </defs>
     <use xlink:href="#DejaVuSerif-Bold-37"/>
    </g>
   </g>
   <g id="text_15">
    <!-- 9 -->
    <g style="fill: #111111" transform="translate(91.609531 126.101125) scale(0.14 -0.14)">
     <use xlink:href="#DejaVuSerif-Bold-39"/>
    </g>
   </g>
   <g id="text_16">
    <!-- 3 -->
    <g style="fill: #111111" transform="translate(115.045531 126.101125) scale(0.14 -0.14)">
     <use xlink:href="#DejaVuSerif-Bold-33"/>
    </g>
   </g>
   <g id="text_17">
    <!-- Rang 4 -->
    <g style="fill: #666666" transform="translate(55.882 178.8163) scale(0.16 -0.16)">
     <defs>
      <path id="DejaVuSerif-52" d="M 3066 2316 
Q 3284 2256 3442 2114 
Q 3600 1972 3725 1716 
L 4403 331 
L 4972 331 
L 4972 0 
L 3872 0 
L 3144 1484 
Q 2934 1916 2759 2042 
Q 2584 2169 2278 2169 
L 1581 2169 
L 1581 331 
L 2241 331 
L 2241 0 
L 353 0 
L 353 331 
L 947 331 
L 947 4331 
L 353 4331 
L 353 4666 
L 2719 4666 
Q 3400 4666 3770 4341 
Q 4141 4016 4141 3419 
Q 4141 2938 3870 2661 
Q 3600 2384 3066 2316 
z
M 1581 2503 
L 2503 2503 
Q 2975 2503 3200 2726 
Q 3425 2950 3425 3419 
Q 3425 3888 3200 4109 
Q 2975 4331 2503 4331 
L 1581 4331 
L 1581 2503 
z
" transform="scale(0.015625)"/>
      <path id="DejaVuSerif-61" d="M 2547 1044 
L 2547 1747 
L 1806 1747 
Q 1378 1747 1168 1562 
Q 959 1378 959 997 
Q 959 650 1171 447 
Q 1384 244 1747 244 
Q 2106 244 2326 466 
Q 2547 688 2547 1044 
z
M 3122 2075 
L 3122 331 
L 3634 331 
L 3634 0 
L 2547 0 
L 2547 359 
Q 2356 128 2106 18 
Q 1856 -91 1522 -91 
Q 969 -91 644 203 
Q 319 497 319 997 
Q 319 1513 691 1797 
Q 1063 2081 1741 2081 
L 2547 2081 
L 2547 2309 
Q 2547 2688 2317 2895 
Q 2088 3103 1672 3103 
Q 1328 3103 1125 2947 
Q 922 2791 872 2484 
L 575 2484 
L 575 3156 
Q 875 3284 1158 3348 
Q 1441 3413 1709 3413 
Q 2400 3413 2761 3070 
Q 3122 2728 3122 2075 
z
" transform="scale(0.015625)"/>
      <path id="DejaVuSerif-6e" d="M 263 0 
L 263 331 
L 781 331 
L 781 2988 
L 231 2988 
L 231 3322 
L 1356 3322 
L 1356 2731 
Q 1516 3069 1770 3241 
Q 2025 3413 2363 3413 
Q 2913 3413 3172 3097 
Q 3431 2781 3431 2113 
L 3431 331 
L 3944 331 
L 3944 0 
L 2356 0 
L 2356 331 
L 2853 331 
L 2853 1931 
Q 2853 2541 2703 2767 
Q 2553 2994 2175 2994 
Q 1775 2994 1565 2701 
Q 1356 2409 1356 1850 
L 1356 331 
L 1856 331 
L 1856 0 
L 263 0 
z
" transform="scale(0.015625)"/>
      <path id="DejaVuSerif-67" d="M 3359 2988 
L 3359 72 
Q 3359 -644 2965 -1033 
Q 2572 -1422 1844 -1422 
Q 1516 -1422 1216 -1362 
Q 916 -1303 641 -1184 
L 641 -488 
L 941 -488 
Q 997 -813 1206 -963 
Q 1416 -1113 1806 -1113 
Q 2313 -1113 2548 -827 
Q 2784 -541 2784 72 
L 2784 519 
Q 2616 206 2355 57 
Q 2094 -91 1709 -91 
Q 1097 -91 708 395 
Q 319 881 319 1663 
Q 319 2444 706 2928 
Q 1094 3413 1709 3413 
Q 2094 3413 2355 3264 
Q 2616 3116 2784 2803 
L 2784 3322 
L 3909 3322 
L 3909 2988 
L 3359 2988 
z
M 2784 1825 
Q 2784 2422 2554 2737 
Q 2325 3053 1888 3053 
Q 1444 3053 1217 2703 
Q 991 2353 991 1663 
Q 991 975 1217 622 
Q 1444 269 1888 269 
Q 2325 269 2554 583 
Q 2784 897 2784 1497 
L 2784 1825 
z
" transform="scale(0.015625)"/>
      <path id="DejaVuSerif-20" transform="scale(0.015625)"/>
      <path id="DejaVuSerif-34" d="M 2234 1581 
L 2234 4063 
L 641 1581 
L 2234 1581 
z
M 3609 0 
L 1484 0 
L 1484 331 
L 2234 331 
L 2234 1247 
L 197 1247 
L 197 1588 
L 2241 4750 
L 2859 4750 
L 2859 1581 
L 3750 1581 
L 3750 1247 
L 2859 1247 
L 2859 331 
L 3609 331 
L 3609 0 
z
" transform="scale(0.015625)"/>
     </defs>
     <use xlink:href="#DejaVuSerif-52"/>
     <use xlink:href="#DejaVuSerif-61" transform="translate(77.542969 0)"/>
     <use xlink:href="#DejaVuSerif-6e" transform="translate(137.162109 0)"/>
     <use xlink:href="#DejaVuSerif-67" transform="translate(201.566406 0)"/>
     <use xlink:href="#DejaVuSerif-20" transform="translate(265.580078 0)"/>
     <use xlink:href="#DejaVuSerif-34" transform="translate(297.367188 0)"/>
    </g>
   </g>
   <g id="text_18">
    <!-- ≈ -->
    <g style="fill: #666666" transform="translate(161.754375 116.3865) scale(0.24 -0.24)">
     <defs>
      <path id="DejaVuSerif-2248" d="M 4684 1913 
L 4684 1453 
Q 4375 1172 4092 1040 
Q 3809 909 3519 909 
Q 3231 909 2713 1106 
Q 2666 1125 2641 1134 
Q 2609 1147 2541 1172 
Q 2081 1350 1784 1350 
Q 1497 1350 1226 1236 
Q 956 1122 678 884 
L 678 1344 
Q 994 1625 1273 1753 
Q 1553 1881 1844 1881 
Q 2144 1881 2688 1675 
L 2719 1663 
Q 2753 1653 2816 1625 
Q 3269 1447 3572 1447 
Q 3859 1447 4134 1561 
Q 4409 1675 4684 1913 
z
M 4684 3128 
L 4684 2669 
Q 4378 2391 4095 2261 
Q 3813 2131 3519 2131 
Q 3219 2131 2675 2338 
L 2644 2350 
Q 2609 2363 2541 2388 
Q 2081 2566 1784 2566 
Q 1497 2566 1226 2452 
Q 956 2338 678 2100 
L 678 2559 
Q 994 2841 1273 2969 
Q 1553 3097 1844 3097 
Q 2144 3097 2688 2894 
L 2719 2881 
Q 2753 2869 2816 2841 
Q 3269 2663 3572 2663 
Q 3859 2663 4134 2777 
Q 4409 2891 4684 3128 
z
" transform="scale(0.015625)"/>
     </defs>
     <use xlink:href="#DejaVuSerif-2248"/>
    </g>
   </g>
   <g id="text_19">
    <!-- 1. Baustein -->
    <g style="fill: #666666" transform="translate(176.983312 169.621525) scale(0.14 -0.14)">
     <defs>
      <path id="DejaVuSerif-31" d="M 909 0 
L 909 331 
L 1722 331 
L 1722 4213 
L 781 3603 
L 781 4013 
L 1919 4750 
L 2350 4750 
L 2350 331 
L 3163 331 
L 3163 0 
L 909 0 
z
" transform="scale(0.015625)"/>
      <path id="DejaVuSerif-2e" d="M 603 325 
Q 603 500 722 622 
Q 841 744 1019 744 
Q 1191 744 1312 622 
Q 1434 500 1434 325 
Q 1434 153 1312 31 
Q 1191 -91 1019 -91 
Q 841 -91 722 29 
Q 603 150 603 325 
z
" transform="scale(0.015625)"/>
      <path id="DejaVuSerif-42" d="M 1581 331 
L 2516 331 
Q 3078 331 3337 575 
Q 3597 819 3597 1350 
Q 3597 1878 3339 2120 
Q 3081 2363 2516 2363 
L 1581 2363 
L 1581 331 
z
M 1581 2694 
L 2375 2694 
Q 2888 2694 3123 2891 
Q 3359 3088 3359 3513 
Q 3359 3941 3123 4136 
Q 2888 4331 2375 4331 
L 1581 4331 
L 1581 2694 
z
M 353 0 
L 353 331 
L 947 331 
L 947 4331 
L 353 4331 
L 353 4666 
L 2656 4666 
Q 3363 4666 3720 4377 
Q 4078 4088 4078 3513 
Q 4078 3097 3829 2850 
Q 3581 2603 3103 2547 
Q 3697 2472 4005 2167 
Q 4313 1863 4313 1350 
Q 4313 656 3875 328 
Q 3438 0 2509 0 
L 353 0 
z
" transform="scale(0.015625)"/>
      <path id="DejaVuSerif-75" d="M 2266 3322 
L 3341 3322 
L 3341 331 
L 3884 331 
L 3884 0 
L 2766 0 
L 2766 588 
Q 2606 256 2353 82 
Q 2100 -91 1766 -91 
Q 1213 -91 952 223 
Q 691 538 691 1209 
L 691 2988 
L 172 2988 
L 172 3322 
L 1269 3322 
L 1269 1388 
Q 1269 781 1417 556 
Q 1566 331 1947 331 
Q 2347 331 2556 625 
Q 2766 919 2766 1478 
L 2766 2988 
L 2266 2988 
L 2266 3322 
z
" transform="scale(0.015625)"/>
      <path id="DejaVuSerif-73" d="M 359 184 
L 359 959 
L 691 959 
Q 703 588 923 403 
Q 1144 219 1575 219 
Q 1963 219 2166 364 
Q 2369 509 2369 788 
Q 2369 1006 2220 1140 
Q 2072 1275 1594 1428 
L 1178 1569 
Q 750 1706 558 1912 
Q 366 2119 366 2438 
Q 366 2894 700 3153 
Q 1034 3413 1625 3413 
Q 1888 3413 2178 3344 
Q 2469 3275 2778 3144 
L 2778 2419 
L 2447 2419 
Q 2434 2741 2221 2922 
Q 2009 3103 1644 3103 
Q 1281 3103 1095 2975 
Q 909 2847 909 2591 
Q 909 2381 1050 2254 
Q 1191 2128 1613 1997 
L 2069 1856 
Q 2541 1709 2748 1489 
Q 2956 1269 2956 922 
Q 2956 450 2595 179 
Q 2234 -91 1600 -91 
Q 1278 -91 972 -22 
Q 666 47 359 184 
z
" transform="scale(0.015625)"/>
      <path id="DejaVuSerif-74" d="M 691 2988 
L 184 2988 
L 184 3322 
L 691 3322 
L 691 4353 
L 1269 4353 
L 1269 3322 
L 2350 3322 
L 2350 2988 
L 1269 2988 
L 1269 878 
Q 1269 456 1350 337 
Q 1431 219 1650 219 
Q 1875 219 1978 351 
Q 2081 484 2088 781 
L 2522 781 
Q 2497 328 2275 118 
Q 2053 -91 1600 -91 
Q 1103 -91 897 129 
Q 691 350 691 878 
L 691 2988 
z
" transform="scale(0.015625)"/>
      <path id="DejaVuSerif-65" d="M 3469 1600 
L 991 1600 
L 991 1575 
Q 991 903 1244 561 
Q 1497 219 1991 219 
Q 2369 219 2611 417 
Q 2853 616 2950 1006 
L 3413 1006 
Q 3275 459 2904 184 
Q 2534 -91 1931 -91 
Q 1203 -91 761 389 
Q 319 869 319 1663 
Q 319 2450 753 2931 
Q 1188 3413 1894 3413 
Q 2647 3413 3050 2948 
Q 3453 2484 3469 1600 
z
M 2791 1931 
Q 2772 2513 2545 2808 
Q 2319 3103 1894 3103 
Q 1497 3103 1269 2806 
Q 1041 2509 991 1931 
L 2791 1931 
z
" transform="scale(0.015625)"/>
      <path id="DejaVuSerif-69" d="M 622 4353 
Q 622 4497 726 4603 
Q 831 4709 978 4709 
Q 1122 4709 1226 4603 
Q 1331 4497 1331 4353 
Q 1331 4206 1228 4103 
Q 1125 4000 978 4000 
Q 831 4000 726 4103 
Q 622 4206 622 4353 
z
M 1356 331 
L 1900 331 
L 1900 0 
L 231 0 
L 231 331 
L 781 331 
L 781 2988 
L 231 2988 
L 231 3322 
L 1356 3322 
L 1356 331 
z
" transform="scale(0.015625)"/>
     </defs>
     <use xlink:href="#DejaVuSerif-31"/>
     <use xlink:href="#DejaVuSerif-2e" transform="translate(63.623047 0)"/>
     <use xlink:href="#DejaVuSerif-20" transform="translate(95.410156 0)"/>
     <use xlink:href="#DejaVuSerif-42" transform="translate(127.197266 0)"/>
     <use xlink:href="#DejaVuSerif-61" transform="translate(200.683594 0)"/>
     <use xlink:href="#DejaVuSerif-75" transform="translate(260.302734 0)"/>
     <use xlink:href="#DejaVuSerif-73" transform="translate(324.707031 0)"/>
     <use xlink:href="#DejaVuSerif-74" transform="translate(376.025391 0)"/>
     <use xlink:href="#DejaVuSerif-65" transform="translate(416.210938 0)"/>
     <use xlink:href="#DejaVuSerif-69" transform="translate(475.390625 0)"/>
     <use xlink:href="#DejaVuSerif-6e" transform="translate(507.373047 0)"/>
    </g>
   </g>
   <g id="text_20">
    <!-- $u_i v_i^T$ -->
    <g style="fill: #666666" transform="translate(279.204 130.940352) scale(0.15 -0.15)">
     <defs>
      <path id="Cmmi10-75" d="M 678 697 
Q 678 906 734 1126 
Q 791 1347 892 1617 
Q 994 1888 1069 2088 
Q 1153 2322 1153 2472 
Q 1153 2663 1013 2663 
Q 759 2663 595 2402 
Q 431 2141 353 1819 
Q 341 1778 300 1778 
L 225 1778 
Q 172 1778 172 1838 
L 172 1856 
Q 275 2238 487 2533 
Q 700 2828 1025 2828 
Q 1253 2828 1411 2678 
Q 1569 2528 1569 2297 
Q 1569 2178 1516 2047 
Q 1488 1969 1388 1706 
Q 1288 1444 1234 1272 
Q 1181 1100 1147 934 
Q 1113 769 1113 603 
Q 1113 391 1203 244 
Q 1294 97 1497 97 
Q 1906 97 2216 603 
Q 2222 628 2226 651 
Q 2231 675 2234 697 
L 2694 2553 
Q 2716 2638 2794 2698 
Q 2872 2759 2963 2759 
Q 3041 2759 3098 2709 
Q 3156 2659 3156 2578 
Q 3156 2541 3150 2528 
L 2688 684 
Q 2644 494 2644 372 
Q 2644 97 2828 97 
Q 3034 97 3136 351 
Q 3238 606 3309 941 
Q 3322 978 3359 978 
L 3438 978 
Q 3463 978 3478 956 
Q 3494 934 3494 916 
Q 3425 641 3361 444 
Q 3297 247 3159 87 
Q 3022 -72 2816 -72 
Q 2613 -72 2452 39 
Q 2291 150 2234 341 
Q 2088 153 1894 40 
Q 1700 -72 1484 -72 
Q 1116 -72 897 129 
Q 678 331 678 697 
z
" transform="scale(0.015625)"/>
      <path id="Cmmi10-69" d="M 500 459 
Q 500 578 550 709 
L 1069 2088 
Q 1153 2322 1153 2472 
Q 1153 2663 1013 2663 
Q 759 2663 595 2402 
Q 431 2141 353 1819 
Q 341 1778 300 1778 
L 225 1778 
Q 172 1778 172 1838 
L 172 1856 
Q 275 2238 487 2533 
Q 700 2828 1025 2828 
Q 1253 2828 1411 2678 
Q 1569 2528 1569 2297 
Q 1569 2178 1516 2047 
L 997 672 
Q 909 459 909 288 
Q 909 97 1056 97 
Q 1306 97 1473 364 
Q 1641 631 1709 941 
Q 1722 978 1759 978 
L 1838 978 
Q 1863 978 1878 961 
Q 1894 944 1894 922 
Q 1894 916 1888 903 
Q 1800 541 1583 234 
Q 1366 -72 1044 -72 
Q 819 -72 659 83 
Q 500 238 500 459 
z
M 1222 3878 
Q 1222 4013 1334 4122 
Q 1447 4231 1581 4231 
Q 1691 4231 1761 4164 
Q 1831 4097 1831 3994 
Q 1831 3850 1717 3742 
Q 1603 3634 1466 3634 
Q 1363 3634 1292 3704 
Q 1222 3775 1222 3878 
z
" transform="scale(0.015625)"/>
      <path id="Cmmi10-76" d="M 684 722 
Q 684 866 718 1037 
Q 753 1209 787 1320 
Q 822 1431 944 1753 
Q 1066 2075 1069 2088 
Q 1153 2322 1153 2472 
Q 1153 2663 1013 2663 
Q 759 2663 595 2402 
Q 431 2141 353 1819 
Q 341 1778 300 1778 
L 225 1778 
Q 172 1778 172 1838 
L 172 1856 
Q 275 2238 487 2533 
Q 700 2828 1025 2828 
Q 1253 2828 1411 2678 
Q 1569 2528 1569 2297 
Q 1569 2178 1516 2047 
Q 1391 1722 1319 1526 
Q 1247 1331 1186 1089 
Q 1125 847 1125 641 
Q 1125 400 1236 248 
Q 1347 97 1581 97 
Q 2025 97 2381 781 
Q 2494 1003 2594 1303 
Q 2694 1603 2694 1791 
Q 2694 1984 2631 2092 
Q 2569 2200 2469 2317 
Q 2369 2434 2369 2503 
Q 2369 2628 2472 2731 
Q 2575 2834 2700 2834 
Q 2853 2834 2920 2693 
Q 2988 2553 2988 2375 
Q 2988 2163 2927 1869 
Q 2866 1575 2758 1259 
Q 2650 944 2559 763 
Q 2138 -72 1575 -72 
Q 1172 -72 928 129 
Q 684 331 684 722 
z
" transform="scale(0.015625)"/>
      <path id="Cmmi10-54" d="M 294 84 
Q 297 100 308 140 
Q 319 181 336 203 
Q 353 225 384 225 
Q 934 225 1113 256 
Q 1284 300 1319 441 
L 2194 3956 
Q 2222 4034 2222 4097 
Q 2222 4147 1997 4147 
L 1625 4147 
Q 1197 4147 964 4015 
Q 731 3884 622 3668 
Q 513 3453 341 2963 
Q 319 2906 275 2906 
L 219 2906 
Q 153 2906 153 2988 
L 609 4313 
Q 622 4372 672 4372 
L 4453 4372 
Q 4519 4372 4519 4288 
L 4306 2963 
Q 4306 2944 4284 2925 
Q 4263 2906 4244 2906 
L 4184 2906 
Q 4122 2906 4122 2988 
Q 4191 3441 4191 3628 
Q 4191 3853 4097 3968 
Q 4003 4084 3853 4115 
Q 3703 4147 3463 4147 
L 3084 4147 
Q 2913 4147 2853 4115 
Q 2794 4084 2753 3928 
L 1875 416 
Q 1872 403 1870 390 
Q 1869 378 1863 359 
Q 1863 278 1959 256 
Q 2125 225 2669 225 
Q 2731 225 2731 141 
Q 2709 50 2696 25 
Q 2684 0 2625 0 
L 359 0 
Q 294 0 294 84 
z
" transform="scale(0.015625)"/>
     </defs>
     <use xlink:href="#Cmmi10-75" transform="translate(0 0.917188)"/>
     <use xlink:href="#Cmmi10-69" transform="translate(57.177734 -16.089062) scale(0.7)"/>
     <use xlink:href="#Cmmi10-76" transform="translate(87.651758 0.917188)"/>
     <use xlink:href="#Cmmi10-54" transform="translate(142.363398 39.18125) scale(0.7)"/>
     <use xlink:href="#Cmmi10-69" transform="translate(136.04043 -24.592187) scale(0.7)"/>
    </g>
   </g>
   <g id="text_21">
    <!-- $\sigma_1$ -->
    <g style="fill: #f2aa00" transform="translate(225.27 62.6198) scale(0.16 -0.16)">
     <defs>
      <path id="Cmmi10-be" d="M 1197 -72 
Q 913 -72 692 64 
Q 472 200 351 431 
Q 231 663 231 941 
Q 231 1238 365 1566 
Q 500 1894 733 2166 
Q 966 2438 1259 2598 
Q 1553 2759 1863 2759 
L 3475 2759 
Q 3541 2759 3587 2715 
Q 3634 2672 3634 2597 
Q 3634 2503 3567 2433 
Q 3500 2363 3406 2363 
L 2625 2363 
Q 2809 2088 2809 1697 
Q 2809 1375 2684 1062 
Q 2559 750 2337 492 
Q 2116 234 1820 81 
Q 1525 -72 1197 -72 
z
M 1203 97 
Q 1553 97 1823 370 
Q 2094 644 2237 1039 
Q 2381 1434 2381 1772 
Q 2381 2047 2229 2205 
Q 2078 2363 1806 2363 
Q 1434 2363 1173 2113 
Q 913 1863 783 1484 
Q 653 1106 653 756 
Q 653 481 798 289 
Q 944 97 1203 97 
z
" transform="scale(0.015625)"/>
      <path id="Cmr10-31" d="M 594 0 
L 594 225 
Q 1394 225 1394 428 
L 1394 3788 
Q 1063 3628 556 3628 
L 556 3853 
Q 1341 3853 1741 4263 
L 1831 4263 
Q 1853 4263 1873 4245 
Q 1894 4228 1894 4206 
L 1894 428 
Q 1894 225 2694 225 
L 2694 0 
L 594 0 
z
" transform="scale(0.015625)"/>
     </defs>
     <use xlink:href="#Cmmi10-be" transform="translate(0 0.890625)"/>
     <use xlink:href="#Cmr10-31" transform="translate(57.080078 -16.115625) scale(0.7)"/>
    </g>
   </g>
   <g id="text_22">
    <!-- + -->
    <g style="fill: #666666" transform="translate(335.572344 115.834625) scale(0.22 -0.22)">
     <defs>
      <path id="DejaVuSerif-2b" d="M 2931 4013 
L 2931 2259 
L 4684 2259 
L 4684 1753 
L 2931 1753 
L 2931 0 
L 2431 0 
L 2431 1753 
L 678 1753 
L 678 2259 
L 2431 2259 
L 2431 4013 
L 2931 4013 
z
" transform="scale(0.015625)"/>
     </defs>
     <use xlink:href="#DejaVuSerif-2b"/>
    </g>
   </g>
   <g id="text_23">
    <!-- 2. Baustein -->
    <g style="fill: #666666" transform="translate(349.963312 169.621525) scale(0.14 -0.14)">
     <defs>
      <path id="DejaVuSerif-32" d="M 819 3553 
L 469 3553 
L 469 4384 
Q 803 4563 1142 4656 
Q 1481 4750 1806 4750 
Q 2534 4750 2956 4397 
Q 3378 4044 3378 3438 
Q 3378 2753 2422 1800 
Q 2347 1728 2309 1691 
L 1131 513 
L 3078 513 
L 3078 1088 
L 3444 1088 
L 3444 0 
L 434 0 
L 434 341 
L 1850 1753 
Q 2319 2222 2519 2614 
Q 2719 3006 2719 3438 
Q 2719 3909 2473 4175 
Q 2228 4441 1797 4441 
Q 1350 4441 1106 4219 
Q 863 3997 819 3553 
z
" transform="scale(0.015625)"/>
     </defs>
     <use xlink:href="#DejaVuSerif-32"/>
     <use xlink:href="#DejaVuSerif-2e" transform="translate(63.623047 0)"/>
     <use xlink:href="#DejaVuSerif-20" transform="translate(95.410156 0)"/>
     <use xlink:href="#DejaVuSerif-42" transform="translate(127.197266 0)"/>
     <use xlink:href="#DejaVuSerif-61" transform="translate(200.683594 0)"/>
     <use xlink:href="#DejaVuSerif-75" transform="translate(260.302734 0)"/>
     <use xlink:href="#DejaVuSerif-73" transform="translate(324.707031 0)"/>
     <use xlink:href="#DejaVuSerif-74" transform="translate(376.025391 0)"/>
     <use xlink:href="#DejaVuSerif-65" transform="translate(416.210938 0)"/>
     <use xlink:href="#DejaVuSerif-69" transform="translate(475.390625 0)"/>
     <use xlink:href="#DejaVuSerif-6e" transform="translate(507.373047 0)"/>
    </g>
   </g>
   <g id="text_24">
    <!-- $u_i v_i^T$ -->
    <g style="fill: #666666" transform="translate(452.184 130.940352) scale(0.15 -0.15)">
     <use xlink:href="#Cmmi10-75" transform="translate(0 0.917188)"/>
     <use xlink:href="#Cmmi10-69" transform="translate(57.177734 -16.089062) scale(0.7)"/>
     <use xlink:href="#Cmmi10-76" transform="translate(87.651758 0.917188)"/>
     <use xlink:href="#Cmmi10-54" transform="translate(142.363398 39.18125) scale(0.7)"/>
     <use xlink:href="#Cmmi10-69" transform="translate(136.04043 -24.592187) scale(0.7)"/>
    </g>
   </g>
   <g id="text_25">
    <!-- $\sigma_2$ -->
    <g style="fill: #f2aa00" transform="translate(398.25 62.6198) scale(0.16 -0.16)">
     <defs>
      <path id="Cmr10-32" d="M 319 0 
L 319 172 
Q 319 188 331 206 
L 1325 1306 
Q 1550 1550 1690 1715 
Q 1831 1881 1968 2097 
Q 2106 2313 2186 2536 
Q 2266 2759 2266 3009 
Q 2266 3272 2169 3511 
Q 2072 3750 1880 3894 
Q 1688 4038 1416 4038 
Q 1138 4038 916 3870 
Q 694 3703 603 3438 
Q 628 3444 672 3444 
Q 816 3444 917 3347 
Q 1019 3250 1019 3097 
Q 1019 2950 917 2848 
Q 816 2747 672 2747 
Q 522 2747 420 2851 
Q 319 2956 319 3097 
Q 319 3338 409 3548 
Q 500 3759 670 3923 
Q 841 4088 1055 4175 
Q 1269 4263 1509 4263 
Q 1875 4263 2190 4108 
Q 2506 3953 2690 3670 
Q 2875 3388 2875 3009 
Q 2875 2731 2753 2481 
Q 2631 2231 2440 2026 
Q 2250 1822 1953 1562 
Q 1656 1303 1563 1216 
L 838 519 
L 1453 519 
Q 1906 519 2211 526 
Q 2516 534 2534 550 
Q 2609 631 2688 1141 
L 2875 1141 
L 2694 0 
L 319 0 
z
" transform="scale(0.015625)"/>
     </defs>
     <use xlink:href="#Cmmi10-be" transform="translate(0 0.890625)"/>
     <use xlink:href="#Cmr10-32" transform="translate(57.080078 -16.115625) scale(0.7)"/>
    </g>
   </g>
   <g id="text_26">
    <!-- + -->
    <g style="fill: #666666" transform="translate(508.552344 115.834625) scale(0.22 -0.22)">
     <use xlink:href="#DejaVuSerif-2b"/>
    </g>
   </g>
   <g id="text_27">
    <!-- … -->
    <g style="fill: #666666" transform="translate(548.46 116.662437) scale(0.25 -0.25)">
     <defs>
      <path id="DejaVuSerif-2026" d="M 4916 325 
Q 4916 500 5036 622 
Q 5156 744 5331 744 
Q 5503 744 5625 622 
Q 5747 500 5747 325 
Q 5747 153 5625 31 
Q 5503 -91 5331 -91 
Q 5153 -91 5034 29 
Q 4916 150 4916 325 
z
M 2784 325 
Q 2784 500 2904 622 
Q 3025 744 3200 744 
Q 3372 744 3494 622 
Q 3616 500 3616 325 
Q 3616 153 3494 31 
Q 3372 -91 3200 -91 
Q 3022 -91 2903 29 
Q 2784 150 2784 325 
z
M 653 325 
Q 653 500 773 622 
Q 894 744 1069 744 
Q 1241 744 1362 622 
Q 1484 500 1484 325 
Q 1484 153 1362 31 
Q 1241 -91 1069 -91 
Q 891 -91 772 29 
Q 653 150 653 325 
z
" transform="scale(0.015625)"/>
     </defs>
     <use xlink:href="#DejaVuSerif-2026"/>
    </g>
   </g>
   <g id="text_28">
    <!-- Voller Rang -->
    <g style="fill: #111111" transform="translate(37.89 32.56845) scale(0.16 -0.16)">
     <defs>
      <path id="DejaVuSerif-56" d="M 1119 4331 
L 2497 750 
L 3872 4331 
L 3347 4331 
L 3347 4666 
L 4716 4666 
L 4716 4331 
L 4263 4331 
L 2597 0 
L 2059 0 
L 403 4331 
L -63 4331 
L -63 4666 
L 1638 4666 
L 1638 4331 
L 1119 4331 
z
" transform="scale(0.015625)"/>
      <path id="DejaVuSerif-6f" d="M 1925 219 
Q 2388 219 2623 584 
Q 2859 950 2859 1663 
Q 2859 2375 2623 2739 
Q 2388 3103 1925 3103 
Q 1463 3103 1227 2739 
Q 991 2375 991 1663 
Q 991 950 1228 584 
Q 1466 219 1925 219 
z
M 1925 -91 
Q 1200 -91 759 389 
Q 319 869 319 1663 
Q 319 2456 758 2934 
Q 1197 3413 1925 3413 
Q 2653 3413 3092 2934 
Q 3531 2456 3531 1663 
Q 3531 869 3092 389 
Q 2653 -91 1925 -91 
z
" transform="scale(0.015625)"/>
      <path id="DejaVuSerif-6c" d="M 1313 331 
L 1856 331 
L 1856 0 
L 184 0 
L 184 331 
L 738 331 
L 738 4531 
L 184 4531 
L 184 4863 
L 1313 4863 
L 1313 331 
z
" transform="scale(0.015625)"/>
      <path id="DejaVuSerif-72" d="M 3059 3328 
L 3059 2497 
L 2728 2497 
Q 2713 2744 2591 2866 
Q 2469 2988 2234 2988 
Q 1809 2988 1582 2694 
Q 1356 2400 1356 1850 
L 1356 331 
L 2022 331 
L 2022 0 
L 263 0 
L 263 331 
L 781 331 
L 781 2994 
L 231 2994 
L 231 3322 
L 1356 3322 
L 1356 2731 
Q 1525 3078 1790 3245 
Q 2056 3413 2438 3413 
Q 2578 3413 2733 3391 
Q 2888 3369 3059 3328 
z
" transform="scale(0.015625)"/>
     </defs>
     <use xlink:href="#DejaVuSerif-56"/>
     <use xlink:href="#DejaVuSerif-6f" transform="translate(63.091797 0)"/>
     <use xlink:href="#DejaVuSerif-6c" transform="translate(123.296875 0)"/>
     <use xlink:href="#DejaVuSerif-6c" transform="translate(155.279297 0)"/>
     <use xlink:href="#DejaVuSerif-65" transform="translate(187.261719 0)"/>
     <use xlink:href="#DejaVuSerif-72" transform="translate(246.441406 0)"/>
     <use xlink:href="#DejaVuSerif-20" transform="translate(294.244141 0)"/>
     <use xlink:href="#DejaVuSerif-52" transform="translate(326.03125 0)"/>
     <use xlink:href="#DejaVuSerif-61" transform="translate(403.574219 0)"/>
     <use xlink:href="#DejaVuSerif-6e" transform="translate(463.193359 0)"/>
     <use xlink:href="#DejaVuSerif-67" transform="translate(527.597656 0)"/>
    </g>
   </g>
   <g id="text_29">
    <!-- Approximation durch Rang-1-Matrizen -->
    <g style="fill: #111111" transform="translate(205.29 32.56845) scale(0.16 -0.16)">
     <defs>
      <path id="DejaVuSerif-41" d="M 1281 1691 
L 2994 1691 
L 2138 3909 
L 1281 1691 
z
M -38 0 
L -38 331 
L 372 331 
L 2034 4666 
L 2559 4666 
L 4225 331 
L 4684 331 
L 4684 0 
L 2988 0 
L 2988 331 
L 3506 331 
L 3116 1356 
L 1153 1356 
L 763 331 
L 1275 331 
L 1275 0 
L -38 0 
z
" transform="scale(0.015625)"/>
      <path id="DejaVuSerif-70" d="M 1313 1825 
L 1313 1497 
Q 1313 897 1542 583 
Q 1772 269 2209 269 
Q 2650 269 2876 622 
Q 3103 975 3103 1663 
Q 3103 2353 2876 2703 
Q 2650 3053 2209 3053 
Q 1772 3053 1542 2737 
Q 1313 2422 1313 1825 
z
M 738 2988 
L 184 2988 
L 184 3322 
L 1313 3322 
L 1313 2803 
Q 1481 3116 1742 3264 
Q 2003 3413 2388 3413 
Q 3000 3413 3387 2928 
Q 3775 2444 3775 1663 
Q 3775 881 3387 395 
Q 3000 -91 2388 -91 
Q 2003 -91 1742 57 
Q 1481 206 1313 519 
L 1313 -997 
L 1856 -997 
L 1856 -1331 
L 184 -1331 
L 184 -997 
L 738 -997 
L 738 2988 
z
" transform="scale(0.015625)"/>
      <path id="DejaVuSerif-78" d="M 1863 2028 
L 2559 2988 
L 2113 2988 
L 2113 3322 
L 3391 3322 
L 3391 2988 
L 2950 2988 
L 2059 1759 
L 3097 331 
L 3531 331 
L 3531 0 
L 1997 0 
L 1997 331 
L 2419 331 
L 1697 1325 
L 972 331 
L 1403 331 
L 1403 0 
L 141 0 
L 141 331 
L 581 331 
L 1497 1594 
L 488 2988 
L 78 2988 
L 78 3322 
L 1563 3322 
L 1563 2988 
L 1166 2988 
L 1863 2028 
z
" transform="scale(0.015625)"/>
      <path id="DejaVuSerif-6d" d="M 3316 2675 
Q 3481 3041 3739 3227 
Q 3997 3413 4341 3413 
Q 4863 3413 5119 3089 
Q 5375 2766 5375 2113 
L 5375 331 
L 5894 331 
L 5894 0 
L 4300 0 
L 4300 331 
L 4800 331 
L 4800 2047 
Q 4800 2556 4650 2772 
Q 4500 2988 4153 2988 
Q 3769 2988 3567 2697 
Q 3366 2406 3366 1850 
L 3366 331 
L 3866 331 
L 3866 0 
L 2291 0 
L 2291 331 
L 2791 331 
L 2791 2069 
Q 2791 2566 2641 2777 
Q 2491 2988 2144 2988 
Q 1759 2988 1557 2697 
Q 1356 2406 1356 1850 
L 1356 331 
L 1856 331 
L 1856 0 
L 263 0 
L 263 331 
L 781 331 
L 781 2994 
L 231 2994 
L 231 3322 
L 1356 3322 
L 1356 2731 
Q 1516 3063 1762 3238 
Q 2009 3413 2322 3413 
Q 2709 3413 2968 3220 
Q 3228 3028 3316 2675 
z
" transform="scale(0.015625)"/>
      <path id="DejaVuSerif-64" d="M 3359 331 
L 3909 331 
L 3909 0 
L 2784 0 
L 2784 519 
Q 2616 206 2355 57 
Q 2094 -91 1709 -91 
Q 1097 -91 708 395 
Q 319 881 319 1663 
Q 319 2444 706 2928 
Q 1094 3413 1709 3413 
Q 2094 3413 2355 3264 
Q 2616 3116 2784 2803 
L 2784 4531 
L 2241 4531 
L 2241 4863 
L 3359 4863 
L 3359 331 
z
M 2784 1497 
L 2784 1825 
Q 2784 2422 2554 2737 
Q 2325 3053 1888 3053 
Q 1444 3053 1217 2703 
Q 991 2353 991 1663 
Q 991 975 1217 622 
Q 1444 269 1888 269 
Q 2325 269 2554 583 
Q 2784 897 2784 1497 
z
" transform="scale(0.015625)"/>
      <path id="DejaVuSerif-63" d="M 3291 997 
Q 3169 466 2822 187 
Q 2475 -91 1925 -91 
Q 1200 -91 759 389 
Q 319 869 319 1663 
Q 319 2459 759 2936 
Q 1200 3413 1925 3413 
Q 2241 3413 2553 3339 
Q 2866 3266 3181 3116 
L 3181 2266 
L 2847 2266 
Q 2781 2703 2561 2903 
Q 2341 3103 1931 3103 
Q 1466 3103 1228 2742 
Q 991 2381 991 1663 
Q 991 944 1227 581 
Q 1463 219 1931 219 
Q 2303 219 2525 412 
Q 2747 606 2828 997 
L 3291 997 
z
" transform="scale(0.015625)"/>
      <path id="DejaVuSerif-68" d="M 263 0 
L 263 331 
L 781 331 
L 781 4531 
L 231 4531 
L 231 4863 
L 1356 4863 
L 1356 2731 
Q 1516 3069 1770 3241 
Q 2025 3413 2363 3413 
Q 2913 3413 3172 3097 
Q 3431 2781 3431 2113 
L 3431 331 
L 3944 331 
L 3944 0 
L 2356 0 
L 2356 331 
L 2853 331 
L 2853 1931 
Q 2853 2541 2704 2764 
Q 2556 2988 2175 2988 
Q 1775 2988 1565 2697 
Q 1356 2406 1356 1850 
L 1356 331 
L 1856 331 
L 1856 0 
L 263 0 
z
" transform="scale(0.015625)"/>
      <path id="DejaVuSerif-2d" d="M 281 1959 
L 1881 1959 
L 1881 1472 
L 281 1472 
L 281 1959 
z
" transform="scale(0.015625)"/>
      <path id="DejaVuSerif-4d" d="M 353 0 
L 353 331 
L 947 331 
L 947 4331 
L 319 4331 
L 319 4666 
L 1678 4666 
L 3316 1344 
L 4953 4666 
L 6228 4666 
L 6228 4331 
L 5606 4331 
L 5606 331 
L 6203 331 
L 6203 0 
L 4378 0 
L 4378 331 
L 4972 331 
L 4972 3938 
L 3372 684 
L 2931 684 
L 1331 3938 
L 1331 331 
L 1925 331 
L 1925 0 
L 353 0 
z
" transform="scale(0.015625)"/>
      <path id="DejaVuSerif-7a" d="M 256 0 
L 256 269 
L 2338 2988 
L 691 2988 
L 691 2413 
L 359 2413 
L 359 3322 
L 3078 3322 
L 3078 3053 
L 997 331 
L 2803 331 
L 2803 934 
L 3138 934 
L 3138 0 
L 256 0 
z
" transform="scale(0.015625)"/>
     </defs>
     <use xlink:href="#DejaVuSerif-41"/>
     <use xlink:href="#DejaVuSerif-70" transform="translate(72.216797 0)"/>
     <use xlink:href="#DejaVuSerif-70" transform="translate(136.230469 0)"/>
     <use xlink:href="#DejaVuSerif-72" transform="translate(200.244141 0)"/>
     <use xlink:href="#DejaVuSerif-6f" transform="translate(248.046875 0)"/>
     <use xlink:href="#DejaVuSerif-78" transform="translate(308.251953 0)"/>
     <use xlink:href="#DejaVuSerif-69" transform="translate(364.648438 0)"/>
     <use xlink:href="#DejaVuSerif-6d" transform="translate(396.630859 0)"/>
     <use xlink:href="#DejaVuSerif-61" transform="translate(491.455078 0)"/>
     <use xlink:href="#DejaVuSerif-74" transform="translate(551.074219 0)"/>
     <use xlink:href="#DejaVuSerif-69" transform="translate(591.259766 0)"/>
     <use xlink:href="#DejaVuSerif-6f" transform="translate(623.242188 0)"/>
     <use xlink:href="#DejaVuSerif-6e" transform="translate(683.447266 0)"/>
     <use xlink:href="#DejaVuSerif-20" transform="translate(747.851562 0)"/>
     <use xlink:href="#DejaVuSerif-64" transform="translate(779.638672 0)"/>
     <use xlink:href="#DejaVuSerif-75" transform="translate(843.652344 0)"/>
     <use xlink:href="#DejaVuSerif-72" transform="translate(908.056641 0)"/>
     <use xlink:href="#DejaVuSerif-63" transform="translate(955.859375 0)"/>
     <use xlink:href="#DejaVuSerif-68" transform="translate(1011.865234 0)"/>
     <use xlink:href="#DejaVuSerif-20" transform="translate(1076.269531 0)"/>
     <use xlink:href="#DejaVuSerif-52" transform="translate(1108.056641 0)"/>
     <use xlink:href="#DejaVuSerif-61" transform="translate(1185.599609 0)"/>
     <use xlink:href="#DejaVuSerif-6e" transform="translate(1245.21875 0)"/>
     <use xlink:href="#DejaVuSerif-67" transform="translate(1309.623047 0)"/>
     <use xlink:href="#DejaVuSerif-2d" transform="translate(1373.636719 0)"/>
     <use xlink:href="#DejaVuSerif-31" transform="translate(1407.425781 0)"/>
     <use xlink:href="#DejaVuSerif-2d" transform="translate(1471.048828 0)"/>
     <use xlink:href="#DejaVuSerif-4d" transform="translate(1504.837891 0)"/>
     <use xlink:href="#DejaVuSerif-61" transform="translate(1607.230469 0)"/>
     <use xlink:href="#DejaVuSerif-74" transform="translate(1666.849609 0)"/>
     <use xlink:href="#DejaVuSerif-72" transform="translate(1707.035156 0)"/>
     <use xlink:href="#DejaVuSerif-69" transform="translate(1754.837891 0)"/>
     <use xlink:href="#DejaVuSerif-7a" transform="translate(1786.820312 0)"/>
     <use xlink:href="#DejaVuSerif-65" transform="translate(1839.505859 0)"/>
     <use xlink:href="#DejaVuSerif-6e" transform="translate(1898.685547 0)"/>
    </g>
   </g>
  </g>
 </g>
 <defs>
  <clipPath id="peea7de7d5d">
   <rect x="7.2" y="7.2" width="624.96" height="210.672"/>
  </clipPath>
 </defs>
</svg>
