<?xml version="1.0" encoding="utf-8" standalone="no"?>
<!DOCTYPE svg PUBLIC "-//W3C//DTD SVG 1.1//EN"
  "http://www.w3.org/Graphics/SVG/1.1/DTD/svg11.dtd">
<svg xmlns:xlink="http://www.w3.org/1999/xlink" width="650.52pt" height="158.544pt" viewBox="0 0 650.52 158.544" xmlns="http://www.w3.org/2000/svg" version="1.1">
 <metadata>
  <rdf:RDF xmlns:dc="http://purl.org/dc/elements/1.1/" xmlns:cc="http://creativecommons.org/ns#" xmlns:rdf="http://www.w3.org/1999/02/22-rdf-syntax-ns#">
   <cc:Work>
    <dc:type rdf:resource="http://purl.org/dc/dcmitype/StillImage"/>
    <dc:date>2026-06-15T05:45:27.307771</dc:date>
    <dc:format>image/svg+xml</dc:format>
    <dc:creator>
     <cc:Agent>
      <dc:title>Matplotlib v3.11.0, https://matplotlib.org/</dc:title>
     </cc:Agent>
    </dc:creator>
   </cc:Work>
  </rdf:RDF>
 </metadata>
 <defs>
  <style type="text/css">*{stroke-linejoin: round; stroke-linecap: butt}</style>
 </defs>
 <g id="figure_1">
  <g id="patch_1">
   <path d="M 0 158.544 
L 650.52 158.544 
L 650.52 0 
L 0 0 
L 0 158.544 
z
" style="fill: none"/>
  </g>
  <g id="axes_1">
   <g id="patch_2">
    <path d="M 19.476 34.299072 
L 40.68 34.299072 
L 40.68 13.542336 
L 19.476 13.542336 
z
" clip-path="url(#p321b596de4)" style="fill: #ffffff; stroke: #111111; stroke-width: 1.05; stroke-linejoin: miter"/>
   </g>
   <g id="patch_3">
    <path d="M 40.68 34.299072 
L 61.884 34.299072 
L 61.884 13.542336 
L 40.68 13.542336 
z
" clip-path="url(#p321b596de4)" style="fill: #ffffff; stroke: #111111; stroke-width: 1.05; stroke-linejoin: miter"/>
   </g>
   <g id="patch_4">
    <path d="M 61.884 34.299072 
L 83.088 34.299072 
L 83.088 13.542336 
L 61.884 13.542336 
z
" clip-path="url(#p321b596de4)" style="fill: #ffffff; stroke: #111111; stroke-width: 1.05; stroke-linejoin: miter"/>
   </g>
   <g id="patch_5">
    <path d="M 83.088 34.299072 
L 104.292 34.299072 
L 104.292 13.542336 
L 83.088 13.542336 
z
" clip-path="url(#p321b596de4)" style="fill: #ffffff; stroke: #111111; stroke-width: 1.05; stroke-linejoin: miter"/>
   </g>
   <g id="patch_6">
    <path d="M 19.476 55.055808 
L 40.68 55.055808 
L 40.68 34.299072 
L 19.476 34.299072 
z
" clip-path="url(#p321b596de4)" style="fill: #ffffff; stroke: #111111; stroke-width: 1.05; stroke-linejoin: miter"/>
   </g>
   <g id="patch_7">
    <path d="M 40.68 55.055808 
L 61.884 55.055808 
L 61.884 34.299072 
L 40.68 34.299072 
z
" clip-path="url(#p321b596de4)" style="fill: #ffffff; stroke: #111111; stroke-width: 1.05; stroke-linejoin: miter"/>
   </g>
   <g id="patch_8">
    <path d="M 61.884 55.055808 
L 83.088 55.055808 
L 83.088 34.299072 
L 61.884 34.299072 
z
" clip-path="url(#p321b596de4)" style="fill: #ffffff; stroke: #111111; stroke-width: 1.05; stroke-linejoin: miter"/>
   </g>
   <g id="patch_9">
    <path d="M 83.088 55.055808 
L 104.292 55.055808 
L 104.292 34.299072 
L 83.088 34.299072 
z
" clip-path="url(#p321b596de4)" style="fill: #ffffff; stroke: #111111; stroke-width: 1.05; stroke-linejoin: miter"/>
   </g>
   <g id="patch_10">
    <path d="M 19.476 75.812544 
L 40.68 75.812544 
L 40.68 55.055808 
L 19.476 55.055808 
z
" clip-path="url(#p321b596de4)" style="fill: #ffffff; stroke: #111111; stroke-width: 1.05; stroke-linejoin: miter"/>
   </g>
   <g id="patch_11">
    <path d="M 40.68 75.812544 
L 61.884 75.812544 
L 61.884 55.055808 
L 40.68 55.055808 
z
" clip-path="url(#p321b596de4)" style="fill: #ffffff; stroke: #111111; stroke-width: 1.05; stroke-linejoin: miter"/>
   </g>
   <g id="patch_12">
    <path d="M 61.884 75.812544 
L 83.088 75.812544 
L 83.088 55.055808 
L 61.884 55.055808 
z
" clip-path="url(#p321b596de4)" style="fill: #ffffff; stroke: #111111; stroke-width: 1.05; stroke-linejoin: miter"/>
   </g>
   <g id="patch_13">
    <path d="M 83.088 75.812544 
L 104.292 75.812544 
L 104.292 55.055808 
L 83.088 55.055808 
z
" clip-path="url(#p321b596de4)" style="fill: #ffffff; stroke: #111111; stroke-width: 1.05; stroke-linejoin: miter"/>
   </g>
   <g id="patch_14">
    <path d="M 19.476 96.56928 
L 40.68 96.56928 
L 40.68 75.812544 
L 19.476 75.812544 
z
" clip-path="url(#p321b596de4)" style="fill: #ffffff; stroke: #111111; stroke-width: 1.05; stroke-linejoin: miter"/>
   </g>
   <g id="patch_15">
    <path d="M 40.68 96.56928 
L 61.884 96.56928 
L 61.884 75.812544 
L 40.68 75.812544 
z
" clip-path="url(#p321b596de4)" style="fill: #ffffff; stroke: #111111; stroke-width: 1.05; stroke-linejoin: miter"/>
   </g>
   <g id="patch_16">
    <path d="M 61.884 96.56928 
L 83.088 96.56928 
L 83.088 75.812544 
L 61.884 75.812544 
z
" clip-path="url(#p321b596de4)" style="fill: #ffffff; stroke: #111111; stroke-width: 1.05; stroke-linejoin: miter"/>
   </g>
   <g id="patch_17">
    <path d="M 83.088 96.56928 
L 104.292 96.56928 
L 104.292 75.812544 
L 83.088 75.812544 
z
" clip-path="url(#p321b596de4)" style="fill: #ffffff; stroke: #111111; stroke-width: 1.05; stroke-linejoin: miter"/>
   </g>
   <g id="patch_18">
    <path d="M 140.004 67.74048 
L 164.556 67.74048 
L 164.556 42.371136 
L 140.004 42.371136 
z
" clip-path="url(#p321b596de4)" style="fill: #f2aa00; stroke: #111111; stroke-width: 1.2; stroke-linejoin: miter"/>
   </g>
   <g id="patch_19">
    <path d="M 167.904 98.875584 
L 189.108 98.875584 
L 189.108 11.236032 
L 167.904 11.236032 
z
" clip-path="url(#p321b596de4)" style="fill: #19a7ff; stroke: #111111; stroke-width: 1.2; stroke-linejoin: miter"/>
   </g>
   <g id="patch_20">
    <path d="M 192.456 66.010752 
L 264.996 66.010752 
L 264.996 44.100864 
L 192.456 44.100864 
z
" clip-path="url(#p321b596de4)" style="fill: #55c63a; stroke: #111111; stroke-width: 1.2; stroke-linejoin: miter"/>
   </g>
   <g id="patch_21">
    <path d="M 289.548 67.74048 
L 314.1 67.74048 
L 314.1 42.371136 
L 289.548 42.371136 
z
" clip-path="url(#p321b596de4)" style="fill: #f2aa00; stroke: #111111; stroke-width: 1.2; stroke-linejoin: miter"/>
   </g>
   <g id="patch_22">
    <path d="M 317.448 98.875584 
L 338.652 98.875584 
L 338.652 11.236032 
L 317.448 11.236032 
z
" clip-path="url(#p321b596de4)" style="fill: #19a7ff; stroke: #111111; stroke-width: 1.2; stroke-linejoin: miter"/>
   </g>
   <g id="patch_23">
    <path d="M 342 66.010752 
L 414.54 66.010752 
L 414.54 44.100864 
L 342 44.100864 
z
" clip-path="url(#p321b596de4)" style="fill: #55c63a; stroke: #111111; stroke-width: 1.2; stroke-linejoin: miter"/>
   </g>
   <g id="patch_24">
    <path d="M 439.092 67.74048 
L 463.644 67.74048 
L 463.644 42.371136 
L 439.092 42.371136 
z
" clip-path="url(#p321b596de4)" style="fill: #f2aa00; stroke: #111111; stroke-width: 1.2; stroke-linejoin: miter"/>
   </g>
   <g id="patch_25">
    <path d="M 466.992 98.875584 
L 488.196 98.875584 
L 488.196 11.236032 
L 466.992 11.236032 
z
" clip-path="url(#p321b596de4)" style="fill: #19a7ff; stroke: #111111; stroke-width: 1.2; stroke-linejoin: miter"/>
   </g>
   <g id="patch_26">
    <path d="M 491.544 66.010752 
L 564.084 66.010752 
L 564.084 44.100864 
L 491.544 44.100864 
z
" clip-path="url(#p321b596de4)" style="fill: #55c63a; stroke: #111111; stroke-width: 1.2; stroke-linejoin: miter"/>
   </g>
   <g id="text_1">
    <!-- 3 -->
    <g style="fill: #111111" transform="translate(25.207531 27.557423) scale(0.14 -0.14)">
     <defs>
      <path id="DejaVuSerif-Bold-16" d="M 550 4531 
Q 963 4641 1350 4695 
Q 1738 4750 2106 4750 
Q 2950 4750 3401 4448 
Q 3853 4147 3853 3584 
Q 3853 3163 3593 2900 
Q 3334 2638 2834 2547 
Q 3444 2450 3744 2131 
Q 4044 1813 4044 1259 
Q 4044 606 3526 257 
Q 3009 -91 2028 -91 
Q 1659 -91 1267 -28 
Q 875 34 447 159 
L 447 1184 
L 825 1184 
Q 859 741 1103 508 
Q 1347 275 1778 275 
Q 2253 275 2512 539 
Q 2772 803 2772 1288 
Q 2772 1794 2501 2069 
Q 2231 2344 1734 2344 
L 1528 2344 
L 1528 2719 
L 1691 2719 
Q 2150 2719 2381 2931 
Q 2613 3144 2613 3566 
Q 2613 3963 2395 4173 
Q 2178 4384 1772 4384 
Q 1403 4384 1187 4182 
Q 972 3981 928 3597 
L 550 3597 
L 550 4531 
z
" transform="scale(0.015625)"/>
     </defs>
     <use xlink:href="#DejaVuSerif-Bold-16"/>
    </g>
   </g>
   <g id="text_2">
    <!-- 1 -->
    <g style="fill: #111111" transform="translate(46.411531 27.557423) scale(0.14 -0.14)">
     <defs>
      <path id="DejaVuSerif-Bold-14" d="M 878 0 
L 878 378 
L 1753 378 
L 1753 4153 
L 781 3578 
L 781 4044 
L 1953 4750 
L 2938 4750 
L 2938 378 
L 3816 378 
L 3816 0 
L 878 0 
z
" transform="scale(0.015625)"/>
     </defs>
     <use xlink:href="#DejaVuSerif-Bold-14"/>
    </g>
   </g>
   <g id="text_3">
    <!-- 4 -->
    <g style="fill: #111111" transform="translate(67.615531 27.557423) scale(0.14 -0.14)">
     <defs>
      <path id="DejaVuSerif-Bold-17" d="M 4084 0 
L 1516 0 
L 1516 378 
L 2209 378 
L 2209 1228 
L 263 1228 
L 263 1588 
L 2216 4750 
L 3391 4750 
L 3391 1631 
L 4191 1631 
L 4191 1228 
L 3391 1228 
L 3391 378 
L 4084 378 
L 4084 0 
z
M 2209 1631 
L 2209 3897 
L 819 1631 
L 2209 1631 
z
" transform="scale(0.015625)"/>
     </defs>
     <use xlink:href="#DejaVuSerif-Bold-17"/>
    </g>
   </g>
   <g id="text_4">
    <!-- 1 -->
    <g style="fill: #111111" transform="translate(88.819531 27.557423) scale(0.14 -0.14)">
     <use xlink:href="#DejaVuSerif-Bold-14"/>
    </g>
   </g>
   <g id="text_5">
    <!-- 5 -->
    <g style="fill: #111111" transform="translate(25.207531 48.314159) scale(0.14 -0.14)">
     <defs>
      <path id="DejaVuSerif-Bold-18" d="M 3609 4666 
L 3609 3847 
L 1113 3847 
L 1113 2822 
Q 1319 2981 1572 3062 
Q 1825 3144 2106 3144 
Q 2969 3144 3469 2708 
Q 3969 2272 3969 1522 
Q 3969 759 3469 334 
Q 2969 -91 2069 -91 
Q 1688 -91 1311 -28 
Q 934 34 525 166 
L 525 1184 
L 900 1184 
Q 919 725 1139 500 
Q 1359 275 1791 275 
Q 2250 275 2472 583 
Q 2694 891 2694 1522 
Q 2694 2144 2476 2451 
Q 2259 2759 1819 2759 
Q 1581 2759 1395 2661 
Q 1209 2563 1050 2356 
L 738 2356 
L 738 4666 
L 3609 4666 
z
" transform="scale(0.015625)"/>
     </defs>
     <use xlink:href="#DejaVuSerif-Bold-18"/>
    </g>
   </g>
   <g id="text_6">
    <!-- 9 -->
    <g style="fill: #111111" transform="translate(46.411531 48.314159) scale(0.14 -0.14)">
     <defs>
      <path id="DejaVuSerif-Bold-1c" d="M 2181 4384 
Q 1859 4384 1723 4111 
Q 1588 3838 1588 3163 
Q 1588 2488 1723 2214 
Q 1859 1941 2181 1941 
Q 2503 1941 2640 2214 
Q 2778 2488 2778 3163 
Q 2778 3838 2640 4111 
Q 2503 4384 2181 4384 
z
M 2878 1900 
Q 2672 1734 2420 1651 
Q 2169 1569 1875 1569 
Q 1163 1569 755 1986 
Q 347 2403 347 3138 
Q 347 3913 803 4331 
Q 1259 4750 2106 4750 
Q 3063 4750 3556 4172 
Q 4050 3594 4050 2478 
Q 4050 1206 3503 557 
Q 2956 -91 1881 -91 
Q 1600 -91 1278 -44 
Q 956 3 588 97 
L 588 922 
L 966 922 
Q 1044 603 1261 439 
Q 1478 275 1825 275 
Q 2375 275 2625 658 
Q 2875 1041 2878 1900 
z
" transform="scale(0.015625)"/>
     </defs>
     <use xlink:href="#DejaVuSerif-Bold-1c"/>
    </g>
   </g>
   <g id="text_7">
    <!-- 2 -->
    <g style="fill: #111111" transform="translate(67.615531 48.314159) scale(0.14 -0.14)">
     <defs>
      <path id="DejaVuSerif-Bold-15" d="M 844 3513 
L 469 3513 
L 469 4519 
Q 850 4634 1223 4692 
Q 1597 4750 1978 4750 
Q 2869 4750 3367 4386 
Q 3866 4022 3866 3372 
Q 3866 2909 3591 2542 
Q 3316 2175 2541 1672 
L 1241 819 
L 3450 819 
L 3450 1369 
L 3878 1369 
L 3878 0 
L 428 0 
L 428 763 
L 1119 1241 
Q 2003 1850 2297 2278 
Q 2591 2706 2591 3278 
Q 2591 3819 2367 4101 
Q 2144 4384 1716 4384 
Q 1347 4384 1125 4161 
Q 903 3938 844 3513 
z
" transform="scale(0.015625)"/>
     </defs>
     <use xlink:href="#DejaVuSerif-Bold-15"/>
    </g>
   </g>
   <g id="text_8">
    <!-- 6 -->
    <g style="fill: #111111" transform="translate(88.819531 48.314159) scale(0.14 -0.14)">
     <defs>
      <path id="DejaVuSerif-Bold-19" d="M 1575 2766 
Q 1778 2928 2029 3009 
Q 2281 3091 2578 3091 
Q 3294 3091 3701 2672 
Q 4109 2253 4109 1522 
Q 4109 750 3650 329 
Q 3191 -91 2344 -91 
Q 1388 -91 895 486 
Q 403 1063 403 2181 
Q 403 3453 950 4101 
Q 1497 4750 2572 4750 
Q 2853 4750 3175 4703 
Q 3497 4656 3866 4563 
L 3866 3738 
L 3488 3738 
Q 3409 4056 3192 4220 
Q 2975 4384 2631 4384 
Q 2075 4384 1826 4003 
Q 1578 3622 1575 2766 
z
M 2272 275 
Q 2594 275 2731 548 
Q 2869 822 2869 1497 
Q 2869 2172 2731 2445 
Q 2594 2719 2272 2719 
Q 1950 2719 1814 2445 
Q 1678 2172 1678 1497 
Q 1678 822 1814 548 
Q 1950 275 2272 275 
z
" transform="scale(0.015625)"/>
     </defs>
     <use xlink:href="#DejaVuSerif-Bold-19"/>
    </g>
   </g>
   <g id="text_9">
    <!-- 5 -->
    <g style="fill: #111111" transform="translate(25.207531 69.070895) scale(0.14 -0.14)">
     <use xlink:href="#DejaVuSerif-Bold-18"/>
    </g>
   </g>
   <g id="text_10">
    <!-- 3 -->
    <g style="fill: #111111" transform="translate(46.411531 69.070895) scale(0.14 -0.14)">
     <use xlink:href="#DejaVuSerif-Bold-16"/>
    </g>
   </g>
   <g id="text_11">
    <!-- 5 -->
    <g style="fill: #111111" transform="translate(67.615531 69.070895) scale(0.14 -0.14)">
     <use xlink:href="#DejaVuSerif-Bold-18"/>
    </g>
   </g>
   <g id="text_12">
    <!-- 8 -->
    <g style="fill: #111111" transform="translate(88.819531 69.070895) scale(0.14 -0.14)">
     <defs>
      <path id="DejaVuSerif-Bold-1b" d="M 2975 2484 
Q 3531 2394 3820 2075 
Q 4109 1756 4109 1241 
Q 4109 597 3623 253 
Q 3138 -91 2222 -91 
Q 1306 -91 818 253 
Q 331 597 331 1241 
Q 331 1756 622 2075 
Q 913 2394 1466 2484 
Q 975 2597 731 2861 
Q 488 3125 488 3531 
Q 488 4125 931 4437 
Q 1375 4750 2222 4750 
Q 3066 4750 3511 4437 
Q 3956 4125 3956 3531 
Q 3956 3125 3711 2861 
Q 3466 2597 2975 2484 
z
M 2747 3519 
Q 2747 4013 2628 4198 
Q 2509 4384 2222 4384 
Q 1931 4384 1814 4198 
Q 1697 4013 1697 3519 
Q 1697 3028 1814 2845 
Q 1931 2663 2222 2663 
Q 2513 2663 2630 2845 
Q 2747 3028 2747 3519 
z
M 2869 1294 
Q 2869 1866 2723 2081 
Q 2578 2297 2222 2297 
Q 1863 2297 1719 2081 
Q 1575 1866 1575 1294 
Q 1575 716 1720 495 
Q 1866 275 2222 275 
Q 2575 275 2722 495 
Q 2869 716 2869 1294 
z
" transform="scale(0.015625)"/>
     </defs>
     <use xlink:href="#DejaVuSerif-Bold-1b"/>
    </g>
   </g>
   <g id="text_13">
    <!-- 9 -->
    <g style="fill: #111111" transform="translate(25.207531 89.827631) scale(0.14 -0.14)">
     <use xlink:href="#DejaVuSerif-Bold-1c"/>
    </g>
   </g>
   <g id="text_14">
    <!-- 7 -->
    <g style="fill: #111111" transform="translate(46.411531 89.827631) scale(0.14 -0.14)">
     <defs>
      <path id="DejaVuSerif-Bold-1a" d="M 3922 3872 
L 1997 0 
L 1363 0 
L 3238 3781 
L 934 3781 
L 934 3150 
L 506 3150 
L 506 4666 
L 3922 4666 
L 3922 3872 
z
" transform="scale(0.015625)"/>
     </defs>
     <use xlink:href="#DejaVuSerif-Bold-1a"/>
    </g>
   </g>
   <g id="text_15">
    <!-- 9 -->
    <g style="fill: #111111" transform="translate(67.615531 89.827631) scale(0.14 -0.14)">
     <use xlink:href="#DejaVuSerif-Bold-1c"/>
    </g>
   </g>
   <g id="text_16">
    <!-- 3 -->
    <g style="fill: #111111" transform="translate(88.819531 89.827631) scale(0.14 -0.14)">
     <use xlink:href="#DejaVuSerif-Bold-16"/>
    </g>
   </g>
   <g id="text_17">
    <!-- Rang 4 -->
    <g style="fill: #666666" transform="translate(34.805484 137.947716) scale(0.15 -0.15)">
     <defs>
      <path id="DejaVuSerif-35" d="M 3066 2316 
Q 3284 2256 3442 2114 
Q 3600 1972 3725 1716 
L 4403 331 
L 4972 331 
L 4972 0 
L 3872 0 
L 3144 1484 
Q 2934 1916 2759 2042 
Q 2584 2169 2278 2169 
L 1581 2169 
L 1581 331 
L 2241 331 
L 2241 0 
L 353 0 
L 353 331 
L 947 331 
L 947 4331 
L 353 4331 
L 353 4666 
L 2719 4666 
Q 3400 4666 3770 4341 
Q 4141 4016 4141 3419 
Q 4141 2938 3870 2661 
Q 3600 2384 3066 2316 
z
M 1581 2503 
L 2503 2503 
Q 2975 2503 3200 2726 
Q 3425 2950 3425 3419 
Q 3425 3888 3200 4109 
Q 2975 4331 2503 4331 
L 1581 4331 
L 1581 2503 
z
" transform="scale(0.015625)"/>
      <path id="DejaVuSerif-44" d="M 2547 1044 
L 2547 1747 
L 1806 1747 
Q 1378 1747 1168 1562 
Q 959 1378 959 997 
Q 959 650 1171 447 
Q 1384 244 1747 244 
Q 2106 244 2326 466 
Q 2547 688 2547 1044 
z
M 3122 2075 
L 3122 331 
L 3634 331 
L 3634 0 
L 2547 0 
L 2547 359 
Q 2356 128 2106 18 
Q 1856 -91 1522 -91 
Q 969 -91 644 203 
Q 319 497 319 997 
Q 319 1513 691 1797 
Q 1063 2081 1741 2081 
L 2547 2081 
L 2547 2309 
Q 2547 2688 2317 2895 
Q 2088 3103 1672 3103 
Q 1328 3103 1125 2947 
Q 922 2791 872 2484 
L 575 2484 
L 575 3156 
Q 875 3284 1158 3348 
Q 1441 3413 1709 3413 
Q 2400 3413 2761 3070 
Q 3122 2728 3122 2075 
z
" transform="scale(0.015625)"/>
      <path id="DejaVuSerif-51" d="M 263 0 
L 263 331 
L 781 331 
L 781 2988 
L 231 2988 
L 231 3322 
L 1356 3322 
L 1356 2731 
Q 1516 3069 1770 3241 
Q 2025 3413 2363 3413 
Q 2913 3413 3172 3097 
Q 3431 2781 3431 2113 
L 3431 331 
L 3944 331 
L 3944 0 
L 2356 0 
L 2356 331 
L 2853 331 
L 2853 1931 
Q 2853 2541 2703 2767 
Q 2553 2994 2175 2994 
Q 1775 2994 1565 2701 
Q 1356 2409 1356 1850 
L 1356 331 
L 1856 331 
L 1856 0 
L 263 0 
z
" transform="scale(0.015625)"/>
      <path id="DejaVuSerif-4a" d="M 3359 2988 
L 3359 72 
Q 3359 -644 2965 -1033 
Q 2572 -1422 1844 -1422 
Q 1516 -1422 1216 -1362 
Q 916 -1303 641 -1184 
L 641 -488 
L 941 -488 
Q 997 -813 1206 -963 
Q 1416 -1113 1806 -1113 
Q 2313 -1113 2548 -827 
Q 2784 -541 2784 72 
L 2784 519 
Q 2616 206 2355 57 
Q 2094 -91 1709 -91 
Q 1097 -91 708 395 
Q 319 881 319 1663 
Q 319 2444 706 2928 
Q 1094 3413 1709 3413 
Q 2094 3413 2355 3264 
Q 2616 3116 2784 2803 
L 2784 3322 
L 3909 3322 
L 3909 2988 
L 3359 2988 
z
M 2784 1825 
Q 2784 2422 2554 2737 
Q 2325 3053 1888 3053 
Q 1444 3053 1217 2703 
Q 991 2353 991 1663 
Q 991 975 1217 622 
Q 1444 269 1888 269 
Q 2325 269 2554 583 
Q 2784 897 2784 1497 
L 2784 1825 
z
" transform="scale(0.015625)"/>
      <path id="DejaVuSerif-3" transform="scale(0.015625)"/>
      <path id="DejaVuSerif-17" d="M 2234 1581 
L 2234 4063 
L 641 1581 
L 2234 1581 
z
M 3609 0 
L 1484 0 
L 1484 331 
L 2234 331 
L 2234 1247 
L 197 1247 
L 197 1588 
L 2241 4750 
L 2859 4750 
L 2859 1581 
L 3750 1581 
L 3750 1247 
L 2859 1247 
L 2859 331 
L 3609 331 
L 3609 0 
z
" transform="scale(0.015625)"/>
     </defs>
     <use xlink:href="#DejaVuSerif-35"/>
     <use xlink:href="#DejaVuSerif-44" transform="translate(77.59375 0)"/>
     <use xlink:href="#DejaVuSerif-51" transform="translate(137.21875 0)"/>
     <use xlink:href="#DejaVuSerif-4a" transform="translate(201.625 0)"/>
     <use xlink:href="#DejaVuSerif-3" transform="translate(265.640625 0)"/>
     <use xlink:href="#DejaVuSerif-17" transform="translate(297.421875 0)"/>
    </g>
   </g>
   <g id="text_18">
    <!-- = -->
    <g style="fill: #666666" transform="translate(113.486406 61.809714) scale(0.26 -0.26)">
     <defs>
      <path id="DejaVuSerif-20" d="M 678 2894 
L 4684 2894 
L 4684 2394 
L 678 2394 
L 678 2894 
z
M 678 1619 
L 4684 1619 
L 4684 1119 
L 678 1119 
L 678 1619 
z
" transform="scale(0.015625)"/>
     </defs>
     <use xlink:href="#DejaVuSerif-20"/>
    </g>
   </g>
   <g id="text_19">
    <!-- $\sigma_1$ -->
    <g style="fill: #111111" transform="translate(146.89 57.91323) scale(0.11 -0.11)">
     <defs>
      <path id="Cmmi10-15" d="M 1197 -72 
Q 913 -72 692 64 
Q 472 200 351 431 
Q 231 663 231 941 
Q 231 1238 365 1566 
Q 500 1894 733 2166 
Q 966 2438 1259 2598 
Q 1553 2759 1863 2759 
L 3475 2759 
Q 3541 2759 3587 2715 
Q 3634 2672 3634 2597 
Q 3634 2503 3567 2433 
Q 3500 2363 3406 2363 
L 2625 2363 
Q 2809 2088 2809 1697 
Q 2809 1375 2684 1062 
Q 2559 750 2337 492 
Q 2116 234 1820 81 
Q 1525 -72 1197 -72 
z
M 1203 97 
Q 1553 97 1823 370 
Q 2094 644 2237 1039 
Q 2381 1434 2381 1772 
Q 2381 2047 2229 2205 
Q 2078 2363 1806 2363 
Q 1434 2363 1173 2113 
Q 913 1863 783 1484 
Q 653 1106 653 756 
Q 653 481 798 289 
Q 944 97 1203 97 
z
" transform="scale(0.015625)"/>
      <path id="Cmr10-64" d="M 594 0 
L 594 225 
Q 1394 225 1394 428 
L 1394 3788 
Q 1063 3628 556 3628 
L 556 3853 
Q 1341 3853 1741 4263 
L 1831 4263 
Q 1853 4263 1873 4245 
Q 1894 4228 1894 4206 
L 1894 428 
Q 1894 225 2694 225 
L 2694 0 
L 594 0 
z
" transform="scale(0.015625)"/>
     </defs>
     <use xlink:href="#Cmmi10-15" transform="translate(0 0.890625)"/>
     <use xlink:href="#Cmr10-64" transform="translate(57.080078 -14.109337) scale(0.7)"/>
    </g>
   </g>
   <g id="text_20">
    <!-- $\mathbf{U}_1$ -->
    <g style="fill: #111111" transform="translate(171.796 57.91323) scale(0.11 -0.11)">
     <defs>
      <path id="Cmb10-3d" d="M 819 1453 
L 819 4063 
L 219 4063 
L 219 4391 
L 2356 4391 
L 2356 4063 
L 1753 4063 
L 1753 1453 
Q 1753 1197 1784 987 
Q 1816 778 1902 612 
Q 1988 447 2158 351 
Q 2328 256 2597 256 
Q 2966 256 3222 407 
Q 3478 559 3604 832 
Q 3731 1106 3731 1478 
L 3731 4006 
Q 3731 4028 3672 4039 
Q 3613 4050 3578 4050 
Q 3431 4063 3128 4063 
L 3128 4391 
L 4697 4391 
L 4697 4063 
Q 4397 4063 4250 4050 
Q 4219 4050 4158 4039 
Q 4097 4028 4097 4006 
L 4097 1453 
Q 4097 1122 3990 842 
Q 3884 563 3687 356 
Q 3491 150 3209 39 
Q 2928 -72 2597 -72 
Q 2247 -72 1928 22 
Q 1609 116 1353 314 
Q 1097 513 958 798 
Q 819 1084 819 1453 
z
" transform="scale(0.015625)"/>
     </defs>
     <use xlink:href="#Cmb10-3d" transform="translate(0 0.390625)"/>
     <use xlink:href="#Cmr10-64" transform="translate(80.908588 -14.609337) scale(0.7)"/>
    </g>
   </g>
   <g id="text_21">
    <!-- $\mathbf{v}_1^T$ -->
    <g style="fill: #111111" transform="translate(223.006 58.300808) scale(0.11 -0.11)">
     <defs>
      <path id="Cmb10-25" d="M 1466 91 
L 544 2516 
L 141 2516 
L 141 2841 
L 1672 2841 
L 1672 2516 
L 1319 2516 
L 1894 984 
L 2456 2463 
Q 2456 2494 2342 2505 
Q 2228 2516 2119 2516 
L 2119 2841 
L 3231 2841 
L 3231 2516 
Q 2828 2516 2803 2456 
L 1906 91 
Q 1866 -25 1741 -25 
L 1631 -25 
Q 1506 -25 1466 91 
z
" transform="scale(0.015625)"/>
      <path id="Cmmi10-78" d="M 294 84 
Q 297 100 308 140 
Q 319 181 336 203 
Q 353 225 384 225 
Q 934 225 1113 256 
Q 1284 300 1319 441 
L 2194 3956 
Q 2222 4034 2222 4097 
Q 2222 4147 1997 4147 
L 1625 4147 
Q 1197 4147 964 4015 
Q 731 3884 622 3668 
Q 513 3453 341 2963 
Q 319 2906 275 2906 
L 219 2906 
Q 153 2906 153 2988 
L 609 4313 
Q 622 4372 672 4372 
L 4453 4372 
Q 4519 4372 4519 4288 
L 4306 2963 
Q 4306 2944 4284 2925 
Q 4263 2906 4244 2906 
L 4184 2906 
Q 4122 2906 4122 2988 
Q 4191 3441 4191 3628 
Q 4191 3853 4097 3968 
Q 4003 4084 3853 4115 
Q 3703 4147 3463 4147 
L 3084 4147 
Q 2913 4147 2853 4115 
Q 2794 4084 2753 3928 
L 1875 416 
Q 1872 403 1870 390 
Q 1869 378 1863 359 
Q 1863 278 1959 256 
Q 2125 225 2669 225 
Q 2731 225 2731 141 
Q 2709 50 2696 25 
Q 2684 0 2625 0 
L 359 0 
Q 294 0 294 84 
z
" transform="scale(0.015625)"/>
     </defs>
     <use xlink:href="#Cmb10-25" transform="translate(0 0.892016)"/>
     <use xlink:href="#Cmmi10-78" transform="translate(56.689838 42.18125) scale(0.7)"/>
     <use xlink:href="#Cmr10-64" transform="translate(56.689838 -29.445312) scale(0.7)"/>
    </g>
   </g>
   <g id="text_22">
    <!-- Rang 1 -->
    <g style="fill: #666666" transform="translate(179.031953 119.130905) scale(0.13 -0.13)">
     <defs>
      <path id="DejaVuSerif-14" d="M 909 0 
L 909 331 
L 1722 331 
L 1722 4213 
L 781 3603 
L 781 4013 
L 1919 4750 
L 2350 4750 
L 2350 331 
L 3163 331 
L 3163 0 
L 909 0 
z
" transform="scale(0.015625)"/>
     </defs>
     <use xlink:href="#DejaVuSerif-35"/>
     <use xlink:href="#DejaVuSerif-44" transform="translate(77.59375 0)"/>
     <use xlink:href="#DejaVuSerif-51" transform="translate(137.21875 0)"/>
     <use xlink:href="#DejaVuSerif-4a" transform="translate(201.625 0)"/>
     <use xlink:href="#DejaVuSerif-3" transform="translate(265.640625 0)"/>
     <use xlink:href="#DejaVuSerif-14" transform="translate(297.421875 0)"/>
    </g>
   </g>
   <g id="text_23">
    <!-- + -->
    <g style="fill: #666666" transform="translate(268.054344 60.770652) scale(0.22 -0.22)">
     <defs>
      <path id="DejaVuSerif-e" d="M 2931 4013 
L 2931 2259 
L 4684 2259 
L 4684 1753 
L 2931 1753 
L 2931 0 
L 2431 0 
L 2431 1753 
L 678 1753 
L 678 2259 
L 2431 2259 
L 2431 4013 
L 2931 4013 
z
" transform="scale(0.015625)"/>
     </defs>
     <use xlink:href="#DejaVuSerif-e"/>
    </g>
   </g>
   <g id="text_24">
    <!-- $\sigma_2$ -->
    <g style="fill: #111111" transform="translate(296.434 57.91323) scale(0.11 -0.11)">
     <defs>
      <path id="Cmr10-31" d="M 319 0 
L 319 172 
Q 319 188 331 206 
L 1325 1306 
Q 1550 1550 1690 1715 
Q 1831 1881 1968 2097 
Q 2106 2313 2186 2536 
Q 2266 2759 2266 3009 
Q 2266 3272 2169 3511 
Q 2072 3750 1880 3894 
Q 1688 4038 1416 4038 
Q 1138 4038 916 3870 
Q 694 3703 603 3438 
Q 628 3444 672 3444 
Q 816 3444 917 3347 
Q 1019 3250 1019 3097 
Q 1019 2950 917 2848 
Q 816 2747 672 2747 
Q 522 2747 420 2851 
Q 319 2956 319 3097 
Q 319 3338 409 3548 
Q 500 3759 670 3923 
Q 841 4088 1055 4175 
Q 1269 4263 1509 4263 
Q 1875 4263 2190 4108 
Q 2506 3953 2690 3670 
Q 2875 3388 2875 3009 
Q 2875 2731 2753 2481 
Q 2631 2231 2440 2026 
Q 2250 1822 1953 1562 
Q 1656 1303 1563 1216 
L 838 519 
L 1453 519 
Q 1906 519 2211 526 
Q 2516 534 2534 550 
Q 2609 631 2688 1141 
L 2875 1141 
L 2694 0 
L 319 0 
z
" transform="scale(0.015625)"/>
     </defs>
     <use xlink:href="#Cmmi10-15" transform="translate(0 0.890625)"/>
     <use xlink:href="#Cmr10-31" transform="translate(57.080078 -14.109337) scale(0.7)"/>
    </g>
   </g>
   <g id="text_25">
    <!-- $\mathbf{U}_2$ -->
    <g style="fill: #111111" transform="translate(321.34 57.91323) scale(0.11 -0.11)">
     <use xlink:href="#Cmb10-3d" transform="translate(0 0.390625)"/>
     <use xlink:href="#Cmr10-31" transform="translate(80.908588 -14.609337) scale(0.7)"/>
    </g>
   </g>
   <g id="text_26">
    <!-- $\mathbf{v}_2^T$ -->
    <g style="fill: #111111" transform="translate(372.55 58.300808) scale(0.11 -0.11)">
     <use xlink:href="#Cmb10-25" transform="translate(0 0.892016)"/>
     <use xlink:href="#Cmmi10-78" transform="translate(56.689838 42.18125) scale(0.7)"/>
     <use xlink:href="#Cmr10-31" transform="translate(56.689838 -29.445312) scale(0.7)"/>
    </g>
   </g>
   <g id="text_27">
    <!-- Rang 1 -->
    <g style="fill: #666666" transform="translate(328.575953 119.130905) scale(0.13 -0.13)">
     <use xlink:href="#DejaVuSerif-35"/>
     <use xlink:href="#DejaVuSerif-44" transform="translate(77.59375 0)"/>
     <use xlink:href="#DejaVuSerif-51" transform="translate(137.21875 0)"/>
     <use xlink:href="#DejaVuSerif-4a" transform="translate(201.625 0)"/>
     <use xlink:href="#DejaVuSerif-3" transform="translate(265.640625 0)"/>
     <use xlink:href="#DejaVuSerif-14" transform="translate(297.421875 0)"/>
    </g>
   </g>
   <g id="text_28">
    <!-- + -->
    <g style="fill: #666666" transform="translate(417.598344 60.770652) scale(0.22 -0.22)">
     <use xlink:href="#DejaVuSerif-e"/>
    </g>
   </g>
   <g id="text_29">
    <!-- $\sigma_3$ -->
    <g style="fill: #111111" transform="translate(445.978 57.91323) scale(0.11 -0.11)">
     <defs>
      <path id="Cmr10-6e" d="M 609 494 
Q 759 275 1012 169 
Q 1266 63 1556 63 
Q 1928 63 2084 380 
Q 2241 697 2241 1100 
Q 2241 1281 2208 1462 
Q 2175 1644 2097 1800 
Q 2019 1956 1883 2050 
Q 1747 2144 1550 2144 
L 1125 2144 
Q 1069 2144 1069 2203 
L 1069 2259 
Q 1069 2309 1125 2309 
L 1478 2338 
Q 1703 2338 1851 2506 
Q 2000 2675 2069 2917 
Q 2138 3159 2138 3378 
Q 2138 3684 1994 3881 
Q 1850 4078 1556 4078 
Q 1313 4078 1091 3986 
Q 869 3894 738 3706 
Q 750 3709 759 3711 
Q 769 3713 781 3713 
Q 925 3713 1022 3613 
Q 1119 3513 1119 3372 
Q 1119 3234 1022 3134 
Q 925 3034 781 3034 
Q 641 3034 541 3134 
Q 441 3234 441 3372 
Q 441 3647 606 3850 
Q 772 4053 1033 4158 
Q 1294 4263 1556 4263 
Q 1750 4263 1965 4205 
Q 2181 4147 2356 4039 
Q 2531 3931 2642 3762 
Q 2753 3594 2753 3378 
Q 2753 3109 2633 2881 
Q 2513 2653 2303 2487 
Q 2094 2322 1844 2241 
Q 2122 2188 2372 2031 
Q 2622 1875 2773 1631 
Q 2925 1388 2925 1106 
Q 2925 753 2731 467 
Q 2538 181 2222 20 
Q 1906 -141 1556 -141 
Q 1256 -141 954 -26 
Q 653 88 461 316 
Q 269 544 269 863 
Q 269 1022 375 1128 
Q 481 1234 641 1234 
Q 744 1234 830 1186 
Q 916 1138 964 1050 
Q 1013 963 1013 863 
Q 1013 706 903 600 
Q 794 494 641 494 
L 609 494 
z
" transform="scale(0.015625)"/>
     </defs>
     <use xlink:href="#Cmmi10-15" transform="translate(0 0.890625)"/>
     <use xlink:href="#Cmr10-6e" transform="translate(57.080078 -14.109337) scale(0.7)"/>
    </g>
   </g>
   <g id="text_30">
    <!-- $\mathbf{U}_3$ -->
    <g style="fill: #111111" transform="translate(470.884 57.91323) scale(0.11 -0.11)">
     <use xlink:href="#Cmb10-3d" transform="translate(0 0.390625)"/>
     <use xlink:href="#Cmr10-6e" transform="translate(80.908588 -14.609337) scale(0.7)"/>
    </g>
   </g>
   <g id="text_31">
    <!-- $\mathbf{v}_3^T$ -->
    <g style="fill: #111111" transform="translate(522.094 58.245808) scale(0.11 -0.11)">
     <use xlink:href="#Cmb10-25" transform="translate(0 0.892016)"/>
     <use xlink:href="#Cmmi10-78" transform="translate(56.689838 42.18125) scale(0.7)"/>
     <use xlink:href="#Cmr10-6e" transform="translate(56.689838 -29.445312) scale(0.7)"/>
    </g>
   </g>
   <g id="text_32">
    <!-- Rang 1 -->
    <g style="fill: #666666" transform="translate(478.119953 119.130905) scale(0.13 -0.13)">
     <use xlink:href="#DejaVuSerif-35"/>
     <use xlink:href="#DejaVuSerif-44" transform="translate(77.59375 0)"/>
     <use xlink:href="#DejaVuSerif-51" transform="translate(137.21875 0)"/>
     <use xlink:href="#DejaVuSerif-4a" transform="translate(201.625 0)"/>
     <use xlink:href="#DejaVuSerif-3" transform="translate(265.640625 0)"/>
     <use xlink:href="#DejaVuSerif-14" transform="translate(297.421875 0)"/>
    </g>
   </g>
  </g>
 </g>
 <defs>
  <clipPath id="p321b596de4">
   <rect x="7.2" y="7.2" width="636.12" height="144.144"/>
  </clipPath>
 </defs>
</svg>
