<?xml version="1.0" encoding="utf-8" standalone="no"?>
<!DOCTYPE svg PUBLIC "-//W3C//DTD SVG 1.1//EN"
  "http://www.w3.org/Graphics/SVG/1.1/DTD/svg11.dtd">
<svg xmlns:xlink="http://www.w3.org/1999/xlink" width="675.071562pt" height="225.072pt" viewBox="0 0 675.071562 225.072" xmlns="http://www.w3.org/2000/svg" version="1.1">
 <metadata>
  <rdf:RDF xmlns:dc="http://purl.org/dc/elements/1.1/" xmlns:cc="http://creativecommons.org/ns#" xmlns:rdf="http://www.w3.org/1999/02/22-rdf-syntax-ns#">
   <cc:Work>
    <dc:type rdf:resource="http://purl.org/dc/dcmitype/StillImage"/>
    <dc:date>2026-06-09T18:12:53.593529</dc:date>
    <dc:format>image/svg+xml</dc:format>
    <dc:creator>
     <cc:Agent>
      <dc:title>Matplotlib v3.10.9, https://matplotlib.org/</dc:title>
     </cc:Agent>
    </dc:creator>
   </cc:Work>
  </rdf:RDF>
 </metadata>
 <defs>
  <style type="text/css">*{stroke-linejoin: round; stroke-linecap: butt}</style>
 </defs>
 <g id="figure_1">
  <g id="patch_1">
   <path d="M 0 225.072 
L 675.071562 225.072 
L 675.071562 -0 
L 0 -0 
L 0 225.072 
z
" style="fill: none"/>
  </g>
  <g id="axes_1">
   <g id="patch_2">
    <path d="M 54.63 76.5 
L 81.414 76.5 
L 81.414 53.2152 
L 54.63 53.2152 
z
" clip-path="url(#p61f048b324)" style="fill: #ffffff; stroke: #111111; stroke-width: 1.15; stroke-linejoin: miter"/>
   </g>
   <g id="patch_3">
    <path d="M 81.414 76.5 
L 108.198 76.5 
L 108.198 53.2152 
L 81.414 53.2152 
z
" clip-path="url(#p61f048b324)" style="fill: #ffffff; stroke: #111111; stroke-width: 1.15; stroke-linejoin: miter"/>
   </g>
   <g id="patch_4">
    <path d="M 108.198 76.5 
L 134.982 76.5 
L 134.982 53.2152 
L 108.198 53.2152 
z
" clip-path="url(#p61f048b324)" style="fill: #ffffff; stroke: #111111; stroke-width: 1.15; stroke-linejoin: miter"/>
   </g>
   <g id="patch_5">
    <path d="M 134.982 76.5 
L 161.766 76.5 
L 161.766 53.2152 
L 134.982 53.2152 
z
" clip-path="url(#p61f048b324)" style="fill: #ffffff; stroke: #111111; stroke-width: 1.15; stroke-linejoin: miter"/>
   </g>
   <g id="patch_6">
    <path d="M 54.63 99.7848 
L 81.414 99.7848 
L 81.414 76.5 
L 54.63 76.5 
z
" clip-path="url(#p61f048b324)" style="fill: #ffffff; stroke: #111111; stroke-width: 1.15; stroke-linejoin: miter"/>
   </g>
   <g id="patch_7">
    <path d="M 81.414 99.7848 
L 108.198 99.7848 
L 108.198 76.5 
L 81.414 76.5 
z
" clip-path="url(#p61f048b324)" style="fill: #ffffff; stroke: #111111; stroke-width: 1.15; stroke-linejoin: miter"/>
   </g>
   <g id="patch_8">
    <path d="M 108.198 99.7848 
L 134.982 99.7848 
L 134.982 76.5 
L 108.198 76.5 
z
" clip-path="url(#p61f048b324)" style="fill: #ffffff; stroke: #111111; stroke-width: 1.15; stroke-linejoin: miter"/>
   </g>
   <g id="patch_9">
    <path d="M 134.982 99.7848 
L 161.766 99.7848 
L 161.766 76.5 
L 134.982 76.5 
z
" clip-path="url(#p61f048b324)" style="fill: #ffffff; stroke: #111111; stroke-width: 1.15; stroke-linejoin: miter"/>
   </g>
   <g id="patch_10">
    <path d="M 54.63 123.0696 
L 81.414 123.0696 
L 81.414 99.7848 
L 54.63 99.7848 
z
" clip-path="url(#p61f048b324)" style="fill: #ffffff; stroke: #111111; stroke-width: 1.15; stroke-linejoin: miter"/>
   </g>
   <g id="patch_11">
    <path d="M 81.414 123.0696 
L 108.198 123.0696 
L 108.198 99.7848 
L 81.414 99.7848 
z
" clip-path="url(#p61f048b324)" style="fill: #ffffff; stroke: #111111; stroke-width: 1.15; stroke-linejoin: miter"/>
   </g>
   <g id="patch_12">
    <path d="M 108.198 123.0696 
L 134.982 123.0696 
L 134.982 99.7848 
L 108.198 99.7848 
z
" clip-path="url(#p61f048b324)" style="fill: #ffffff; stroke: #111111; stroke-width: 1.15; stroke-linejoin: miter"/>
   </g>
   <g id="patch_13">
    <path d="M 134.982 123.0696 
L 161.766 123.0696 
L 161.766 99.7848 
L 134.982 99.7848 
z
" clip-path="url(#p61f048b324)" style="fill: #ffffff; stroke: #111111; stroke-width: 1.15; stroke-linejoin: miter"/>
   </g>
   <g id="patch_14">
    <path d="M 54.63 146.3544 
L 81.414 146.3544 
L 81.414 123.0696 
L 54.63 123.0696 
z
" clip-path="url(#p61f048b324)" style="fill: #ffffff; stroke: #111111; stroke-width: 1.15; stroke-linejoin: miter"/>
   </g>
   <g id="patch_15">
    <path d="M 81.414 146.3544 
L 108.198 146.3544 
L 108.198 123.0696 
L 81.414 123.0696 
z
" clip-path="url(#p61f048b324)" style="fill: #ffffff; stroke: #111111; stroke-width: 1.15; stroke-linejoin: miter"/>
   </g>
   <g id="patch_16">
    <path d="M 108.198 146.3544 
L 134.982 146.3544 
L 134.982 123.0696 
L 108.198 123.0696 
z
" clip-path="url(#p61f048b324)" style="fill: #ffffff; stroke: #111111; stroke-width: 1.15; stroke-linejoin: miter"/>
   </g>
   <g id="patch_17">
    <path d="M 134.982 146.3544 
L 161.766 146.3544 
L 161.766 123.0696 
L 134.982 123.0696 
z
" clip-path="url(#p61f048b324)" style="fill: #ffffff; stroke: #111111; stroke-width: 1.15; stroke-linejoin: miter"/>
   </g>
   <g id="patch_18">
    <path d="M 252.72 76.5 
L 279.504 76.5 
L 279.504 53.2152 
L 252.72 53.2152 
z
" clip-path="url(#p61f048b324)" style="fill: #19a7ff; stroke: #111111; stroke-width: 1.15; stroke-linejoin: miter"/>
   </g>
   <g id="patch_19">
    <path d="M 252.72 99.7848 
L 279.504 99.7848 
L 279.504 76.5 
L 252.72 76.5 
z
" clip-path="url(#p61f048b324)" style="fill: #19a7ff; stroke: #111111; stroke-width: 1.15; stroke-linejoin: miter"/>
   </g>
   <g id="patch_20">
    <path d="M 252.72 123.0696 
L 279.504 123.0696 
L 279.504 99.7848 
L 252.72 99.7848 
z
" clip-path="url(#p61f048b324)" style="fill: #19a7ff; stroke: #111111; stroke-width: 1.15; stroke-linejoin: miter"/>
   </g>
   <g id="patch_21">
    <path d="M 252.72 146.3544 
L 279.504 146.3544 
L 279.504 123.0696 
L 252.72 123.0696 
z
" clip-path="url(#p61f048b324)" style="fill: #19a7ff; stroke: #111111; stroke-width: 1.15; stroke-linejoin: miter"/>
   </g>
   <g id="patch_22">
    <path d="M 328.05 122.5152 
L 354.834 122.5152 
L 354.834 99.2304 
L 328.05 99.2304 
z
" clip-path="url(#p61f048b324)" style="fill: #55c63a; stroke: #111111; stroke-width: 1.15; stroke-linejoin: miter"/>
   </g>
   <g id="patch_23">
    <path d="M 354.834 122.5152 
L 381.618 122.5152 
L 381.618 99.2304 
L 354.834 99.2304 
z
" clip-path="url(#p61f048b324)" style="fill: #55c63a; stroke: #111111; stroke-width: 1.15; stroke-linejoin: miter"/>
   </g>
   <g id="patch_24">
    <path d="M 381.618 122.5152 
L 408.402 122.5152 
L 408.402 99.2304 
L 381.618 99.2304 
z
" clip-path="url(#p61f048b324)" style="fill: #55c63a; stroke: #111111; stroke-width: 1.15; stroke-linejoin: miter"/>
   </g>
   <g id="patch_25">
    <path d="M 408.402 122.5152 
L 435.186 122.5152 
L 435.186 99.2304 
L 408.402 99.2304 
z
" clip-path="url(#p61f048b324)" style="fill: #55c63a; stroke: #111111; stroke-width: 1.15; stroke-linejoin: miter"/>
   </g>
   <g id="text_1">
    <!-- 1 -->
    <g style="fill: #111111" transform="translate(62.803641 68.996662) scale(0.15 -0.15)">
     <defs>
      <path id="DejaVuSerif-Bold-31" d="M 878 0 
L 878 378 
L 1753 378 
L 1753 4153 
L 781 3578 
L 781 4044 
L 1953 4750 
L 2938 4750 
L 2938 378 
L 3816 378 
L 3816 0 
L 878 0 
z
" transform="scale(0.015625)"/>
     </defs>
     <use xlink:href="#DejaVuSerif-Bold-31"/>
    </g>
   </g>
   <g id="text_2">
    <!-- 2 -->
    <g style="fill: #111111" transform="translate(89.587641 68.996662) scale(0.15 -0.15)">
     <defs>
      <path id="DejaVuSerif-Bold-32" d="M 844 3513 
L 469 3513 
L 469 4519 
Q 850 4634 1223 4692 
Q 1597 4750 1978 4750 
Q 2869 4750 3367 4386 
Q 3866 4022 3866 3372 
Q 3866 2909 3591 2542 
Q 3316 2175 2541 1672 
L 1241 819 
L 3450 819 
L 3450 1369 
L 3878 1369 
L 3878 0 
L 428 0 
L 428 763 
L 1119 1241 
Q 2003 1850 2297 2278 
Q 2591 2706 2591 3278 
Q 2591 3819 2367 4101 
Q 2144 4384 1716 4384 
Q 1347 4384 1125 4161 
Q 903 3938 844 3513 
z
" transform="scale(0.015625)"/>
     </defs>
     <use xlink:href="#DejaVuSerif-Bold-32"/>
    </g>
   </g>
   <g id="text_3">
    <!-- 3 -->
    <g style="fill: #111111" transform="translate(116.371641 68.996662) scale(0.15 -0.15)">
     <defs>
      <path id="DejaVuSerif-Bold-33" d="M 550 4531 
Q 963 4641 1350 4695 
Q 1738 4750 2106 4750 
Q 2950 4750 3401 4448 
Q 3853 4147 3853 3584 
Q 3853 3163 3593 2900 
Q 3334 2638 2834 2547 
Q 3444 2450 3744 2131 
Q 4044 1813 4044 1259 
Q 4044 606 3526 257 
Q 3009 -91 2028 -91 
Q 1659 -91 1267 -28 
Q 875 34 447 159 
L 447 1184 
L 825 1184 
Q 859 741 1103 508 
Q 1347 275 1778 275 
Q 2253 275 2512 539 
Q 2772 803 2772 1288 
Q 2772 1794 2501 2069 
Q 2231 2344 1734 2344 
L 1528 2344 
L 1528 2719 
L 1691 2719 
Q 2150 2719 2381 2931 
Q 2613 3144 2613 3566 
Q 2613 3963 2395 4173 
Q 2178 4384 1772 4384 
Q 1403 4384 1187 4182 
Q 972 3981 928 3597 
L 550 3597 
L 550 4531 
z
" transform="scale(0.015625)"/>
     </defs>
     <use xlink:href="#DejaVuSerif-Bold-33"/>
    </g>
   </g>
   <g id="text_4">
    <!-- 4 -->
    <g style="fill: #111111" transform="translate(143.155641 68.996662) scale(0.15 -0.15)">
     <defs>
      <path id="DejaVuSerif-Bold-34" d="M 4084 0 
L 1516 0 
L 1516 378 
L 2209 378 
L 2209 1228 
L 263 1228 
L 263 1588 
L 2216 4750 
L 3391 4750 
L 3391 1631 
L 4191 1631 
L 4191 1228 
L 3391 1228 
L 3391 378 
L 4084 378 
L 4084 0 
z
M 2209 1631 
L 2209 3897 
L 819 1631 
L 2209 1631 
z
" transform="scale(0.015625)"/>
     </defs>
     <use xlink:href="#DejaVuSerif-Bold-34"/>
    </g>
   </g>
   <g id="text_5">
    <!-- -1 -->
    <g style="fill: #111111" transform="translate(59.691141 92.281462) scale(0.15 -0.15)">
     <defs>
      <path id="DejaVuSerif-Bold-2d" d="M 347 2138 
L 2309 2138 
L 2309 1294 
L 347 1294 
L 347 2138 
z
" transform="scale(0.015625)"/>
     </defs>
     <use xlink:href="#DejaVuSerif-Bold-2d"/>
     <use xlink:href="#DejaVuSerif-Bold-31" transform="translate(41.503906 0)"/>
    </g>
   </g>
   <g id="text_6">
    <!-- -2 -->
    <g style="fill: #111111" transform="translate(86.475141 92.281462) scale(0.15 -0.15)">
     <use xlink:href="#DejaVuSerif-Bold-2d"/>
     <use xlink:href="#DejaVuSerif-Bold-32" transform="translate(41.503906 0)"/>
    </g>
   </g>
   <g id="text_7">
    <!-- -3 -->
    <g style="fill: #111111" transform="translate(113.259141 92.281462) scale(0.15 -0.15)">
     <use xlink:href="#DejaVuSerif-Bold-2d"/>
     <use xlink:href="#DejaVuSerif-Bold-33" transform="translate(41.503906 0)"/>
    </g>
   </g>
   <g id="text_8">
    <!-- -4 -->
    <g style="fill: #111111" transform="translate(140.043141 92.281462) scale(0.15 -0.15)">
     <use xlink:href="#DejaVuSerif-Bold-2d"/>
     <use xlink:href="#DejaVuSerif-Bold-34" transform="translate(41.503906 0)"/>
    </g>
   </g>
   <g id="text_9">
    <!-- 2 -->
    <g style="fill: #111111" transform="translate(62.803641 115.566262) scale(0.15 -0.15)">
     <use xlink:href="#DejaVuSerif-Bold-32"/>
    </g>
   </g>
   <g id="text_10">
    <!-- 4 -->
    <g style="fill: #111111" transform="translate(89.587641 115.566262) scale(0.15 -0.15)">
     <use xlink:href="#DejaVuSerif-Bold-34"/>
    </g>
   </g>
   <g id="text_11">
    <!-- 6 -->
    <g style="fill: #111111" transform="translate(116.371641 115.566262) scale(0.15 -0.15)">
     <defs>
      <path id="DejaVuSerif-Bold-36" d="M 1575 2766 
Q 1778 2928 2029 3009 
Q 2281 3091 2578 3091 
Q 3294 3091 3701 2672 
Q 4109 2253 4109 1522 
Q 4109 750 3650 329 
Q 3191 -91 2344 -91 
Q 1388 -91 895 486 
Q 403 1063 403 2181 
Q 403 3453 950 4101 
Q 1497 4750 2572 4750 
Q 2853 4750 3175 4703 
Q 3497 4656 3866 4563 
L 3866 3738 
L 3488 3738 
Q 3409 4056 3192 4220 
Q 2975 4384 2631 4384 
Q 2075 4384 1826 4003 
Q 1578 3622 1575 2766 
z
M 2272 275 
Q 2594 275 2731 548 
Q 2869 822 2869 1497 
Q 2869 2172 2731 2445 
Q 2594 2719 2272 2719 
Q 1950 2719 1814 2445 
Q 1678 2172 1678 1497 
Q 1678 822 1814 548 
Q 1950 275 2272 275 
z
" transform="scale(0.015625)"/>
     </defs>
     <use xlink:href="#DejaVuSerif-Bold-36"/>
    </g>
   </g>
   <g id="text_12">
    <!-- 8 -->
    <g style="fill: #111111" transform="translate(143.155641 115.566262) scale(0.15 -0.15)">
     <defs>
      <path id="DejaVuSerif-Bold-38" d="M 2975 2484 
Q 3531 2394 3820 2075 
Q 4109 1756 4109 1241 
Q 4109 597 3623 253 
Q 3138 -91 2222 -91 
Q 1306 -91 818 253 
Q 331 597 331 1241 
Q 331 1756 622 2075 
Q 913 2394 1466 2484 
Q 975 2597 731 2861 
Q 488 3125 488 3531 
Q 488 4125 931 4437 
Q 1375 4750 2222 4750 
Q 3066 4750 3511 4437 
Q 3956 4125 3956 3531 
Q 3956 3125 3711 2861 
Q 3466 2597 2975 2484 
z
M 2747 3519 
Q 2747 4013 2628 4198 
Q 2509 4384 2222 4384 
Q 1931 4384 1814 4198 
Q 1697 4013 1697 3519 
Q 1697 3028 1814 2845 
Q 1931 2663 2222 2663 
Q 2513 2663 2630 2845 
Q 2747 3028 2747 3519 
z
M 2869 1294 
Q 2869 1866 2723 2081 
Q 2578 2297 2222 2297 
Q 1863 2297 1719 2081 
Q 1575 1866 1575 1294 
Q 1575 716 1720 495 
Q 1866 275 2222 275 
Q 2575 275 2722 495 
Q 2869 716 2869 1294 
z
" transform="scale(0.015625)"/>
     </defs>
     <use xlink:href="#DejaVuSerif-Bold-38"/>
    </g>
   </g>
   <g id="text_13">
    <!-- 10 -->
    <g style="fill: #111111" transform="translate(57.585281 138.851062) scale(0.15 -0.15)">
     <defs>
      <path id="DejaVuSerif-Bold-30" d="M 2228 275 
Q 2603 275 2742 615 
Q 2881 956 2881 2328 
Q 2881 3691 2742 4037 
Q 2603 4384 2228 4384 
Q 1853 4384 1714 4043 
Q 1575 3703 1575 2328 
Q 1575 956 1714 615 
Q 1853 275 2228 275 
z
M 2228 -91 
Q 1294 -91 797 532 
Q 300 1156 300 2328 
Q 300 3500 797 4125 
Q 1294 4750 2228 4750 
Q 3159 4750 3656 4125 
Q 4153 3500 4153 2328 
Q 4153 1156 3656 532 
Q 3159 -91 2228 -91 
z
" transform="scale(0.015625)"/>
     </defs>
     <use xlink:href="#DejaVuSerif-Bold-31"/>
     <use xlink:href="#DejaVuSerif-Bold-30" transform="translate(69.580078 0)"/>
    </g>
   </g>
   <g id="text_14">
    <!-- 20 -->
    <g style="fill: #111111" transform="translate(84.369281 138.851062) scale(0.15 -0.15)">
     <use xlink:href="#DejaVuSerif-Bold-32"/>
     <use xlink:href="#DejaVuSerif-Bold-30" transform="translate(69.580078 0)"/>
    </g>
   </g>
   <g id="text_15">
    <!-- 30 -->
    <g style="fill: #111111" transform="translate(111.153281 138.851062) scale(0.15 -0.15)">
     <use xlink:href="#DejaVuSerif-Bold-33"/>
     <use xlink:href="#DejaVuSerif-Bold-30" transform="translate(69.580078 0)"/>
    </g>
   </g>
   <g id="text_16">
    <!-- 40 -->
    <g style="fill: #111111" transform="translate(137.937281 138.851062) scale(0.15 -0.15)">
     <use xlink:href="#DejaVuSerif-Bold-34"/>
     <use xlink:href="#DejaVuSerif-Bold-30" transform="translate(69.580078 0)"/>
    </g>
   </g>
   <g id="text_17">
    <!-- 16 Zahlen -->
    <g style="fill: #666666" transform="translate(62.46675 182.922075) scale(0.18 -0.18)">
     <defs>
      <path id="DejaVuSerif-31" d="M 909 0 
L 909 331 
L 1722 331 
L 1722 4213 
L 781 3603 
L 781 4013 
L 1919 4750 
L 2350 4750 
L 2350 331 
L 3163 331 
L 3163 0 
L 909 0 
z
" transform="scale(0.015625)"/>
      <path id="DejaVuSerif-36" d="M 2094 219 
Q 2534 219 2771 542 
Q 3009 866 3009 1472 
Q 3009 2078 2771 2401 
Q 2534 2725 2094 2725 
Q 1647 2725 1412 2412 
Q 1178 2100 1178 1509 
Q 1178 888 1415 553 
Q 1653 219 2094 219 
z
M 1075 2569 
Q 1288 2803 1556 2918 
Q 1825 3034 2163 3034 
Q 2859 3034 3264 2615 
Q 3669 2197 3669 1472 
Q 3669 763 3233 336 
Q 2797 -91 2069 -91 
Q 1278 -91 853 498 
Q 428 1088 428 2181 
Q 428 3406 931 4078 
Q 1434 4750 2350 4750 
Q 2597 4750 2869 4703 
Q 3141 4656 3425 4563 
L 3425 3794 
L 3072 3794 
Q 3034 4109 2831 4275 
Q 2628 4441 2284 4441 
Q 1678 4441 1381 3981 
Q 1084 3522 1075 2569 
z
" transform="scale(0.015625)"/>
      <path id="DejaVuSerif-20" transform="scale(0.015625)"/>
      <path id="DejaVuSerif-5a" d="M 288 0 
L 288 225 
L 3194 4281 
L 781 4281 
L 781 3584 
L 397 3584 
L 397 4666 
L 4084 4666 
L 4084 4441 
L 1178 384 
L 3816 384 
L 3816 1038 
L 4197 1038 
L 4197 0 
L 288 0 
z
" transform="scale(0.015625)"/>
      <path id="DejaVuSerif-61" d="M 2547 1044 
L 2547 1747 
L 1806 1747 
Q 1378 1747 1168 1562 
Q 959 1378 959 997 
Q 959 650 1171 447 
Q 1384 244 1747 244 
Q 2106 244 2326 466 
Q 2547 688 2547 1044 
z
M 3122 2075 
L 3122 331 
L 3634 331 
L 3634 0 
L 2547 0 
L 2547 359 
Q 2356 128 2106 18 
Q 1856 -91 1522 -91 
Q 969 -91 644 203 
Q 319 497 319 997 
Q 319 1513 691 1797 
Q 1063 2081 1741 2081 
L 2547 2081 
L 2547 2309 
Q 2547 2688 2317 2895 
Q 2088 3103 1672 3103 
Q 1328 3103 1125 2947 
Q 922 2791 872 2484 
L 575 2484 
L 575 3156 
Q 875 3284 1158 3348 
Q 1441 3413 1709 3413 
Q 2400 3413 2761 3070 
Q 3122 2728 3122 2075 
z
" transform="scale(0.015625)"/>
      <path id="DejaVuSerif-68" d="M 263 0 
L 263 331 
L 781 331 
L 781 4531 
L 231 4531 
L 231 4863 
L 1356 4863 
L 1356 2731 
Q 1516 3069 1770 3241 
Q 2025 3413 2363 3413 
Q 2913 3413 3172 3097 
Q 3431 2781 3431 2113 
L 3431 331 
L 3944 331 
L 3944 0 
L 2356 0 
L 2356 331 
L 2853 331 
L 2853 1931 
Q 2853 2541 2704 2764 
Q 2556 2988 2175 2988 
Q 1775 2988 1565 2697 
Q 1356 2406 1356 1850 
L 1356 331 
L 1856 331 
L 1856 0 
L 263 0 
z
" transform="scale(0.015625)"/>
      <path id="DejaVuSerif-6c" d="M 1313 331 
L 1856 331 
L 1856 0 
L 184 0 
L 184 331 
L 738 331 
L 738 4531 
L 184 4531 
L 184 4863 
L 1313 4863 
L 1313 331 
z
" transform="scale(0.015625)"/>
      <path id="DejaVuSerif-65" d="M 3469 1600 
L 991 1600 
L 991 1575 
Q 991 903 1244 561 
Q 1497 219 1991 219 
Q 2369 219 2611 417 
Q 2853 616 2950 1006 
L 3413 1006 
Q 3275 459 2904 184 
Q 2534 -91 1931 -91 
Q 1203 -91 761 389 
Q 319 869 319 1663 
Q 319 2450 753 2931 
Q 1188 3413 1894 3413 
Q 2647 3413 3050 2948 
Q 3453 2484 3469 1600 
z
M 2791 1931 
Q 2772 2513 2545 2808 
Q 2319 3103 1894 3103 
Q 1497 3103 1269 2806 
Q 1041 2509 991 1931 
L 2791 1931 
z
" transform="scale(0.015625)"/>
      <path id="DejaVuSerif-6e" d="M 263 0 
L 263 331 
L 781 331 
L 781 2988 
L 231 2988 
L 231 3322 
L 1356 3322 
L 1356 2731 
Q 1516 3069 1770 3241 
Q 2025 3413 2363 3413 
Q 2913 3413 3172 3097 
Q 3431 2781 3431 2113 
L 3431 331 
L 3944 331 
L 3944 0 
L 2356 0 
L 2356 331 
L 2853 331 
L 2853 1931 
Q 2853 2541 2703 2767 
Q 2553 2994 2175 2994 
Q 1775 2994 1565 2701 
Q 1356 2409 1356 1850 
L 1356 331 
L 1856 331 
L 1856 0 
L 263 0 
z
" transform="scale(0.015625)"/>
     </defs>
     <use xlink:href="#DejaVuSerif-31"/>
     <use xlink:href="#DejaVuSerif-36" transform="translate(63.623047 0)"/>
     <use xlink:href="#DejaVuSerif-20" transform="translate(127.246094 0)"/>
     <use xlink:href="#DejaVuSerif-5a" transform="translate(159.033203 0)"/>
     <use xlink:href="#DejaVuSerif-61" transform="translate(228.515625 0)"/>
     <use xlink:href="#DejaVuSerif-68" transform="translate(288.134766 0)"/>
     <use xlink:href="#DejaVuSerif-6c" transform="translate(352.539062 0)"/>
     <use xlink:href="#DejaVuSerif-65" transform="translate(384.521484 0)"/>
     <use xlink:href="#DejaVuSerif-6e" transform="translate(443.701172 0)"/>
    </g>
   </g>
   <g id="text_18">
    <!-- = -->
    <g style="fill: #666666" transform="translate(200.814375 117.4953) scale(0.24 -0.24)">
     <defs>
      <path id="DejaVuSerif-3d" d="M 678 2894 
L 4684 2894 
L 4684 2394 
L 678 2394 
L 678 2894 
z
M 678 1619 
L 4684 1619 
L 4684 1119 
L 678 1119 
L 678 1619 
z
" transform="scale(0.015625)"/>
     </defs>
     <use xlink:href="#DejaVuSerif-3d"/>
    </g>
   </g>
   <g id="text_19">
    <!-- 1 -->
    <g style="fill: #111111" transform="translate(260.893641 68.996662) scale(0.15 -0.15)">
     <use xlink:href="#DejaVuSerif-Bold-31"/>
    </g>
   </g>
   <g id="text_20">
    <!-- -1 -->
    <g style="fill: #111111" transform="translate(257.781141 92.281462) scale(0.15 -0.15)">
     <use xlink:href="#DejaVuSerif-Bold-2d"/>
     <use xlink:href="#DejaVuSerif-Bold-31" transform="translate(41.503906 0)"/>
    </g>
   </g>
   <g id="text_21">
    <!-- 2 -->
    <g style="fill: #111111" transform="translate(260.893641 115.566262) scale(0.15 -0.15)">
     <use xlink:href="#DejaVuSerif-Bold-32"/>
    </g>
   </g>
   <g id="text_22">
    <!-- 10 -->
    <g style="fill: #111111" transform="translate(255.675281 138.851062) scale(0.15 -0.15)">
     <use xlink:href="#DejaVuSerif-Bold-31"/>
     <use xlink:href="#DejaVuSerif-Bold-30" transform="translate(69.580078 0)"/>
    </g>
   </g>
   <g id="text_23">
    <!-- $\cdot$ -->
    <g style="fill: #666666" transform="translate(298.464 117.4953) scale(0.24 -0.24)">
     <defs>
      <path id="Cmsy10-a2" d="M 538 1600 
Q 538 1691 584 1772 
Q 631 1853 714 1903 
Q 797 1953 891 1953 
Q 981 1953 1064 1903 
Q 1147 1853 1194 1772 
Q 1241 1691 1241 1600 
Q 1241 1456 1139 1351 
Q 1038 1247 891 1247 
Q 747 1247 642 1351 
Q 538 1456 538 1600 
z
" transform="scale(0.015625)"/>
     </defs>
     <use xlink:href="#Cmsy10-a2" transform="translate(0 0.484375)"/>
    </g>
   </g>
   <g id="text_24">
    <!-- 1 -->
    <g style="fill: #111111" transform="translate(336.223641 115.011862) scale(0.15 -0.15)">
     <use xlink:href="#DejaVuSerif-Bold-31"/>
    </g>
   </g>
   <g id="text_25">
    <!-- 2 -->
    <g style="fill: #111111" transform="translate(363.007641 115.011862) scale(0.15 -0.15)">
     <use xlink:href="#DejaVuSerif-Bold-32"/>
    </g>
   </g>
   <g id="text_26">
    <!-- 3 -->
    <g style="fill: #111111" transform="translate(389.791641 115.011862) scale(0.15 -0.15)">
     <use xlink:href="#DejaVuSerif-Bold-33"/>
    </g>
   </g>
   <g id="text_27">
    <!-- 4 -->
    <g style="fill: #111111" transform="translate(416.575641 115.011862) scale(0.15 -0.15)">
     <use xlink:href="#DejaVuSerif-Bold-34"/>
    </g>
   </g>
   <g id="text_28">
    <!-- 8 Zahlen -->
    <g style="fill: #666666" transform="translate(341.613 182.922075) scale(0.18 -0.18)">
     <defs>
      <path id="DejaVuSerif-38" d="M 2981 1275 
Q 2981 1775 2732 2051 
Q 2484 2328 2034 2328 
Q 1584 2328 1336 2051 
Q 1088 1775 1088 1275 
Q 1088 772 1336 495 
Q 1584 219 2034 219 
Q 2484 219 2732 495 
Q 2981 772 2981 1275 
z
M 2853 3541 
Q 2853 3966 2637 4203 
Q 2422 4441 2034 4441 
Q 1650 4441 1433 4203 
Q 1216 3966 1216 3541 
Q 1216 3113 1433 2875 
Q 1650 2638 2034 2638 
Q 2422 2638 2637 2875 
Q 2853 3113 2853 3541 
z
M 2516 2484 
Q 3047 2413 3344 2092 
Q 3641 1772 3641 1275 
Q 3641 619 3225 264 
Q 2809 -91 2034 -91 
Q 1263 -91 845 264 
Q 428 619 428 1275 
Q 428 1772 725 2092 
Q 1022 2413 1556 2484 
Q 1084 2569 832 2842 
Q 581 3116 581 3541 
Q 581 4103 968 4426 
Q 1356 4750 2034 4750 
Q 2713 4750 3100 4426 
Q 3488 4103 3488 3541 
Q 3488 3116 3236 2842 
Q 2984 2569 2516 2484 
z
" transform="scale(0.015625)"/>
     </defs>
     <use xlink:href="#DejaVuSerif-38"/>
     <use xlink:href="#DejaVuSerif-20" transform="translate(63.623047 0)"/>
     <use xlink:href="#DejaVuSerif-5a" transform="translate(95.410156 0)"/>
     <use xlink:href="#DejaVuSerif-61" transform="translate(164.892578 0)"/>
     <use xlink:href="#DejaVuSerif-68" transform="translate(224.511719 0)"/>
     <use xlink:href="#DejaVuSerif-6c" transform="translate(288.916016 0)"/>
     <use xlink:href="#DejaVuSerif-65" transform="translate(320.898438 0)"/>
     <use xlink:href="#DejaVuSerif-6e" transform="translate(380.078125 0)"/>
    </g>
   </g>
   <g id="text_29">
    <!-- $A = u v^T$ -->
    <g style="fill: #111111" transform="translate(445.23 87.279237) scale(0.25 -0.25)">
     <defs>
      <path id="Cmmi10-41" d="M 288 0 
Q 225 0 225 84 
Q 250 225 306 225 
Q 566 225 755 328 
Q 944 431 1081 647 
Q 1094 659 1094 659 
L 3378 4513 
Q 3428 4581 3500 4581 
L 3584 4581 
Q 3603 4581 3622 4573 
Q 3641 4566 3655 4548 
Q 3669 4531 3669 4513 
L 4056 378 
Q 4056 350 4084 294 
Q 4147 225 4563 225 
Q 4628 225 4628 141 
Q 4606 56 4592 28 
Q 4578 0 4519 0 
L 2919 0 
Q 2859 0 2859 84 
Q 2894 225 2944 225 
Q 3450 225 3481 397 
L 3384 1453 
L 1806 1453 
L 1294 594 
Q 1247 525 1247 434 
Q 1247 322 1355 273 
Q 1463 225 1594 225 
Q 1656 225 1656 141 
Q 1634 50 1621 25 
Q 1609 0 1550 0 
L 288 0 
z
M 1931 1678 
L 3359 1678 
L 3169 3750 
L 1931 1678 
z
" transform="scale(0.015625)"/>
      <path id="Cmr10-3d" d="M 481 850 
Q 428 850 393 890 
Q 359 931 359 978 
Q 359 1031 393 1068 
Q 428 1106 481 1106 
L 4500 1106 
Q 4547 1106 4581 1068 
Q 4616 1031 4616 978 
Q 4616 931 4581 890 
Q 4547 850 4500 850 
L 481 850 
z
M 481 2094 
Q 428 2094 393 2131 
Q 359 2169 359 2222 
Q 359 2269 393 2309 
Q 428 2350 481 2350 
L 4500 2350 
Q 4547 2350 4581 2309 
Q 4616 2269 4616 2222 
Q 4616 2169 4581 2131 
Q 4547 2094 4500 2094 
L 481 2094 
z
" transform="scale(0.015625)"/>
      <path id="Cmmi10-75" d="M 678 697 
Q 678 906 734 1126 
Q 791 1347 892 1617 
Q 994 1888 1069 2088 
Q 1153 2322 1153 2472 
Q 1153 2663 1013 2663 
Q 759 2663 595 2402 
Q 431 2141 353 1819 
Q 341 1778 300 1778 
L 225 1778 
Q 172 1778 172 1838 
L 172 1856 
Q 275 2238 487 2533 
Q 700 2828 1025 2828 
Q 1253 2828 1411 2678 
Q 1569 2528 1569 2297 
Q 1569 2178 1516 2047 
Q 1488 1969 1388 1706 
Q 1288 1444 1234 1272 
Q 1181 1100 1147 934 
Q 1113 769 1113 603 
Q 1113 391 1203 244 
Q 1294 97 1497 97 
Q 1906 97 2216 603 
Q 2222 628 2226 651 
Q 2231 675 2234 697 
L 2694 2553 
Q 2716 2638 2794 2698 
Q 2872 2759 2963 2759 
Q 3041 2759 3098 2709 
Q 3156 2659 3156 2578 
Q 3156 2541 3150 2528 
L 2688 684 
Q 2644 494 2644 372 
Q 2644 97 2828 97 
Q 3034 97 3136 351 
Q 3238 606 3309 941 
Q 3322 978 3359 978 
L 3438 978 
Q 3463 978 3478 956 
Q 3494 934 3494 916 
Q 3425 641 3361 444 
Q 3297 247 3159 87 
Q 3022 -72 2816 -72 
Q 2613 -72 2452 39 
Q 2291 150 2234 341 
Q 2088 153 1894 40 
Q 1700 -72 1484 -72 
Q 1116 -72 897 129 
Q 678 331 678 697 
z
" transform="scale(0.015625)"/>
      <path id="Cmmi10-76" d="M 684 722 
Q 684 866 718 1037 
Q 753 1209 787 1320 
Q 822 1431 944 1753 
Q 1066 2075 1069 2088 
Q 1153 2322 1153 2472 
Q 1153 2663 1013 2663 
Q 759 2663 595 2402 
Q 431 2141 353 1819 
Q 341 1778 300 1778 
L 225 1778 
Q 172 1778 172 1838 
L 172 1856 
Q 275 2238 487 2533 
Q 700 2828 1025 2828 
Q 1253 2828 1411 2678 
Q 1569 2528 1569 2297 
Q 1569 2178 1516 2047 
Q 1391 1722 1319 1526 
Q 1247 1331 1186 1089 
Q 1125 847 1125 641 
Q 1125 400 1236 248 
Q 1347 97 1581 97 
Q 2025 97 2381 781 
Q 2494 1003 2594 1303 
Q 2694 1603 2694 1791 
Q 2694 1984 2631 2092 
Q 2569 2200 2469 2317 
Q 2369 2434 2369 2503 
Q 2369 2628 2472 2731 
Q 2575 2834 2700 2834 
Q 2853 2834 2920 2693 
Q 2988 2553 2988 2375 
Q 2988 2163 2927 1869 
Q 2866 1575 2758 1259 
Q 2650 944 2559 763 
Q 2138 -72 1575 -72 
Q 1172 -72 928 129 
Q 684 331 684 722 
z
" transform="scale(0.015625)"/>
      <path id="Cmmi10-54" d="M 294 84 
Q 297 100 308 140 
Q 319 181 336 203 
Q 353 225 384 225 
Q 934 225 1113 256 
Q 1284 300 1319 441 
L 2194 3956 
Q 2222 4034 2222 4097 
Q 2222 4147 1997 4147 
L 1625 4147 
Q 1197 4147 964 4015 
Q 731 3884 622 3668 
Q 513 3453 341 2963 
Q 319 2906 275 2906 
L 219 2906 
Q 153 2906 153 2988 
L 609 4313 
Q 622 4372 672 4372 
L 4453 4372 
Q 4519 4372 4519 4288 
L 4306 2963 
Q 4306 2944 4284 2925 
Q 4263 2906 4244 2906 
L 4184 2906 
Q 4122 2906 4122 2988 
Q 4191 3441 4191 3628 
Q 4191 3853 4097 3968 
Q 4003 4084 3853 4115 
Q 3703 4147 3463 4147 
L 3084 4147 
Q 2913 4147 2853 4115 
Q 2794 4084 2753 3928 
L 1875 416 
Q 1872 403 1870 390 
Q 1869 378 1863 359 
Q 1863 278 1959 256 
Q 2125 225 2669 225 
Q 2731 225 2731 141 
Q 2709 50 2696 25 
Q 2684 0 2625 0 
L 359 0 
Q 294 0 294 84 
z
" transform="scale(0.015625)"/>
     </defs>
     <use xlink:href="#Cmmi10-41" transform="translate(0 0.917188)"/>
     <use xlink:href="#Cmr10-3d" transform="translate(92.558594 0.917188)"/>
     <use xlink:href="#Cmmi10-75" transform="translate(187.802734 0.917188)"/>
     <use xlink:href="#Cmmi10-76" transform="translate(244.980469 0.917188)"/>
     <use xlink:href="#Cmmi10-54" transform="translate(299.692109 39.18125) scale(0.7)"/>
    </g>
   </g>
   <g id="text_30">
    <!-- Alle Zeilen sind Vielfache -->
    <g style="fill: #111111" transform="translate(445.23 128.368856) scale(0.15 -0.15)">
     <defs>
      <path id="DejaVuSerif-41" d="M 1281 1691 
L 2994 1691 
L 2138 3909 
L 1281 1691 
z
M -38 0 
L -38 331 
L 372 331 
L 2034 4666 
L 2559 4666 
L 4225 331 
L 4684 331 
L 4684 0 
L 2988 0 
L 2988 331 
L 3506 331 
L 3116 1356 
L 1153 1356 
L 763 331 
L 1275 331 
L 1275 0 
L -38 0 
z
" transform="scale(0.015625)"/>
      <path id="DejaVuSerif-69" d="M 622 4353 
Q 622 4497 726 4603 
Q 831 4709 978 4709 
Q 1122 4709 1226 4603 
Q 1331 4497 1331 4353 
Q 1331 4206 1228 4103 
Q 1125 4000 978 4000 
Q 831 4000 726 4103 
Q 622 4206 622 4353 
z
M 1356 331 
L 1900 331 
L 1900 0 
L 231 0 
L 231 331 
L 781 331 
L 781 2988 
L 231 2988 
L 231 3322 
L 1356 3322 
L 1356 331 
z
" transform="scale(0.015625)"/>
      <path id="DejaVuSerif-73" d="M 359 184 
L 359 959 
L 691 959 
Q 703 588 923 403 
Q 1144 219 1575 219 
Q 1963 219 2166 364 
Q 2369 509 2369 788 
Q 2369 1006 2220 1140 
Q 2072 1275 1594 1428 
L 1178 1569 
Q 750 1706 558 1912 
Q 366 2119 366 2438 
Q 366 2894 700 3153 
Q 1034 3413 1625 3413 
Q 1888 3413 2178 3344 
Q 2469 3275 2778 3144 
L 2778 2419 
L 2447 2419 
Q 2434 2741 2221 2922 
Q 2009 3103 1644 3103 
Q 1281 3103 1095 2975 
Q 909 2847 909 2591 
Q 909 2381 1050 2254 
Q 1191 2128 1613 1997 
L 2069 1856 
Q 2541 1709 2748 1489 
Q 2956 1269 2956 922 
Q 2956 450 2595 179 
Q 2234 -91 1600 -91 
Q 1278 -91 972 -22 
Q 666 47 359 184 
z
" transform="scale(0.015625)"/>
      <path id="DejaVuSerif-64" d="M 3359 331 
L 3909 331 
L 3909 0 
L 2784 0 
L 2784 519 
Q 2616 206 2355 57 
Q 2094 -91 1709 -91 
Q 1097 -91 708 395 
Q 319 881 319 1663 
Q 319 2444 706 2928 
Q 1094 3413 1709 3413 
Q 2094 3413 2355 3264 
Q 2616 3116 2784 2803 
L 2784 4531 
L 2241 4531 
L 2241 4863 
L 3359 4863 
L 3359 331 
z
M 2784 1497 
L 2784 1825 
Q 2784 2422 2554 2737 
Q 2325 3053 1888 3053 
Q 1444 3053 1217 2703 
Q 991 2353 991 1663 
Q 991 975 1217 622 
Q 1444 269 1888 269 
Q 2325 269 2554 583 
Q 2784 897 2784 1497 
z
" transform="scale(0.015625)"/>
      <path id="DejaVuSerif-56" d="M 1119 4331 
L 2497 750 
L 3872 4331 
L 3347 4331 
L 3347 4666 
L 4716 4666 
L 4716 4331 
L 4263 4331 
L 2597 0 
L 2059 0 
L 403 4331 
L -63 4331 
L -63 4666 
L 1638 4666 
L 1638 4331 
L 1119 4331 
z
" transform="scale(0.015625)"/>
      <path id="DejaVuSerif-66" d="M 2753 4078 
L 2450 4078 
Q 2447 4313 2317 4434 
Q 2188 4556 1941 4556 
Q 1619 4556 1487 4379 
Q 1356 4203 1356 3750 
L 1356 3322 
L 2284 3322 
L 2284 2988 
L 1356 2988 
L 1356 331 
L 2094 331 
L 2094 0 
L 231 0 
L 231 331 
L 781 331 
L 781 2988 
L 231 2988 
L 231 3322 
L 781 3322 
L 781 3738 
Q 781 4294 1070 4578 
Q 1359 4863 1919 4863 
Q 2128 4863 2337 4825 
Q 2547 4788 2753 4709 
L 2753 4078 
z
" transform="scale(0.015625)"/>
      <path id="DejaVuSerif-63" d="M 3291 997 
Q 3169 466 2822 187 
Q 2475 -91 1925 -91 
Q 1200 -91 759 389 
Q 319 869 319 1663 
Q 319 2459 759 2936 
Q 1200 3413 1925 3413 
Q 2241 3413 2553 3339 
Q 2866 3266 3181 3116 
L 3181 2266 
L 2847 2266 
Q 2781 2703 2561 2903 
Q 2341 3103 1931 3103 
Q 1466 3103 1228 2742 
Q 991 2381 991 1663 
Q 991 944 1227 581 
Q 1463 219 1931 219 
Q 2303 219 2525 412 
Q 2747 606 2828 997 
L 3291 997 
z
" transform="scale(0.015625)"/>
     </defs>
     <use xlink:href="#DejaVuSerif-41"/>
     <use xlink:href="#DejaVuSerif-6c" transform="translate(72.216797 0)"/>
     <use xlink:href="#DejaVuSerif-6c" transform="translate(104.199219 0)"/>
     <use xlink:href="#DejaVuSerif-65" transform="translate(136.181641 0)"/>
     <use xlink:href="#DejaVuSerif-20" transform="translate(195.361328 0)"/>
     <use xlink:href="#DejaVuSerif-5a" transform="translate(227.148438 0)"/>
     <use xlink:href="#DejaVuSerif-65" transform="translate(296.630859 0)"/>
     <use xlink:href="#DejaVuSerif-69" transform="translate(355.810547 0)"/>
     <use xlink:href="#DejaVuSerif-6c" transform="translate(387.792969 0)"/>
     <use xlink:href="#DejaVuSerif-65" transform="translate(419.775391 0)"/>
     <use xlink:href="#DejaVuSerif-6e" transform="translate(478.955078 0)"/>
     <use xlink:href="#DejaVuSerif-20" transform="translate(543.359375 0)"/>
     <use xlink:href="#DejaVuSerif-73" transform="translate(575.146484 0)"/>
     <use xlink:href="#DejaVuSerif-69" transform="translate(626.464844 0)"/>
     <use xlink:href="#DejaVuSerif-6e" transform="translate(658.447266 0)"/>
     <use xlink:href="#DejaVuSerif-64" transform="translate(722.851562 0)"/>
     <use xlink:href="#DejaVuSerif-20" transform="translate(786.865234 0)"/>
     <use xlink:href="#DejaVuSerif-56" transform="translate(818.652344 0)"/>
     <use xlink:href="#DejaVuSerif-69" transform="translate(889.119141 0)"/>
     <use xlink:href="#DejaVuSerif-65" transform="translate(921.101562 0)"/>
     <use xlink:href="#DejaVuSerif-6c" transform="translate(980.28125 0)"/>
     <use xlink:href="#DejaVuSerif-66" transform="translate(1012.263672 0)"/>
     <use xlink:href="#DejaVuSerif-61" transform="translate(1049.275391 0)"/>
     <use xlink:href="#DejaVuSerif-63" transform="translate(1108.894531 0)"/>
     <use xlink:href="#DejaVuSerif-68" transform="translate(1164.900391 0)"/>
     <use xlink:href="#DejaVuSerif-65" transform="translate(1229.304688 0)"/>
    </g>
    <!-- von (1, 2, 3, 4). -->
    <g style="fill: #111111" transform="translate(445.23 145.735458) scale(0.15 -0.15)">
     <defs>
      <path id="DejaVuSerif-76" d="M 1581 0 
L 359 2988 
L -19 2988 
L -19 3322 
L 1509 3322 
L 1509 2988 
L 978 2988 
L 1913 703 
L 2847 2988 
L 2350 2988 
L 2350 3322 
L 3597 3322 
L 3597 2988 
L 3225 2988 
L 2003 0 
L 1581 0 
z
" transform="scale(0.015625)"/>
      <path id="DejaVuSerif-6f" d="M 1925 219 
Q 2388 219 2623 584 
Q 2859 950 2859 1663 
Q 2859 2375 2623 2739 
Q 2388 3103 1925 3103 
Q 1463 3103 1227 2739 
Q 991 2375 991 1663 
Q 991 950 1228 584 
Q 1466 219 1925 219 
z
M 1925 -91 
Q 1200 -91 759 389 
Q 319 869 319 1663 
Q 319 2456 758 2934 
Q 1197 3413 1925 3413 
Q 2653 3413 3092 2934 
Q 3531 2456 3531 1663 
Q 3531 869 3092 389 
Q 2653 -91 1925 -91 
z
" transform="scale(0.015625)"/>
      <path id="DejaVuSerif-28" d="M 2041 -997 
Q 1281 -656 893 83 
Q 506 822 506 1931 
Q 506 3044 893 3783 
Q 1281 4522 2041 4863 
L 2041 4556 
Q 1559 4225 1350 3623 
Q 1141 3022 1141 1931 
Q 1141 844 1350 242 
Q 1559 -359 2041 -691 
L 2041 -997 
z
" transform="scale(0.015625)"/>
      <path id="DejaVuSerif-2c" d="M 231 -622 
Q 525 -406 662 -114 
Q 800 178 800 594 
L 800 709 
L 1416 709 
Q 1391 175 1164 -208 
Q 938 -591 481 -872 
L 231 -622 
z
" transform="scale(0.015625)"/>
      <path id="DejaVuSerif-32" d="M 819 3553 
L 469 3553 
L 469 4384 
Q 803 4563 1142 4656 
Q 1481 4750 1806 4750 
Q 2534 4750 2956 4397 
Q 3378 4044 3378 3438 
Q 3378 2753 2422 1800 
Q 2347 1728 2309 1691 
L 1131 513 
L 3078 513 
L 3078 1088 
L 3444 1088 
L 3444 0 
L 434 0 
L 434 341 
L 1850 1753 
Q 2319 2222 2519 2614 
Q 2719 3006 2719 3438 
Q 2719 3909 2473 4175 
Q 2228 4441 1797 4441 
Q 1350 4441 1106 4219 
Q 863 3997 819 3553 
z
" transform="scale(0.015625)"/>
      <path id="DejaVuSerif-33" d="M 622 4469 
Q 988 4606 1323 4678 
Q 1659 4750 1953 4750 
Q 2638 4750 3022 4454 
Q 3406 4159 3406 3634 
Q 3406 3213 3140 2930 
Q 2875 2647 2388 2547 
Q 2963 2466 3280 2130 
Q 3597 1794 3597 1259 
Q 3597 606 3158 257 
Q 2719 -91 1894 -91 
Q 1528 -91 1179 -12 
Q 831 66 488 225 
L 488 1131 
L 838 1131 
Q 869 681 1141 450 
Q 1413 219 1906 219 
Q 2384 219 2661 495 
Q 2938 772 2938 1253 
Q 2938 1803 2653 2086 
Q 2369 2369 1819 2369 
L 1522 2369 
L 1522 2688 
L 1678 2688 
Q 2225 2688 2498 2914 
Q 2772 3141 2772 3597 
Q 2772 4006 2547 4223 
Q 2322 4441 1900 4441 
Q 1478 4441 1245 4241 
Q 1013 4041 972 3647 
L 622 3647 
L 622 4469 
z
" transform="scale(0.015625)"/>
      <path id="DejaVuSerif-34" d="M 2234 1581 
L 2234 4063 
L 641 1581 
L 2234 1581 
z
M 3609 0 
L 1484 0 
L 1484 331 
L 2234 331 
L 2234 1247 
L 197 1247 
L 197 1588 
L 2241 4750 
L 2859 4750 
L 2859 1581 
L 3750 1581 
L 3750 1247 
L 2859 1247 
L 2859 331 
L 3609 331 
L 3609 0 
z
" transform="scale(0.015625)"/>
      <path id="DejaVuSerif-29" d="M 453 -997 
L 453 -691 
Q 934 -359 1145 242 
Q 1356 844 1356 1931 
Q 1356 3022 1145 3623 
Q 934 4225 453 4556 
L 453 4863 
Q 1216 4522 1603 3783 
Q 1991 3044 1991 1931 
Q 1991 822 1603 83 
Q 1216 -656 453 -997 
z
" transform="scale(0.015625)"/>
      <path id="DejaVuSerif-2e" d="M 603 325 
Q 603 500 722 622 
Q 841 744 1019 744 
Q 1191 744 1312 622 
Q 1434 500 1434 325 
Q 1434 153 1312 31 
Q 1191 -91 1019 -91 
Q 841 -91 722 29 
Q 603 150 603 325 
z
" transform="scale(0.015625)"/>
     </defs>
     <use xlink:href="#DejaVuSerif-76"/>
     <use xlink:href="#DejaVuSerif-6f" transform="translate(56.494141 0)"/>
     <use xlink:href="#DejaVuSerif-6e" transform="translate(116.699219 0)"/>
     <use xlink:href="#DejaVuSerif-20" transform="translate(181.103516 0)"/>
     <use xlink:href="#DejaVuSerif-28" transform="translate(212.890625 0)"/>
     <use xlink:href="#DejaVuSerif-31" transform="translate(251.904297 0)"/>
     <use xlink:href="#DejaVuSerif-2c" transform="translate(315.527344 0)"/>
     <use xlink:href="#DejaVuSerif-20" transform="translate(347.314453 0)"/>
     <use xlink:href="#DejaVuSerif-32" transform="translate(379.101562 0)"/>
     <use xlink:href="#DejaVuSerif-2c" transform="translate(442.724609 0)"/>
     <use xlink:href="#DejaVuSerif-20" transform="translate(474.511719 0)"/>
     <use xlink:href="#DejaVuSerif-33" transform="translate(506.298828 0)"/>
     <use xlink:href="#DejaVuSerif-2c" transform="translate(569.921875 0)"/>
     <use xlink:href="#DejaVuSerif-20" transform="translate(601.708984 0)"/>
     <use xlink:href="#DejaVuSerif-34" transform="translate(633.496094 0)"/>
     <use xlink:href="#DejaVuSerif-29" transform="translate(697.119141 0)"/>
     <use xlink:href="#DejaVuSerif-2e" transform="translate(736.132812 0)"/>
    </g>
   </g>
   <g id="text_31">
    <!-- Deshalb hat die Matrix Rang 1: -->
    <g style="fill: #666666" transform="translate(445.23 177.505012) scale(0.14 -0.14)">
     <defs>
      <path id="DejaVuSerif-44" d="M 1581 331 
L 2163 331 
Q 3072 331 3558 850 
Q 4044 1369 4044 2338 
Q 4044 3306 3559 3818 
Q 3075 4331 2163 4331 
L 1581 4331 
L 1581 331 
z
M 353 0 
L 353 331 
L 947 331 
L 947 4331 
L 353 4331 
L 353 4666 
L 2209 4666 
Q 3416 4666 4089 4050 
Q 4763 3434 4763 2338 
Q 4763 1238 4088 619 
Q 3413 0 2209 0 
L 353 0 
z
" transform="scale(0.015625)"/>
      <path id="DejaVuSerif-62" d="M 738 331 
L 738 4531 
L 184 4531 
L 184 4863 
L 1313 4863 
L 1313 2803 
Q 1481 3116 1742 3264 
Q 2003 3413 2388 3413 
Q 3000 3413 3387 2928 
Q 3775 2444 3775 1663 
Q 3775 881 3387 395 
Q 3000 -91 2388 -91 
Q 2003 -91 1742 57 
Q 1481 206 1313 519 
L 1313 0 
L 184 0 
L 184 331 
L 738 331 
z
M 1313 1497 
Q 1313 897 1542 583 
Q 1772 269 2209 269 
Q 2650 269 2876 622 
Q 3103 975 3103 1663 
Q 3103 2353 2876 2703 
Q 2650 3053 2209 3053 
Q 1772 3053 1542 2737 
Q 1313 2422 1313 1825 
L 1313 1497 
z
" transform="scale(0.015625)"/>
      <path id="DejaVuSerif-74" d="M 691 2988 
L 184 2988 
L 184 3322 
L 691 3322 
L 691 4353 
L 1269 4353 
L 1269 3322 
L 2350 3322 
L 2350 2988 
L 1269 2988 
L 1269 878 
Q 1269 456 1350 337 
Q 1431 219 1650 219 
Q 1875 219 1978 351 
Q 2081 484 2088 781 
L 2522 781 
Q 2497 328 2275 118 
Q 2053 -91 1600 -91 
Q 1103 -91 897 129 
Q 691 350 691 878 
L 691 2988 
z
" transform="scale(0.015625)"/>
      <path id="DejaVuSerif-4d" d="M 353 0 
L 353 331 
L 947 331 
L 947 4331 
L 319 4331 
L 319 4666 
L 1678 4666 
L 3316 1344 
L 4953 4666 
L 6228 4666 
L 6228 4331 
L 5606 4331 
L 5606 331 
L 6203 331 
L 6203 0 
L 4378 0 
L 4378 331 
L 4972 331 
L 4972 3938 
L 3372 684 
L 2931 684 
L 1331 3938 
L 1331 331 
L 1925 331 
L 1925 0 
L 353 0 
z
" transform="scale(0.015625)"/>
      <path id="DejaVuSerif-72" d="M 3059 3328 
L 3059 2497 
L 2728 2497 
Q 2713 2744 2591 2866 
Q 2469 2988 2234 2988 
Q 1809 2988 1582 2694 
Q 1356 2400 1356 1850 
L 1356 331 
L 2022 331 
L 2022 0 
L 263 0 
L 263 331 
L 781 331 
L 781 2994 
L 231 2994 
L 231 3322 
L 1356 3322 
L 1356 2731 
Q 1525 3078 1790 3245 
Q 2056 3413 2438 3413 
Q 2578 3413 2733 3391 
Q 2888 3369 3059 3328 
z
" transform="scale(0.015625)"/>
      <path id="DejaVuSerif-78" d="M 1863 2028 
L 2559 2988 
L 2113 2988 
L 2113 3322 
L 3391 3322 
L 3391 2988 
L 2950 2988 
L 2059 1759 
L 3097 331 
L 3531 331 
L 3531 0 
L 1997 0 
L 1997 331 
L 2419 331 
L 1697 1325 
L 972 331 
L 1403 331 
L 1403 0 
L 141 0 
L 141 331 
L 581 331 
L 1497 1594 
L 488 2988 
L 78 2988 
L 78 3322 
L 1563 3322 
L 1563 2988 
L 1166 2988 
L 1863 2028 
z
" transform="scale(0.015625)"/>
      <path id="DejaVuSerif-52" d="M 3066 2316 
Q 3284 2256 3442 2114 
Q 3600 1972 3725 1716 
L 4403 331 
L 4972 331 
L 4972 0 
L 3872 0 
L 3144 1484 
Q 2934 1916 2759 2042 
Q 2584 2169 2278 2169 
L 1581 2169 
L 1581 331 
L 2241 331 
L 2241 0 
L 353 0 
L 353 331 
L 947 331 
L 947 4331 
L 353 4331 
L 353 4666 
L 2719 4666 
Q 3400 4666 3770 4341 
Q 4141 4016 4141 3419 
Q 4141 2938 3870 2661 
Q 3600 2384 3066 2316 
z
M 1581 2503 
L 2503 2503 
Q 2975 2503 3200 2726 
Q 3425 2950 3425 3419 
Q 3425 3888 3200 4109 
Q 2975 4331 2503 4331 
L 1581 4331 
L 1581 2503 
z
" transform="scale(0.015625)"/>
      <path id="DejaVuSerif-67" d="M 3359 2988 
L 3359 72 
Q 3359 -644 2965 -1033 
Q 2572 -1422 1844 -1422 
Q 1516 -1422 1216 -1362 
Q 916 -1303 641 -1184 
L 641 -488 
L 941 -488 
Q 997 -813 1206 -963 
Q 1416 -1113 1806 -1113 
Q 2313 -1113 2548 -827 
Q 2784 -541 2784 72 
L 2784 519 
Q 2616 206 2355 57 
Q 2094 -91 1709 -91 
Q 1097 -91 708 395 
Q 319 881 319 1663 
Q 319 2444 706 2928 
Q 1094 3413 1709 3413 
Q 2094 3413 2355 3264 
Q 2616 3116 2784 2803 
L 2784 3322 
L 3909 3322 
L 3909 2988 
L 3359 2988 
z
M 2784 1825 
Q 2784 2422 2554 2737 
Q 2325 3053 1888 3053 
Q 1444 3053 1217 2703 
Q 991 2353 991 1663 
Q 991 975 1217 622 
Q 1444 269 1888 269 
Q 2325 269 2554 583 
Q 2784 897 2784 1497 
L 2784 1825 
z
" transform="scale(0.015625)"/>
      <path id="DejaVuSerif-3a" d="M 666 325 
Q 666 500 786 622 
Q 906 744 1081 744 
Q 1256 744 1376 622 
Q 1497 500 1497 325 
Q 1497 150 1378 29 
Q 1259 -91 1081 -91 
Q 903 -91 784 29 
Q 666 150 666 325 
z
M 666 2363 
Q 666 2538 786 2658 
Q 906 2778 1081 2778 
Q 1259 2778 1378 2659 
Q 1497 2541 1497 2363 
Q 1497 2184 1378 2065 
Q 1259 1947 1081 1947 
Q 906 1947 786 2067 
Q 666 2188 666 2363 
z
" transform="scale(0.015625)"/>
     </defs>
     <use xlink:href="#DejaVuSerif-44"/>
     <use xlink:href="#DejaVuSerif-65" transform="translate(80.175781 0)"/>
     <use xlink:href="#DejaVuSerif-73" transform="translate(139.355469 0)"/>
     <use xlink:href="#DejaVuSerif-68" transform="translate(190.673828 0)"/>
     <use xlink:href="#DejaVuSerif-61" transform="translate(255.078125 0)"/>
     <use xlink:href="#DejaVuSerif-6c" transform="translate(314.697266 0)"/>
     <use xlink:href="#DejaVuSerif-62" transform="translate(346.679688 0)"/>
     <use xlink:href="#DejaVuSerif-20" transform="translate(410.693359 0)"/>
     <use xlink:href="#DejaVuSerif-68" transform="translate(442.480469 0)"/>
     <use xlink:href="#DejaVuSerif-61" transform="translate(506.884766 0)"/>
     <use xlink:href="#DejaVuSerif-74" transform="translate(566.503906 0)"/>
     <use xlink:href="#DejaVuSerif-20" transform="translate(606.689453 0)"/>
     <use xlink:href="#DejaVuSerif-64" transform="translate(638.476562 0)"/>
     <use xlink:href="#DejaVuSerif-69" transform="translate(702.490234 0)"/>
     <use xlink:href="#DejaVuSerif-65" transform="translate(734.472656 0)"/>
     <use xlink:href="#DejaVuSerif-20" transform="translate(793.652344 0)"/>
     <use xlink:href="#DejaVuSerif-4d" transform="translate(825.439453 0)"/>
     <use xlink:href="#DejaVuSerif-61" transform="translate(927.832031 0)"/>
     <use xlink:href="#DejaVuSerif-74" transform="translate(987.451172 0)"/>
     <use xlink:href="#DejaVuSerif-72" transform="translate(1027.636719 0)"/>
     <use xlink:href="#DejaVuSerif-69" transform="translate(1075.439453 0)"/>
     <use xlink:href="#DejaVuSerif-78" transform="translate(1107.421875 0)"/>
     <use xlink:href="#DejaVuSerif-20" transform="translate(1163.818359 0)"/>
     <use xlink:href="#DejaVuSerif-52" transform="translate(1195.605469 0)"/>
     <use xlink:href="#DejaVuSerif-61" transform="translate(1273.148438 0)"/>
     <use xlink:href="#DejaVuSerif-6e" transform="translate(1332.767578 0)"/>
     <use xlink:href="#DejaVuSerif-67" transform="translate(1397.171875 0)"/>
     <use xlink:href="#DejaVuSerif-20" transform="translate(1461.185547 0)"/>
     <use xlink:href="#DejaVuSerif-31" transform="translate(1492.972656 0)"/>
     <use xlink:href="#DejaVuSerif-3a" transform="translate(1556.595703 0)"/>
    </g>
    <!-- 4 Dimensionen, aber nur eine -->
    <g style="fill: #666666" transform="translate(445.23 193.912903) scale(0.14 -0.14)">
     <defs>
      <path id="DejaVuSerif-6d" d="M 3316 2675 
Q 3481 3041 3739 3227 
Q 3997 3413 4341 3413 
Q 4863 3413 5119 3089 
Q 5375 2766 5375 2113 
L 5375 331 
L 5894 331 
L 5894 0 
L 4300 0 
L 4300 331 
L 4800 331 
L 4800 2047 
Q 4800 2556 4650 2772 
Q 4500 2988 4153 2988 
Q 3769 2988 3567 2697 
Q 3366 2406 3366 1850 
L 3366 331 
L 3866 331 
L 3866 0 
L 2291 0 
L 2291 331 
L 2791 331 
L 2791 2069 
Q 2791 2566 2641 2777 
Q 2491 2988 2144 2988 
Q 1759 2988 1557 2697 
Q 1356 2406 1356 1850 
L 1356 331 
L 1856 331 
L 1856 0 
L 263 0 
L 263 331 
L 781 331 
L 781 2994 
L 231 2994 
L 231 3322 
L 1356 3322 
L 1356 2731 
Q 1516 3063 1762 3238 
Q 2009 3413 2322 3413 
Q 2709 3413 2968 3220 
Q 3228 3028 3316 2675 
z
" transform="scale(0.015625)"/>
      <path id="DejaVuSerif-75" d="M 2266 3322 
L 3341 3322 
L 3341 331 
L 3884 331 
L 3884 0 
L 2766 0 
L 2766 588 
Q 2606 256 2353 82 
Q 2100 -91 1766 -91 
Q 1213 -91 952 223 
Q 691 538 691 1209 
L 691 2988 
L 172 2988 
L 172 3322 
L 1269 3322 
L 1269 1388 
Q 1269 781 1417 556 
Q 1566 331 1947 331 
Q 2347 331 2556 625 
Q 2766 919 2766 1478 
L 2766 2988 
L 2266 2988 
L 2266 3322 
z
" transform="scale(0.015625)"/>
     </defs>
     <use xlink:href="#DejaVuSerif-34"/>
     <use xlink:href="#DejaVuSerif-20" transform="translate(63.623047 0)"/>
     <use xlink:href="#DejaVuSerif-44" transform="translate(95.410156 0)"/>
     <use xlink:href="#DejaVuSerif-69" transform="translate(175.585938 0)"/>
     <use xlink:href="#DejaVuSerif-6d" transform="translate(207.568359 0)"/>
     <use xlink:href="#DejaVuSerif-65" transform="translate(302.392578 0)"/>
     <use xlink:href="#DejaVuSerif-6e" transform="translate(361.572266 0)"/>
     <use xlink:href="#DejaVuSerif-73" transform="translate(425.976562 0)"/>
     <use xlink:href="#DejaVuSerif-69" transform="translate(477.294922 0)"/>
     <use xlink:href="#DejaVuSerif-6f" transform="translate(509.277344 0)"/>
     <use xlink:href="#DejaVuSerif-6e" transform="translate(569.482422 0)"/>
     <use xlink:href="#DejaVuSerif-65" transform="translate(633.886719 0)"/>
     <use xlink:href="#DejaVuSerif-6e" transform="translate(693.066406 0)"/>
     <use xlink:href="#DejaVuSerif-2c" transform="translate(757.470703 0)"/>
     <use xlink:href="#DejaVuSerif-20" transform="translate(789.257812 0)"/>
     <use xlink:href="#DejaVuSerif-61" transform="translate(821.044922 0)"/>
     <use xlink:href="#DejaVuSerif-62" transform="translate(880.664062 0)"/>
     <use xlink:href="#DejaVuSerif-65" transform="translate(944.677734 0)"/>
     <use xlink:href="#DejaVuSerif-72" transform="translate(1003.857422 0)"/>
     <use xlink:href="#DejaVuSerif-20" transform="translate(1051.660156 0)"/>
     <use xlink:href="#DejaVuSerif-6e" transform="translate(1083.447266 0)"/>
     <use xlink:href="#DejaVuSerif-75" transform="translate(1147.851562 0)"/>
     <use xlink:href="#DejaVuSerif-72" transform="translate(1212.255859 0)"/>
     <use xlink:href="#DejaVuSerif-20" transform="translate(1260.058594 0)"/>
     <use xlink:href="#DejaVuSerif-65" transform="translate(1291.845703 0)"/>
     <use xlink:href="#DejaVuSerif-69" transform="translate(1351.025391 0)"/>
     <use xlink:href="#DejaVuSerif-6e" transform="translate(1383.007812 0)"/>
     <use xlink:href="#DejaVuSerif-65" transform="translate(1447.412109 0)"/>
    </g>
    <!-- unabhängige Richtung. -->
    <g style="fill: #666666" transform="translate(445.23 210.231106) scale(0.14 -0.14)">
     <defs>
      <path id="DejaVuSerif-e4" d="M 2547 1044 
L 2547 1747 
L 1806 1747 
Q 1378 1747 1168 1562 
Q 959 1378 959 997 
Q 959 650 1171 447 
Q 1384 244 1747 244 
Q 2106 244 2326 466 
Q 2547 688 2547 1044 
z
M 3122 2075 
L 3122 331 
L 3634 331 
L 3634 0 
L 2547 0 
L 2547 359 
Q 2356 128 2106 18 
Q 1856 -91 1522 -91 
Q 969 -91 644 203 
Q 319 497 319 997 
Q 319 1513 691 1797 
Q 1063 2081 1741 2081 
L 2547 2081 
L 2547 2309 
Q 2547 2688 2317 2895 
Q 2088 3103 1672 3103 
Q 1328 3103 1125 2947 
Q 922 2791 872 2484 
L 575 2484 
L 575 3156 
Q 875 3284 1158 3348 
Q 1441 3413 1709 3413 
Q 2400 3413 2761 3070 
Q 3122 2728 3122 2075 
z
M 1167 4903 
Q 1317 4903 1424 4795 
Q 1532 4688 1532 4538 
Q 1532 4378 1429 4275 
Q 1326 4172 1167 4172 
Q 1010 4172 907 4275 
Q 804 4378 804 4538 
Q 804 4688 912 4795 
Q 1020 4903 1167 4903 
z
M 2385 4903 
Q 2532 4903 2640 4795 
Q 2748 4688 2748 4538 
Q 2748 4378 2645 4275 
Q 2542 4172 2385 4172 
Q 2226 4172 2123 4275 
Q 2020 4378 2020 4538 
Q 2020 4688 2127 4795 
Q 2235 4903 2385 4903 
z
" transform="scale(0.015625)"/>
     </defs>
     <use xlink:href="#DejaVuSerif-75"/>
     <use xlink:href="#DejaVuSerif-6e" transform="translate(64.404297 0)"/>
     <use xlink:href="#DejaVuSerif-61" transform="translate(128.808594 0)"/>
     <use xlink:href="#DejaVuSerif-62" transform="translate(188.427734 0)"/>
     <use xlink:href="#DejaVuSerif-68" transform="translate(252.441406 0)"/>
     <use xlink:href="#DejaVuSerif-e4" transform="translate(316.845703 0)"/>
     <use xlink:href="#DejaVuSerif-6e" transform="translate(376.464844 0)"/>
     <use xlink:href="#DejaVuSerif-67" transform="translate(440.869141 0)"/>
     <use xlink:href="#DejaVuSerif-69" transform="translate(504.882812 0)"/>
     <use xlink:href="#DejaVuSerif-67" transform="translate(536.865234 0)"/>
     <use xlink:href="#DejaVuSerif-65" transform="translate(600.878906 0)"/>
     <use xlink:href="#DejaVuSerif-20" transform="translate(660.058594 0)"/>
     <use xlink:href="#DejaVuSerif-52" transform="translate(691.845703 0)"/>
     <use xlink:href="#DejaVuSerif-69" transform="translate(767.138672 0)"/>
     <use xlink:href="#DejaVuSerif-63" transform="translate(799.121094 0)"/>
     <use xlink:href="#DejaVuSerif-68" transform="translate(855.126953 0)"/>
     <use xlink:href="#DejaVuSerif-74" transform="translate(919.53125 0)"/>
     <use xlink:href="#DejaVuSerif-75" transform="translate(959.716797 0)"/>
     <use xlink:href="#DejaVuSerif-6e" transform="translate(1024.121094 0)"/>
     <use xlink:href="#DejaVuSerif-67" transform="translate(1088.525391 0)"/>
     <use xlink:href="#DejaVuSerif-2e" transform="translate(1152.539062 0)"/>
    </g>
   </g>
  </g>
 </g>
 <defs>
  <clipPath id="p61f048b324">
   <rect x="7.2" y="7.2" width="613.8" height="210.672"/>
  </clipPath>
 </defs>
</svg>
