<?xml version="1.0" encoding="utf-8" standalone="no"?>
<!DOCTYPE svg PUBLIC "-//W3C//DTD SVG 1.1//EN"
  "http://www.w3.org/Graphics/SVG/1.1/DTD/svg11.dtd">
<svg xmlns:xlink="http://www.w3.org/1999/xlink" width="343.62pt" height="166.86pt" viewBox="0 0 343.62 166.86" xmlns="http://www.w3.org/2000/svg" version="1.1">
 <metadata>
  <rdf:RDF xmlns:dc="http://purl.org/dc/elements/1.1/" xmlns:cc="http://creativecommons.org/ns#" xmlns:rdf="http://www.w3.org/1999/02/22-rdf-syntax-ns#">
   <cc:Work>
    <dc:type rdf:resource="http://purl.org/dc/dcmitype/StillImage"/>
    <dc:date>2026-06-15T05:45:27.120878</dc:date>
    <dc:format>image/svg+xml</dc:format>
    <dc:creator>
     <cc:Agent>
      <dc:title>Matplotlib v3.11.0, https://matplotlib.org/</dc:title>
     </cc:Agent>
    </dc:creator>
   </cc:Work>
  </rdf:RDF>
 </metadata>
 <defs>
  <style type="text/css">*{stroke-linejoin: round; stroke-linecap: butt}</style>
 </defs>
 <g id="figure_1">
  <g id="patch_1">
   <path d="M 0 166.86 
L 343.62 166.86 
L 343.62 0 
L 0 0 
L 0 166.86 
z
" style="fill: none"/>
  </g>
  <g id="axes_1">
   <g id="patch_2">
    <path d="M 18.36 40.464 
L 45.144 40.464 
L 45.144 17.1792 
L 18.36 17.1792 
z
" clip-path="url(#p99547ab0b4)" style="fill: #ffffff; stroke: #111111; stroke-width: 1.15; stroke-linejoin: miter"/>
   </g>
   <g id="patch_3">
    <path d="M 45.144 40.464 
L 71.928 40.464 
L 71.928 17.1792 
L 45.144 17.1792 
z
" clip-path="url(#p99547ab0b4)" style="fill: #ffffff; stroke: #111111; stroke-width: 1.15; stroke-linejoin: miter"/>
   </g>
   <g id="patch_4">
    <path d="M 71.928 40.464 
L 98.712 40.464 
L 98.712 17.1792 
L 71.928 17.1792 
z
" clip-path="url(#p99547ab0b4)" style="fill: #ffffff; stroke: #111111; stroke-width: 1.15; stroke-linejoin: miter"/>
   </g>
   <g id="patch_5">
    <path d="M 98.712 40.464 
L 125.496 40.464 
L 125.496 17.1792 
L 98.712 17.1792 
z
" clip-path="url(#p99547ab0b4)" style="fill: #ffffff; stroke: #111111; stroke-width: 1.15; stroke-linejoin: miter"/>
   </g>
   <g id="patch_6">
    <path d="M 18.36 63.7488 
L 45.144 63.7488 
L 45.144 40.464 
L 18.36 40.464 
z
" clip-path="url(#p99547ab0b4)" style="fill: #ffffff; stroke: #111111; stroke-width: 1.15; stroke-linejoin: miter"/>
   </g>
   <g id="patch_7">
    <path d="M 45.144 63.7488 
L 71.928 63.7488 
L 71.928 40.464 
L 45.144 40.464 
z
" clip-path="url(#p99547ab0b4)" style="fill: #ffffff; stroke: #111111; stroke-width: 1.15; stroke-linejoin: miter"/>
   </g>
   <g id="patch_8">
    <path d="M 71.928 63.7488 
L 98.712 63.7488 
L 98.712 40.464 
L 71.928 40.464 
z
" clip-path="url(#p99547ab0b4)" style="fill: #ffffff; stroke: #111111; stroke-width: 1.15; stroke-linejoin: miter"/>
   </g>
   <g id="patch_9">
    <path d="M 98.712 63.7488 
L 125.496 63.7488 
L 125.496 40.464 
L 98.712 40.464 
z
" clip-path="url(#p99547ab0b4)" style="fill: #ffffff; stroke: #111111; stroke-width: 1.15; stroke-linejoin: miter"/>
   </g>
   <g id="patch_10">
    <path d="M 18.36 87.0336 
L 45.144 87.0336 
L 45.144 63.7488 
L 18.36 63.7488 
z
" clip-path="url(#p99547ab0b4)" style="fill: #ffffff; stroke: #111111; stroke-width: 1.15; stroke-linejoin: miter"/>
   </g>
   <g id="patch_11">
    <path d="M 45.144 87.0336 
L 71.928 87.0336 
L 71.928 63.7488 
L 45.144 63.7488 
z
" clip-path="url(#p99547ab0b4)" style="fill: #ffffff; stroke: #111111; stroke-width: 1.15; stroke-linejoin: miter"/>
   </g>
   <g id="patch_12">
    <path d="M 71.928 87.0336 
L 98.712 87.0336 
L 98.712 63.7488 
L 71.928 63.7488 
z
" clip-path="url(#p99547ab0b4)" style="fill: #ffffff; stroke: #111111; stroke-width: 1.15; stroke-linejoin: miter"/>
   </g>
   <g id="patch_13">
    <path d="M 98.712 87.0336 
L 125.496 87.0336 
L 125.496 63.7488 
L 98.712 63.7488 
z
" clip-path="url(#p99547ab0b4)" style="fill: #ffffff; stroke: #111111; stroke-width: 1.15; stroke-linejoin: miter"/>
   </g>
   <g id="patch_14">
    <path d="M 18.36 110.3184 
L 45.144 110.3184 
L 45.144 87.0336 
L 18.36 87.0336 
z
" clip-path="url(#p99547ab0b4)" style="fill: #ffffff; stroke: #111111; stroke-width: 1.15; stroke-linejoin: miter"/>
   </g>
   <g id="patch_15">
    <path d="M 45.144 110.3184 
L 71.928 110.3184 
L 71.928 87.0336 
L 45.144 87.0336 
z
" clip-path="url(#p99547ab0b4)" style="fill: #ffffff; stroke: #111111; stroke-width: 1.15; stroke-linejoin: miter"/>
   </g>
   <g id="patch_16">
    <path d="M 71.928 110.3184 
L 98.712 110.3184 
L 98.712 87.0336 
L 71.928 87.0336 
z
" clip-path="url(#p99547ab0b4)" style="fill: #ffffff; stroke: #111111; stroke-width: 1.15; stroke-linejoin: miter"/>
   </g>
   <g id="patch_17">
    <path d="M 98.712 110.3184 
L 125.496 110.3184 
L 125.496 87.0336 
L 98.712 87.0336 
z
" clip-path="url(#p99547ab0b4)" style="fill: #ffffff; stroke: #111111; stroke-width: 1.15; stroke-linejoin: miter"/>
   </g>
   <g id="patch_18">
    <path d="M 170.136 40.464 
L 196.92 40.464 
L 196.92 17.1792 
L 170.136 17.1792 
z
" clip-path="url(#p99547ab0b4)" style="fill: #19a7ff; stroke: #111111; stroke-width: 1.15; stroke-linejoin: miter"/>
   </g>
   <g id="patch_19">
    <path d="M 170.136 63.7488 
L 196.92 63.7488 
L 196.92 40.464 
L 170.136 40.464 
z
" clip-path="url(#p99547ab0b4)" style="fill: #19a7ff; stroke: #111111; stroke-width: 1.15; stroke-linejoin: miter"/>
   </g>
   <g id="patch_20">
    <path d="M 170.136 87.0336 
L 196.92 87.0336 
L 196.92 63.7488 
L 170.136 63.7488 
z
" clip-path="url(#p99547ab0b4)" style="fill: #19a7ff; stroke: #111111; stroke-width: 1.15; stroke-linejoin: miter"/>
   </g>
   <g id="patch_21">
    <path d="M 170.136 110.3184 
L 196.92 110.3184 
L 196.92 87.0336 
L 170.136 87.0336 
z
" clip-path="url(#p99547ab0b4)" style="fill: #19a7ff; stroke: #111111; stroke-width: 1.15; stroke-linejoin: miter"/>
   </g>
   <g id="patch_22">
    <path d="M 216.45 75.3912 
L 243.234 75.3912 
L 243.234 52.1064 
L 216.45 52.1064 
z
" clip-path="url(#p99547ab0b4)" style="fill: #55c63a; stroke: #111111; stroke-width: 1.15; stroke-linejoin: miter"/>
   </g>
   <g id="patch_23">
    <path d="M 243.234 75.3912 
L 270.018 75.3912 
L 270.018 52.1064 
L 243.234 52.1064 
z
" clip-path="url(#p99547ab0b4)" style="fill: #55c63a; stroke: #111111; stroke-width: 1.15; stroke-linejoin: miter"/>
   </g>
   <g id="patch_24">
    <path d="M 270.018 75.3912 
L 296.802 75.3912 
L 296.802 52.1064 
L 270.018 52.1064 
z
" clip-path="url(#p99547ab0b4)" style="fill: #55c63a; stroke: #111111; stroke-width: 1.15; stroke-linejoin: miter"/>
   </g>
   <g id="patch_25">
    <path d="M 296.802 75.3912 
L 323.586 75.3912 
L 323.586 52.1064 
L 296.802 52.1064 
z
" clip-path="url(#p99547ab0b4)" style="fill: #55c63a; stroke: #111111; stroke-width: 1.15; stroke-linejoin: miter"/>
   </g>
   <g id="text_1">
    <!-- 1 -->
    <g style="fill: #111111" transform="translate(26.533641 32.718084) scale(0.15 -0.15)">
     <defs>
      <path id="DejaVuSerif-Bold-14" d="M 878 0 
L 878 378 
L 1753 378 
L 1753 4153 
L 781 3578 
L 781 4044 
L 1953 4750 
L 2938 4750 
L 2938 378 
L 3816 378 
L 3816 0 
L 878 0 
z
" transform="scale(0.015625)"/>
     </defs>
     <use xlink:href="#DejaVuSerif-Bold-14"/>
    </g>
   </g>
   <g id="text_2">
    <!-- 2 -->
    <g style="fill: #111111" transform="translate(53.317641 32.718084) scale(0.15 -0.15)">
     <defs>
      <path id="DejaVuSerif-Bold-15" d="M 844 3513 
L 469 3513 
L 469 4519 
Q 850 4634 1223 4692 
Q 1597 4750 1978 4750 
Q 2869 4750 3367 4386 
Q 3866 4022 3866 3372 
Q 3866 2909 3591 2542 
Q 3316 2175 2541 1672 
L 1241 819 
L 3450 819 
L 3450 1369 
L 3878 1369 
L 3878 0 
L 428 0 
L 428 763 
L 1119 1241 
Q 2003 1850 2297 2278 
Q 2591 2706 2591 3278 
Q 2591 3819 2367 4101 
Q 2144 4384 1716 4384 
Q 1347 4384 1125 4161 
Q 903 3938 844 3513 
z
" transform="scale(0.015625)"/>
     </defs>
     <use xlink:href="#DejaVuSerif-Bold-15"/>
    </g>
   </g>
   <g id="text_3">
    <!-- 3 -->
    <g style="fill: #111111" transform="translate(80.101641 32.718084) scale(0.15 -0.15)">
     <defs>
      <path id="DejaVuSerif-Bold-16" d="M 550 4531 
Q 963 4641 1350 4695 
Q 1738 4750 2106 4750 
Q 2950 4750 3401 4448 
Q 3853 4147 3853 3584 
Q 3853 3163 3593 2900 
Q 3334 2638 2834 2547 
Q 3444 2450 3744 2131 
Q 4044 1813 4044 1259 
Q 4044 606 3526 257 
Q 3009 -91 2028 -91 
Q 1659 -91 1267 -28 
Q 875 34 447 159 
L 447 1184 
L 825 1184 
Q 859 741 1103 508 
Q 1347 275 1778 275 
Q 2253 275 2512 539 
Q 2772 803 2772 1288 
Q 2772 1794 2501 2069 
Q 2231 2344 1734 2344 
L 1528 2344 
L 1528 2719 
L 1691 2719 
Q 2150 2719 2381 2931 
Q 2613 3144 2613 3566 
Q 2613 3963 2395 4173 
Q 2178 4384 1772 4384 
Q 1403 4384 1187 4182 
Q 972 3981 928 3597 
L 550 3597 
L 550 4531 
z
" transform="scale(0.015625)"/>
     </defs>
     <use xlink:href="#DejaVuSerif-Bold-16"/>
    </g>
   </g>
   <g id="text_4">
    <!-- 4 -->
    <g style="fill: #111111" transform="translate(106.885641 32.718084) scale(0.15 -0.15)">
     <defs>
      <path id="DejaVuSerif-Bold-17" d="M 4084 0 
L 1516 0 
L 1516 378 
L 2209 378 
L 2209 1228 
L 263 1228 
L 263 1588 
L 2216 4750 
L 3391 4750 
L 3391 1631 
L 4191 1631 
L 4191 1228 
L 3391 1228 
L 3391 378 
L 4084 378 
L 4084 0 
z
M 2209 1631 
L 2209 3897 
L 819 1631 
L 2209 1631 
z
" transform="scale(0.015625)"/>
     </defs>
     <use xlink:href="#DejaVuSerif-Bold-17"/>
    </g>
   </g>
   <g id="text_5">
    <!-- -1 -->
    <g style="fill: #111111" transform="translate(23.421141 56.002884) scale(0.15 -0.15)">
     <defs>
      <path id="DejaVuSerif-Bold-10" d="M 347 2138 
L 2309 2138 
L 2309 1294 
L 347 1294 
L 347 2138 
z
" transform="scale(0.015625)"/>
     </defs>
     <use xlink:href="#DejaVuSerif-Bold-10"/>
     <use xlink:href="#DejaVuSerif-Bold-14" transform="translate(41.5 0)"/>
    </g>
   </g>
   <g id="text_6">
    <!-- -2 -->
    <g style="fill: #111111" transform="translate(50.205141 56.002884) scale(0.15 -0.15)">
     <use xlink:href="#DejaVuSerif-Bold-10"/>
     <use xlink:href="#DejaVuSerif-Bold-15" transform="translate(41.5 0)"/>
    </g>
   </g>
   <g id="text_7">
    <!-- -3 -->
    <g style="fill: #111111" transform="translate(76.989141 56.002884) scale(0.15 -0.15)">
     <use xlink:href="#DejaVuSerif-Bold-10"/>
     <use xlink:href="#DejaVuSerif-Bold-16" transform="translate(41.5 0)"/>
    </g>
   </g>
   <g id="text_8">
    <!-- -4 -->
    <g style="fill: #111111" transform="translate(103.773141 56.002884) scale(0.15 -0.15)">
     <use xlink:href="#DejaVuSerif-Bold-10"/>
     <use xlink:href="#DejaVuSerif-Bold-17" transform="translate(41.5 0)"/>
    </g>
   </g>
   <g id="text_9">
    <!-- 2 -->
    <g style="fill: #111111" transform="translate(26.533641 79.287684) scale(0.15 -0.15)">
     <use xlink:href="#DejaVuSerif-Bold-15"/>
    </g>
   </g>
   <g id="text_10">
    <!-- 4 -->
    <g style="fill: #111111" transform="translate(53.317641 79.287684) scale(0.15 -0.15)">
     <use xlink:href="#DejaVuSerif-Bold-17"/>
    </g>
   </g>
   <g id="text_11">
    <!-- 6 -->
    <g style="fill: #111111" transform="translate(80.101641 79.287684) scale(0.15 -0.15)">
     <defs>
      <path id="DejaVuSerif-Bold-19" d="M 1575 2766 
Q 1778 2928 2029 3009 
Q 2281 3091 2578 3091 
Q 3294 3091 3701 2672 
Q 4109 2253 4109 1522 
Q 4109 750 3650 329 
Q 3191 -91 2344 -91 
Q 1388 -91 895 486 
Q 403 1063 403 2181 
Q 403 3453 950 4101 
Q 1497 4750 2572 4750 
Q 2853 4750 3175 4703 
Q 3497 4656 3866 4563 
L 3866 3738 
L 3488 3738 
Q 3409 4056 3192 4220 
Q 2975 4384 2631 4384 
Q 2075 4384 1826 4003 
Q 1578 3622 1575 2766 
z
M 2272 275 
Q 2594 275 2731 548 
Q 2869 822 2869 1497 
Q 2869 2172 2731 2445 
Q 2594 2719 2272 2719 
Q 1950 2719 1814 2445 
Q 1678 2172 1678 1497 
Q 1678 822 1814 548 
Q 1950 275 2272 275 
z
" transform="scale(0.015625)"/>
     </defs>
     <use xlink:href="#DejaVuSerif-Bold-19"/>
    </g>
   </g>
   <g id="text_12">
    <!-- 8 -->
    <g style="fill: #111111" transform="translate(106.885641 79.287684) scale(0.15 -0.15)">
     <defs>
      <path id="DejaVuSerif-Bold-1b" d="M 2975 2484 
Q 3531 2394 3820 2075 
Q 4109 1756 4109 1241 
Q 4109 597 3623 253 
Q 3138 -91 2222 -91 
Q 1306 -91 818 253 
Q 331 597 331 1241 
Q 331 1756 622 2075 
Q 913 2394 1466 2484 
Q 975 2597 731 2861 
Q 488 3125 488 3531 
Q 488 4125 931 4437 
Q 1375 4750 2222 4750 
Q 3066 4750 3511 4437 
Q 3956 4125 3956 3531 
Q 3956 3125 3711 2861 
Q 3466 2597 2975 2484 
z
M 2747 3519 
Q 2747 4013 2628 4198 
Q 2509 4384 2222 4384 
Q 1931 4384 1814 4198 
Q 1697 4013 1697 3519 
Q 1697 3028 1814 2845 
Q 1931 2663 2222 2663 
Q 2513 2663 2630 2845 
Q 2747 3028 2747 3519 
z
M 2869 1294 
Q 2869 1866 2723 2081 
Q 2578 2297 2222 2297 
Q 1863 2297 1719 2081 
Q 1575 1866 1575 1294 
Q 1575 716 1720 495 
Q 1866 275 2222 275 
Q 2575 275 2722 495 
Q 2869 716 2869 1294 
z
" transform="scale(0.015625)"/>
     </defs>
     <use xlink:href="#DejaVuSerif-Bold-1b"/>
    </g>
   </g>
   <g id="text_13">
    <!-- 10 -->
    <g style="fill: #111111" transform="translate(21.315281 102.572484) scale(0.15 -0.15)">
     <defs>
      <path id="DejaVuSerif-Bold-13" d="M 2228 275 
Q 2603 275 2742 615 
Q 2881 956 2881 2328 
Q 2881 3691 2742 4037 
Q 2603 4384 2228 4384 
Q 1853 4384 1714 4043 
Q 1575 3703 1575 2328 
Q 1575 956 1714 615 
Q 1853 275 2228 275 
z
M 2228 -91 
Q 1294 -91 797 532 
Q 300 1156 300 2328 
Q 300 3500 797 4125 
Q 1294 4750 2228 4750 
Q 3159 4750 3656 4125 
Q 4153 3500 4153 2328 
Q 4153 1156 3656 532 
Q 3159 -91 2228 -91 
z
" transform="scale(0.015625)"/>
     </defs>
     <use xlink:href="#DejaVuSerif-Bold-14"/>
     <use xlink:href="#DejaVuSerif-Bold-13" transform="translate(69.578125 0)"/>
    </g>
   </g>
   <g id="text_14">
    <!-- 20 -->
    <g style="fill: #111111" transform="translate(48.099281 102.572484) scale(0.15 -0.15)">
     <use xlink:href="#DejaVuSerif-Bold-15"/>
     <use xlink:href="#DejaVuSerif-Bold-13" transform="translate(69.578125 0)"/>
    </g>
   </g>
   <g id="text_15">
    <!-- 30 -->
    <g style="fill: #111111" transform="translate(74.883281 102.572484) scale(0.15 -0.15)">
     <use xlink:href="#DejaVuSerif-Bold-16"/>
     <use xlink:href="#DejaVuSerif-Bold-13" transform="translate(69.578125 0)"/>
    </g>
   </g>
   <g id="text_16">
    <!-- 40 -->
    <g style="fill: #111111" transform="translate(101.667281 102.572484) scale(0.15 -0.15)">
     <use xlink:href="#DejaVuSerif-Bold-17"/>
     <use xlink:href="#DejaVuSerif-Bold-13" transform="translate(69.578125 0)"/>
    </g>
   </g>
   <g id="text_17">
    <!-- 16 Zahlen -->
    <g style="fill: #666666" transform="translate(26.19675 146.595684) scale(0.18 -0.18)">
     <defs>
      <path id="DejaVuSerif-14" d="M 909 0 
L 909 331 
L 1722 331 
L 1722 4213 
L 781 3603 
L 781 4013 
L 1919 4750 
L 2350 4750 
L 2350 331 
L 3163 331 
L 3163 0 
L 909 0 
z
" transform="scale(0.015625)"/>
      <path id="DejaVuSerif-19" d="M 2094 219 
Q 2534 219 2771 542 
Q 3009 866 3009 1472 
Q 3009 2078 2771 2401 
Q 2534 2725 2094 2725 
Q 1647 2725 1412 2412 
Q 1178 2100 1178 1509 
Q 1178 888 1415 553 
Q 1653 219 2094 219 
z
M 1075 2569 
Q 1288 2803 1556 2918 
Q 1825 3034 2163 3034 
Q 2859 3034 3264 2615 
Q 3669 2197 3669 1472 
Q 3669 763 3233 336 
Q 2797 -91 2069 -91 
Q 1278 -91 853 498 
Q 428 1088 428 2181 
Q 428 3406 931 4078 
Q 1434 4750 2350 4750 
Q 2597 4750 2869 4703 
Q 3141 4656 3425 4563 
L 3425 3794 
L 3072 3794 
Q 3034 4109 2831 4275 
Q 2628 4441 2284 4441 
Q 1678 4441 1381 3981 
Q 1084 3522 1075 2569 
z
" transform="scale(0.015625)"/>
      <path id="DejaVuSerif-3" transform="scale(0.015625)"/>
      <path id="DejaVuSerif-3d" d="M 288 0 
L 288 225 
L 3194 4281 
L 781 4281 
L 781 3584 
L 397 3584 
L 397 4666 
L 4084 4666 
L 4084 4441 
L 1178 384 
L 3816 384 
L 3816 1038 
L 4197 1038 
L 4197 0 
L 288 0 
z
" transform="scale(0.015625)"/>
      <path id="DejaVuSerif-44" d="M 2547 1044 
L 2547 1747 
L 1806 1747 
Q 1378 1747 1168 1562 
Q 959 1378 959 997 
Q 959 650 1171 447 
Q 1384 244 1747 244 
Q 2106 244 2326 466 
Q 2547 688 2547 1044 
z
M 3122 2075 
L 3122 331 
L 3634 331 
L 3634 0 
L 2547 0 
L 2547 359 
Q 2356 128 2106 18 
Q 1856 -91 1522 -91 
Q 969 -91 644 203 
Q 319 497 319 997 
Q 319 1513 691 1797 
Q 1063 2081 1741 2081 
L 2547 2081 
L 2547 2309 
Q 2547 2688 2317 2895 
Q 2088 3103 1672 3103 
Q 1328 3103 1125 2947 
Q 922 2791 872 2484 
L 575 2484 
L 575 3156 
Q 875 3284 1158 3348 
Q 1441 3413 1709 3413 
Q 2400 3413 2761 3070 
Q 3122 2728 3122 2075 
z
" transform="scale(0.015625)"/>
      <path id="DejaVuSerif-4b" d="M 263 0 
L 263 331 
L 781 331 
L 781 4531 
L 231 4531 
L 231 4863 
L 1356 4863 
L 1356 2731 
Q 1516 3069 1770 3241 
Q 2025 3413 2363 3413 
Q 2913 3413 3172 3097 
Q 3431 2781 3431 2113 
L 3431 331 
L 3944 331 
L 3944 0 
L 2356 0 
L 2356 331 
L 2853 331 
L 2853 1931 
Q 2853 2541 2704 2764 
Q 2556 2988 2175 2988 
Q 1775 2988 1565 2697 
Q 1356 2406 1356 1850 
L 1356 331 
L 1856 331 
L 1856 0 
L 263 0 
z
" transform="scale(0.015625)"/>
      <path id="DejaVuSerif-4f" d="M 1313 331 
L 1856 331 
L 1856 0 
L 184 0 
L 184 331 
L 738 331 
L 738 4531 
L 184 4531 
L 184 4863 
L 1313 4863 
L 1313 331 
z
" transform="scale(0.015625)"/>
      <path id="DejaVuSerif-48" d="M 3469 1600 
L 991 1600 
L 991 1575 
Q 991 903 1244 561 
Q 1497 219 1991 219 
Q 2369 219 2611 417 
Q 2853 616 2950 1006 
L 3413 1006 
Q 3275 459 2904 184 
Q 2534 -91 1931 -91 
Q 1203 -91 761 389 
Q 319 869 319 1663 
Q 319 2450 753 2931 
Q 1188 3413 1894 3413 
Q 2647 3413 3050 2948 
Q 3453 2484 3469 1600 
z
M 2791 1931 
Q 2772 2513 2545 2808 
Q 2319 3103 1894 3103 
Q 1497 3103 1269 2806 
Q 1041 2509 991 1931 
L 2791 1931 
z
" transform="scale(0.015625)"/>
      <path id="DejaVuSerif-51" d="M 263 0 
L 263 331 
L 781 331 
L 781 2988 
L 231 2988 
L 231 3322 
L 1356 3322 
L 1356 2731 
Q 1516 3069 1770 3241 
Q 2025 3413 2363 3413 
Q 2913 3413 3172 3097 
Q 3431 2781 3431 2113 
L 3431 331 
L 3944 331 
L 3944 0 
L 2356 0 
L 2356 331 
L 2853 331 
L 2853 1931 
Q 2853 2541 2703 2767 
Q 2553 2994 2175 2994 
Q 1775 2994 1565 2701 
Q 1356 2409 1356 1850 
L 1356 331 
L 1856 331 
L 1856 0 
L 263 0 
z
" transform="scale(0.015625)"/>
     </defs>
     <use xlink:href="#DejaVuSerif-14"/>
     <use xlink:href="#DejaVuSerif-19" transform="translate(63.625 0)"/>
     <use xlink:href="#DejaVuSerif-3" transform="translate(127.25 0)"/>
     <use xlink:href="#DejaVuSerif-3d" transform="translate(159.03125 0)"/>
     <use xlink:href="#DejaVuSerif-44" transform="translate(228.515625 0)"/>
     <use xlink:href="#DejaVuSerif-4b" transform="translate(288.140625 0)"/>
     <use xlink:href="#DejaVuSerif-4f" transform="translate(352.546875 0)"/>
     <use xlink:href="#DejaVuSerif-48" transform="translate(384.53125 0)"/>
     <use xlink:href="#DejaVuSerif-51" transform="translate(443.71875 0)"/>
    </g>
   </g>
   <g id="text_18">
    <!-- = -->
    <g style="fill: #666666" transform="translate(142.224375 69.983175) scale(0.24 -0.24)">
     <defs>
      <path id="DejaVuSerif-20" d="M 678 2894 
L 4684 2894 
L 4684 2394 
L 678 2394 
L 678 2894 
z
M 678 1619 
L 4684 1619 
L 4684 1119 
L 678 1119 
L 678 1619 
z
" transform="scale(0.015625)"/>
     </defs>
     <use xlink:href="#DejaVuSerif-20"/>
    </g>
   </g>
   <g id="text_19">
    <!-- 1 -->
    <g style="fill: #111111" transform="translate(178.309641 32.718084) scale(0.15 -0.15)">
     <use xlink:href="#DejaVuSerif-Bold-14"/>
    </g>
   </g>
   <g id="text_20">
    <!-- -1 -->
    <g style="fill: #111111" transform="translate(175.197141 56.002884) scale(0.15 -0.15)">
     <use xlink:href="#DejaVuSerif-Bold-10"/>
     <use xlink:href="#DejaVuSerif-Bold-14" transform="translate(41.5 0)"/>
    </g>
   </g>
   <g id="text_21">
    <!-- 2 -->
    <g style="fill: #111111" transform="translate(178.309641 79.287684) scale(0.15 -0.15)">
     <use xlink:href="#DejaVuSerif-Bold-15"/>
    </g>
   </g>
   <g id="text_22">
    <!-- 10 -->
    <g style="fill: #111111" transform="translate(173.091281 102.572484) scale(0.15 -0.15)">
     <use xlink:href="#DejaVuSerif-Bold-14"/>
     <use xlink:href="#DejaVuSerif-Bold-13" transform="translate(69.578125 0)"/>
    </g>
   </g>
   <g id="text_23">
    <!-- $\cdot$ -->
    <g style="fill: #666666" transform="translate(201.372 69.983175) scale(0.24 -0.24)">
     <defs>
      <path id="Cmsy10-4e" d="M 538 1600 
Q 538 1691 584 1772 
Q 631 1853 714 1903 
Q 797 1953 891 1953 
Q 981 1953 1064 1903 
Q 1147 1853 1194 1772 
Q 1241 1691 1241 1600 
Q 1241 1456 1139 1351 
Q 1038 1247 891 1247 
Q 747 1247 642 1351 
Q 538 1456 538 1600 
z
" transform="scale(0.015625)"/>
     </defs>
     <use xlink:href="#Cmsy10-4e" transform="translate(0 0.484375)"/>
    </g>
   </g>
   <g id="text_24">
    <!-- 1 -->
    <g style="fill: #111111" transform="translate(224.623641 67.645284) scale(0.15 -0.15)">
     <use xlink:href="#DejaVuSerif-Bold-14"/>
    </g>
   </g>
   <g id="text_25">
    <!-- 2 -->
    <g style="fill: #111111" transform="translate(251.407641 67.645284) scale(0.15 -0.15)">
     <use xlink:href="#DejaVuSerif-Bold-15"/>
    </g>
   </g>
   <g id="text_26">
    <!-- 3 -->
    <g style="fill: #111111" transform="translate(278.191641 67.645284) scale(0.15 -0.15)">
     <use xlink:href="#DejaVuSerif-Bold-16"/>
    </g>
   </g>
   <g id="text_27">
    <!-- 4 -->
    <g style="fill: #111111" transform="translate(304.975641 67.645284) scale(0.15 -0.15)">
     <use xlink:href="#DejaVuSerif-Bold-17"/>
    </g>
   </g>
   <g id="text_28">
    <!-- 8 Zahlen -->
    <g style="fill: #666666" transform="translate(230.013 146.595684) scale(0.18 -0.18)">
     <defs>
      <path id="DejaVuSerif-1b" d="M 2981 1275 
Q 2981 1775 2732 2051 
Q 2484 2328 2034 2328 
Q 1584 2328 1336 2051 
Q 1088 1775 1088 1275 
Q 1088 772 1336 495 
Q 1584 219 2034 219 
Q 2484 219 2732 495 
Q 2981 772 2981 1275 
z
M 2853 3541 
Q 2853 3966 2637 4203 
Q 2422 4441 2034 4441 
Q 1650 4441 1433 4203 
Q 1216 3966 1216 3541 
Q 1216 3113 1433 2875 
Q 1650 2638 2034 2638 
Q 2422 2638 2637 2875 
Q 2853 3113 2853 3541 
z
M 2516 2484 
Q 3047 2413 3344 2092 
Q 3641 1772 3641 1275 
Q 3641 619 3225 264 
Q 2809 -91 2034 -91 
Q 1263 -91 845 264 
Q 428 619 428 1275 
Q 428 1772 725 2092 
Q 1022 2413 1556 2484 
Q 1084 2569 832 2842 
Q 581 3116 581 3541 
Q 581 4103 968 4426 
Q 1356 4750 2034 4750 
Q 2713 4750 3100 4426 
Q 3488 4103 3488 3541 
Q 3488 3116 3236 2842 
Q 2984 2569 2516 2484 
z
" transform="scale(0.015625)"/>
     </defs>
     <use xlink:href="#DejaVuSerif-1b"/>
     <use xlink:href="#DejaVuSerif-3" transform="translate(63.625 0)"/>
     <use xlink:href="#DejaVuSerif-3d" transform="translate(95.40625 0)"/>
     <use xlink:href="#DejaVuSerif-44" transform="translate(164.890625 0)"/>
     <use xlink:href="#DejaVuSerif-4b" transform="translate(224.515625 0)"/>
     <use xlink:href="#DejaVuSerif-4f" transform="translate(288.921875 0)"/>
     <use xlink:href="#DejaVuSerif-48" transform="translate(320.90625 0)"/>
     <use xlink:href="#DejaVuSerif-51" transform="translate(380.09375 0)"/>
    </g>
   </g>
  </g>
 </g>
 <defs>
  <clipPath id="p99547ab0b4">
   <rect x="7.2" y="7.2" width="329.22" height="152.46"/>
  </clipPath>
 </defs>
</svg>
