<?xml version="1.0" encoding="utf-8" standalone="no"?>
<!DOCTYPE svg PUBLIC "-//W3C//DTD SVG 1.1//EN"
  "http://www.w3.org/Graphics/SVG/1.1/DTD/svg11.dtd">
<svg xmlns:xlink="http://www.w3.org/1999/xlink" width="784.44pt" height="419.112pt" viewBox="0 0 784.44 419.112" xmlns="http://www.w3.org/2000/svg" version="1.1">
 <metadata>
  <rdf:RDF xmlns:dc="http://purl.org/dc/elements/1.1/" xmlns:cc="http://creativecommons.org/ns#" xmlns:rdf="http://www.w3.org/1999/02/22-rdf-syntax-ns#">
   <cc:Work>
    <dc:type rdf:resource="http://purl.org/dc/dcmitype/StillImage"/>
    <dc:date>2026-06-10T13:05:38.720825</dc:date>
    <dc:format>image/svg+xml</dc:format>
    <dc:creator>
     <cc:Agent>
      <dc:title>Matplotlib v3.10.9, https://matplotlib.org/</dc:title>
     </cc:Agent>
    </dc:creator>
   </cc:Work>
  </rdf:RDF>
 </metadata>
 <defs>
  <style type="text/css">*{stroke-linejoin: round; stroke-linecap: butt}</style>
 </defs>
 <g id="figure_1">
  <g id="patch_1">
   <path d="M 0 419.112 
L 784.44 419.112 
L 784.44 0 
L 0 0 
L 0 419.112 
z
" style="fill: none"/>
  </g>
  <g id="axes_1">
   <g id="patch_2">
    <path d="M 93.69 70.956 
L 118.8 70.956 
L 118.8 46.008 
L 93.69 46.008 
z
" clip-path="url(#p7a2831f020)" style="fill: #ffffff; stroke: #666666; stroke-linejoin: miter"/>
   </g>
   <g id="patch_3">
    <path d="M 118.8 70.956 
L 143.91 70.956 
L 143.91 46.008 
L 118.8 46.008 
z
" clip-path="url(#p7a2831f020)" style="fill: #ffffff; stroke: #666666; stroke-linejoin: miter"/>
   </g>
   <g id="patch_4">
    <path d="M 143.91 70.956 
L 169.02 70.956 
L 169.02 46.008 
L 143.91 46.008 
z
" clip-path="url(#p7a2831f020)" style="fill: #ffffff; stroke: #666666; stroke-linejoin: miter"/>
   </g>
   <g id="patch_5">
    <path d="M 169.02 70.956 
L 194.13 70.956 
L 194.13 46.008 
L 169.02 46.008 
z
" clip-path="url(#p7a2831f020)" style="fill: #ffffff; stroke: #666666; stroke-linejoin: miter"/>
   </g>
   <g id="patch_6">
    <path d="M 93.69 95.904 
L 118.8 95.904 
L 118.8 70.956 
L 93.69 70.956 
z
" clip-path="url(#p7a2831f020)" style="fill: #ffffff; stroke: #666666; stroke-linejoin: miter"/>
   </g>
   <g id="patch_7">
    <path d="M 118.8 95.904 
L 143.91 95.904 
L 143.91 70.956 
L 118.8 70.956 
z
" clip-path="url(#p7a2831f020)" style="fill: #ffffff; stroke: #666666; stroke-linejoin: miter"/>
   </g>
   <g id="patch_8">
    <path d="M 143.91 95.904 
L 169.02 95.904 
L 169.02 70.956 
L 143.91 70.956 
z
" clip-path="url(#p7a2831f020)" style="fill: #ffffff; stroke: #666666; stroke-linejoin: miter"/>
   </g>
   <g id="patch_9">
    <path d="M 169.02 95.904 
L 194.13 95.904 
L 194.13 70.956 
L 169.02 70.956 
z
" clip-path="url(#p7a2831f020)" style="fill: #ffffff; stroke: #666666; stroke-linejoin: miter"/>
   </g>
   <g id="patch_10">
    <path d="M 93.69 120.852 
L 118.8 120.852 
L 118.8 95.904 
L 93.69 95.904 
z
" clip-path="url(#p7a2831f020)" style="fill: #ffffff; stroke: #666666; stroke-linejoin: miter"/>
   </g>
   <g id="patch_11">
    <path d="M 118.8 120.852 
L 143.91 120.852 
L 143.91 95.904 
L 118.8 95.904 
z
" clip-path="url(#p7a2831f020)" style="fill: #ffffff; stroke: #666666; stroke-linejoin: miter"/>
   </g>
   <g id="patch_12">
    <path d="M 143.91 120.852 
L 169.02 120.852 
L 169.02 95.904 
L 143.91 95.904 
z
" clip-path="url(#p7a2831f020)" style="fill: #ffffff; stroke: #666666; stroke-linejoin: miter"/>
   </g>
   <g id="patch_13">
    <path d="M 169.02 120.852 
L 194.13 120.852 
L 194.13 95.904 
L 169.02 95.904 
z
" clip-path="url(#p7a2831f020)" style="fill: #ffffff; stroke: #666666; stroke-linejoin: miter"/>
   </g>
   <g id="patch_14">
    <path d="M 93.69 145.8 
L 118.8 145.8 
L 118.8 120.852 
L 93.69 120.852 
z
" clip-path="url(#p7a2831f020)" style="fill: #ffffff; stroke: #666666; stroke-linejoin: miter"/>
   </g>
   <g id="patch_15">
    <path d="M 118.8 145.8 
L 143.91 145.8 
L 143.91 120.852 
L 118.8 120.852 
z
" clip-path="url(#p7a2831f020)" style="fill: #ffffff; stroke: #666666; stroke-linejoin: miter"/>
   </g>
   <g id="patch_16">
    <path d="M 143.91 145.8 
L 169.02 145.8 
L 169.02 120.852 
L 143.91 120.852 
z
" clip-path="url(#p7a2831f020)" style="fill: #ffffff; stroke: #666666; stroke-linejoin: miter"/>
   </g>
   <g id="patch_17">
    <path d="M 169.02 145.8 
L 194.13 145.8 
L 194.13 120.852 
L 169.02 120.852 
z
" clip-path="url(#p7a2831f020)" style="fill: #ffffff; stroke: #666666; stroke-linejoin: miter"/>
   </g>
   <g id="patch_18">
    <path d="M 93.69 145.8 
L 194.13 145.8 
L 194.13 46.008 
L 93.69 46.008 
L 93.69 145.8 
z
" clip-path="url(#p7a2831f020)" style="fill: none; stroke: #666666; stroke-linejoin: miter"/>
   </g>
   <g id="patch_19">
    <path d="M 300.15 145.8 
L 325.26 145.8 
L 325.26 46.008 
L 300.15 46.008 
z
" clip-path="url(#p7a2831f020)" style="fill: #1495e8; stroke: #111111; stroke-width: 1.9; stroke-linejoin: miter"/>
   </g>
   <g id="patch_20">
    <path d="M 325.26 145.8 
L 350.37 145.8 
L 350.37 46.008 
L 325.26 46.008 
z
" clip-path="url(#p7a2831f020)" style="fill: #1495e8; stroke: #111111; stroke-width: 1.9; stroke-linejoin: miter"/>
   </g>
   <g id="patch_21">
    <path d="M 350.37 145.8 
L 375.48 145.8 
L 375.48 46.008 
L 350.37 46.008 
z
" clip-path="url(#p7a2831f020)" style="fill: #1495e8; stroke: #111111; stroke-width: 1.9; stroke-linejoin: miter"/>
   </g>
   <g id="patch_22">
    <path d="M 375.48 145.8 
L 400.59 145.8 
L 400.59 46.008 
L 375.48 46.008 
z
" clip-path="url(#p7a2831f020)" style="fill: #1495e8; stroke: #111111; stroke-width: 1.9; stroke-linejoin: miter"/>
   </g>
   <g id="patch_23">
    <path d="M 300.15 145.8 
L 400.59 145.8 
L 400.59 46.008 
L 300.15 46.008 
L 300.15 145.8 
z
" clip-path="url(#p7a2831f020)" style="fill: none; stroke: #111111; stroke-width: 2.2; stroke-linejoin: miter"/>
   </g>
   <g id="patch_24">
    <path d="M 448.02 70.956 
L 473.13 70.956 
L 473.13 46.008 
L 448.02 46.008 
z
" clip-path="url(#p7a2831f020)" style="fill: #ff341b; stroke: #111111; stroke-width: 2.2; stroke-linejoin: miter"/>
   </g>
   <g id="patch_25">
    <path d="M 473.13 70.956 
L 498.24 70.956 
L 498.24 46.008 
L 473.13 46.008 
z
" clip-path="url(#p7a2831f020)" style="fill: #ffffff; stroke: #666666; stroke-linejoin: miter"/>
   </g>
   <g id="patch_26">
    <path d="M 498.24 70.956 
L 523.35 70.956 
L 523.35 46.008 
L 498.24 46.008 
z
" clip-path="url(#p7a2831f020)" style="fill: #ffffff; stroke: #666666; stroke-linejoin: miter"/>
   </g>
   <g id="patch_27">
    <path d="M 523.35 70.956 
L 548.46 70.956 
L 548.46 46.008 
L 523.35 46.008 
z
" clip-path="url(#p7a2831f020)" style="fill: #ffffff; stroke: #666666; stroke-linejoin: miter"/>
   </g>
   <g id="patch_28">
    <path d="M 448.02 95.904 
L 473.13 95.904 
L 473.13 70.956 
L 448.02 70.956 
z
" clip-path="url(#p7a2831f020)" style="fill: #ffffff; stroke: #666666; stroke-linejoin: miter"/>
   </g>
   <g id="patch_29">
    <path d="M 473.13 95.904 
L 498.24 95.904 
L 498.24 70.956 
L 473.13 70.956 
z
" clip-path="url(#p7a2831f020)" style="fill: #ff341b; stroke: #111111; stroke-width: 2.2; stroke-linejoin: miter"/>
   </g>
   <g id="patch_30">
    <path d="M 498.24 95.904 
L 523.35 95.904 
L 523.35 70.956 
L 498.24 70.956 
z
" clip-path="url(#p7a2831f020)" style="fill: #ffffff; stroke: #666666; stroke-linejoin: miter"/>
   </g>
   <g id="patch_31">
    <path d="M 523.35 95.904 
L 548.46 95.904 
L 548.46 70.956 
L 523.35 70.956 
z
" clip-path="url(#p7a2831f020)" style="fill: #ffffff; stroke: #666666; stroke-linejoin: miter"/>
   </g>
   <g id="patch_32">
    <path d="M 448.02 120.852 
L 473.13 120.852 
L 473.13 95.904 
L 448.02 95.904 
z
" clip-path="url(#p7a2831f020)" style="fill: #ffffff; stroke: #666666; stroke-linejoin: miter"/>
   </g>
   <g id="patch_33">
    <path d="M 473.13 120.852 
L 498.24 120.852 
L 498.24 95.904 
L 473.13 95.904 
z
" clip-path="url(#p7a2831f020)" style="fill: #ffffff; stroke: #666666; stroke-linejoin: miter"/>
   </g>
   <g id="patch_34">
    <path d="M 498.24 120.852 
L 523.35 120.852 
L 523.35 95.904 
L 498.24 95.904 
z
" clip-path="url(#p7a2831f020)" style="fill: #ff341b; stroke: #111111; stroke-width: 2.2; stroke-linejoin: miter"/>
   </g>
   <g id="patch_35">
    <path d="M 523.35 120.852 
L 548.46 120.852 
L 548.46 95.904 
L 523.35 95.904 
z
" clip-path="url(#p7a2831f020)" style="fill: #ffffff; stroke: #666666; stroke-linejoin: miter"/>
   </g>
   <g id="patch_36">
    <path d="M 448.02 145.8 
L 473.13 145.8 
L 473.13 120.852 
L 448.02 120.852 
z
" clip-path="url(#p7a2831f020)" style="fill: #ffffff; stroke: #666666; stroke-linejoin: miter"/>
   </g>
   <g id="patch_37">
    <path d="M 473.13 145.8 
L 498.24 145.8 
L 498.24 120.852 
L 473.13 120.852 
z
" clip-path="url(#p7a2831f020)" style="fill: #ffffff; stroke: #666666; stroke-linejoin: miter"/>
   </g>
   <g id="patch_38">
    <path d="M 498.24 145.8 
L 523.35 145.8 
L 523.35 120.852 
L 498.24 120.852 
z
" clip-path="url(#p7a2831f020)" style="fill: #ffffff; stroke: #666666; stroke-linejoin: miter"/>
   </g>
   <g id="patch_39">
    <path d="M 523.35 145.8 
L 548.46 145.8 
L 548.46 120.852 
L 523.35 120.852 
z
" clip-path="url(#p7a2831f020)" style="fill: #ff341b; stroke: #111111; stroke-width: 2.2; stroke-linejoin: miter"/>
   </g>
   <g id="patch_40">
    <path d="M 448.02 145.8 
L 548.46 145.8 
L 548.46 46.008 
L 448.02 46.008 
L 448.02 145.8 
z
" clip-path="url(#p7a2831f020)" style="fill: none; stroke: #666666; stroke-linejoin: miter"/>
   </g>
   <g id="patch_41">
    <path d="M 595.89 70.956 
L 696.33 70.956 
L 696.33 46.008 
L 595.89 46.008 
z
" clip-path="url(#p7a2831f020)" style="fill: #49c52b; stroke: #111111; stroke-width: 1.9; stroke-linejoin: miter"/>
   </g>
   <g id="patch_42">
    <path d="M 595.89 95.904 
L 696.33 95.904 
L 696.33 70.956 
L 595.89 70.956 
z
" clip-path="url(#p7a2831f020)" style="fill: #49c52b; stroke: #111111; stroke-width: 1.9; stroke-linejoin: miter"/>
   </g>
   <g id="patch_43">
    <path d="M 595.89 120.852 
L 696.33 120.852 
L 696.33 95.904 
L 595.89 95.904 
z
" clip-path="url(#p7a2831f020)" style="fill: #49c52b; stroke: #111111; stroke-width: 1.9; stroke-linejoin: miter"/>
   </g>
   <g id="patch_44">
    <path d="M 595.89 145.8 
L 696.33 145.8 
L 696.33 120.852 
L 595.89 120.852 
z
" clip-path="url(#p7a2831f020)" style="fill: #49c52b; stroke: #111111; stroke-width: 1.9; stroke-linejoin: miter"/>
   </g>
   <g id="patch_45">
    <path d="M 595.89 145.8 
L 696.33 145.8 
L 696.33 46.008 
L 595.89 46.008 
L 595.89 145.8 
z
" clip-path="url(#p7a2831f020)" style="fill: none; stroke: #111111; stroke-width: 2.2; stroke-linejoin: miter"/>
   </g>
   <g id="patch_46">
    <path d="M 37.89 291.6072 
L 63.558 291.6072 
L 63.558 266.1048 
L 37.89 266.1048 
z
" clip-path="url(#p7a2831f020)" style="fill: #ff341b; stroke: #111111; stroke-width: 2; stroke-linejoin: miter"/>
   </g>
   <g id="patch_47">
    <path d="M 72.486 338.1768 
L 97.596 338.1768 
L 97.596 213.4368 
L 72.486 213.4368 
z
" clip-path="url(#p7a2831f020)" style="fill: #1495e8; stroke: #111111; stroke-width: 2; stroke-linejoin: miter"/>
   </g>
   <g id="patch_48">
    <path d="M 105.966 292.1616 
L 194.13 292.1616 
L 194.13 263.3328 
L 105.966 263.3328 
z
" clip-path="url(#p7a2831f020)" style="fill: #49c52b; stroke: #111111; stroke-width: 2; stroke-linejoin: miter"/>
   </g>
   <g id="patch_49">
    <path d="M 223.704 291.6072 
L 249.372 291.6072 
L 249.372 266.1048 
L 223.704 266.1048 
z
" clip-path="url(#p7a2831f020)" style="fill: #ff341b; stroke: #111111; stroke-width: 2; stroke-linejoin: miter"/>
   </g>
   <g id="patch_50">
    <path d="M 258.3 338.1768 
L 283.41 338.1768 
L 283.41 213.4368 
L 258.3 213.4368 
z
" clip-path="url(#p7a2831f020)" style="fill: #1495e8; stroke: #111111; stroke-width: 2; stroke-linejoin: miter"/>
   </g>
   <g id="patch_51">
    <path d="M 291.78 292.1616 
L 379.944 292.1616 
L 379.944 263.3328 
L 291.78 263.3328 
z
" clip-path="url(#p7a2831f020)" style="fill: #49c52b; stroke: #111111; stroke-width: 2; stroke-linejoin: miter"/>
   </g>
   <g id="patch_52">
    <path d="M 409.518 291.6072 
L 435.186 291.6072 
L 435.186 266.1048 
L 409.518 266.1048 
z
" clip-path="url(#p7a2831f020)" style="fill: #ff341b; stroke: #111111; stroke-width: 2; stroke-linejoin: miter"/>
   </g>
   <g id="patch_53">
    <path d="M 444.114 338.1768 
L 469.224 338.1768 
L 469.224 213.4368 
L 444.114 213.4368 
z
" clip-path="url(#p7a2831f020)" style="fill: #1495e8; stroke: #111111; stroke-width: 2; stroke-linejoin: miter"/>
   </g>
   <g id="patch_54">
    <path d="M 477.594 292.1616 
L 565.758 292.1616 
L 565.758 263.3328 
L 477.594 263.3328 
z
" clip-path="url(#p7a2831f020)" style="fill: #49c52b; stroke: #111111; stroke-width: 2; stroke-linejoin: miter"/>
   </g>
   <g id="patch_55">
    <path d="M 595.332 291.6072 
L 621 291.6072 
L 621 266.1048 
L 595.332 266.1048 
z
" clip-path="url(#p7a2831f020)" style="fill: #ff341b; stroke: #111111; stroke-width: 2; stroke-linejoin: miter"/>
   </g>
   <g id="patch_56">
    <path d="M 629.928 338.1768 
L 655.038 338.1768 
L 655.038 213.4368 
L 629.928 213.4368 
z
" clip-path="url(#p7a2831f020)" style="fill: #1495e8; stroke: #111111; stroke-width: 2; stroke-linejoin: miter"/>
   </g>
   <g id="patch_57">
    <path d="M 663.408 292.1616 
L 751.572 292.1616 
L 751.572 263.3328 
L 663.408 263.3328 
z
" clip-path="url(#p7a2831f020)" style="fill: #49c52b; stroke: #111111; stroke-width: 2; stroke-linejoin: miter"/>
   </g>
   <g id="text_1">
    <!-- A -->
    <g style="fill: #111111" transform="translate(133.046875 103.63025) scale(0.28 -0.28)">
     <defs>
      <path id="DejaVuSerif-Bold-41" d="M -50 0 
L -50 378 
L 331 378 
L 2088 4666 
L 2834 4666 
L 4594 378 
L 5038 378 
L 5038 0 
L 2853 0 
L 2853 378 
L 3309 378 
L 2925 1331 
L 1172 1331 
L 781 378 
L 1338 378 
L 1338 0 
L -50 0 
z
M 1325 1709 
L 2772 1709 
L 2053 3494 
L 1325 1709 
z
" transform="scale(0.015625)"/>
     </defs>
     <use xlink:href="#DejaVuSerif-Bold-41"/>
    </g>
   </g>
   <g id="text_2">
    <!-- = -->
    <g style="fill: #666666" transform="translate(237.922344 101.974625) scale(0.22 -0.22)">
     <defs>
      <path id="DejaVuSerif-3d" d="M 678 2894 
L 4684 2894 
L 4684 2394 
L 678 2394 
L 678 2894 
z
M 678 1619 
L 4684 1619 
L 4684 1119 
L 678 1119 
L 678 1619 
z
" transform="scale(0.015625)"/>
     </defs>
     <use xlink:href="#DejaVuSerif-3d"/>
    </g>
   </g>
   <g id="text_3">
    <!-- $\mathbf{U}_1$ -->
    <g style="fill: #111111" transform="translate(301.635 100.870875) scale(0.18 -0.18)">
     <defs>
      <path id="Cmb10-55" d="M 819 1453 
L 819 4063 
L 219 4063 
L 219 4391 
L 2356 4391 
L 2356 4063 
L 1753 4063 
L 1753 1453 
Q 1753 1197 1784 987 
Q 1816 778 1902 612 
Q 1988 447 2158 351 
Q 2328 256 2597 256 
Q 2966 256 3222 407 
Q 3478 559 3604 832 
Q 3731 1106 3731 1478 
L 3731 4006 
Q 3731 4028 3672 4039 
Q 3613 4050 3578 4050 
Q 3431 4063 3128 4063 
L 3128 4391 
L 4697 4391 
L 4697 4063 
Q 4397 4063 4250 4050 
Q 4219 4050 4158 4039 
Q 4097 4028 4097 4006 
L 4097 1453 
Q 4097 1122 3990 842 
Q 3884 563 3687 356 
Q 3491 150 3209 39 
Q 2928 -72 2597 -72 
Q 2247 -72 1928 22 
Q 1609 116 1353 314 
Q 1097 513 958 798 
Q 819 1084 819 1453 
z
" transform="scale(0.015625)"/>
      <path id="Cmr10-31" d="M 594 0 
L 594 225 
Q 1394 225 1394 428 
L 1394 3788 
Q 1063 3628 556 3628 
L 556 3853 
Q 1341 3853 1741 4263 
L 1831 4263 
Q 1853 4263 1873 4245 
Q 1894 4228 1894 4206 
L 1894 428 
Q 1894 225 2694 225 
L 2694 0 
L 594 0 
z
" transform="scale(0.015625)"/>
     </defs>
     <use xlink:href="#Cmb10-55" transform="translate(0 0.390625)"/>
     <use xlink:href="#Cmr10-31" transform="translate(81.368437 -16.615625) scale(0.7)"/>
    </g>
   </g>
   <g id="text_4">
    <!-- $\mathbf{U}_2$ -->
    <g style="fill: #111111" transform="translate(326.745 100.870875) scale(0.18 -0.18)">
     <defs>
      <path id="Cmr10-32" d="M 319 0 
L 319 172 
Q 319 188 331 206 
L 1325 1306 
Q 1550 1550 1690 1715 
Q 1831 1881 1968 2097 
Q 2106 2313 2186 2536 
Q 2266 2759 2266 3009 
Q 2266 3272 2169 3511 
Q 2072 3750 1880 3894 
Q 1688 4038 1416 4038 
Q 1138 4038 916 3870 
Q 694 3703 603 3438 
Q 628 3444 672 3444 
Q 816 3444 917 3347 
Q 1019 3250 1019 3097 
Q 1019 2950 917 2848 
Q 816 2747 672 2747 
Q 522 2747 420 2851 
Q 319 2956 319 3097 
Q 319 3338 409 3548 
Q 500 3759 670 3923 
Q 841 4088 1055 4175 
Q 1269 4263 1509 4263 
Q 1875 4263 2190 4108 
Q 2506 3953 2690 3670 
Q 2875 3388 2875 3009 
Q 2875 2731 2753 2481 
Q 2631 2231 2440 2026 
Q 2250 1822 1953 1562 
Q 1656 1303 1563 1216 
L 838 519 
L 1453 519 
Q 1906 519 2211 526 
Q 2516 534 2534 550 
Q 2609 631 2688 1141 
L 2875 1141 
L 2694 0 
L 319 0 
z
" transform="scale(0.015625)"/>
     </defs>
     <use xlink:href="#Cmb10-55" transform="translate(0 0.390625)"/>
     <use xlink:href="#Cmr10-32" transform="translate(81.368437 -16.615625) scale(0.7)"/>
    </g>
   </g>
   <g id="text_5">
    <!-- $\mathbf{U}_3$ -->
    <g style="fill: #111111" transform="translate(351.855 100.870875) scale(0.18 -0.18)">
     <defs>
      <path id="Cmr10-33" d="M 609 494 
Q 759 275 1012 169 
Q 1266 63 1556 63 
Q 1928 63 2084 380 
Q 2241 697 2241 1100 
Q 2241 1281 2208 1462 
Q 2175 1644 2097 1800 
Q 2019 1956 1883 2050 
Q 1747 2144 1550 2144 
L 1125 2144 
Q 1069 2144 1069 2203 
L 1069 2259 
Q 1069 2309 1125 2309 
L 1478 2338 
Q 1703 2338 1851 2506 
Q 2000 2675 2069 2917 
Q 2138 3159 2138 3378 
Q 2138 3684 1994 3881 
Q 1850 4078 1556 4078 
Q 1313 4078 1091 3986 
Q 869 3894 738 3706 
Q 750 3709 759 3711 
Q 769 3713 781 3713 
Q 925 3713 1022 3613 
Q 1119 3513 1119 3372 
Q 1119 3234 1022 3134 
Q 925 3034 781 3034 
Q 641 3034 541 3134 
Q 441 3234 441 3372 
Q 441 3647 606 3850 
Q 772 4053 1033 4158 
Q 1294 4263 1556 4263 
Q 1750 4263 1965 4205 
Q 2181 4147 2356 4039 
Q 2531 3931 2642 3762 
Q 2753 3594 2753 3378 
Q 2753 3109 2633 2881 
Q 2513 2653 2303 2487 
Q 2094 2322 1844 2241 
Q 2122 2188 2372 2031 
Q 2622 1875 2773 1631 
Q 2925 1388 2925 1106 
Q 2925 753 2731 467 
Q 2538 181 2222 20 
Q 1906 -141 1556 -141 
Q 1256 -141 954 -26 
Q 653 88 461 316 
Q 269 544 269 863 
Q 269 1022 375 1128 
Q 481 1234 641 1234 
Q 744 1234 830 1186 
Q 916 1138 964 1050 
Q 1013 963 1013 863 
Q 1013 706 903 600 
Q 794 494 641 494 
L 609 494 
z
" transform="scale(0.015625)"/>
     </defs>
     <use xlink:href="#Cmb10-55" transform="translate(0 0.390625)"/>
     <use xlink:href="#Cmr10-33" transform="translate(81.368437 -16.615625) scale(0.7)"/>
    </g>
   </g>
   <g id="text_6">
    <!-- $\mathbf{U}_4$ -->
    <g style="fill: #111111" transform="translate(376.965 100.870875) scale(0.18 -0.18)">
     <defs>
      <path id="Cmr10-34" d="M 178 1056 
L 178 1281 
L 2156 4231 
Q 2178 4263 2222 4263 
L 2316 4263 
Q 2388 4263 2388 4191 
L 2388 1281 
L 3016 1281 
L 3016 1056 
L 2388 1056 
L 2388 428 
Q 2388 297 2575 261 
Q 2763 225 3009 225 
L 3009 0 
L 1247 0 
L 1247 225 
Q 1494 225 1681 261 
Q 1869 297 1869 428 
L 1869 1056 
L 178 1056 
z
M 391 1281 
L 1906 1281 
L 1906 3547 
L 391 1281 
z
" transform="scale(0.015625)"/>
     </defs>
     <use xlink:href="#Cmb10-55" transform="translate(0 0.390625)"/>
     <use xlink:href="#Cmr10-34" transform="translate(81.368437 -16.615625) scale(0.7)"/>
    </g>
   </g>
   <g id="text_7">
    <!-- $\sigma_1$ -->
    <g style="fill: #111111" transform="translate(452.16 63.172937) scale(0.17 -0.17)">
     <defs>
      <path id="Cmmi10-be" d="M 1197 -72 
Q 913 -72 692 64 
Q 472 200 351 431 
Q 231 663 231 941 
Q 231 1238 365 1566 
Q 500 1894 733 2166 
Q 966 2438 1259 2598 
Q 1553 2759 1863 2759 
L 3475 2759 
Q 3541 2759 3587 2715 
Q 3634 2672 3634 2597 
Q 3634 2503 3567 2433 
Q 3500 2363 3406 2363 
L 2625 2363 
Q 2809 2088 2809 1697 
Q 2809 1375 2684 1062 
Q 2559 750 2337 492 
Q 2116 234 1820 81 
Q 1525 -72 1197 -72 
z
M 1203 97 
Q 1553 97 1823 370 
Q 2094 644 2237 1039 
Q 2381 1434 2381 1772 
Q 2381 2047 2229 2205 
Q 2078 2363 1806 2363 
Q 1434 2363 1173 2113 
Q 913 1863 783 1484 
Q 653 1106 653 756 
Q 653 481 798 289 
Q 944 97 1203 97 
z
" transform="scale(0.015625)"/>
     </defs>
     <use xlink:href="#Cmmi10-be" transform="translate(0 0.890625)"/>
     <use xlink:href="#Cmr10-31" transform="translate(57.080078 -16.115625) scale(0.7)"/>
    </g>
   </g>
   <g id="text_8">
    <!-- $\sigma_2$ -->
    <g style="fill: #111111" transform="translate(477.27 88.120937) scale(0.17 -0.17)">
     <use xlink:href="#Cmmi10-be" transform="translate(0 0.890625)"/>
     <use xlink:href="#Cmr10-32" transform="translate(57.080078 -16.115625) scale(0.7)"/>
    </g>
   </g>
   <g id="text_9">
    <!-- $\sigma_3$ -->
    <g style="fill: #111111" transform="translate(502.38 113.068937) scale(0.17 -0.17)">
     <use xlink:href="#Cmmi10-be" transform="translate(0 0.890625)"/>
     <use xlink:href="#Cmr10-33" transform="translate(57.080078 -16.115625) scale(0.7)"/>
    </g>
   </g>
   <g id="text_10">
    <!-- $\sigma_4$ -->
    <g style="fill: #111111" transform="translate(527.49 138.016937) scale(0.17 -0.17)">
     <use xlink:href="#Cmmi10-be" transform="translate(0 0.890625)"/>
     <use xlink:href="#Cmr10-34" transform="translate(57.080078 -16.115625) scale(0.7)"/>
    </g>
   </g>
   <g id="text_11">
    <!-- $\mathbf{v}_1$ -->
    <g style="fill: #111111" transform="translate(637.2 63.448875) scale(0.18 -0.18)">
     <defs>
      <path id="Cmb10-76" d="M 1466 91 
L 544 2516 
L 141 2516 
L 141 2841 
L 1672 2841 
L 1672 2516 
L 1319 2516 
L 1894 984 
L 2456 2463 
Q 2456 2494 2342 2505 
Q 2228 2516 2119 2516 
L 2119 2841 
L 3231 2841 
L 3231 2516 
Q 2828 2516 2803 2456 
L 1906 91 
Q 1866 -25 1741 -25 
L 1631 -25 
Q 1506 -25 1466 91 
z
" transform="scale(0.015625)"/>
     </defs>
     <use xlink:href="#Cmb10-76" transform="translate(0 0.609375)"/>
     <use xlink:href="#Cmr10-31" transform="translate(57.149687 -16.396875) scale(0.7)"/>
    </g>
   </g>
   <g id="text_12">
    <!-- $\mathbf{v}_2$ -->
    <g style="fill: #111111" transform="translate(637.2 88.396875) scale(0.18 -0.18)">
     <use xlink:href="#Cmb10-76" transform="translate(0 0.609375)"/>
     <use xlink:href="#Cmr10-32" transform="translate(57.149687 -16.396875) scale(0.7)"/>
    </g>
   </g>
   <g id="text_13">
    <!-- $\mathbf{v}_3$ -->
    <g style="fill: #111111" transform="translate(637.2 113.344875) scale(0.18 -0.18)">
     <use xlink:href="#Cmb10-76" transform="translate(0 0.609375)"/>
     <use xlink:href="#Cmr10-33" transform="translate(57.149687 -16.396875) scale(0.7)"/>
    </g>
   </g>
   <g id="text_14">
    <!-- $\mathbf{v}_4$ -->
    <g style="fill: #111111" transform="translate(637.2 138.292875) scale(0.18 -0.18)">
     <use xlink:href="#Cmb10-76" transform="translate(0 0.609375)"/>
     <use xlink:href="#Cmr10-34" transform="translate(57.149687 -16.396875) scale(0.7)"/>
    </g>
   </g>
   <g id="text_15">
    <!-- $\sigma_1$ -->
    <g style="fill: #111111" transform="translate(42.804 283.271) scale(0.16 -0.16)">
     <use xlink:href="#Cmmi10-be" transform="translate(0 0.890625)"/>
     <use xlink:href="#Cmr10-31" transform="translate(57.080078 -16.115625) scale(0.7)"/>
    </g>
   </g>
   <g id="text_16">
    <!-- $\mathbf{U}_1$ -->
    <g style="fill: #111111" transform="translate(75.201 280.499) scale(0.16 -0.16)">
     <use xlink:href="#Cmb10-55" transform="translate(0 0.390625)"/>
     <use xlink:href="#Cmr10-31" transform="translate(81.368437 -16.615625) scale(0.7)"/>
    </g>
   </g>
   <g id="text_17">
    <!-- $\mathbf{v}_1$ -->
    <g style="fill: #111111" transform="translate(142.128 282.1622) scale(0.16 -0.16)">
     <use xlink:href="#Cmb10-76" transform="translate(0 0.609375)"/>
     <use xlink:href="#Cmr10-31" transform="translate(57.149687 -16.396875) scale(0.7)"/>
    </g>
   </g>
   <g id="text_18">
    <!-- Rang 1 -->
    <g style="fill: #666666" transform="translate(95.534 384.991175) scale(0.2 -0.2)">
     <defs>
      <path id="DejaVuSerif-52" d="M 3066 2316 
Q 3284 2256 3442 2114 
Q 3600 1972 3725 1716 
L 4403 331 
L 4972 331 
L 4972 0 
L 3872 0 
L 3144 1484 
Q 2934 1916 2759 2042 
Q 2584 2169 2278 2169 
L 1581 2169 
L 1581 331 
L 2241 331 
L 2241 0 
L 353 0 
L 353 331 
L 947 331 
L 947 4331 
L 353 4331 
L 353 4666 
L 2719 4666 
Q 3400 4666 3770 4341 
Q 4141 4016 4141 3419 
Q 4141 2938 3870 2661 
Q 3600 2384 3066 2316 
z
M 1581 2503 
L 2503 2503 
Q 2975 2503 3200 2726 
Q 3425 2950 3425 3419 
Q 3425 3888 3200 4109 
Q 2975 4331 2503 4331 
L 1581 4331 
L 1581 2503 
z
" transform="scale(0.015625)"/>
      <path id="DejaVuSerif-61" d="M 2547 1044 
L 2547 1747 
L 1806 1747 
Q 1378 1747 1168 1562 
Q 959 1378 959 997 
Q 959 650 1171 447 
Q 1384 244 1747 244 
Q 2106 244 2326 466 
Q 2547 688 2547 1044 
z
M 3122 2075 
L 3122 331 
L 3634 331 
L 3634 0 
L 2547 0 
L 2547 359 
Q 2356 128 2106 18 
Q 1856 -91 1522 -91 
Q 969 -91 644 203 
Q 319 497 319 997 
Q 319 1513 691 1797 
Q 1063 2081 1741 2081 
L 2547 2081 
L 2547 2309 
Q 2547 2688 2317 2895 
Q 2088 3103 1672 3103 
Q 1328 3103 1125 2947 
Q 922 2791 872 2484 
L 575 2484 
L 575 3156 
Q 875 3284 1158 3348 
Q 1441 3413 1709 3413 
Q 2400 3413 2761 3070 
Q 3122 2728 3122 2075 
z
" transform="scale(0.015625)"/>
      <path id="DejaVuSerif-6e" d="M 263 0 
L 263 331 
L 781 331 
L 781 2988 
L 231 2988 
L 231 3322 
L 1356 3322 
L 1356 2731 
Q 1516 3069 1770 3241 
Q 2025 3413 2363 3413 
Q 2913 3413 3172 3097 
Q 3431 2781 3431 2113 
L 3431 331 
L 3944 331 
L 3944 0 
L 2356 0 
L 2356 331 
L 2853 331 
L 2853 1931 
Q 2853 2541 2703 2767 
Q 2553 2994 2175 2994 
Q 1775 2994 1565 2701 
Q 1356 2409 1356 1850 
L 1356 331 
L 1856 331 
L 1856 0 
L 263 0 
z
" transform="scale(0.015625)"/>
      <path id="DejaVuSerif-67" d="M 3359 2988 
L 3359 72 
Q 3359 -644 2965 -1033 
Q 2572 -1422 1844 -1422 
Q 1516 -1422 1216 -1362 
Q 916 -1303 641 -1184 
L 641 -488 
L 941 -488 
Q 997 -813 1206 -963 
Q 1416 -1113 1806 -1113 
Q 2313 -1113 2548 -827 
Q 2784 -541 2784 72 
L 2784 519 
Q 2616 206 2355 57 
Q 2094 -91 1709 -91 
Q 1097 -91 708 395 
Q 319 881 319 1663 
Q 319 2444 706 2928 
Q 1094 3413 1709 3413 
Q 2094 3413 2355 3264 
Q 2616 3116 2784 2803 
L 2784 3322 
L 3909 3322 
L 3909 2988 
L 3359 2988 
z
M 2784 1825 
Q 2784 2422 2554 2737 
Q 2325 3053 1888 3053 
Q 1444 3053 1217 2703 
Q 991 2353 991 1663 
Q 991 975 1217 622 
Q 1444 269 1888 269 
Q 2325 269 2554 583 
Q 2784 897 2784 1497 
L 2784 1825 
z
" transform="scale(0.015625)"/>
      <path id="DejaVuSerif-20" transform="scale(0.015625)"/>
      <path id="DejaVuSerif-31" d="M 909 0 
L 909 331 
L 1722 331 
L 1722 4213 
L 781 3603 
L 781 4013 
L 1919 4750 
L 2350 4750 
L 2350 331 
L 3163 331 
L 3163 0 
L 909 0 
z
" transform="scale(0.015625)"/>
     </defs>
     <use xlink:href="#DejaVuSerif-52"/>
     <use xlink:href="#DejaVuSerif-61" transform="translate(77.542969 0)"/>
     <use xlink:href="#DejaVuSerif-6e" transform="translate(137.162109 0)"/>
     <use xlink:href="#DejaVuSerif-67" transform="translate(201.566406 0)"/>
     <use xlink:href="#DejaVuSerif-20" transform="translate(265.580078 0)"/>
     <use xlink:href="#DejaVuSerif-31" transform="translate(297.367188 0)"/>
    </g>
   </g>
   <g id="text_19">
    <!-- + -->
    <g style="fill: #666666" transform="translate(197.327359 283.539362) scale(0.23 -0.23)">
     <defs>
      <path id="DejaVuSerif-2b" d="M 2931 4013 
L 2931 2259 
L 4684 2259 
L 4684 1753 
L 2931 1753 
L 2931 0 
L 2431 0 
L 2431 1753 
L 678 1753 
L 678 2259 
L 2431 2259 
L 2431 4013 
L 2931 4013 
z
" transform="scale(0.015625)"/>
     </defs>
     <use xlink:href="#DejaVuSerif-2b"/>
    </g>
   </g>
   <g id="text_20">
    <!-- $\sigma_2$ -->
    <g style="fill: #111111" transform="translate(228.618 283.271) scale(0.16 -0.16)">
     <use xlink:href="#Cmmi10-be" transform="translate(0 0.890625)"/>
     <use xlink:href="#Cmr10-32" transform="translate(57.080078 -16.115625) scale(0.7)"/>
    </g>
   </g>
   <g id="text_21">
    <!-- $\mathbf{U}_2$ -->
    <g style="fill: #111111" transform="translate(261.015 280.499) scale(0.16 -0.16)">
     <use xlink:href="#Cmb10-55" transform="translate(0 0.390625)"/>
     <use xlink:href="#Cmr10-32" transform="translate(81.368437 -16.615625) scale(0.7)"/>
    </g>
   </g>
   <g id="text_22">
    <!-- $\mathbf{v}_2$ -->
    <g style="fill: #111111" transform="translate(327.942 282.1622) scale(0.16 -0.16)">
     <use xlink:href="#Cmb10-76" transform="translate(0 0.609375)"/>
     <use xlink:href="#Cmr10-32" transform="translate(57.149687 -16.396875) scale(0.7)"/>
    </g>
   </g>
   <g id="text_23">
    <!-- Rang 1 -->
    <g style="fill: #666666" transform="translate(281.348 384.991175) scale(0.2 -0.2)">
     <use xlink:href="#DejaVuSerif-52"/>
     <use xlink:href="#DejaVuSerif-61" transform="translate(77.542969 0)"/>
     <use xlink:href="#DejaVuSerif-6e" transform="translate(137.162109 0)"/>
     <use xlink:href="#DejaVuSerif-67" transform="translate(201.566406 0)"/>
     <use xlink:href="#DejaVuSerif-20" transform="translate(265.580078 0)"/>
     <use xlink:href="#DejaVuSerif-31" transform="translate(297.367188 0)"/>
    </g>
   </g>
   <g id="text_24">
    <!-- + -->
    <g style="fill: #666666" transform="translate(383.141359 283.539362) scale(0.23 -0.23)">
     <use xlink:href="#DejaVuSerif-2b"/>
    </g>
   </g>
   <g id="text_25">
    <!-- $\sigma_3$ -->
    <g style="fill: #111111" transform="translate(414.432 283.271) scale(0.16 -0.16)">
     <use xlink:href="#Cmmi10-be" transform="translate(0 0.890625)"/>
     <use xlink:href="#Cmr10-33" transform="translate(57.080078 -16.115625) scale(0.7)"/>
    </g>
   </g>
   <g id="text_26">
    <!-- $\mathbf{U}_3$ -->
    <g style="fill: #111111" transform="translate(446.829 280.499) scale(0.16 -0.16)">
     <use xlink:href="#Cmb10-55" transform="translate(0 0.390625)"/>
     <use xlink:href="#Cmr10-33" transform="translate(81.368437 -16.615625) scale(0.7)"/>
    </g>
   </g>
   <g id="text_27">
    <!-- $\mathbf{v}_3$ -->
    <g style="fill: #111111" transform="translate(513.756 282.1622) scale(0.16 -0.16)">
     <use xlink:href="#Cmb10-76" transform="translate(0 0.609375)"/>
     <use xlink:href="#Cmr10-33" transform="translate(57.149687 -16.396875) scale(0.7)"/>
    </g>
   </g>
   <g id="text_28">
    <!-- Rang 1 -->
    <g style="fill: #666666" transform="translate(467.162 384.991175) scale(0.2 -0.2)">
     <use xlink:href="#DejaVuSerif-52"/>
     <use xlink:href="#DejaVuSerif-61" transform="translate(77.542969 0)"/>
     <use xlink:href="#DejaVuSerif-6e" transform="translate(137.162109 0)"/>
     <use xlink:href="#DejaVuSerif-67" transform="translate(201.566406 0)"/>
     <use xlink:href="#DejaVuSerif-20" transform="translate(265.580078 0)"/>
     <use xlink:href="#DejaVuSerif-31" transform="translate(297.367188 0)"/>
    </g>
   </g>
   <g id="text_29">
    <!-- + -->
    <g style="fill: #666666" transform="translate(568.955359 283.539362) scale(0.23 -0.23)">
     <use xlink:href="#DejaVuSerif-2b"/>
    </g>
   </g>
   <g id="text_30">
    <!-- $\sigma_4$ -->
    <g style="fill: #111111" transform="translate(600.246 283.271) scale(0.16 -0.16)">
     <use xlink:href="#Cmmi10-be" transform="translate(0 0.890625)"/>
     <use xlink:href="#Cmr10-34" transform="translate(57.080078 -16.115625) scale(0.7)"/>
    </g>
   </g>
   <g id="text_31">
    <!-- $\mathbf{U}_4$ -->
    <g style="fill: #111111" transform="translate(632.643 280.499) scale(0.16 -0.16)">
     <use xlink:href="#Cmb10-55" transform="translate(0 0.390625)"/>
     <use xlink:href="#Cmr10-34" transform="translate(81.368437 -16.615625) scale(0.7)"/>
    </g>
   </g>
   <g id="text_32">
    <!-- $\mathbf{v}_4$ -->
    <g style="fill: #111111" transform="translate(699.57 282.1622) scale(0.16 -0.16)">
     <use xlink:href="#Cmb10-76" transform="translate(0 0.609375)"/>
     <use xlink:href="#Cmr10-34" transform="translate(57.149687 -16.396875) scale(0.7)"/>
    </g>
   </g>
   <g id="text_33">
    <!-- Rang 1 -->
    <g style="fill: #666666" transform="translate(652.976 384.991175) scale(0.2 -0.2)">
     <use xlink:href="#DejaVuSerif-52"/>
     <use xlink:href="#DejaVuSerif-61" transform="translate(77.542969 0)"/>
     <use xlink:href="#DejaVuSerif-6e" transform="translate(137.162109 0)"/>
     <use xlink:href="#DejaVuSerif-67" transform="translate(201.566406 0)"/>
     <use xlink:href="#DejaVuSerif-20" transform="translate(265.580078 0)"/>
     <use xlink:href="#DejaVuSerif-31" transform="translate(297.367188 0)"/>
    </g>
   </g>
  </g>
 </g>
 <defs>
  <clipPath id="p7a2831f020">
   <rect x="7.2" y="7.2" width="770.04" height="404.712"/>
  </clipPath>
 </defs>
</svg>
