<?xml version="1.0" encoding="utf-8" standalone="no"?>
<!DOCTYPE svg PUBLIC "-//W3C//DTD SVG 1.1//EN"
  "http://www.w3.org/Graphics/SVG/1.1/DTD/svg11.dtd">
<svg xmlns:xlink="http://www.w3.org/1999/xlink" width="416.16pt" height="274.968pt" viewBox="0 0 416.16 274.968" xmlns="http://www.w3.org/2000/svg" version="1.1">
 <metadata>
  <rdf:RDF xmlns:dc="http://purl.org/dc/elements/1.1/" xmlns:cc="http://creativecommons.org/ns#" xmlns:rdf="http://www.w3.org/1999/02/22-rdf-syntax-ns#">
   <cc:Work>
    <dc:type rdf:resource="http://purl.org/dc/dcmitype/StillImage"/>
    <dc:date>2026-06-15T05:45:26.731421</dc:date>
    <dc:format>image/svg+xml</dc:format>
    <dc:creator>
     <cc:Agent>
      <dc:title>Matplotlib v3.11.0, https://matplotlib.org/</dc:title>
     </cc:Agent>
    </dc:creator>
   </cc:Work>
  </rdf:RDF>
 </metadata>
 <defs>
  <style type="text/css">*{stroke-linejoin: round; stroke-linecap: butt}</style>
 </defs>
 <g id="figure_1">
  <g id="patch_1">
   <path d="M 0 274.968 
L 416.16 274.968 
L 416.16 0 
L 0 0 
L 0 274.968 
z
" style="fill: none"/>
  </g>
  <g id="axes_1">
   <g id="patch_2">
    <path d="M 92.896321 98.676 
Q 100.383275 98.676 105.410555 98.676 
" clip-path="url(#p83ba4a92e9)" style="fill: none; stroke: #ff3b35; stroke-width: 2.2; stroke-linecap: round"/>
    <path d="M 98.210555 95.076 
L 105.410555 98.676 
L 98.210555 102.276 
z
" clip-path="url(#p83ba4a92e9)" style="fill: #ff3b35; stroke: #ff3b35; stroke-width: 2.2; stroke-linecap: round"/>
   </g>
   <g id="patch_3">
    <path d="M 59.652 266.9364 
L 141.12 266.9364 
Q 143.631 266.9364 143.631 264.4416 
L 143.631 193.4784 
Q 143.631 190.9836 141.12 190.9836 
L 59.652 190.9836 
Q 57.141 190.9836 57.141 193.4784 
L 57.141 264.4416 
Q 57.141 266.9364 59.652 266.9364 
L 59.652 266.9364 
z
" clip-path="url(#p83ba4a92e9)" style="fill: none; stroke: #ff3b35; stroke-width: 1.6; stroke-linejoin: miter"/>
   </g>
   <g id="patch_4">
    <path d="M 189.988321 98.676 
Q 197.475275 98.676 202.502555 98.676 
" clip-path="url(#p83ba4a92e9)" style="fill: none; stroke: #f2aa00; stroke-width: 2.2; stroke-linecap: round"/>
    <path d="M 195.302555 95.076 
L 202.502555 98.676 
L 195.302555 102.276 
z
" clip-path="url(#p83ba4a92e9)" style="fill: #f2aa00; stroke: #f2aa00; stroke-width: 2.2; stroke-linecap: round"/>
   </g>
   <g id="patch_5">
    <path d="M 156.744 266.9364 
L 238.212 266.9364 
Q 240.723 266.9364 240.723 264.4416 
L 240.723 193.4784 
Q 240.723 190.9836 238.212 190.9836 
L 156.744 190.9836 
Q 154.233 190.9836 154.233 193.4784 
L 154.233 264.4416 
Q 154.233 266.9364 156.744 266.9364 
L 156.744 266.9364 
z
" clip-path="url(#p83ba4a92e9)" style="fill: none; stroke: #f2aa00; stroke-width: 1.6; stroke-linejoin: miter"/>
   </g>
   <g id="patch_6">
    <path d="M 287.080321 98.676 
Q 294.567275 98.676 299.594555 98.676 
" clip-path="url(#p83ba4a92e9)" style="fill: none; stroke: #1e88ff; stroke-width: 2.2; stroke-linecap: round"/>
    <path d="M 292.394555 95.076 
L 299.594555 98.676 
L 292.394555 102.276 
z
" clip-path="url(#p83ba4a92e9)" style="fill: #1e88ff; stroke: #1e88ff; stroke-width: 2.2; stroke-linecap: round"/>
   </g>
   <g id="patch_7">
    <path d="M 253.836 266.9364 
L 335.304 266.9364 
Q 337.815 266.9364 337.815 264.4416 
L 337.815 193.4784 
Q 337.815 190.9836 335.304 190.9836 
L 253.836 190.9836 
Q 251.325 190.9836 251.325 193.4784 
L 251.325 264.4416 
Q 251.325 266.9364 253.836 266.9364 
L 253.836 266.9364 
z
" clip-path="url(#p83ba4a92e9)" style="fill: none; stroke: #1e88ff; stroke-width: 1.6; stroke-linejoin: miter"/>
   </g>
   <g id="line2d_1">
    <path d="M 69.138 262.224 
L 69.138 222.3072 
" clip-path="url(#p83ba4a92e9)" style="fill: none; stroke: #111111; stroke-width: 1.4; stroke-linecap: round"/>
   </g>
   <g id="line2d_2">
    <path d="M 69.138 222.3072 
L 73.044 222.3072 
" clip-path="url(#p83ba4a92e9)" style="fill: none; stroke: #111111; stroke-width: 1.4; stroke-linecap: round"/>
   </g>
   <g id="line2d_3">
    <path d="M 69.138 262.224 
L 73.044 262.224 
" clip-path="url(#p83ba4a92e9)" style="fill: none; stroke: #111111; stroke-width: 1.4; stroke-linecap: round"/>
   </g>
   <g id="line2d_4">
    <path d="M 131.634 262.224 
L 131.634 222.3072 
" clip-path="url(#p83ba4a92e9)" style="fill: none; stroke: #111111; stroke-width: 1.4; stroke-linecap: round"/>
   </g>
   <g id="line2d_5">
    <path d="M 131.634 222.3072 
L 127.728 222.3072 
" clip-path="url(#p83ba4a92e9)" style="fill: none; stroke: #111111; stroke-width: 1.4; stroke-linecap: round"/>
   </g>
   <g id="line2d_6">
    <path d="M 131.634 262.224 
L 127.728 262.224 
" clip-path="url(#p83ba4a92e9)" style="fill: none; stroke: #111111; stroke-width: 1.4; stroke-linecap: round"/>
   </g>
   <g id="line2d_7">
    <path d="M 166.23 262.224 
L 166.23 222.3072 
" clip-path="url(#p83ba4a92e9)" style="fill: none; stroke: #111111; stroke-width: 1.4; stroke-linecap: round"/>
   </g>
   <g id="line2d_8">
    <path d="M 166.23 222.3072 
L 170.136 222.3072 
" clip-path="url(#p83ba4a92e9)" style="fill: none; stroke: #111111; stroke-width: 1.4; stroke-linecap: round"/>
   </g>
   <g id="line2d_9">
    <path d="M 166.23 262.224 
L 170.136 262.224 
" clip-path="url(#p83ba4a92e9)" style="fill: none; stroke: #111111; stroke-width: 1.4; stroke-linecap: round"/>
   </g>
   <g id="line2d_10">
    <path d="M 228.726 262.224 
L 228.726 222.3072 
" clip-path="url(#p83ba4a92e9)" style="fill: none; stroke: #111111; stroke-width: 1.4; stroke-linecap: round"/>
   </g>
   <g id="line2d_11">
    <path d="M 228.726 222.3072 
L 224.82 222.3072 
" clip-path="url(#p83ba4a92e9)" style="fill: none; stroke: #111111; stroke-width: 1.4; stroke-linecap: round"/>
   </g>
   <g id="line2d_12">
    <path d="M 228.726 262.224 
L 224.82 262.224 
" clip-path="url(#p83ba4a92e9)" style="fill: none; stroke: #111111; stroke-width: 1.4; stroke-linecap: round"/>
   </g>
   <g id="line2d_13">
    <path d="M 263.322 262.224 
L 263.322 222.3072 
" clip-path="url(#p83ba4a92e9)" style="fill: none; stroke: #111111; stroke-width: 1.4; stroke-linecap: round"/>
   </g>
   <g id="line2d_14">
    <path d="M 263.322 222.3072 
L 267.228 222.3072 
" clip-path="url(#p83ba4a92e9)" style="fill: none; stroke: #111111; stroke-width: 1.4; stroke-linecap: round"/>
   </g>
   <g id="line2d_15">
    <path d="M 263.322 262.224 
L 267.228 262.224 
" clip-path="url(#p83ba4a92e9)" style="fill: none; stroke: #111111; stroke-width: 1.4; stroke-linecap: round"/>
   </g>
   <g id="line2d_16">
    <path d="M 325.818 262.224 
L 325.818 222.3072 
" clip-path="url(#p83ba4a92e9)" style="fill: none; stroke: #111111; stroke-width: 1.4; stroke-linecap: round"/>
   </g>
   <g id="line2d_17">
    <path d="M 325.818 222.3072 
L 321.912 222.3072 
" clip-path="url(#p83ba4a92e9)" style="fill: none; stroke: #111111; stroke-width: 1.4; stroke-linecap: round"/>
   </g>
   <g id="line2d_18">
    <path d="M 325.818 262.224 
L 321.912 262.224 
" clip-path="url(#p83ba4a92e9)" style="fill: none; stroke: #111111; stroke-width: 1.4; stroke-linecap: round"/>
   </g>
   <g id="text_1">
    <!-- $V^T$ -->
    <g style="fill: #ff3b35" transform="translate(90.016 83.771208) scale(0.17 -0.17)">
     <defs>
      <path id="Cmmi10-7e" d="M 1409 -72 
L 897 4006 
Q 850 4147 416 4147 
Q 353 4147 353 4231 
Q 366 4300 384 4336 
Q 403 4372 459 4372 
L 2022 4372 
Q 2056 4372 2072 4347 
Q 2088 4322 2088 4288 
Q 2063 4147 2003 4147 
Q 1503 4147 1472 3975 
L 1894 628 
L 3866 3775 
Q 3922 3881 3922 3944 
Q 3922 4056 3820 4101 
Q 3719 4147 3584 4147 
Q 3519 4147 3519 4231 
Q 3531 4281 3540 4309 
Q 3550 4338 3569 4355 
Q 3588 4372 3628 4372 
L 4863 4372 
Q 4922 4372 4922 4288 
Q 4897 4147 4838 4147 
Q 4356 4147 4084 3725 
Q 4072 3713 4063 3713 
L 1703 -72 
Q 1656 -141 1581 -141 
L 1491 -141 
Q 1419 -141 1409 -72 
z
" transform="scale(0.015625)"/>
      <path id="Cmmi10-78" d="M 294 84 
Q 297 100 308 140 
Q 319 181 336 203 
Q 353 225 384 225 
Q 934 225 1113 256 
Q 1284 300 1319 441 
L 2194 3956 
Q 2222 4034 2222 4097 
Q 2222 4147 1997 4147 
L 1625 4147 
Q 1197 4147 964 4015 
Q 731 3884 622 3668 
Q 513 3453 341 2963 
Q 319 2906 275 2906 
L 219 2906 
Q 153 2906 153 2988 
L 609 4313 
Q 622 4372 672 4372 
L 4453 4372 
Q 4519 4372 4519 4288 
L 4306 2963 
Q 4306 2944 4284 2925 
Q 4263 2906 4244 2906 
L 4184 2906 
Q 4122 2906 4122 2988 
Q 4191 3441 4191 3628 
Q 4191 3853 4097 3968 
Q 4003 4084 3853 4115 
Q 3703 4147 3463 4147 
L 3084 4147 
Q 2913 4147 2853 4115 
Q 2794 4084 2753 3928 
L 1875 416 
Q 1872 403 1870 390 
Q 1869 378 1863 359 
Q 1863 278 1959 256 
Q 2125 225 2669 225 
Q 2731 225 2731 141 
Q 2709 50 2696 25 
Q 2684 0 2625 0 
L 359 0 
Q 294 0 294 84 
z
" transform="scale(0.015625)"/>
     </defs>
     <use xlink:href="#Cmmi10-7e" transform="translate(0 0.892016)"/>
     <use xlink:href="#Cmmi10-78" transform="translate(74.627213 42.18125) scale(0.7)"/>
    </g>
   </g>
   <g id="text_2">
    <!-- $R_{-90^\circ}$ -->
    <g style="fill: #ff3b35" transform="translate(81.111 212.898084) scale(0.15 -0.15)">
     <defs>
      <path id="Cmmi10-70" d="M 313 0 
Q 250 0 250 84 
Q 253 100 262 139 
Q 272 178 289 201 
Q 306 225 331 225 
Q 722 225 878 269 
Q 959 297 997 441 
L 1875 3956 
Q 1888 4019 1888 4044 
Q 1888 4113 1813 4122 
Q 1691 4147 1350 4147 
Q 1288 4147 1288 4231 
Q 1291 4247 1300 4286 
Q 1309 4325 1326 4348 
Q 1344 4372 1369 4372 
L 3309 4372 
Q 3541 4372 3791 4319 
Q 4041 4266 4250 4152 
Q 4459 4038 4593 3848 
Q 4728 3659 4728 3406 
Q 4728 3084 4515 2831 
Q 4303 2578 3978 2408 
Q 3653 2238 3347 2169 
Q 3597 2078 3756 1879 
Q 3916 1681 3916 1422 
Q 3916 1388 3914 1370 
Q 3913 1353 3909 1331 
L 3859 763 
Q 3853 638 3847 550 
Q 3841 463 3841 409 
Q 3841 234 3892 129 
Q 3944 25 4097 25 
Q 4297 25 4448 211 
Q 4600 397 4647 616 
Q 4675 672 4709 672 
L 4769 672 
Q 4831 672 4831 588 
Q 4784 403 4682 237 
Q 4581 72 4426 -34 
Q 4272 -141 4091 -141 
Q 3716 -141 3452 26 
Q 3188 194 3188 550 
Q 3188 684 3213 788 
L 3353 1356 
Q 3378 1434 3378 1538 
Q 3378 1803 3198 1954 
Q 3019 2106 2747 2106 
L 1959 2106 
L 1538 416 
Q 1522 363 1522 325 
Q 1522 259 1600 250 
Q 1722 225 2059 225 
Q 2125 225 2125 141 
Q 2103 50 2090 25 
Q 2078 0 2016 0 
L 313 0 
z
M 1997 2272 
L 2706 2272 
Q 3403 2272 3756 2625 
Q 3919 2788 4014 3039 
Q 4109 3291 4109 3541 
Q 4109 3778 3970 3912 
Q 3831 4047 3626 4097 
Q 3422 4147 3175 4147 
L 2747 4147 
Q 2572 4147 2515 4117 
Q 2459 4088 2413 3928 
L 1997 2272 
z
" transform="scale(0.015625)"/>
      <path id="Cmsy10-11" d="M 653 1472 
Q 600 1472 565 1512 
Q 531 1553 531 1600 
Q 531 1647 565 1687 
Q 600 1728 653 1728 
L 4325 1728 
Q 4375 1728 4408 1687 
Q 4441 1647 4441 1600 
Q 4441 1553 4408 1512 
Q 4375 1472 4325 1472 
L 653 1472 
z
" transform="scale(0.015625)"/>
      <path id="Cmr10-16" d="M 722 269 
Q 897 63 1331 63 
Q 1575 63 1786 228 
Q 1997 394 2113 634 
Q 2247 906 2284 1214 
Q 2322 1522 2322 1978 
Q 2213 1719 2008 1553 
Q 1803 1388 1538 1388 
Q 1166 1388 873 1589 
Q 581 1791 425 2120 
Q 269 2450 269 2822 
Q 269 3206 444 3539 
Q 619 3872 928 4067 
Q 1238 4263 1631 4263 
Q 2019 4263 2280 4052 
Q 2541 3841 2678 3508 
Q 2816 3175 2870 2803 
Q 2925 2431 2925 2069 
Q 2925 1575 2744 1061 
Q 2563 547 2202 203 
Q 1841 -141 1331 -141 
Q 953 -141 690 37 
Q 428 216 428 575 
Q 428 706 517 795 
Q 606 884 738 884 
Q 866 884 955 795 
Q 1044 706 1044 575 
Q 1044 450 953 359 
Q 863 269 738 269 
L 722 269 
z
M 1563 1556 
Q 1825 1556 1992 1732 
Q 2159 1909 2234 2171 
Q 2309 2434 2309 2694 
L 2309 2816 
L 2309 2841 
Q 2309 3322 2168 3700 
Q 2028 4078 1631 4078 
Q 1378 4078 1220 3967 
Q 1063 3856 988 3672 
Q 913 3488 892 3278 
Q 872 3069 872 2822 
Q 872 2459 906 2203 
Q 941 1947 1094 1751 
Q 1247 1556 1563 1556 
z
" transform="scale(0.015625)"/>
      <path id="Cmr10-28" d="M 1600 -141 
Q 816 -141 533 504 
Q 250 1150 250 2041 
Q 250 2597 351 3087 
Q 453 3578 754 3920 
Q 1056 4263 1600 4263 
Q 2022 4263 2290 4056 
Q 2559 3850 2700 3523 
Q 2841 3197 2892 2823 
Q 2944 2450 2944 2041 
Q 2944 1491 2842 1011 
Q 2741 531 2444 195 
Q 2147 -141 1600 -141 
z
M 1600 25 
Q 1956 25 2131 390 
Q 2306 756 2347 1200 
Q 2388 1644 2388 2144 
Q 2388 2625 2347 3031 
Q 2306 3438 2132 3767 
Q 1959 4097 1600 4097 
Q 1238 4097 1063 3765 
Q 888 3434 847 3029 
Q 806 2625 806 2144 
Q 806 1788 823 1472 
Q 841 1156 916 820 
Q 991 484 1158 254 
Q 1325 25 1600 25 
z
" transform="scale(0.015625)"/>
      <path id="Cmsy10-48" d="M 1600 359 
Q 1269 359 983 526 
Q 697 694 528 984 
Q 359 1275 359 1600 
Q 359 1925 528 2215 
Q 697 2506 983 2673 
Q 1269 2841 1600 2841 
Q 1931 2841 2215 2672 
Q 2500 2503 2667 2214 
Q 2834 1925 2834 1600 
Q 2834 1275 2667 986 
Q 2500 697 2215 528 
Q 1931 359 1600 359 
z
M 1600 616 
Q 2000 616 2289 908 
Q 2578 1200 2578 1600 
Q 2578 1856 2445 2086 
Q 2313 2316 2088 2450 
Q 1863 2584 1600 2584 
Q 1403 2584 1225 2507 
Q 1047 2431 906 2290 
Q 766 2150 691 1973 
Q 616 1797 616 1600 
Q 616 1200 905 908 
Q 1194 616 1600 616 
z
" transform="scale(0.015625)"/>
     </defs>
     <use xlink:href="#Cmmi10-70" transform="translate(0 0.6875)"/>
     <use xlink:href="#Cmsy10-11" transform="translate(75.878906 -15.521943) scale(0.7)"/>
     <use xlink:href="#Cmr10-16" transform="translate(130.258789 -15.521943) scale(0.7)"/>
     <use xlink:href="#Cmr10-28" transform="translate(165.258789 -15.521943) scale(0.7)"/>
     <use xlink:href="#Cmsy10-48" transform="translate(212.861821 13.380521) scale(0.49)"/>
    </g>
   </g>
   <g id="text_3">
    <!-- $0$ -->
    <g style="fill: #111111" transform="translate(80.896 234.035022) scale(0.11 -0.11)">
     <use xlink:href="#Cmr10-28" transform="translate(0 0.390625)"/>
    </g>
   </g>
   <g id="text_4">
    <!-- $1$ -->
    <g style="fill: #111111" transform="translate(114.376 234.035022) scale(0.11 -0.11)">
     <defs>
      <path id="Cmr10-64" d="M 594 0 
L 594 225 
Q 1394 225 1394 428 
L 1394 3788 
Q 1063 3628 556 3628 
L 556 3853 
Q 1341 3853 1741 4263 
L 1831 4263 
Q 1853 4263 1873 4245 
Q 1894 4228 1894 4206 
L 1894 428 
Q 1894 225 2694 225 
L 2694 0 
L 594 0 
z
" transform="scale(0.015625)"/>
     </defs>
     <use xlink:href="#Cmr10-64" transform="translate(0 0.390625)"/>
    </g>
   </g>
   <g id="text_5">
    <!-- $-1$ -->
    <g style="fill: #111111" transform="translate(76.606 256.211022) scale(0.11 -0.11)">
     <use xlink:href="#Cmsy10-11" transform="translate(0 0.390625)"/>
     <use xlink:href="#Cmr10-64" transform="translate(77.685547 0.390625)"/>
    </g>
   </g>
   <g id="text_6">
    <!-- $0$ -->
    <g style="fill: #111111" transform="translate(114.376 256.211022) scale(0.11 -0.11)">
     <use xlink:href="#Cmr10-28" transform="translate(0 0.390625)"/>
    </g>
   </g>
   <g id="text_7">
    <!-- $\Sigma$ -->
    <g style="fill: #f2aa00" transform="translate(191.273 82.579216) scale(0.17 -0.17)">
     <defs>
      <path id="Cmr10-a" d="M 422 0 
Q 359 0 359 72 
Q 359 97 378 116 
L 1953 1906 
L 378 4172 
Q 359 4191 359 4206 
L 359 4313 
Q 359 4331 379 4351 
Q 400 4372 422 4372 
L 4078 4372 
L 4256 2906 
L 4072 2906 
Q 4016 3363 3889 3614 
Q 3763 3866 3555 3981 
Q 3347 4097 3083 4122 
Q 2819 4147 2309 4147 
L 1119 4147 
L 2456 2234 
Q 2472 2188 2472 2188 
Q 2472 2150 2456 2144 
L 831 294 
L 2291 294 
Q 2800 294 3067 319 
Q 3334 344 3546 458 
Q 3759 572 3889 830 
Q 4019 1088 4072 1538 
L 4256 1538 
L 4078 0 
L 422 0 
z
" transform="scale(0.015625)"/>
     </defs>
     <use xlink:href="#Cmr10-a" transform="translate(0 0.6875)"/>
    </g>
   </g>
   <g id="text_8">
    <!-- $\Sigma$ -->
    <g style="fill: #f2aa00" transform="translate(192.003 212.898084) scale(0.15 -0.15)">
     <use xlink:href="#Cmr10-a" transform="translate(0 0.6875)"/>
    </g>
   </g>
   <g id="text_9">
    <!-- $0.45$ -->
    <g style="fill: #111111" transform="translate(170.948 234.035022) scale(0.11 -0.11)">
     <defs>
      <path id="Cmmi10-33" d="M 538 353 
Q 538 497 644 600 
Q 750 703 891 703 
Q 978 703 1062 656 
Q 1147 609 1194 525 
Q 1241 441 1241 353 
Q 1241 213 1137 106 
Q 1034 0 891 0 
Q 750 0 644 106 
Q 538 213 538 353 
z
" transform="scale(0.015625)"/>
      <path id="Cmr10-3b" d="M 178 1056 
L 178 1281 
L 2156 4231 
Q 2178 4263 2222 4263 
L 2316 4263 
Q 2388 4263 2388 4191 
L 2388 1281 
L 3016 1281 
L 3016 1056 
L 2388 1056 
L 2388 428 
Q 2388 297 2575 261 
Q 2763 225 3009 225 
L 3009 0 
L 1247 0 
L 1247 225 
Q 1494 225 1681 261 
Q 1869 297 1869 428 
L 1869 1056 
L 178 1056 
z
M 391 1281 
L 1906 1281 
L 1906 3547 
L 391 1281 
z
" transform="scale(0.015625)"/>
      <path id="Cmr10-78" d="M 556 728 
Q 622 541 758 387 
Q 894 234 1080 148 
Q 1266 63 1466 63 
Q 1928 63 2103 422 
Q 2278 781 2278 1294 
Q 2278 1516 2270 1667 
Q 2263 1819 2228 1959 
Q 2169 2184 2020 2353 
Q 1872 2522 1656 2522 
Q 1441 2522 1286 2456 
Q 1131 2391 1034 2303 
Q 938 2216 863 2119 
Q 788 2022 769 2016 
L 697 2016 
Q 681 2016 657 2036 
Q 634 2056 634 2075 
L 634 4213 
Q 634 4228 654 4245 
Q 675 4263 697 4263 
L 716 4263 
Q 1147 4056 1631 4056 
Q 2106 4056 2547 4263 
L 2566 4263 
Q 2588 4263 2606 4247 
Q 2625 4231 2625 4213 
L 2625 4153 
Q 2625 4122 2613 4122 
Q 2394 3831 2064 3668 
Q 1734 3506 1381 3506 
Q 1125 3506 856 3578 
L 856 2369 
Q 1069 2541 1236 2614 
Q 1403 2688 1663 2688 
Q 2016 2688 2295 2484 
Q 2575 2281 2725 1954 
Q 2875 1628 2875 1288 
Q 2875 903 2686 575 
Q 2497 247 2172 53 
Q 1847 -141 1466 -141 
Q 1150 -141 886 21 
Q 622 184 470 459 
Q 319 734 319 1044 
Q 319 1188 412 1278 
Q 506 1369 647 1369 
Q 788 1369 883 1276 
Q 978 1184 978 1044 
Q 978 906 883 811 
Q 788 716 647 716 
Q 625 716 597 720 
Q 569 725 556 728 
z
" transform="scale(0.015625)"/>
     </defs>
     <use xlink:href="#Cmr10-28" transform="translate(0 0.390625)"/>
     <use xlink:href="#Cmmi10-33" transform="translate(50 0.390625)"/>
     <use xlink:href="#Cmr10-3b" transform="translate(77.685547 0.390625)"/>
     <use xlink:href="#Cmr10-78" transform="translate(127.685547 0.390625)"/>
    </g>
   </g>
   <g id="text_10">
    <!-- $0$ -->
    <g style="fill: #111111" transform="translate(211.468 234.035022) scale(0.11 -0.11)">
     <use xlink:href="#Cmr10-28" transform="translate(0 0.390625)"/>
    </g>
   </g>
   <g id="text_11">
    <!-- $0$ -->
    <g style="fill: #111111" transform="translate(177.988 256.211022) scale(0.11 -0.11)">
     <use xlink:href="#Cmr10-28" transform="translate(0 0.390625)"/>
    </g>
   </g>
   <g id="text_12">
    <!-- $1$ -->
    <g style="fill: #111111" transform="translate(211.468 256.211022) scale(0.11 -0.11)">
     <use xlink:href="#Cmr10-64" transform="translate(0 0.390625)"/>
    </g>
   </g>
   <g id="text_13">
    <!-- $U$ -->
    <g style="fill: #1e88ff" transform="translate(288.705 82.579216) scale(0.17 -0.17)">
     <defs>
      <path id="Cmmi10-4a" d="M 941 891 
Q 941 656 1033 472 
Q 1125 288 1300 186 
Q 1475 84 1709 84 
Q 1984 84 2245 196 
Q 2506 309 2715 509 
Q 2925 709 3073 965 
Q 3222 1222 3284 1472 
L 3859 3781 
Q 3872 3850 3872 3878 
Q 3872 4147 3378 4147 
Q 3316 4147 3316 4231 
Q 3338 4313 3350 4342 
Q 3363 4372 3425 4372 
L 4813 4372 
Q 4841 4372 4859 4344 
Q 4878 4316 4878 4288 
Q 4878 4284 4865 4239 
Q 4853 4194 4836 4170 
Q 4819 4147 4794 4147 
Q 4181 4147 4084 3756 
L 3506 1447 
Q 3434 1147 3264 864 
Q 3094 581 2845 351 
Q 2597 122 2298 -9 
Q 2000 -141 1691 -141 
Q 1338 -141 1045 14 
Q 753 169 587 447 
Q 422 725 422 1088 
Q 422 1297 469 1472 
L 1088 3956 
Q 1100 4019 1100 4044 
Q 1100 4113 1025 4122 
Q 903 4147 563 4147 
Q 500 4147 500 4231 
Q 522 4313 534 4342 
Q 547 4372 609 4372 
L 2328 4372 
Q 2394 4372 2394 4288 
Q 2391 4272 2381 4234 
Q 2372 4197 2356 4172 
Q 2341 4147 2309 4147 
Q 1919 4147 1766 4103 
Q 1681 4072 1644 3928 
L 1025 1447 
Q 941 1109 941 891 
z
" transform="scale(0.015625)"/>
     </defs>
     <use xlink:href="#Cmmi10-4a" transform="translate(0 0.6875)"/>
    </g>
   </g>
   <g id="text_14">
    <!-- $R_{-45^\circ}$ -->
    <g style="fill: #1e88ff" transform="translate(275.295 212.898084) scale(0.15 -0.15)">
     <use xlink:href="#Cmmi10-70" transform="translate(0 0.6875)"/>
     <use xlink:href="#Cmsy10-11" transform="translate(75.878906 -15.521943) scale(0.7)"/>
     <use xlink:href="#Cmr10-3b" transform="translate(130.258789 -15.521943) scale(0.7)"/>
     <use xlink:href="#Cmr10-78" transform="translate(165.258789 -15.521943) scale(0.7)"/>
     <use xlink:href="#Cmsy10-48" transform="translate(212.861821 13.380521) scale(0.49)"/>
    </g>
   </g>
   <g id="text_15">
    <!-- $0.71$ -->
    <g style="fill: #111111" transform="translate(269.375 233.645373) scale(0.095 -0.095)">
     <defs>
      <path id="Cmr10-7f" d="M 1113 166 
Q 1113 522 1175 862 
Q 1238 1203 1358 1536 
Q 1478 1869 1648 2189 
Q 1819 2509 2022 2791 
L 2606 3603 
L 1875 3603 
Q 738 3603 703 3572 
Q 619 3469 544 2981 
L 359 2981 
L 569 4325 
L 756 4325 
L 756 4306 
Q 756 4191 1147 4156 
Q 1538 4122 1913 4122 
L 3103 4122 
L 3103 3956 
Q 3103 3950 3101 3947 
Q 3100 3944 3097 3938 
L 2216 2700 
Q 1891 2219 1809 1631 
Q 1728 1044 1728 166 
Q 1728 41 1637 -50 
Q 1547 -141 1422 -141 
Q 1294 -141 1203 -50 
Q 1113 41 1113 166 
z
" transform="scale(0.015625)"/>
     </defs>
     <use xlink:href="#Cmr10-28" transform="translate(0 0.421875)"/>
     <use xlink:href="#Cmmi10-33" transform="translate(50 0.421875)"/>
     <use xlink:href="#Cmr10-7f" transform="translate(77.685547 0.421875)"/>
     <use xlink:href="#Cmr10-64" transform="translate(127.685547 0.421875)"/>
    </g>
   </g>
   <g id="text_16">
    <!-- $0.71$ -->
    <g style="fill: #111111" transform="translate(302.855 233.645373) scale(0.095 -0.095)">
     <use xlink:href="#Cmr10-28" transform="translate(0 0.421875)"/>
     <use xlink:href="#Cmmi10-33" transform="translate(50 0.421875)"/>
     <use xlink:href="#Cmr10-7f" transform="translate(77.685547 0.421875)"/>
     <use xlink:href="#Cmr10-64" transform="translate(127.685547 0.421875)"/>
    </g>
   </g>
   <g id="text_17">
    <!-- $-0.71$ -->
    <g style="fill: #111111" transform="translate(265.67 255.821373) scale(0.095 -0.095)">
     <use xlink:href="#Cmsy10-11" transform="translate(0 0.421875)"/>
     <use xlink:href="#Cmr10-28" transform="translate(77.685547 0.421875)"/>
     <use xlink:href="#Cmmi10-33" transform="translate(127.685547 0.421875)"/>
     <use xlink:href="#Cmr10-7f" transform="translate(155.371094 0.421875)"/>
     <use xlink:href="#Cmr10-64" transform="translate(205.371094 0.421875)"/>
    </g>
   </g>
   <g id="text_18">
    <!-- $0.71$ -->
    <g style="fill: #111111" transform="translate(302.855 255.821373) scale(0.095 -0.095)">
     <use xlink:href="#Cmr10-28" transform="translate(0 0.421875)"/>
     <use xlink:href="#Cmmi10-33" transform="translate(50 0.421875)"/>
     <use xlink:href="#Cmr10-7f" transform="translate(77.685547 0.421875)"/>
     <use xlink:href="#Cmr10-64" transform="translate(127.685547 0.421875)"/>
    </g>
   </g>
   <g id="axes_2">
    <g id="line2d_19">
     <path d="M 81.733407 86.67324 
L 81.622522 84.259701 
L 81.290802 81.866497 
L 80.741041 79.513791 
L 79.977872 77.221404 
L 79.007724 75.008651 
L 77.83877 72.894174 
L 76.480861 70.895788 
L 74.945435 69.030331 
L 73.24543 67.313518 
L 71.395167 65.759815 
L 69.410237 64.382311 
L 67.307363 63.192612 
L 65.104261 62.200742 
L 62.819493 61.415058 
L 60.472309 60.842178 
L 58.082484 60.48693 
L 55.670153 60.352307 
L 53.25564 60.439442 
L 50.859289 60.747603 
L 48.501288 61.274191 
L 46.201504 62.014771 
L 43.979314 62.963104 
L 41.853439 64.111199 
L 39.841791 65.449383 
L 37.961319 66.966383 
L 36.227865 68.649416 
L 34.656034 70.484304 
L 33.259069 72.455586 
L 32.048741 74.546655 
L 31.035245 76.739892 
L 30.227121 79.01682 
L 29.631178 81.358255 
L 29.252437 83.744469 
L 29.094088 86.155359 
L 29.157466 88.570612 
L 29.442036 90.96988 
L 29.945402 93.332947 
L 30.663321 95.639905 
L 31.589747 97.871317 
L 32.716872 100.008384 
L 34.035201 102.033099 
L 35.533628 103.928404 
L 37.199526 105.678332 
L 39.018862 107.268138 
L 40.976306 108.684428 
L 43.055366 109.91527 
L 45.238527 110.950293 
L 47.507394 111.780777 
L 49.842853 112.399726 
L 52.225226 112.801924 
L 54.634441 112.983983 
L 57.050201 112.94437 
L 59.452152 112.683417 
L 61.820057 112.203323 
L 64.133966 111.508133 
L 66.374384 110.603705 
L 68.522436 109.497658 
L 70.560022 108.199312 
L 72.469977 106.719603 
L 74.236209 105.071001 
L 75.843836 103.267394 
L 77.279315 101.323978 
L 78.530551 99.257127 
L 79.587001 97.084254 
L 80.439766 94.823666 
L 81.081661 92.49441 
L 81.507277 90.116109 
L 81.713029 87.708801 
L 81.733407 86.67324 
L 81.733407 86.67324 
" clip-path="url(#p771e28f251)" style="fill: none; stroke: #111111; stroke-width: 3; stroke-linecap: square"/>
    </g>
    <g id="PathCollection_1">
     <defs>
      <path id="m3edd7a6655" d="M 0 8.062258 
C 2.138136 8.062258 4.188987 7.212767 5.700877 5.700877 
C 7.212767 4.188987 8.062258 2.138136 8.062258 0 
C 8.062258 -2.138136 7.212767 -4.188987 5.700877 -5.700877 
C 4.188987 -7.212767 2.138136 -8.062258 0 -8.062258 
C -2.138136 -8.062258 -4.188987 -7.212767 -5.700877 -5.700877 
C -7.212767 -4.188987 -8.062258 -2.138136 -8.062258 0 
C -8.062258 2.138136 -7.212767 4.188987 -5.700877 5.700877 
C -4.188987 7.212767 -2.138136 8.062258 0 8.062258 
z
" style="stroke: #ffffff; stroke-width: 2.8"/>
     </defs>
     <g clip-path="url(#p771e28f251)">
      <use xlink:href="#m3edd7a6655" x="55.4112" y="60.351033" style="fill: #c62828; stroke: #ffffff; stroke-width: 2.8"/>
     </g>
    </g>
    <g id="PathCollection_2">
     <defs>
      <path id="m63cee634b8" d="M 0 8.062258 
C 2.138136 8.062258 4.188987 7.212767 5.700877 5.700877 
C 7.212767 4.188987 8.062258 2.138136 8.062258 0 
C 8.062258 -2.138136 7.212767 -4.188987 5.700877 -5.700877 
C 4.188987 -7.212767 2.138136 -8.062258 0 -8.062258 
C -2.138136 -8.062258 -4.188987 -7.212767 -5.700877 -5.700877 
C -7.212767 -4.188987 -8.062258 -2.138136 -8.062258 0 
C -8.062258 2.138136 -7.212767 4.188987 -5.700877 5.700877 
C -4.188987 7.212767 -2.138136 8.062258 0 8.062258 
z
" style="stroke: #ffffff; stroke-width: 2.8"/>
     </defs>
     <g clip-path="url(#p771e28f251)">
      <use xlink:href="#m63cee634b8" x="34.879879" y="101.94012" style="fill: #1e5aa8; stroke: #ffffff; stroke-width: 2.8"/>
     </g>
    </g>
    <g id="PathCollection_3">
     <defs>
      <path id="m4850c2dd23" d="M 0 8.062258 
C 2.138136 8.062258 4.188987 7.212767 5.700877 5.700877 
C 7.212767 4.188987 8.062258 2.138136 8.062258 0 
C 8.062258 -2.138136 7.212767 -4.188987 5.700877 -5.700877 
C 4.188987 -7.212767 2.138136 -8.062258 0 -8.062258 
C -2.138136 -8.062258 -4.188987 -7.212767 -5.700877 -5.700877 
C -7.212767 -4.188987 -8.062258 -2.138136 -8.062258 0 
C -8.062258 2.138136 -7.212767 4.188987 -5.700877 5.700877 
C -4.188987 7.212767 -2.138136 8.062258 0 8.062258 
z
" style="stroke: #ffffff; stroke-width: 2.8"/>
     </defs>
     <g clip-path="url(#p771e28f251)">
      <use xlink:href="#m4850c2dd23" x="75.942521" y="101.94012" style="fill: #2e7d32; stroke: #ffffff; stroke-width: 2.8"/>
     </g>
    </g>
   </g>
   <g id="axes_3">
    <g id="line2d_20">
     <path d="M 152.5032 112.995447 
L 154.916739 112.884562 
L 157.309943 112.552842 
L 159.662649 112.003081 
L 161.955036 111.239912 
L 164.167789 110.269764 
L 166.282266 109.10081 
L 168.280652 107.742901 
L 170.146109 106.207475 
L 171.862922 104.50747 
L 173.416625 102.657207 
L 174.794129 100.672277 
L 175.983828 98.569403 
L 176.975698 96.366301 
L 177.761382 94.081533 
L 178.334262 91.734349 
L 178.68951 89.344524 
L 178.824133 86.932193 
L 178.736998 84.51768 
L 178.428837 82.121329 
L 177.902249 79.763328 
L 177.161669 77.463544 
L 176.213336 75.241354 
L 175.065241 73.115479 
L 173.727057 71.103831 
L 172.210057 69.223359 
L 170.527024 67.489905 
L 168.692136 65.918074 
L 166.720854 64.521109 
L 164.629785 63.310781 
L 162.436548 62.297285 
L 160.15962 61.489161 
L 157.818185 60.893218 
L 155.431971 60.514477 
L 153.021081 60.356128 
L 150.605828 60.419506 
L 148.20656 60.704076 
L 145.843493 61.207442 
L 143.536535 61.925361 
L 141.305123 62.851787 
L 139.168056 63.978912 
L 137.143341 65.297241 
L 135.248036 66.795668 
L 133.498108 68.461566 
L 131.908302 70.280902 
L 130.492012 72.238346 
L 129.26117 74.317406 
L 128.226147 76.500567 
L 127.395663 78.769434 
L 126.776714 81.104893 
L 126.374516 83.487266 
L 126.192457 85.896481 
L 126.23207 88.312241 
L 126.493023 90.714192 
L 126.973117 93.082097 
L 127.668307 95.396006 
L 128.572735 97.636424 
L 129.678782 99.784476 
L 130.977128 101.822062 
L 132.456837 103.732017 
L 134.105439 105.498249 
L 135.909046 107.105876 
L 137.852462 108.541355 
L 139.919313 109.792591 
L 142.092186 110.849041 
L 144.352774 111.701806 
L 146.68203 112.343701 
L 149.060331 112.769317 
L 151.467639 112.975069 
L 152.5032 112.995447 
L 152.5032 112.995447 
" clip-path="url(#p1814b80016)" style="fill: none; stroke: #111111; stroke-width: 3; stroke-linecap: square"/>
    </g>
    <g id="PathCollection_4">
     <g clip-path="url(#p1814b80016)">
      <use xlink:href="#m3edd7a6655" x="178.825407" y="86.67324" style="fill: #c62828; stroke: #ffffff; stroke-width: 2.8"/>
     </g>
    </g>
    <g id="PathCollection_5">
     <g clip-path="url(#p1814b80016)">
      <use xlink:href="#m63cee634b8" x="137.23632" y="66.141919" style="fill: #1e5aa8; stroke: #ffffff; stroke-width: 2.8"/>
     </g>
    </g>
    <g id="PathCollection_6">
     <g clip-path="url(#p1814b80016)">
      <use xlink:href="#m4850c2dd23" x="137.23632" y="107.204561" style="fill: #2e7d32; stroke: #ffffff; stroke-width: 2.8"/>
     </g>
    </g>
   </g>
   <g id="axes_4">
    <g id="line2d_21">
     <path d="M 249.5952 112.995447 
L 250.681292 112.884562 
L 251.758234 112.552842 
L 252.816952 112.003081 
L 253.993168 111.11382 
L 255.120997 109.955663 
L 256.188032 108.541355 
L 257.301191 106.663554 
L 258.307075 104.50747 
L 259.191681 102.103115 
L 260.017422 99.181243 
L 260.664091 96.044463 
L 261.120578 92.746669 
L 261.379039 89.344524 
L 261.435035 85.896481 
L 261.287601 82.461785 
L 260.939273 79.099448 
L 260.396034 75.867242 
L 259.667219 72.820701 
L 258.765349 70.01217 
L 257.818455 67.727972 
L 256.757085 65.707511 
L 255.596015 63.978912 
L 254.493292 62.706952 
L 253.336682 61.698668 
L 252.138907 60.965153 
L 251.067439 60.555144 
L 249.983566 60.365185 
L 248.896422 60.396877 
L 247.815164 60.649952 
L 246.748904 61.122278 
L 245.706625 61.809875 
L 244.556065 62.851787 
L 243.460946 64.15578 
L 242.433315 65.707511 
L 241.371945 67.727972 
L 240.425051 70.01217 
L 239.523181 72.820701 
L 238.794366 75.867242 
L 238.251127 79.099448 
L 237.902799 82.461785 
L 237.755365 85.896481 
L 237.811361 89.344524 
L 238.069822 92.746669 
L 238.526309 96.044463 
L 239.172978 99.181243 
L 239.998719 102.103115 
L 240.989343 104.759875 
L 242.007867 106.886454 
L 243.132014 108.731646 
L 244.346135 110.269764 
L 245.487247 111.361778 
L 246.673555 112.182169 
L 247.738398 112.670025 
L 248.818885 112.938854 
L 249.5952 112.995447 
L 249.5952 112.995447 
" clip-path="url(#pbe2e007815)" style="fill: none; stroke: #111111; stroke-width: 3; stroke-linecap: square"/>
    </g>
    <g id="PathCollection_7">
     <g clip-path="url(#pbe2e007815)">
      <use xlink:href="#m3edd7a6655" x="261.440193" y="86.67324" style="fill: #c62828; stroke: #ffffff; stroke-width: 2.8"/>
     </g>
    </g>
    <g id="PathCollection_8">
     <g clip-path="url(#pbe2e007815)">
      <use xlink:href="#m63cee634b8" x="242.725104" y="66.141919" style="fill: #1e5aa8; stroke: #ffffff; stroke-width: 2.8"/>
     </g>
    </g>
    <g id="PathCollection_9">
     <g clip-path="url(#pbe2e007815)">
      <use xlink:href="#m4850c2dd23" x="242.725104" y="107.204561" style="fill: #2e7d32; stroke: #ffffff; stroke-width: 2.8"/>
     </g>
    </g>
   </g>
   <g id="axes_5">
    <g id="line2d_22">
     <path d="M 328.074589 105.285851 
L 328.92098 105.975427 
L 329.917054 106.502378 
L 331.05442 106.862265 
L 332.514933 107.065172 
L 334.131369 107.043728 
L 335.885944 106.798169 
L 338.000871 106.257485 
L 340.236721 105.44417 
L 342.562368 104.369546 
L 345.21233 102.887358 
L 347.887632 101.126583 
L 350.54231 99.117476 
L 353.13075 96.894556 
L 355.608479 94.496016 
L 357.932925 91.963068 
L 360.064151 89.339231 
L 361.965538 86.669588 
L 363.604417 84.000009 
L 364.95263 81.376359 
L 365.898247 79.091632 
L 366.576427 76.912448 
L 366.97773 74.869144 
L 367.097399 73.189989 
L 366.992517 71.659177 
L 366.664235 70.29355 
L 366.196513 69.245987 
L 365.56442 68.345252 
L 364.773284 67.598934 
L 363.829768 67.013321 
L 362.741824 66.593346 
L 361.518616 66.342549 
L 359.968305 66.265722 
L 358.271876 66.413419 
L 356.447992 66.784013 
L 354.268808 67.462193 
L 351.984081 68.40781 
L 349.360431 69.756023 
L 346.690852 71.394902 
L 344.021209 73.296289 
L 341.397372 75.427515 
L 338.864424 77.751961 
L 336.465884 80.22969 
L 334.242964 82.81813 
L 332.233857 85.472808 
L 330.473082 88.14811 
L 328.990894 90.798072 
L 327.812758 93.377163 
L 327.029245 95.601087 
L 326.519389 97.700726 
L 326.290288 99.646852 
L 326.325007 101.225911 
L 326.583749 102.644862 
L 326.99174 103.742786 
L 327.565669 104.696896 
L 328.074589 105.285851 
L 328.074589 105.285851 
" clip-path="url(#p5c1c307411)" style="fill: none; stroke: #111111; stroke-width: 3; stroke-linecap: square"/>
    </g>
    <g id="PathCollection_10">
     <g clip-path="url(#p5c1c307411)">
      <use xlink:href="#m3edd7a6655" x="355.062875" y="95.048915" style="fill: #c62828; stroke: #ffffff; stroke-width: 2.8"/>
     </g>
    </g>
    <g id="PathCollection_11">
     <g clip-path="url(#p5c1c307411)">
      <use xlink:href="#m63cee634b8" x="356.347145" y="67.297512" style="fill: #1e5aa8; stroke: #ffffff; stroke-width: 2.8"/>
     </g>
    </g>
    <g id="PathCollection_12">
     <g clip-path="url(#p5c1c307411)">
      <use xlink:href="#m4850c2dd23" x="327.311472" y="96.333185" style="fill: #2e7d32; stroke: #ffffff; stroke-width: 2.8"/>
     </g>
    </g>
   </g>
  </g>
 </g>
 <defs>
  <clipPath id="p83ba4a92e9">
   <rect x="7.2" y="7.2" width="401.76" height="260.568"/>
  </clipPath>
  <clipPath id="p771e28f251">
   <rect x="17.244" y="48.50604" width="76.3344" height="76.3344"/>
  </clipPath>
  <clipPath id="p1814b80016">
   <rect x="114.336" y="48.50604" width="76.3344" height="76.3344"/>
  </clipPath>
  <clipPath id="pbe2e007815">
   <rect x="211.428" y="48.50604" width="76.3344" height="76.3344"/>
  </clipPath>
  <clipPath id="p5c1c307411">
   <rect x="308.52" y="48.50604" width="76.3344" height="76.3344"/>
  </clipPath>
 </defs>
</svg>
