<?xml version="1.0" encoding="utf-8" standalone="no"?>
<!DOCTYPE svg PUBLIC "-//W3C//DTD SVG 1.1//EN"
  "http://www.w3.org/Graphics/SVG/1.1/DTD/svg11.dtd">
<svg xmlns:xlink="http://www.w3.org/1999/xlink" width="661.68pt" height="236.16pt" viewBox="0 0 661.68 236.16" xmlns="http://www.w3.org/2000/svg" version="1.1">
 <metadata>
  <rdf:RDF xmlns:dc="http://purl.org/dc/elements/1.1/" xmlns:cc="http://creativecommons.org/ns#" xmlns:rdf="http://www.w3.org/1999/02/22-rdf-syntax-ns#">
   <cc:Work>
    <dc:type rdf:resource="http://purl.org/dc/dcmitype/StillImage"/>
    <dc:date>2026-06-15T05:45:26.209571</dc:date>
    <dc:format>image/svg+xml</dc:format>
    <dc:creator>
     <cc:Agent>
      <dc:title>Matplotlib v3.11.0, https://matplotlib.org/</dc:title>
     </cc:Agent>
    </dc:creator>
   </cc:Work>
  </rdf:RDF>
 </metadata>
 <defs>
  <style type="text/css">*{stroke-linejoin: round; stroke-linecap: butt}</style>
 </defs>
 <g id="figure_1">
  <g id="patch_1">
   <path d="M 0 236.16 
L 661.68 236.16 
L 661.68 0 
L 0 0 
L 0 236.16 
z
" style="fill: none"/>
  </g>
  <g id="axes_1">
   <g id="patch_2">
    <path d="M 248.831897 100.375777 
Q 333.630433 47.166352 415.209064 98.355872 
" clip-path="url(#p9dff71c8b7)" style="fill: none; stroke: #111111; stroke-width: 3.4; stroke-linecap: round"/>
    <path d="M 408.698574 87.659447 
L 415.209064 98.355872 
L 402.745629 97.146409 
z
" clip-path="url(#p9dff71c8b7)" style="fill: #111111; stroke: #111111; stroke-width: 3.4; stroke-linecap: round"/>
   </g>
   <g id="text_1">
    <!-- lineare Transformation -->
    <g style="fill: #666666" transform="translate(245.726484 56.264484) scale(0.15 -0.15)">
     <defs>
      <path id="DejaVuSerif-4f" d="M 1313 331 
L 1856 331 
L 1856 0 
L 184 0 
L 184 331 
L 738 331 
L 738 4531 
L 184 4531 
L 184 4863 
L 1313 4863 
L 1313 331 
z
" transform="scale(0.015625)"/>
      <path id="DejaVuSerif-4c" d="M 622 4353 
Q 622 4497 726 4603 
Q 831 4709 978 4709 
Q 1122 4709 1226 4603 
Q 1331 4497 1331 4353 
Q 1331 4206 1228 4103 
Q 1125 4000 978 4000 
Q 831 4000 726 4103 
Q 622 4206 622 4353 
z
M 1356 331 
L 1900 331 
L 1900 0 
L 231 0 
L 231 331 
L 781 331 
L 781 2988 
L 231 2988 
L 231 3322 
L 1356 3322 
L 1356 331 
z
" transform="scale(0.015625)"/>
      <path id="DejaVuSerif-51" d="M 263 0 
L 263 331 
L 781 331 
L 781 2988 
L 231 2988 
L 231 3322 
L 1356 3322 
L 1356 2731 
Q 1516 3069 1770 3241 
Q 2025 3413 2363 3413 
Q 2913 3413 3172 3097 
Q 3431 2781 3431 2113 
L 3431 331 
L 3944 331 
L 3944 0 
L 2356 0 
L 2356 331 
L 2853 331 
L 2853 1931 
Q 2853 2541 2703 2767 
Q 2553 2994 2175 2994 
Q 1775 2994 1565 2701 
Q 1356 2409 1356 1850 
L 1356 331 
L 1856 331 
L 1856 0 
L 263 0 
z
" transform="scale(0.015625)"/>
      <path id="DejaVuSerif-48" d="M 3469 1600 
L 991 1600 
L 991 1575 
Q 991 903 1244 561 
Q 1497 219 1991 219 
Q 2369 219 2611 417 
Q 2853 616 2950 1006 
L 3413 1006 
Q 3275 459 2904 184 
Q 2534 -91 1931 -91 
Q 1203 -91 761 389 
Q 319 869 319 1663 
Q 319 2450 753 2931 
Q 1188 3413 1894 3413 
Q 2647 3413 3050 2948 
Q 3453 2484 3469 1600 
z
M 2791 1931 
Q 2772 2513 2545 2808 
Q 2319 3103 1894 3103 
Q 1497 3103 1269 2806 
Q 1041 2509 991 1931 
L 2791 1931 
z
" transform="scale(0.015625)"/>
      <path id="DejaVuSerif-44" d="M 2547 1044 
L 2547 1747 
L 1806 1747 
Q 1378 1747 1168 1562 
Q 959 1378 959 997 
Q 959 650 1171 447 
Q 1384 244 1747 244 
Q 2106 244 2326 466 
Q 2547 688 2547 1044 
z
M 3122 2075 
L 3122 331 
L 3634 331 
L 3634 0 
L 2547 0 
L 2547 359 
Q 2356 128 2106 18 
Q 1856 -91 1522 -91 
Q 969 -91 644 203 
Q 319 497 319 997 
Q 319 1513 691 1797 
Q 1063 2081 1741 2081 
L 2547 2081 
L 2547 2309 
Q 2547 2688 2317 2895 
Q 2088 3103 1672 3103 
Q 1328 3103 1125 2947 
Q 922 2791 872 2484 
L 575 2484 
L 575 3156 
Q 875 3284 1158 3348 
Q 1441 3413 1709 3413 
Q 2400 3413 2761 3070 
Q 3122 2728 3122 2075 
z
" transform="scale(0.015625)"/>
      <path id="DejaVuSerif-55" d="M 3059 3328 
L 3059 2497 
L 2728 2497 
Q 2713 2744 2591 2866 
Q 2469 2988 2234 2988 
Q 1809 2988 1582 2694 
Q 1356 2400 1356 1850 
L 1356 331 
L 2022 331 
L 2022 0 
L 263 0 
L 263 331 
L 781 331 
L 781 2994 
L 231 2994 
L 231 3322 
L 1356 3322 
L 1356 2731 
Q 1525 3078 1790 3245 
Q 2056 3413 2438 3413 
Q 2578 3413 2733 3391 
Q 2888 3369 3059 3328 
z
" transform="scale(0.015625)"/>
      <path id="DejaVuSerif-3" transform="scale(0.015625)"/>
      <path id="DejaVuSerif-37" d="M 1222 0 
L 1222 331 
L 1819 331 
L 1819 4294 
L 447 4294 
L 447 3566 
L 63 3566 
L 63 4666 
L 4206 4666 
L 4206 3566 
L 3822 3566 
L 3822 4294 
L 2450 4294 
L 2450 331 
L 3047 331 
L 3047 0 
L 1222 0 
z
" transform="scale(0.015625)"/>
      <path id="DejaVuSerif-56" d="M 359 184 
L 359 959 
L 691 959 
Q 703 588 923 403 
Q 1144 219 1575 219 
Q 1963 219 2166 364 
Q 2369 509 2369 788 
Q 2369 1006 2220 1140 
Q 2072 1275 1594 1428 
L 1178 1569 
Q 750 1706 558 1912 
Q 366 2119 366 2438 
Q 366 2894 700 3153 
Q 1034 3413 1625 3413 
Q 1888 3413 2178 3344 
Q 2469 3275 2778 3144 
L 2778 2419 
L 2447 2419 
Q 2434 2741 2221 2922 
Q 2009 3103 1644 3103 
Q 1281 3103 1095 2975 
Q 909 2847 909 2591 
Q 909 2381 1050 2254 
Q 1191 2128 1613 1997 
L 2069 1856 
Q 2541 1709 2748 1489 
Q 2956 1269 2956 922 
Q 2956 450 2595 179 
Q 2234 -91 1600 -91 
Q 1278 -91 972 -22 
Q 666 47 359 184 
z
" transform="scale(0.015625)"/>
      <path id="DejaVuSerif-49" d="M 2753 4078 
L 2450 4078 
Q 2447 4313 2317 4434 
Q 2188 4556 1941 4556 
Q 1619 4556 1487 4379 
Q 1356 4203 1356 3750 
L 1356 3322 
L 2284 3322 
L 2284 2988 
L 1356 2988 
L 1356 331 
L 2094 331 
L 2094 0 
L 231 0 
L 231 331 
L 781 331 
L 781 2988 
L 231 2988 
L 231 3322 
L 781 3322 
L 781 3738 
Q 781 4294 1070 4578 
Q 1359 4863 1919 4863 
Q 2128 4863 2337 4825 
Q 2547 4788 2753 4709 
L 2753 4078 
z
" transform="scale(0.015625)"/>
      <path id="DejaVuSerif-52" d="M 1925 219 
Q 2388 219 2623 584 
Q 2859 950 2859 1663 
Q 2859 2375 2623 2739 
Q 2388 3103 1925 3103 
Q 1463 3103 1227 2739 
Q 991 2375 991 1663 
Q 991 950 1228 584 
Q 1466 219 1925 219 
z
M 1925 -91 
Q 1200 -91 759 389 
Q 319 869 319 1663 
Q 319 2456 758 2934 
Q 1197 3413 1925 3413 
Q 2653 3413 3092 2934 
Q 3531 2456 3531 1663 
Q 3531 869 3092 389 
Q 2653 -91 1925 -91 
z
" transform="scale(0.015625)"/>
      <path id="DejaVuSerif-50" d="M 3316 2675 
Q 3481 3041 3739 3227 
Q 3997 3413 4341 3413 
Q 4863 3413 5119 3089 
Q 5375 2766 5375 2113 
L 5375 331 
L 5894 331 
L 5894 0 
L 4300 0 
L 4300 331 
L 4800 331 
L 4800 2047 
Q 4800 2556 4650 2772 
Q 4500 2988 4153 2988 
Q 3769 2988 3567 2697 
Q 3366 2406 3366 1850 
L 3366 331 
L 3866 331 
L 3866 0 
L 2291 0 
L 2291 331 
L 2791 331 
L 2791 2069 
Q 2791 2566 2641 2777 
Q 2491 2988 2144 2988 
Q 1759 2988 1557 2697 
Q 1356 2406 1356 1850 
L 1356 331 
L 1856 331 
L 1856 0 
L 263 0 
L 263 331 
L 781 331 
L 781 2994 
L 231 2994 
L 231 3322 
L 1356 3322 
L 1356 2731 
Q 1516 3063 1762 3238 
Q 2009 3413 2322 3413 
Q 2709 3413 2968 3220 
Q 3228 3028 3316 2675 
z
" transform="scale(0.015625)"/>
      <path id="DejaVuSerif-57" d="M 691 2988 
L 184 2988 
L 184 3322 
L 691 3322 
L 691 4353 
L 1269 4353 
L 1269 3322 
L 2350 3322 
L 2350 2988 
L 1269 2988 
L 1269 878 
Q 1269 456 1350 337 
Q 1431 219 1650 219 
Q 1875 219 1978 351 
Q 2081 484 2088 781 
L 2522 781 
Q 2497 328 2275 118 
Q 2053 -91 1600 -91 
Q 1103 -91 897 129 
Q 691 350 691 878 
L 691 2988 
z
" transform="scale(0.015625)"/>
     </defs>
     <use xlink:href="#DejaVuSerif-4f"/>
     <use xlink:href="#DejaVuSerif-4c" transform="translate(31.984375 0)"/>
     <use xlink:href="#DejaVuSerif-51" transform="translate(63.96875 0)"/>
     <use xlink:href="#DejaVuSerif-48" transform="translate(128.375 0)"/>
     <use xlink:href="#DejaVuSerif-44" transform="translate(187.5625 0)"/>
     <use xlink:href="#DejaVuSerif-55" transform="translate(247.1875 0)"/>
     <use xlink:href="#DejaVuSerif-48" transform="translate(294.984375 0)"/>
     <use xlink:href="#DejaVuSerif-3" transform="translate(354.171875 0)"/>
     <use xlink:href="#DejaVuSerif-37" transform="translate(385.953125 0)"/>
     <use xlink:href="#DejaVuSerif-55" transform="translate(452.65625 0)"/>
     <use xlink:href="#DejaVuSerif-44" transform="translate(500.453125 0)"/>
     <use xlink:href="#DejaVuSerif-51" transform="translate(560.078125 0)"/>
     <use xlink:href="#DejaVuSerif-56" transform="translate(624.484375 0)"/>
     <use xlink:href="#DejaVuSerif-49" transform="translate(675.796875 0)"/>
     <use xlink:href="#DejaVuSerif-52" transform="translate(712.8125 0)"/>
     <use xlink:href="#DejaVuSerif-55" transform="translate(773.015625 0)"/>
     <use xlink:href="#DejaVuSerif-50" transform="translate(820.8125 0)"/>
     <use xlink:href="#DejaVuSerif-44" transform="translate(915.640625 0)"/>
     <use xlink:href="#DejaVuSerif-57" transform="translate(975.265625 0)"/>
     <use xlink:href="#DejaVuSerif-4c" transform="translate(1015.453125 0)"/>
     <use xlink:href="#DejaVuSerif-52" transform="translate(1047.4375 0)"/>
     <use xlink:href="#DejaVuSerif-51" transform="translate(1107.640625 0)"/>
    </g>
   </g>
   <g id="axes_2">
    <g id="line2d_1">
     <path d="M 194.772414 118.08 
L 194.647462 114.271081 
L 194.273145 110.47854 
L 193.651071 106.718686 
L 192.783916 103.007686 
L 191.675408 99.361498 
L 190.330314 95.7958 
L 188.754418 92.325925 
L 186.954497 88.966794 
L 184.93829 85.732851 
L 182.714467 82.638002 
L 180.29259 79.695556 
L 177.683074 76.918164 
L 174.89714 74.31777 
L 171.946767 71.905555 
L 168.844642 69.691893 
L 165.604105 67.686302 
L 162.239089 65.897406 
L 158.764065 64.332898 
L 155.193975 62.999504 
L 151.544172 61.902959 
L 147.830348 61.047978 
L 144.068474 60.438238 
L 140.274726 60.076359 
L 136.465418 59.963899 
L 132.656929 60.10134 
L 128.865636 60.488093 
L 125.107842 61.122493 
L 121.399706 62.001813 
L 117.757172 63.122272 
L 114.195905 64.479052 
L 110.731216 66.066318 
L 107.378006 67.877245 
L 104.150692 69.904046 
L 101.063152 72.138007 
L 98.128664 74.56952 
L 95.359844 77.188129 
L 92.7686 79.982576 
L 90.366074 82.940844 
L 88.162597 86.050211 
L 86.167643 89.297308 
L 84.389792 92.668172 
L 82.836687 96.148308 
L 81.515008 99.722751 
L 80.430438 103.376131 
L 79.587641 107.092738 
L 78.99024 110.856591 
L 78.640804 114.651506 
L 78.540836 118.461162 
L 78.690766 122.26918 
L 79.08995 126.059184 
L 79.736669 129.814878 
L 80.628145 133.52011 
L 81.760543 137.15895 
L 83.128994 140.715749 
L 84.727613 144.175214 
L 86.549527 147.522468 
L 88.586901 150.743118 
L 90.830974 153.823315 
L 93.272097 156.749814 
L 95.899773 159.510031 
L 98.702702 162.092097 
L 101.668832 164.48491 
L 104.785409 166.678179 
L 108.03903 168.662473 
L 111.415706 170.429261 
L 114.900916 171.970944 
L 118.479674 173.280894 
L 122.136591 174.353478 
L 125.855943 175.184083 
L 129.621735 175.769138 
L 133.417774 176.106127 
L 137.227738 176.193601 
L 141.035244 176.031184 
L 144.823919 175.619575 
L 148.577471 174.960542 
L 152.279761 174.056921 
L 155.914867 172.912596 
L 159.46716 171.532489 
L 162.921363 169.922533 
L 166.262624 168.089653 
L 169.476576 166.041728 
L 172.549397 163.787566 
L 175.467876 161.336859 
L 178.219461 158.700146 
L 180.792322 155.888764 
L 183.175394 152.914803 
L 185.358431 149.791051 
L 187.332045 146.53094 
L 189.08775 143.148488 
L 190.617996 139.658241 
L 191.916204 136.075207 
L 192.976789 132.414792 
L 193.795193 128.692737 
L 194.367896 124.925046 
L 194.692434 121.127922 
L 194.772414 118.08 
L 194.772414 118.08 
" clip-path="url(#pab8658091f)" style="fill: none; stroke: #111111; stroke-width: 3; stroke-linecap: square"/>
    </g>
    <g id="PathCollection_1">
     <defs>
      <path id="m9781597736" d="M 0 8.062258 
C 2.138136 8.062258 4.188987 7.212767 5.700877 5.700877 
C 7.212767 4.188987 8.062258 2.138136 8.062258 0 
C 8.062258 -2.138136 7.212767 -4.188987 5.700877 -5.700877 
C 4.188987 -7.212767 2.138136 -8.062258 0 -8.062258 
C -2.138136 -8.062258 -4.188987 -7.212767 -5.700877 -5.700877 
C -7.212767 -4.188987 -8.062258 -2.138136 -8.062258 0 
C -8.062258 2.138136 -7.212767 4.188987 -5.700877 5.700877 
C -4.188987 7.212767 -2.138136 8.062258 0 8.062258 
z
" style="stroke: #ffffff; stroke-width: 2.8"/>
     </defs>
     <g clip-path="url(#pab8658091f)">
      <use xlink:href="#m9781597736" x="136.656" y="59.963586" style="fill: #c62828; stroke: #ffffff; stroke-width: 2.8"/>
     </g>
    </g>
    <g id="PathCollection_2">
     <defs>
      <path id="m3ed889c479" d="M 0 8.062258 
C 2.138136 8.062258 4.188987 7.212767 5.700877 5.700877 
C 7.212767 4.188987 8.062258 2.138136 8.062258 0 
C 8.062258 -2.138136 7.212767 -4.188987 5.700877 -5.700877 
C 4.188987 -7.212767 2.138136 -8.062258 0 -8.062258 
C -2.138136 -8.062258 -4.188987 -7.212767 -5.700877 -5.700877 
C -7.212767 -4.188987 -8.062258 -2.138136 -8.062258 0 
C -8.062258 2.138136 -7.212767 4.188987 -5.700877 5.700877 
C -4.188987 7.212767 -2.138136 8.062258 0 8.062258 
z
" style="stroke: #ffffff; stroke-width: 2.8"/>
     </defs>
     <g clip-path="url(#pab8658091f)">
      <use xlink:href="#m3ed889c479" x="91.325197" y="151.78752" style="fill: #1e5aa8; stroke: #ffffff; stroke-width: 2.8"/>
     </g>
    </g>
    <g id="PathCollection_3">
     <defs>
      <path id="m6f6537708e" d="M 0 8.062258 
C 2.138136 8.062258 4.188987 7.212767 5.700877 5.700877 
C 7.212767 4.188987 8.062258 2.138136 8.062258 0 
C 8.062258 -2.138136 7.212767 -4.188987 5.700877 -5.700877 
C 4.188987 -7.212767 2.138136 -8.062258 0 -8.062258 
C -2.138136 -8.062258 -4.188987 -7.212767 -5.700877 -5.700877 
C -7.212767 -4.188987 -8.062258 -2.138136 -8.062258 0 
C -8.062258 2.138136 -7.212767 4.188987 -5.700877 5.700877 
C -4.188987 7.212767 -2.138136 8.062258 0 8.062258 
z
" style="stroke: #ffffff; stroke-width: 2.8"/>
     </defs>
     <g clip-path="url(#pab8658091f)">
      <use xlink:href="#m6f6537708e" x="181.986803" y="151.78752" style="fill: #2e7d32; stroke: #ffffff; stroke-width: 2.8"/>
     </g>
    </g>
    <g id="text_2">
     <!-- Ausgangsform -->
     <g style="fill: #666666" transform="translate(81.819281 207.934815) scale(0.15 -0.15)">
      <defs>
       <path id="DejaVuSerif-24" d="M 1281 1691 
L 2994 1691 
L 2138 3909 
L 1281 1691 
z
M -38 0 
L -38 331 
L 372 331 
L 2034 4666 
L 2559 4666 
L 4225 331 
L 4684 331 
L 4684 0 
L 2988 0 
L 2988 331 
L 3506 331 
L 3116 1356 
L 1153 1356 
L 763 331 
L 1275 331 
L 1275 0 
L -38 0 
z
" transform="scale(0.015625)"/>
       <path id="DejaVuSerif-58" d="M 2266 3322 
L 3341 3322 
L 3341 331 
L 3884 331 
L 3884 0 
L 2766 0 
L 2766 588 
Q 2606 256 2353 82 
Q 2100 -91 1766 -91 
Q 1213 -91 952 223 
Q 691 538 691 1209 
L 691 2988 
L 172 2988 
L 172 3322 
L 1269 3322 
L 1269 1388 
Q 1269 781 1417 556 
Q 1566 331 1947 331 
Q 2347 331 2556 625 
Q 2766 919 2766 1478 
L 2766 2988 
L 2266 2988 
L 2266 3322 
z
" transform="scale(0.015625)"/>
       <path id="DejaVuSerif-4a" d="M 3359 2988 
L 3359 72 
Q 3359 -644 2965 -1033 
Q 2572 -1422 1844 -1422 
Q 1516 -1422 1216 -1362 
Q 916 -1303 641 -1184 
L 641 -488 
L 941 -488 
Q 997 -813 1206 -963 
Q 1416 -1113 1806 -1113 
Q 2313 -1113 2548 -827 
Q 2784 -541 2784 72 
L 2784 519 
Q 2616 206 2355 57 
Q 2094 -91 1709 -91 
Q 1097 -91 708 395 
Q 319 881 319 1663 
Q 319 2444 706 2928 
Q 1094 3413 1709 3413 
Q 2094 3413 2355 3264 
Q 2616 3116 2784 2803 
L 2784 3322 
L 3909 3322 
L 3909 2988 
L 3359 2988 
z
M 2784 1825 
Q 2784 2422 2554 2737 
Q 2325 3053 1888 3053 
Q 1444 3053 1217 2703 
Q 991 2353 991 1663 
Q 991 975 1217 622 
Q 1444 269 1888 269 
Q 2325 269 2554 583 
Q 2784 897 2784 1497 
L 2784 1825 
z
" transform="scale(0.015625)"/>
      </defs>
      <use xlink:href="#DejaVuSerif-24"/>
      <use xlink:href="#DejaVuSerif-58" transform="translate(72.21875 0)"/>
      <use xlink:href="#DejaVuSerif-56" transform="translate(136.625 0)"/>
      <use xlink:href="#DejaVuSerif-4a" transform="translate(187.9375 0)"/>
      <use xlink:href="#DejaVuSerif-44" transform="translate(251.953125 0)"/>
      <use xlink:href="#DejaVuSerif-51" transform="translate(311.578125 0)"/>
      <use xlink:href="#DejaVuSerif-4a" transform="translate(375.984375 0)"/>
      <use xlink:href="#DejaVuSerif-56" transform="translate(440 0)"/>
      <use xlink:href="#DejaVuSerif-49" transform="translate(491.3125 0)"/>
      <use xlink:href="#DejaVuSerif-52" transform="translate(528.328125 0)"/>
      <use xlink:href="#DejaVuSerif-55" transform="translate(588.53125 0)"/>
      <use xlink:href="#DejaVuSerif-50" transform="translate(636.328125 0)"/>
     </g>
    </g>
   </g>
   <g id="axes_3">
    <g id="line2d_2">
     <path d="M 496.87509 159.17451 
L 498.175435 160.298147 
L 499.646896 161.240243 
L 501.283147 161.996749 
L 503.077151 162.564411 
L 505.021195 162.940787 
L 507.106918 163.12426 
L 509.325352 163.114041 
L 511.666957 162.910174 
L 514.625258 162.411209 
L 517.728086 161.637787 
L 520.956232 160.594694 
L 524.289708 159.288389 
L 527.707878 157.726959 
L 531.189579 155.920071 
L 535.303087 153.516809 
L 539.439061 150.814986 
L 543.562654 147.837364 
L 547.639125 144.609031 
L 551.634128 141.157185 
L 555.514005 137.51091 
L 559.246067 133.700926 
L 562.798871 129.759333 
L 566.142483 125.719339 
L 569.248734 121.614982 
L 572.091452 117.480842 
L 574.646687 113.351751 
L 576.892911 109.262495 
L 578.811198 105.247529 
L 580.182105 101.890922 
L 581.291671 98.634543 
L 582.133026 95.498552 
L 582.700961 92.502365 
L 582.991961 89.664532 
L 583.02156 87.433342 
L 582.857435 85.333935 
L 582.500289 83.375337 
L 581.95166 81.565971 
L 581.213906 79.913616 
L 580.290199 78.425379 
L 579.184512 77.107659 
L 577.901598 75.966121 
L 576.446976 75.005675 
L 574.826899 74.230451 
L 573.048333 73.643782 
L 571.118928 73.24819 
L 569.046979 73.045377 
L 566.841396 73.036215 
L 564.511663 73.220744 
L 561.566246 73.696674 
L 558.474739 74.447384 
L 555.256284 75.468229 
L 551.930805 76.752886 
L 548.518891 78.293403 
L 545.041666 80.080243 
L 540.931093 82.461373 
L 536.795568 85.142597 
L 532.669936 88.101325 
L 528.588954 91.312628 
L 524.587005 94.749452 
L 520.697808 98.38284 
L 516.954129 102.18218 
L 513.387509 106.115463 
L 510.027997 110.149549 
L 506.903899 114.25045 
L 504.041536 118.383616 
L 501.465022 122.514225 
L 499.196067 126.607474 
L 497.253786 130.628877 
L 495.861462 133.992906 
L 494.729833 137.258417 
L 493.865905 140.405193 
L 493.275026 143.413751 
L 492.960856 146.265466 
L 492.911877 148.509315 
L 493.056649 150.622317 
L 493.394548 152.595385 
L 493.924121 154.420035 
L 494.643092 156.088422 
L 495.54837 157.59337 
L 496.63606 158.92841 
L 496.87509 159.17451 
L 496.87509 159.17451 
" clip-path="url(#p3db9509e26)" style="fill: none; stroke: #111111; stroke-width: 3; stroke-linecap: square"/>
    </g>
    <g id="PathCollection_4">
     <g clip-path="url(#p3db9509e26)">
      <use xlink:href="#m9781597736" x="556.46213" y="136.57253" style="fill: #c62828; stroke: #ffffff; stroke-width: 2.8"/>
     </g>
    </g>
    <g id="PathCollection_5">
     <g clip-path="url(#p3db9509e26)">
      <use xlink:href="#m3ed889c479" x="559.297651" y="75.300615" style="fill: #1e5aa8; stroke: #ffffff; stroke-width: 2.8"/>
     </g>
    </g>
    <g id="PathCollection_6">
     <g clip-path="url(#p3db9509e26)">
      <use xlink:href="#m6f6537708e" x="495.190215" y="139.408051" style="fill: #2e7d32; stroke: #ffffff; stroke-width: 2.8"/>
     </g>
    </g>
    <g id="text_3">
     <!-- Zielbild -->
     <g style="fill: #666666" transform="translate(509.121553 207.934815) scale(0.15 -0.15)">
      <defs>
       <path id="DejaVuSerif-3d" d="M 288 0 
L 288 225 
L 3194 4281 
L 781 4281 
L 781 3584 
L 397 3584 
L 397 4666 
L 4084 4666 
L 4084 4441 
L 1178 384 
L 3816 384 
L 3816 1038 
L 4197 1038 
L 4197 0 
L 288 0 
z
" transform="scale(0.015625)"/>
       <path id="DejaVuSerif-45" d="M 738 331 
L 738 4531 
L 184 4531 
L 184 4863 
L 1313 4863 
L 1313 2803 
Q 1481 3116 1742 3264 
Q 2003 3413 2388 3413 
Q 3000 3413 3387 2928 
Q 3775 2444 3775 1663 
Q 3775 881 3387 395 
Q 3000 -91 2388 -91 
Q 2003 -91 1742 57 
Q 1481 206 1313 519 
L 1313 0 
L 184 0 
L 184 331 
L 738 331 
z
M 1313 1497 
Q 1313 897 1542 583 
Q 1772 269 2209 269 
Q 2650 269 2876 622 
Q 3103 975 3103 1663 
Q 3103 2353 2876 2703 
Q 2650 3053 2209 3053 
Q 1772 3053 1542 2737 
Q 1313 2422 1313 1825 
L 1313 1497 
z
" transform="scale(0.015625)"/>
       <path id="DejaVuSerif-47" d="M 3359 331 
L 3909 331 
L 3909 0 
L 2784 0 
L 2784 519 
Q 2616 206 2355 57 
Q 2094 -91 1709 -91 
Q 1097 -91 708 395 
Q 319 881 319 1663 
Q 319 2444 706 2928 
Q 1094 3413 1709 3413 
Q 2094 3413 2355 3264 
Q 2616 3116 2784 2803 
L 2784 4531 
L 2241 4531 
L 2241 4863 
L 3359 4863 
L 3359 331 
z
M 2784 1497 
L 2784 1825 
Q 2784 2422 2554 2737 
Q 2325 3053 1888 3053 
Q 1444 3053 1217 2703 
Q 991 2353 991 1663 
Q 991 975 1217 622 
Q 1444 269 1888 269 
Q 2325 269 2554 583 
Q 2784 897 2784 1497 
z
" transform="scale(0.015625)"/>
      </defs>
      <use xlink:href="#DejaVuSerif-3d"/>
      <use xlink:href="#DejaVuSerif-4c" transform="translate(69.484375 0)"/>
      <use xlink:href="#DejaVuSerif-48" transform="translate(101.46875 0)"/>
      <use xlink:href="#DejaVuSerif-4f" transform="translate(160.65625 0)"/>
      <use xlink:href="#DejaVuSerif-45" transform="translate(192.640625 0)"/>
      <use xlink:href="#DejaVuSerif-4c" transform="translate(256.65625 0)"/>
      <use xlink:href="#DejaVuSerif-4f" transform="translate(288.640625 0)"/>
      <use xlink:href="#DejaVuSerif-47" transform="translate(320.625 0)"/>
     </g>
    </g>
   </g>
  </g>
 </g>
 <defs>
  <clipPath id="p9dff71c8b7">
   <rect x="7.2" y="7.2" width="647.28" height="221.76"/>
  </clipPath>
  <clipPath id="pab8658091f">
   <rect x="52.3872" y="33.8112" width="168.5376" height="168.5376"/>
  </clipPath>
  <clipPath id="p3db9509e26">
   <rect x="453.7008" y="33.8112" width="168.5376" height="168.5376"/>
  </clipPath>
 </defs>
</svg>
