<?xml version="1.0" encoding="utf-8" standalone="no"?>
<!DOCTYPE svg PUBLIC "-//W3C//DTD SVG 1.1//EN"
  "http://www.w3.org/Graphics/SVG/1.1/DTD/svg11.dtd">
<svg xmlns:xlink="http://www.w3.org/1999/xlink" width="684pt" height="250.02pt" viewBox="0 0 684 250.02" xmlns="http://www.w3.org/2000/svg" version="1.1">
 <metadata>
  <rdf:RDF xmlns:dc="http://purl.org/dc/elements/1.1/" xmlns:cc="http://creativecommons.org/ns#" xmlns:rdf="http://www.w3.org/1999/02/22-rdf-syntax-ns#">
   <cc:Work>
    <dc:type rdf:resource="http://purl.org/dc/dcmitype/StillImage"/>
    <dc:date>2026-06-09T18:12:52.861979</dc:date>
    <dc:format>image/svg+xml</dc:format>
    <dc:creator>
     <cc:Agent>
      <dc:title>Matplotlib v3.10.9, https://matplotlib.org/</dc:title>
     </cc:Agent>
    </dc:creator>
   </cc:Work>
  </rdf:RDF>
 </metadata>
 <defs>
  <style type="text/css">*{stroke-linejoin: round; stroke-linecap: butt}</style>
 </defs>
 <g id="figure_1">
  <g id="patch_1">
   <path d="M 0 250.02 
L 684 250.02 
L 684 0 
L 0 0 
L 0 250.02 
z
" style="fill: none"/>
  </g>
  <g id="axes_1">
   <g id="patch_2">
    <path d="M 148.703882 101.448 
Q 167.069012 101.448 182.75086 101.448 
" clip-path="url(#p1279e298ab)" style="fill: none; stroke: #111111; stroke-width: 2.4; stroke-linecap: round"/>
    <path d="M 174.35086 97.248 
L 182.75086 101.448 
L 174.35086 105.648 
z
" clip-path="url(#p1279e298ab)" style="fill: #111111; stroke: #111111; stroke-width: 2.4; stroke-linecap: round"/>
   </g>
   <g id="patch_3">
    <path d="M 310.523882 101.448 
Q 328.889012 101.448 344.57086 101.448 
" clip-path="url(#p1279e298ab)" style="fill: none; stroke: #111111; stroke-width: 2.4; stroke-linecap: round"/>
    <path d="M 336.17086 97.248 
L 344.57086 101.448 
L 336.17086 105.648 
z
" clip-path="url(#p1279e298ab)" style="fill: #111111; stroke: #111111; stroke-width: 2.4; stroke-linecap: round"/>
   </g>
   <g id="patch_4">
    <path d="M 472.343882 101.448 
Q 490.709012 101.448 506.39086 101.448 
" clip-path="url(#p1279e298ab)" style="fill: none; stroke: #111111; stroke-width: 2.4; stroke-linecap: round"/>
    <path d="M 497.99086 97.248 
L 506.39086 101.448 
L 497.99086 105.648 
z
" clip-path="url(#p1279e298ab)" style="fill: #111111; stroke: #111111; stroke-width: 2.4; stroke-linecap: round"/>
   </g>
   <g id="text_1">
    <!-- Rotation -->
    <g style="fill: #111111" transform="translate(134.659969 177.659063) scale(0.15 -0.15)">
     <defs>
      <path id="DejaVuSerif-52" d="M 3066 2316 
Q 3284 2256 3442 2114 
Q 3600 1972 3725 1716 
L 4403 331 
L 4972 331 
L 4972 0 
L 3872 0 
L 3144 1484 
Q 2934 1916 2759 2042 
Q 2584 2169 2278 2169 
L 1581 2169 
L 1581 331 
L 2241 331 
L 2241 0 
L 353 0 
L 353 331 
L 947 331 
L 947 4331 
L 353 4331 
L 353 4666 
L 2719 4666 
Q 3400 4666 3770 4341 
Q 4141 4016 4141 3419 
Q 4141 2938 3870 2661 
Q 3600 2384 3066 2316 
z
M 1581 2503 
L 2503 2503 
Q 2975 2503 3200 2726 
Q 3425 2950 3425 3419 
Q 3425 3888 3200 4109 
Q 2975 4331 2503 4331 
L 1581 4331 
L 1581 2503 
z
" transform="scale(0.015625)"/>
      <path id="DejaVuSerif-6f" d="M 1925 219 
Q 2388 219 2623 584 
Q 2859 950 2859 1663 
Q 2859 2375 2623 2739 
Q 2388 3103 1925 3103 
Q 1463 3103 1227 2739 
Q 991 2375 991 1663 
Q 991 950 1228 584 
Q 1466 219 1925 219 
z
M 1925 -91 
Q 1200 -91 759 389 
Q 319 869 319 1663 
Q 319 2456 758 2934 
Q 1197 3413 1925 3413 
Q 2653 3413 3092 2934 
Q 3531 2456 3531 1663 
Q 3531 869 3092 389 
Q 2653 -91 1925 -91 
z
" transform="scale(0.015625)"/>
      <path id="DejaVuSerif-74" d="M 691 2988 
L 184 2988 
L 184 3322 
L 691 3322 
L 691 4353 
L 1269 4353 
L 1269 3322 
L 2350 3322 
L 2350 2988 
L 1269 2988 
L 1269 878 
Q 1269 456 1350 337 
Q 1431 219 1650 219 
Q 1875 219 1978 351 
Q 2081 484 2088 781 
L 2522 781 
Q 2497 328 2275 118 
Q 2053 -91 1600 -91 
Q 1103 -91 897 129 
Q 691 350 691 878 
L 691 2988 
z
" transform="scale(0.015625)"/>
      <path id="DejaVuSerif-61" d="M 2547 1044 
L 2547 1747 
L 1806 1747 
Q 1378 1747 1168 1562 
Q 959 1378 959 997 
Q 959 650 1171 447 
Q 1384 244 1747 244 
Q 2106 244 2326 466 
Q 2547 688 2547 1044 
z
M 3122 2075 
L 3122 331 
L 3634 331 
L 3634 0 
L 2547 0 
L 2547 359 
Q 2356 128 2106 18 
Q 1856 -91 1522 -91 
Q 969 -91 644 203 
Q 319 497 319 997 
Q 319 1513 691 1797 
Q 1063 2081 1741 2081 
L 2547 2081 
L 2547 2309 
Q 2547 2688 2317 2895 
Q 2088 3103 1672 3103 
Q 1328 3103 1125 2947 
Q 922 2791 872 2484 
L 575 2484 
L 575 3156 
Q 875 3284 1158 3348 
Q 1441 3413 1709 3413 
Q 2400 3413 2761 3070 
Q 3122 2728 3122 2075 
z
" transform="scale(0.015625)"/>
      <path id="DejaVuSerif-69" d="M 622 4353 
Q 622 4497 726 4603 
Q 831 4709 978 4709 
Q 1122 4709 1226 4603 
Q 1331 4497 1331 4353 
Q 1331 4206 1228 4103 
Q 1125 4000 978 4000 
Q 831 4000 726 4103 
Q 622 4206 622 4353 
z
M 1356 331 
L 1900 331 
L 1900 0 
L 231 0 
L 231 331 
L 781 331 
L 781 2988 
L 231 2988 
L 231 3322 
L 1356 3322 
L 1356 331 
z
" transform="scale(0.015625)"/>
      <path id="DejaVuSerif-6e" d="M 263 0 
L 263 331 
L 781 331 
L 781 2988 
L 231 2988 
L 231 3322 
L 1356 3322 
L 1356 2731 
Q 1516 3069 1770 3241 
Q 2025 3413 2363 3413 
Q 2913 3413 3172 3097 
Q 3431 2781 3431 2113 
L 3431 331 
L 3944 331 
L 3944 0 
L 2356 0 
L 2356 331 
L 2853 331 
L 2853 1931 
Q 2853 2541 2703 2767 
Q 2553 2994 2175 2994 
Q 1775 2994 1565 2701 
Q 1356 2409 1356 1850 
L 1356 331 
L 1856 331 
L 1856 0 
L 263 0 
z
" transform="scale(0.015625)"/>
     </defs>
     <use xlink:href="#DejaVuSerif-52"/>
     <use xlink:href="#DejaVuSerif-6f" transform="translate(75.292969 0)"/>
     <use xlink:href="#DejaVuSerif-74" transform="translate(135.498047 0)"/>
     <use xlink:href="#DejaVuSerif-61" transform="translate(175.683594 0)"/>
     <use xlink:href="#DejaVuSerif-74" transform="translate(235.302734 0)"/>
     <use xlink:href="#DejaVuSerif-69" transform="translate(275.488281 0)"/>
     <use xlink:href="#DejaVuSerif-6f" transform="translate(307.470703 0)"/>
     <use xlink:href="#DejaVuSerif-6e" transform="translate(367.675781 0)"/>
    </g>
   </g>
   <g id="text_2">
    <!-- R_-90° -->
    <g style="fill: #666666" transform="translate(136.796063 207.460856) scale(0.18 -0.18)">
     <defs>
      <path id="DejaVuSerif-5f" d="M 3200 -1259 
L 3200 -1509 
L 0 -1509 
L 0 -1259 
L 3200 -1259 
z
" transform="scale(0.015625)"/>
      <path id="DejaVuSerif-2d" d="M 281 1959 
L 1881 1959 
L 1881 1472 
L 281 1472 
L 281 1959 
z
" transform="scale(0.015625)"/>
      <path id="DejaVuSerif-39" d="M 2994 2091 
Q 2784 1856 2512 1740 
Q 2241 1625 1900 1625 
Q 1206 1625 804 2044 
Q 403 2463 403 3188 
Q 403 3897 839 4323 
Q 1275 4750 2003 4750 
Q 2794 4750 3217 4161 
Q 3641 3572 3641 2478 
Q 3641 1253 3137 581 
Q 2634 -91 1722 -91 
Q 1475 -91 1203 -44 
Q 931 3 647 97 
L 647 872 
L 997 872 
Q 1038 556 1241 387 
Q 1444 219 1784 219 
Q 2391 219 2687 676 
Q 2984 1134 2994 2091 
z
M 1978 4441 
Q 1534 4441 1298 4117 
Q 1063 3794 1063 3188 
Q 1063 2581 1298 2256 
Q 1534 1931 1978 1931 
Q 2422 1931 2658 2245 
Q 2894 2559 2894 3150 
Q 2894 3772 2656 4106 
Q 2419 4441 1978 4441 
z
" transform="scale(0.015625)"/>
      <path id="DejaVuSerif-30" d="M 2034 219 
Q 2513 219 2750 744 
Q 2988 1269 2988 2328 
Q 2988 3391 2750 3916 
Q 2513 4441 2034 4441 
Q 1556 4441 1318 3916 
Q 1081 3391 1081 2328 
Q 1081 1269 1318 744 
Q 1556 219 2034 219 
z
M 2034 -91 
Q 1275 -91 848 546 
Q 422 1184 422 2328 
Q 422 3475 848 4112 
Q 1275 4750 2034 4750 
Q 2797 4750 3222 4112 
Q 3647 3475 3647 2328 
Q 3647 1184 3222 546 
Q 2797 -91 2034 -91 
z
" transform="scale(0.015625)"/>
      <path id="DejaVuSerif-b0" d="M 1600 4319 
Q 1363 4319 1200 4155 
Q 1038 3991 1038 3750 
Q 1038 3513 1198 3353 
Q 1359 3194 1600 3194 
Q 1838 3194 2000 3355 
Q 2163 3516 2163 3750 
Q 2163 3984 1997 4151 
Q 1831 4319 1600 4319 
z
M 1600 4750 
Q 1800 4750 1984 4673 
Q 2169 4597 2303 4453 
Q 2447 4313 2519 4134 
Q 2591 3956 2591 3750 
Q 2591 3338 2302 3052 
Q 2013 2766 1594 2766 
Q 1172 2766 890 3047 
Q 609 3328 609 3750 
Q 609 4169 896 4459 
Q 1184 4750 1600 4750 
z
" transform="scale(0.015625)"/>
     </defs>
     <use xlink:href="#DejaVuSerif-52"/>
     <use xlink:href="#DejaVuSerif-5f" transform="translate(75.292969 0)"/>
     <use xlink:href="#DejaVuSerif-2d" transform="translate(125.292969 0)"/>
     <use xlink:href="#DejaVuSerif-39" transform="translate(159.082031 0)"/>
     <use xlink:href="#DejaVuSerif-30" transform="translate(222.705078 0)"/>
     <use xlink:href="#DejaVuSerif-b0" transform="translate(286.328125 0)"/>
    </g>
   </g>
   <g id="text_3">
    <!-- Skalierung -->
    <g style="fill: #111111" transform="translate(287.4495 177.552422) scale(0.15 -0.15)">
     <defs>
      <path id="DejaVuSerif-53" d="M 594 225 
L 594 1288 
L 953 1284 
Q 969 753 1261 498 
Q 1553 244 2150 244 
Q 2706 244 2998 464 
Q 3291 684 3291 1106 
Q 3291 1444 3114 1625 
Q 2938 1806 2369 1978 
L 1753 2163 
Q 1084 2366 811 2669 
Q 538 2972 538 3500 
Q 538 4094 959 4422 
Q 1381 4750 2144 4750 
Q 2469 4750 2856 4679 
Q 3244 4609 3681 4475 
L 3681 3481 
L 3328 3481 
Q 3275 3975 2998 4195 
Q 2722 4416 2156 4416 
Q 1663 4416 1405 4214 
Q 1147 4013 1147 3628 
Q 1147 3294 1340 3103 
Q 1534 2913 2163 2725 
L 2741 2553 
Q 3375 2363 3645 2067 
Q 3916 1772 3916 1275 
Q 3916 597 3481 253 
Q 3047 -91 2188 -91 
Q 1803 -91 1404 -12 
Q 1006 66 594 225 
z
" transform="scale(0.015625)"/>
      <path id="DejaVuSerif-6b" d="M 1831 0 
L 219 0 
L 219 331 
L 738 331 
L 738 4531 
L 184 4531 
L 184 4863 
L 1313 4863 
L 1313 1697 
L 2713 2988 
L 2234 2988 
L 2234 3322 
L 3738 3322 
L 3738 2988 
L 3169 2988 
L 2181 2075 
L 3444 331 
L 3922 331 
L 3922 0 
L 2284 0 
L 2284 331 
L 2759 331 
L 1766 1697 
L 1313 1275 
L 1313 331 
L 1831 331 
L 1831 0 
z
" transform="scale(0.015625)"/>
      <path id="DejaVuSerif-6c" d="M 1313 331 
L 1856 331 
L 1856 0 
L 184 0 
L 184 331 
L 738 331 
L 738 4531 
L 184 4531 
L 184 4863 
L 1313 4863 
L 1313 331 
z
" transform="scale(0.015625)"/>
      <path id="DejaVuSerif-65" d="M 3469 1600 
L 991 1600 
L 991 1575 
Q 991 903 1244 561 
Q 1497 219 1991 219 
Q 2369 219 2611 417 
Q 2853 616 2950 1006 
L 3413 1006 
Q 3275 459 2904 184 
Q 2534 -91 1931 -91 
Q 1203 -91 761 389 
Q 319 869 319 1663 
Q 319 2450 753 2931 
Q 1188 3413 1894 3413 
Q 2647 3413 3050 2948 
Q 3453 2484 3469 1600 
z
M 2791 1931 
Q 2772 2513 2545 2808 
Q 2319 3103 1894 3103 
Q 1497 3103 1269 2806 
Q 1041 2509 991 1931 
L 2791 1931 
z
" transform="scale(0.015625)"/>
      <path id="DejaVuSerif-72" d="M 3059 3328 
L 3059 2497 
L 2728 2497 
Q 2713 2744 2591 2866 
Q 2469 2988 2234 2988 
Q 1809 2988 1582 2694 
Q 1356 2400 1356 1850 
L 1356 331 
L 2022 331 
L 2022 0 
L 263 0 
L 263 331 
L 781 331 
L 781 2994 
L 231 2994 
L 231 3322 
L 1356 3322 
L 1356 2731 
Q 1525 3078 1790 3245 
Q 2056 3413 2438 3413 
Q 2578 3413 2733 3391 
Q 2888 3369 3059 3328 
z
" transform="scale(0.015625)"/>
      <path id="DejaVuSerif-75" d="M 2266 3322 
L 3341 3322 
L 3341 331 
L 3884 331 
L 3884 0 
L 2766 0 
L 2766 588 
Q 2606 256 2353 82 
Q 2100 -91 1766 -91 
Q 1213 -91 952 223 
Q 691 538 691 1209 
L 691 2988 
L 172 2988 
L 172 3322 
L 1269 3322 
L 1269 1388 
Q 1269 781 1417 556 
Q 1566 331 1947 331 
Q 2347 331 2556 625 
Q 2766 919 2766 1478 
L 2766 2988 
L 2266 2988 
L 2266 3322 
z
" transform="scale(0.015625)"/>
      <path id="DejaVuSerif-67" d="M 3359 2988 
L 3359 72 
Q 3359 -644 2965 -1033 
Q 2572 -1422 1844 -1422 
Q 1516 -1422 1216 -1362 
Q 916 -1303 641 -1184 
L 641 -488 
L 941 -488 
Q 997 -813 1206 -963 
Q 1416 -1113 1806 -1113 
Q 2313 -1113 2548 -827 
Q 2784 -541 2784 72 
L 2784 519 
Q 2616 206 2355 57 
Q 2094 -91 1709 -91 
Q 1097 -91 708 395 
Q 319 881 319 1663 
Q 319 2444 706 2928 
Q 1094 3413 1709 3413 
Q 2094 3413 2355 3264 
Q 2616 3116 2784 2803 
L 2784 3322 
L 3909 3322 
L 3909 2988 
L 3359 2988 
z
M 2784 1825 
Q 2784 2422 2554 2737 
Q 2325 3053 1888 3053 
Q 1444 3053 1217 2703 
Q 991 2353 991 1663 
Q 991 975 1217 622 
Q 1444 269 1888 269 
Q 2325 269 2554 583 
Q 2784 897 2784 1497 
L 2784 1825 
z
" transform="scale(0.015625)"/>
     </defs>
     <use xlink:href="#DejaVuSerif-53"/>
     <use xlink:href="#DejaVuSerif-6b" transform="translate(68.505859 0)"/>
     <use xlink:href="#DejaVuSerif-61" transform="translate(129.101562 0)"/>
     <use xlink:href="#DejaVuSerif-6c" transform="translate(188.720703 0)"/>
     <use xlink:href="#DejaVuSerif-69" transform="translate(220.703125 0)"/>
     <use xlink:href="#DejaVuSerif-65" transform="translate(252.685547 0)"/>
     <use xlink:href="#DejaVuSerif-72" transform="translate(311.865234 0)"/>
     <use xlink:href="#DejaVuSerif-75" transform="translate(359.667969 0)"/>
     <use xlink:href="#DejaVuSerif-6e" transform="translate(424.072266 0)"/>
     <use xlink:href="#DejaVuSerif-67" transform="translate(488.476562 0)"/>
    </g>
   </g>
   <g id="text_4">
    <!-- Σ -->
    <g style="fill: #666666" transform="translate(322.523719 207.870075) scale(0.18 -0.18)">
     <defs>
      <path id="DejaVuSerif-3a3" d="M 3000 2544 
L 1272 588 
L 3709 588 
L 3709 1038 
L 4094 1038 
L 4094 0 
L 259 0 
L 2334 2338 
L 259 4666 
L 4094 4666 
L 4094 3628 
L 3709 3628 
L 3709 4281 
L 1538 4281 
L 3000 2544 
z
" transform="scale(0.015625)"/>
     </defs>
     <use xlink:href="#DejaVuSerif-3a3"/>
    </g>
   </g>
   <g id="text_5">
    <!-- Rotation -->
    <g style="fill: #111111" transform="translate(458.299969 177.659063) scale(0.15 -0.15)">
     <use xlink:href="#DejaVuSerif-52"/>
     <use xlink:href="#DejaVuSerif-6f" transform="translate(75.292969 0)"/>
     <use xlink:href="#DejaVuSerif-74" transform="translate(135.498047 0)"/>
     <use xlink:href="#DejaVuSerif-61" transform="translate(175.683594 0)"/>
     <use xlink:href="#DejaVuSerif-74" transform="translate(235.302734 0)"/>
     <use xlink:href="#DejaVuSerif-69" transform="translate(275.488281 0)"/>
     <use xlink:href="#DejaVuSerif-6f" transform="translate(307.470703 0)"/>
     <use xlink:href="#DejaVuSerif-6e" transform="translate(367.675781 0)"/>
    </g>
   </g>
   <g id="text_6">
    <!-- R_-45° -->
    <g style="fill: #666666" transform="translate(460.436062 207.460856) scale(0.18 -0.18)">
     <defs>
      <path id="DejaVuSerif-34" d="M 2234 1581 
L 2234 4063 
L 641 1581 
L 2234 1581 
z
M 3609 0 
L 1484 0 
L 1484 331 
L 2234 331 
L 2234 1247 
L 197 1247 
L 197 1588 
L 2241 4750 
L 2859 4750 
L 2859 1581 
L 3750 1581 
L 3750 1247 
L 2859 1247 
L 2859 331 
L 3609 331 
L 3609 0 
z
" transform="scale(0.015625)"/>
      <path id="DejaVuSerif-35" d="M 3219 4666 
L 3219 4153 
L 1081 4153 
L 1081 2816 
Q 1244 2928 1461 2984 
Q 1678 3041 1947 3041 
Q 2703 3041 3140 2622 
Q 3578 2203 3578 1478 
Q 3578 738 3136 323 
Q 2694 -91 1894 -91 
Q 1572 -91 1234 -12 
Q 897 66 544 225 
L 544 1131 
L 897 1131 
Q 925 688 1179 453 
Q 1434 219 1894 219 
Q 2388 219 2653 544 
Q 2919 869 2919 1478 
Q 2919 2084 2655 2407 
Q 2391 2731 1894 2731 
Q 1613 2731 1398 2631 
Q 1184 2531 1019 2322 
L 750 2322 
L 750 4666 
L 3219 4666 
z
" transform="scale(0.015625)"/>
     </defs>
     <use xlink:href="#DejaVuSerif-52"/>
     <use xlink:href="#DejaVuSerif-5f" transform="translate(75.292969 0)"/>
     <use xlink:href="#DejaVuSerif-2d" transform="translate(125.292969 0)"/>
     <use xlink:href="#DejaVuSerif-34" transform="translate(159.082031 0)"/>
     <use xlink:href="#DejaVuSerif-35" transform="translate(222.705078 0)"/>
     <use xlink:href="#DejaVuSerif-b0" transform="translate(286.328125 0)"/>
    </g>
   </g>
   <g id="axes_2">
    <g id="line2d_1">
     <path d="M 134.135379 76.7079 
L 134.006724 73.440238 
L 133.621555 70.192807 
L 132.982258 66.985711 
L 132.092789 63.838806 
L 130.958655 60.771574 
L 129.586879 57.803006 
L 127.985953 54.95148 
L 126.165789 52.23465 
L 124.137654 49.669336 
L 121.914107 47.271419 
L 119.508912 45.055747 
L 116.93696 43.036036 
L 114.214176 41.224791 
L 111.357415 39.633224 
L 108.384364 38.271191 
L 105.31343 37.147122 
L 102.163625 36.267977 
L 98.95445 35.6392 
L 95.705773 35.264683 
L 92.437707 35.146744 
L 89.170485 35.286114 
L 85.924334 35.68193 
L 82.719351 36.331742 
L 79.57538 37.231526 
L 76.511885 38.375711 
L 73.547831 39.757215 
L 70.70157 41.367483 
L 67.990723 43.196547 
L 65.432074 45.233083 
L 63.041462 47.464483 
L 60.833689 49.876931 
L 58.822423 52.455491 
L 57.020117 55.184201 
L 55.437927 58.046166 
L 54.08565 61.023667 
L 52.971658 64.098271 
L 52.102847 67.250942 
L 51.484597 70.462161 
L 51.120736 73.712049 
L 51.013515 76.980485 
L 51.163598 80.247232 
L 51.570057 83.492068 
L 52.230375 86.694902 
L 53.140464 89.835905 
L 54.29469 92.895632 
L 55.685906 95.85514 
L 57.3055 98.696105 
L 59.143444 101.400939 
L 61.18836 103.952896 
L 63.427586 106.336178 
L 65.847261 108.536027 
L 68.432404 110.538826 
L 71.167009 112.332175 
L 74.034147 113.904971 
L 77.016067 115.247477 
L 80.094307 116.35138 
L 83.24981 117.209847 
L 86.46304 117.817563 
L 89.714104 118.170766 
L 92.982873 118.267268 
L 96.249111 118.106473 
L 99.492596 117.689375 
L 102.693248 117.018557 
L 105.83125 116.098173 
L 108.887175 114.933919 
L 111.842105 113.533005 
L 114.677743 111.904104 
L 117.376536 110.0573 
L 119.921773 108.004027 
L 122.297699 105.756996 
L 124.489602 103.33012 
L 126.483913 100.738424 
L 128.268284 97.997952 
L 129.831669 95.125672 
L 131.164389 92.139366 
L 132.258192 89.057522 
L 133.106306 85.899221 
L 133.703482 82.684015 
L 134.046021 79.431811 
L 134.135379 76.7079 
L 134.135379 76.7079 
" clip-path="url(#p7e669e1c5c)" style="fill: none; stroke: #111111; stroke-width: 3; stroke-linecap: square"/>
    </g>
    <g id="PathCollection_1">
     <defs>
      <path id="ma641702d5e" d="M 0 8.062258 
C 2.138136 8.062258 4.188987 7.212767 5.700877 5.700877 
C 7.212767 4.188987 8.062258 2.138136 8.062258 0 
C 8.062258 -2.138136 7.212767 -4.188987 5.700877 -5.700877 
C 4.188987 -7.212767 2.138136 -8.062258 0 -8.062258 
C -2.138136 -8.062258 -4.188987 -7.212767 -5.700877 -5.700877 
C -7.212767 -4.188987 -8.062258 -2.138136 -8.062258 0 
C -8.062258 2.138136 -7.212767 4.188987 -5.700877 5.700877 
C -4.188987 7.212767 -2.138136 8.062258 0 8.062258 
z
" style="stroke: #ffffff; stroke-width: 2.8"/>
     </defs>
     <g clip-path="url(#p7e669e1c5c)">
      <use xlink:href="#ma641702d5e" x="92.574" y="35.146521" style="fill: #c62828; stroke: #ffffff; stroke-width: 2.8"/>
     </g>
    </g>
    <g id="PathCollection_2">
     <defs>
      <path id="m5956ff3d45" d="M 0 8.062258 
C 2.138136 8.062258 4.188987 7.212767 5.700877 5.700877 
C 7.212767 4.188987 8.062258 2.138136 8.062258 0 
C 8.062258 -2.138136 7.212767 -4.188987 5.700877 -5.700877 
C 4.188987 -7.212767 2.138136 -8.062258 0 -8.062258 
C -2.138136 -8.062258 -4.188987 -7.212767 -5.700877 -5.700877 
C -7.212767 -4.188987 -8.062258 -2.138136 -8.062258 0 
C -8.062258 2.138136 -7.212767 4.188987 -5.700877 5.700877 
C -4.188987 7.212767 -2.138136 8.062258 0 8.062258 
z
" style="stroke: #ffffff; stroke-width: 2.8"/>
     </defs>
     <g clip-path="url(#p7e669e1c5c)">
      <use xlink:href="#m5956ff3d45" x="60.156124" y="100.8135" style="fill: #1e5aa8; stroke: #ffffff; stroke-width: 2.8"/>
     </g>
    </g>
    <g id="PathCollection_3">
     <defs>
      <path id="mcc1a18749d" d="M 0 8.062258 
C 2.138136 8.062258 4.188987 7.212767 5.700877 5.700877 
C 7.212767 4.188987 8.062258 2.138136 8.062258 0 
C 8.062258 -2.138136 7.212767 -4.188987 5.700877 -5.700877 
C 4.188987 -7.212767 2.138136 -8.062258 0 -8.062258 
C -2.138136 -8.062258 -4.188987 -7.212767 -5.700877 -5.700877 
C -7.212767 -4.188987 -8.062258 -2.138136 -8.062258 0 
C -8.062258 2.138136 -7.212767 4.188987 -5.700877 5.700877 
C -4.188987 7.212767 -2.138136 8.062258 0 8.062258 
z
" style="stroke: #ffffff; stroke-width: 2.8"/>
     </defs>
     <g clip-path="url(#p7e669e1c5c)">
      <use xlink:href="#mcc1a18749d" x="124.991876" y="100.8135" style="fill: #2e7d32; stroke: #ffffff; stroke-width: 2.8"/>
     </g>
    </g>
   </g>
   <g id="axes_3">
    <g id="line2d_2">
     <path d="M 254.394 118.269279 
L 257.661662 118.140624 
L 260.909093 117.755455 
L 264.116189 117.116158 
L 267.263094 116.226689 
L 270.330326 115.092555 
L 273.298894 113.720779 
L 276.15042 112.119853 
L 278.86725 110.299689 
L 281.432564 108.271554 
L 283.830481 106.048007 
L 286.046153 103.642812 
L 288.065864 101.07086 
L 289.877109 98.348076 
L 291.468676 95.491315 
L 292.830709 92.518264 
L 293.954778 89.44733 
L 294.833923 86.297525 
L 295.4627 83.08835 
L 295.837217 79.839673 
L 295.955156 76.571607 
L 295.815786 73.304385 
L 295.41997 70.058234 
L 294.770158 66.853251 
L 293.870374 63.70928 
L 292.726189 60.645785 
L 291.344685 57.681731 
L 289.734417 54.83547 
L 287.905353 52.124623 
L 285.868817 49.565974 
L 283.637417 47.175362 
L 281.224969 44.967589 
L 278.646409 42.956323 
L 275.917699 41.154017 
L 273.055734 39.571827 
L 270.078233 38.21955 
L 267.003629 37.105558 
L 263.850958 36.236747 
L 260.639739 35.618497 
L 257.389851 35.254636 
L 254.121415 35.147415 
L 250.854668 35.297498 
L 247.609832 35.703957 
L 244.406998 36.364275 
L 241.265995 37.274364 
L 238.206268 38.42859 
L 235.24676 39.819806 
L 232.405795 41.4394 
L 229.700961 43.277344 
L 227.149004 45.32226 
L 224.765722 47.561486 
L 222.565873 49.981161 
L 220.563074 52.566304 
L 218.769725 55.300909 
L 217.196929 58.168047 
L 215.854423 61.149967 
L 214.75052 64.228207 
L 213.892053 67.38371 
L 213.284337 70.59694 
L 212.931134 73.848004 
L 212.834632 77.116773 
L 212.995427 80.383011 
L 213.412525 83.626496 
L 214.083343 86.827148 
L 215.003727 89.96515 
L 216.167981 93.021075 
L 217.568895 95.976005 
L 219.197796 98.811643 
L 221.0446 101.510436 
L 223.097873 104.055673 
L 225.344904 106.431599 
L 227.77178 108.623502 
L 230.363476 110.617813 
L 233.103948 112.402184 
L 235.976228 113.965569 
L 238.962534 115.298289 
L 242.044378 116.392092 
L 245.202679 117.240206 
L 248.417885 117.837382 
L 251.670089 118.179921 
L 254.394 118.269279 
L 254.394 118.269279 
" clip-path="url(#p847d93e005)" style="fill: none; stroke: #111111; stroke-width: 3; stroke-linecap: square"/>
    </g>
    <g id="PathCollection_4">
     <g clip-path="url(#p847d93e005)">
      <use xlink:href="#ma641702d5e" x="295.955379" y="76.7079" style="fill: #c62828; stroke: #ffffff; stroke-width: 2.8"/>
     </g>
    </g>
    <g id="PathCollection_5">
     <g clip-path="url(#p847d93e005)">
      <use xlink:href="#m5956ff3d45" x="230.2884" y="44.290024" style="fill: #1e5aa8; stroke: #ffffff; stroke-width: 2.8"/>
     </g>
    </g>
    <g id="PathCollection_6">
     <g clip-path="url(#p847d93e005)">
      <use xlink:href="#mcc1a18749d" x="230.2884" y="109.125776" style="fill: #2e7d32; stroke: #ffffff; stroke-width: 2.8"/>
     </g>
    </g>
   </g>
   <g id="axes_4">
    <g id="line2d_3">
     <path d="M 416.214 118.269279 
L 417.684448 118.140624 
L 419.145792 117.755455 
L 420.588985 117.116158 
L 422.005092 116.226689 
L 423.385347 115.092555 
L 424.721202 113.720779 
L 426.21257 111.83143 
L 427.619698 109.646157 
L 428.93073 107.183374 
L 430.134622 104.463829 
L 431.22123 101.510436 
L 432.307759 97.880785 
L 433.217225 94.018191 
L 433.939623 89.96515 
L 434.467003 85.766253 
L 434.793565 81.467697 
L 434.915716 77.116773 
L 434.83211 72.761351 
L 434.543669 68.449349 
L 434.053566 64.228207 
L 433.367193 60.144366 
L 432.4921 56.242757 
L 431.437917 52.566304 
L 430.216241 49.155456 
L 429.020401 46.418423 
L 427.716665 43.936585 
L 426.316017 41.730852 
L 424.830258 39.819806 
L 423.49848 38.42859 
L 422.121602 37.274364 
L 420.708151 36.364275 
L 419.266875 35.703957 
L 417.8067 35.297498 
L 416.336663 35.147415 
L 414.865867 35.254636 
L 413.403418 35.618497 
L 411.958369 36.236747 
L 410.539667 37.105558 
L 409.156095 38.21955 
L 407.81622 39.571827 
L 406.528335 41.154017 
L 405.102132 43.277344 
L 403.769549 45.68233 
L 402.541813 48.348713 
L 401.429267 51.254027 
L 400.310812 54.83547 
L 399.367324 58.657553 
L 398.609183 62.678225 
L 398.044729 66.853251 
L 397.680172 71.136698 
L 397.519524 75.481439 
L 397.564552 79.839673 
L 397.814761 84.163452 
L 398.267397 88.405205 
L 398.917481 92.518264 
L 399.75786 96.457379 
L 400.77929 100.179211 
L 401.970531 103.642812 
L 403.318479 106.810076 
L 404.614862 109.310862 
L 406.00897 111.536963 
L 407.489057 113.469621 
L 409.042653 115.092555 
L 410.422908 116.226689 
L 411.839015 117.116158 
L 413.282208 117.755455 
L 414.743552 118.140624 
L 416.214 118.269279 
L 416.214 118.269279 
" clip-path="url(#p18fd04359d)" style="fill: none; stroke: #111111; stroke-width: 3; stroke-linecap: square"/>
    </g>
    <g id="PathCollection_7">
     <g clip-path="url(#p18fd04359d)">
      <use xlink:href="#ma641702d5e" x="434.916621" y="76.7079" style="fill: #c62828; stroke: #ffffff; stroke-width: 2.8"/>
     </g>
    </g>
    <g id="PathCollection_8">
     <g clip-path="url(#p18fd04359d)">
      <use xlink:href="#m5956ff3d45" x="405.36648" y="44.290024" style="fill: #1e5aa8; stroke: #ffffff; stroke-width: 2.8"/>
     </g>
    </g>
    <g id="PathCollection_9">
     <g clip-path="url(#p18fd04359d)">
      <use xlink:href="#mcc1a18749d" x="405.36648" y="109.125776" style="fill: #2e7d32; stroke: #ffffff; stroke-width: 2.8"/>
     </g>
    </g>
   </g>
   <g id="axes_5">
    <g id="line2d_4">
     <path d="M 548.645667 106.096233 
L 549.776403 107.045024 
L 551.082085 107.805995 
L 552.554629 108.374435 
L 554.184917 108.746824 
L 555.962858 108.920858 
L 557.877442 108.895458 
L 560.267971 108.614042 
L 562.808181 108.063811 
L 565.476672 107.249401 
L 568.25096 106.177672 
L 571.107673 104.857655 
L 574.442516 103.059397 
L 577.816872 100.97122 
L 581.193617 98.616099 
L 584.5356 96.019945 
L 587.806052 93.211321 
L 590.968993 90.221127 
L 593.989624 87.082261 
L 596.834711 83.829256 
L 599.472954 80.497903 
L 601.875326 77.124852 
L 604.015397 73.747213 
L 605.869621 70.402149 
L 607.417599 67.126459 
L 608.507387 64.345499 
L 609.340432 61.668694 
L 609.909713 59.118597 
L 610.210436 56.716693 
L 610.252465 54.791245 
L 610.095026 53.001485 
L 609.739095 51.358494 
L 609.186875 49.872443 
L 608.441785 48.552533 
L 607.508437 47.406935 
L 606.39261 46.442742 
L 605.101213 45.665923 
L 603.642241 45.081288 
L 602.024725 44.692456 
L 600.258681 44.501834 
L 598.355042 44.510603 
L 596.325593 44.718709 
L 593.815696 45.21165 
L 591.172835 45.969954 
L 588.419277 46.98723 
L 585.578221 48.254908 
L 582.254892 49.996505 
L 578.885124 52.031979 
L 575.505993 54.338936 
L 572.154674 56.891996 
L 568.868039 59.66307 
L 565.682248 62.621671 
L 562.632351 65.735247 
L 559.751902 68.969544 
L 557.072592 72.288979 
L 554.623898 75.65703 
L 552.432762 79.036643 
L 550.523289 82.390635 
L 548.916488 85.682105 
L 547.630037 88.874842 
L 546.778395 91.559847 
L 546.190088 94.11972 
L 545.870071 96.532896 
L 545.821042 98.779042 
L 545.995076 100.556983 
L 546.367465 102.187271 
L 546.935905 103.659815 
L 547.696876 104.965497 
L 548.645667 106.096233 
L 548.645667 106.096233 
" clip-path="url(#p66209a0c8e)" style="fill: none; stroke: #111111; stroke-width: 3; stroke-linecap: square"/>
    </g>
    <g id="PathCollection_10">
     <g clip-path="url(#p66209a0c8e)">
      <use xlink:href="#ma641702d5e" x="591.25875" y="89.93265" style="fill: #c62828; stroke: #ffffff; stroke-width: 2.8"/>
     </g>
    </g>
    <g id="PathCollection_11">
     <g clip-path="url(#p66209a0c8e)">
      <use xlink:href="#m5956ff3d45" x="593.286545" y="46.114645" style="fill: #1e5aa8; stroke: #ffffff; stroke-width: 2.8"/>
     </g>
    </g>
    <g id="PathCollection_12">
     <g clip-path="url(#p66209a0c8e)">
      <use xlink:href="#mcc1a18749d" x="547.440745" y="91.960445" style="fill: #2e7d32; stroke: #ffffff; stroke-width: 2.8"/>
     </g>
    </g>
   </g>
  </g>
 </g>
 <defs>
  <clipPath id="p1279e298ab">
   <rect x="7.2" y="7.2" width="669.6" height="235.62"/>
  </clipPath>
  <clipPath id="p7e669e1c5c">
   <rect x="32.31" y="16.4439" width="120.528" height="120.528"/>
  </clipPath>
  <clipPath id="p847d93e005">
   <rect x="194.13" y="16.4439" width="120.528" height="120.528"/>
  </clipPath>
  <clipPath id="p18fd04359d">
   <rect x="355.95" y="16.4439" width="120.528" height="120.528"/>
  </clipPath>
  <clipPath id="p66209a0c8e">
   <rect x="517.77" y="16.4439" width="120.528" height="120.528"/>
  </clipPath>
 </defs>
</svg>
