<?xml version="1.0" encoding="utf-8" standalone="no"?>
<!DOCTYPE svg PUBLIC "-//W3C//DTD SVG 1.1//EN"
  "http://www.w3.org/Graphics/SVG/1.1/DTD/svg11.dtd">
<svg xmlns:xlink="http://www.w3.org/1999/xlink" width="661.68pt" height="164.991338pt" viewBox="0 0 661.68 164.991338" xmlns="http://www.w3.org/2000/svg" version="1.1">
 <metadata>
  <rdf:RDF xmlns:dc="http://purl.org/dc/elements/1.1/" xmlns:cc="http://creativecommons.org/ns#" xmlns:rdf="http://www.w3.org/1999/02/22-rdf-syntax-ns#">
   <cc:Work>
    <dc:type rdf:resource="http://purl.org/dc/dcmitype/StillImage"/>
    <dc:date>2026-06-09T18:12:52.692127</dc:date>
    <dc:format>image/svg+xml</dc:format>
    <dc:creator>
     <cc:Agent>
      <dc:title>Matplotlib v3.10.9, https://matplotlib.org/</dc:title>
     </cc:Agent>
    </dc:creator>
   </cc:Work>
  </rdf:RDF>
 </metadata>
 <defs>
  <style type="text/css">*{stroke-linejoin: round; stroke-linecap: butt}</style>
 </defs>
 <g id="figure_1">
  <g id="patch_1">
   <path d="M 0 164.991338 
L 661.68 164.991338 
L 661.68 -0 
L 0 -0 
L 0 164.991338 
z
" style="fill: none"/>
  </g>
  <g id="axes_1">
   <g id="line2d_1">
    <path d="M 126.078261 77.556522 
L 125.973938 74.376432 
L 125.661418 71.210018 
L 125.142045 68.070893 
L 124.418052 64.972557 
L 123.492552 61.928333 
L 122.369525 58.951311 
L 121.053801 56.054292 
L 119.551036 53.249733 
L 117.867692 50.549695 
L 116.011009 47.965787 
L 113.98897 45.509121 
L 111.81027 43.19026 
L 109.484276 41.019176 
L 107.020993 39.005204 
L 104.43101 37.157004 
L 101.725466 35.482524 
L 98.915995 33.988964 
L 96.014677 32.682747 
L 93.033988 31.569489 
L 89.986745 30.653977 
L 86.886051 29.940148 
L 83.74524 29.431072 
L 80.577818 29.128937 
L 77.397404 29.035044 
L 74.217673 29.149794 
L 71.052301 29.472696 
L 67.914896 30.002361 
L 64.818951 30.73651 
L 61.777778 31.671988 
L 58.804455 32.804772 
L 55.911766 34.129989 
L 53.11215 35.641943 
L 50.417647 37.334132 
L 47.839842 39.199279 
L 45.38982 41.229363 
L 43.078116 43.415656 
L 40.914671 45.748756 
L 38.908788 48.218631 
L 37.069091 50.814661 
L 35.403493 53.525681 
L 33.919154 56.340035 
L 32.622458 59.245622 
L 31.51898 62.229945 
L 30.613466 65.280174 
L 29.90981 68.383192 
L 29.411036 71.525655 
L 29.11929 74.694051 
L 29.035826 77.874756 
L 29.161004 81.054093 
L 29.494284 84.21839 
L 30.034234 87.354041 
L 30.778533 90.447562 
L 31.723978 93.48565 
L 32.866506 96.455243 
L 34.201203 99.343571 
L 35.72233 102.138213 
L 37.423345 104.827153 
L 39.296935 107.398827 
L 41.335043 109.842179 
L 43.528905 112.146701 
L 45.869088 114.302483 
L 48.345527 116.300256 
L 50.947576 118.13143 
L 53.664044 119.788129 
L 56.48325 121.263231 
L 59.393073 122.550391 
L 62.380999 123.644076 
L 65.434181 124.539583 
L 68.53949 125.23306 
L 71.683572 125.721526 
L 74.852908 126.00288 
L 78.03387 126.075913 
L 81.212779 125.94031 
L 84.375966 125.596654 
L 87.509829 125.046424 
L 90.600892 124.291985 
L 93.635864 123.336582 
L 96.601694 122.184322 
L 99.485629 120.840161 
L 102.275268 119.309878 
L 104.958615 117.600053 
L 107.524132 115.71804 
L 109.960787 113.67193 
L 112.258102 111.470523 
L 114.406199 109.123284 
L 116.39584 106.640306 
L 118.218471 104.032267 
L 119.866253 101.310381 
L 121.332102 98.486352 
L 122.609713 95.572324 
L 123.693594 92.580827 
L 124.579083 89.524725 
L 125.262373 86.417159 
L 125.740526 83.271492 
L 126.011486 80.10125 
L 126.078261 77.556522 
L 126.078261 77.556522 
" clip-path="url(#p86389e48db)" style="fill: none; stroke: #111111; stroke-width: 3; stroke-linecap: square"/>
   </g>
   <g id="PathCollection_1">
    <defs>
     <path id="mdc7df28211" d="M 0 8.062258 
C 2.138136 8.062258 4.188987 7.212767 5.700877 5.700877 
C 7.212767 4.188987 8.062258 2.138136 8.062258 0 
C 8.062258 -2.138136 7.212767 -4.188987 5.700877 -5.700877 
C 4.188987 -7.212767 2.138136 -8.062258 0 -8.062258 
C -2.138136 -8.062258 -4.188987 -7.212767 -5.700877 -5.700877 
C -7.212767 -4.188987 -8.062258 -2.138136 -8.062258 0 
C -8.062258 2.138136 -7.212767 4.188987 -5.700877 5.700877 
C -4.188987 7.212767 -2.138136 8.062258 0 8.062258 
z
" style="stroke: #ffffff; stroke-width: 2.8"/>
    </defs>
    <g clip-path="url(#p86389e48db)">
     <use xlink:href="#mdc7df28211" x="77.556522" y="29.034783" style="fill: #c62828; stroke: #ffffff; stroke-width: 2.8"/>
    </g>
   </g>
   <g id="PathCollection_2">
    <defs>
     <path id="m121234fd7c" d="M 0 8.062258 
C 2.138136 8.062258 4.188987 7.212767 5.700877 5.700877 
C 7.212767 4.188987 8.062258 2.138136 8.062258 0 
C 8.062258 -2.138136 7.212767 -4.188987 5.700877 -5.700877 
C 4.188987 -7.212767 2.138136 -8.062258 0 -8.062258 
C -2.138136 -8.062258 -4.188987 -7.212767 -5.700877 -5.700877 
C -7.212767 -4.188987 -8.062258 -2.138136 -8.062258 0 
C -8.062258 2.138136 -7.212767 4.188987 -5.700877 5.700877 
C -4.188987 7.212767 -2.138136 8.062258 0 8.062258 
z
" style="stroke: #ffffff; stroke-width: 2.8"/>
    </defs>
    <g clip-path="url(#p86389e48db)">
     <use xlink:href="#m121234fd7c" x="39.709565" y="105.69913" style="fill: #1e5aa8; stroke: #ffffff; stroke-width: 2.8"/>
    </g>
   </g>
   <g id="PathCollection_3">
    <defs>
     <path id="m861c0a8649" d="M 0 8.062258 
C 2.138136 8.062258 4.188987 7.212767 5.700877 5.700877 
C 7.212767 4.188987 8.062258 2.138136 8.062258 0 
C 8.062258 -2.138136 7.212767 -4.188987 5.700877 -5.700877 
C 4.188987 -7.212767 2.138136 -8.062258 0 -8.062258 
C -2.138136 -8.062258 -4.188987 -7.212767 -5.700877 -5.700877 
C -7.212767 -4.188987 -8.062258 -2.138136 -8.062258 0 
C -8.062258 2.138136 -7.212767 4.188987 -5.700877 5.700877 
C -4.188987 7.212767 -2.138136 8.062258 0 8.062258 
z
" style="stroke: #ffffff; stroke-width: 2.8"/>
    </defs>
    <g clip-path="url(#p86389e48db)">
     <use xlink:href="#m861c0a8649" x="115.403478" y="105.69913" style="fill: #2e7d32; stroke: #ffffff; stroke-width: 2.8"/>
    </g>
   </g>
   <g id="text_1">
    <!-- Start -->
    <g style="fill: #111111" transform="translate(58.334256 154.458526) scale(0.15 -0.15)">
     <defs>
      <path id="DejaVuSerif-53" d="M 594 225 
L 594 1288 
L 953 1284 
Q 969 753 1261 498 
Q 1553 244 2150 244 
Q 2706 244 2998 464 
Q 3291 684 3291 1106 
Q 3291 1444 3114 1625 
Q 2938 1806 2369 1978 
L 1753 2163 
Q 1084 2366 811 2669 
Q 538 2972 538 3500 
Q 538 4094 959 4422 
Q 1381 4750 2144 4750 
Q 2469 4750 2856 4679 
Q 3244 4609 3681 4475 
L 3681 3481 
L 3328 3481 
Q 3275 3975 2998 4195 
Q 2722 4416 2156 4416 
Q 1663 4416 1405 4214 
Q 1147 4013 1147 3628 
Q 1147 3294 1340 3103 
Q 1534 2913 2163 2725 
L 2741 2553 
Q 3375 2363 3645 2067 
Q 3916 1772 3916 1275 
Q 3916 597 3481 253 
Q 3047 -91 2188 -91 
Q 1803 -91 1404 -12 
Q 1006 66 594 225 
z
" transform="scale(0.015625)"/>
      <path id="DejaVuSerif-74" d="M 691 2988 
L 184 2988 
L 184 3322 
L 691 3322 
L 691 4353 
L 1269 4353 
L 1269 3322 
L 2350 3322 
L 2350 2988 
L 1269 2988 
L 1269 878 
Q 1269 456 1350 337 
Q 1431 219 1650 219 
Q 1875 219 1978 351 
Q 2081 484 2088 781 
L 2522 781 
Q 2497 328 2275 118 
Q 2053 -91 1600 -91 
Q 1103 -91 897 129 
Q 691 350 691 878 
L 691 2988 
z
" transform="scale(0.015625)"/>
      <path id="DejaVuSerif-61" d="M 2547 1044 
L 2547 1747 
L 1806 1747 
Q 1378 1747 1168 1562 
Q 959 1378 959 997 
Q 959 650 1171 447 
Q 1384 244 1747 244 
Q 2106 244 2326 466 
Q 2547 688 2547 1044 
z
M 3122 2075 
L 3122 331 
L 3634 331 
L 3634 0 
L 2547 0 
L 2547 359 
Q 2356 128 2106 18 
Q 1856 -91 1522 -91 
Q 969 -91 644 203 
Q 319 497 319 997 
Q 319 1513 691 1797 
Q 1063 2081 1741 2081 
L 2547 2081 
L 2547 2309 
Q 2547 2688 2317 2895 
Q 2088 3103 1672 3103 
Q 1328 3103 1125 2947 
Q 922 2791 872 2484 
L 575 2484 
L 575 3156 
Q 875 3284 1158 3348 
Q 1441 3413 1709 3413 
Q 2400 3413 2761 3070 
Q 3122 2728 3122 2075 
z
" transform="scale(0.015625)"/>
      <path id="DejaVuSerif-72" d="M 3059 3328 
L 3059 2497 
L 2728 2497 
Q 2713 2744 2591 2866 
Q 2469 2988 2234 2988 
Q 1809 2988 1582 2694 
Q 1356 2400 1356 1850 
L 1356 331 
L 2022 331 
L 2022 0 
L 263 0 
L 263 331 
L 781 331 
L 781 2994 
L 231 2994 
L 231 3322 
L 1356 3322 
L 1356 2731 
Q 1525 3078 1790 3245 
Q 2056 3413 2438 3413 
Q 2578 3413 2733 3391 
Q 2888 3369 3059 3328 
z
" transform="scale(0.015625)"/>
     </defs>
     <use xlink:href="#DejaVuSerif-53"/>
     <use xlink:href="#DejaVuSerif-74" transform="translate(68.505859 0)"/>
     <use xlink:href="#DejaVuSerif-61" transform="translate(108.691406 0)"/>
     <use xlink:href="#DejaVuSerif-72" transform="translate(168.310547 0)"/>
     <use xlink:href="#DejaVuSerif-74" transform="translate(216.113281 0)"/>
    </g>
   </g>
  </g>
  <g id="axes_2">
   <g id="line2d_2">
    <path d="M 246.412174 126.078261 
L 249.592263 125.973938 
L 252.758678 125.661418 
L 255.897802 125.142045 
L 258.996138 124.418052 
L 262.040363 123.492552 
L 265.017385 122.369525 
L 267.914404 121.053801 
L 270.718963 119.551036 
L 273.419001 117.867692 
L 276.002908 116.011009 
L 278.459575 113.98897 
L 280.778435 111.81027 
L 282.94952 109.484276 
L 284.963492 107.020993 
L 286.811692 104.43101 
L 288.486172 101.725466 
L 289.979732 98.915995 
L 291.285949 96.014677 
L 292.399207 93.033988 
L 293.314719 89.986745 
L 294.028548 86.886051 
L 294.537624 83.74524 
L 294.839758 80.577818 
L 294.933652 77.397404 
L 294.818901 74.217673 
L 294.495999 71.052301 
L 293.966335 67.914896 
L 293.232185 64.818951 
L 292.296707 61.777778 
L 291.163924 58.804455 
L 289.838706 55.911766 
L 288.326752 53.11215 
L 286.634564 50.417647 
L 284.769417 47.839842 
L 282.739333 45.38982 
L 280.55304 43.078116 
L 278.219939 40.914671 
L 275.750064 38.908788 
L 273.154035 37.069091 
L 270.443014 35.403493 
L 267.62866 33.919154 
L 264.723074 32.622458 
L 261.73875 31.51898 
L 258.688522 30.613466 
L 255.585504 29.90981 
L 252.443041 29.411036 
L 249.274644 29.11929 
L 246.093939 29.035826 
L 242.914602 29.161004 
L 239.750306 29.494284 
L 236.614655 30.034234 
L 233.521134 30.778533 
L 230.483045 31.723978 
L 227.513452 32.866506 
L 224.625125 34.201203 
L 221.830483 35.72233 
L 219.141543 37.423345 
L 216.569868 39.296935 
L 214.126517 41.335043 
L 211.821995 43.528905 
L 209.666212 45.869088 
L 207.668439 48.345527 
L 205.837266 50.947576 
L 204.180567 53.664044 
L 202.705465 56.48325 
L 201.418304 59.393073 
L 200.324619 62.380999 
L 199.429113 65.434181 
L 198.735636 68.53949 
L 198.24717 71.683572 
L 197.965816 74.852908 
L 197.892783 78.03387 
L 198.028386 81.212779 
L 198.372041 84.375966 
L 198.922271 87.509829 
L 199.67671 90.600892 
L 200.632114 93.635864 
L 201.784374 96.601694 
L 203.128535 99.485629 
L 204.658818 102.275268 
L 206.368642 104.958615 
L 208.250656 107.524132 
L 210.296765 109.960787 
L 212.498173 112.258102 
L 214.845412 114.406199 
L 217.32839 116.39584 
L 219.936429 118.218471 
L 222.658315 119.866253 
L 225.482344 121.332102 
L 228.396372 122.609713 
L 231.387869 123.693594 
L 234.443971 124.579083 
L 237.551537 125.262373 
L 240.697204 125.740526 
L 243.867446 126.011486 
L 246.412174 126.078261 
L 246.412174 126.078261 
" clip-path="url(#p45bf40fa51)" style="fill: none; stroke: #111111; stroke-width: 3; stroke-linecap: square"/>
   </g>
   <g id="PathCollection_4">
    <g clip-path="url(#p45bf40fa51)">
     <use xlink:href="#mdc7df28211" x="294.933913" y="77.556522" style="fill: #c62828; stroke: #ffffff; stroke-width: 2.8"/>
    </g>
   </g>
   <g id="PathCollection_5">
    <g clip-path="url(#p45bf40fa51)">
     <use xlink:href="#m121234fd7c" x="218.269565" y="39.709565" style="fill: #1e5aa8; stroke: #ffffff; stroke-width: 2.8"/>
    </g>
   </g>
   <g id="PathCollection_6">
    <g clip-path="url(#p45bf40fa51)">
     <use xlink:href="#m861c0a8649" x="218.269565" y="115.403478" style="fill: #2e7d32; stroke: #ffffff; stroke-width: 2.8"/>
    </g>
   </g>
   <g id="text_2">
    <!-- Rotation -->
    <g style="fill: #111111" transform="translate(214.005143 154.458526) scale(0.15 -0.15)">
     <defs>
      <path id="DejaVuSerif-52" d="M 3066 2316 
Q 3284 2256 3442 2114 
Q 3600 1972 3725 1716 
L 4403 331 
L 4972 331 
L 4972 0 
L 3872 0 
L 3144 1484 
Q 2934 1916 2759 2042 
Q 2584 2169 2278 2169 
L 1581 2169 
L 1581 331 
L 2241 331 
L 2241 0 
L 353 0 
L 353 331 
L 947 331 
L 947 4331 
L 353 4331 
L 353 4666 
L 2719 4666 
Q 3400 4666 3770 4341 
Q 4141 4016 4141 3419 
Q 4141 2938 3870 2661 
Q 3600 2384 3066 2316 
z
M 1581 2503 
L 2503 2503 
Q 2975 2503 3200 2726 
Q 3425 2950 3425 3419 
Q 3425 3888 3200 4109 
Q 2975 4331 2503 4331 
L 1581 4331 
L 1581 2503 
z
" transform="scale(0.015625)"/>
      <path id="DejaVuSerif-6f" d="M 1925 219 
Q 2388 219 2623 584 
Q 2859 950 2859 1663 
Q 2859 2375 2623 2739 
Q 2388 3103 1925 3103 
Q 1463 3103 1227 2739 
Q 991 2375 991 1663 
Q 991 950 1228 584 
Q 1466 219 1925 219 
z
M 1925 -91 
Q 1200 -91 759 389 
Q 319 869 319 1663 
Q 319 2456 758 2934 
Q 1197 3413 1925 3413 
Q 2653 3413 3092 2934 
Q 3531 2456 3531 1663 
Q 3531 869 3092 389 
Q 2653 -91 1925 -91 
z
" transform="scale(0.015625)"/>
      <path id="DejaVuSerif-69" d="M 622 4353 
Q 622 4497 726 4603 
Q 831 4709 978 4709 
Q 1122 4709 1226 4603 
Q 1331 4497 1331 4353 
Q 1331 4206 1228 4103 
Q 1125 4000 978 4000 
Q 831 4000 726 4103 
Q 622 4206 622 4353 
z
M 1356 331 
L 1900 331 
L 1900 0 
L 231 0 
L 231 331 
L 781 331 
L 781 2988 
L 231 2988 
L 231 3322 
L 1356 3322 
L 1356 331 
z
" transform="scale(0.015625)"/>
      <path id="DejaVuSerif-6e" d="M 263 0 
L 263 331 
L 781 331 
L 781 2988 
L 231 2988 
L 231 3322 
L 1356 3322 
L 1356 2731 
Q 1516 3069 1770 3241 
Q 2025 3413 2363 3413 
Q 2913 3413 3172 3097 
Q 3431 2781 3431 2113 
L 3431 331 
L 3944 331 
L 3944 0 
L 2356 0 
L 2356 331 
L 2853 331 
L 2853 1931 
Q 2853 2541 2703 2767 
Q 2553 2994 2175 2994 
Q 1775 2994 1565 2701 
Q 1356 2409 1356 1850 
L 1356 331 
L 1856 331 
L 1856 0 
L 263 0 
z
" transform="scale(0.015625)"/>
     </defs>
     <use xlink:href="#DejaVuSerif-52"/>
     <use xlink:href="#DejaVuSerif-6f" transform="translate(75.292969 0)"/>
     <use xlink:href="#DejaVuSerif-74" transform="translate(135.498047 0)"/>
     <use xlink:href="#DejaVuSerif-61" transform="translate(175.683594 0)"/>
     <use xlink:href="#DejaVuSerif-74" transform="translate(235.302734 0)"/>
     <use xlink:href="#DejaVuSerif-69" transform="translate(275.488281 0)"/>
     <use xlink:href="#DejaVuSerif-6f" transform="translate(307.470703 0)"/>
     <use xlink:href="#DejaVuSerif-6e" transform="translate(367.675781 0)"/>
    </g>
   </g>
  </g>
  <g id="axes_3">
   <g id="line2d_3">
    <path d="M 415.267826 126.078261 
L 416.698866 125.973938 
L 418.123753 125.661418 
L 419.536359 125.142045 
L 420.93061 124.418052 
L 422.571049 123.283607 
L 424.166272 121.866061 
L 425.706405 120.174191 
L 427.181911 118.218471 
L 428.583657 116.011009 
L 430.11425 113.135779 
L 431.51976 109.960787 
L 432.788344 106.512783 
L 433.909315 102.820817 
L 434.873227 98.915995 
L 435.67196 94.831215 
L 436.373971 89.986745 
L 436.843773 85.005518 
L 437.076198 79.942337 
L 437.068687 74.852908 
L 436.821325 69.793224 
L 436.336831 64.818951 
L 435.620537 59.984817 
L 434.809766 55.911766 
L 433.834349 52.021076 
L 432.702507 48.345527 
L 431.423773 44.916087 
L 430.008923 41.761648 
L 428.469877 38.908788 
L 427.061647 36.721803 
L 425.5804 34.787631 
L 424.035307 33.118244 
L 422.435934 31.723978 
L 420.792183 30.613466 
L 419.395825 29.90981 
L 417.981716 29.411036 
L 416.555938 29.11929 
L 415.12462 29.035826 
L 413.693919 29.161004 
L 412.269985 29.494284 
L 410.858943 30.034234 
L 409.466858 30.778533 
L 407.829803 31.936863 
L 406.238797 33.377628 
L 404.703691 35.091908 
L 403.233989 37.069091 
L 401.838789 39.296935 
L 400.316714 42.194411 
L 398.920605 45.38982 
L 397.662224 48.856239 
L 396.552174 52.564463 
L 395.599807 56.48325 
L 394.813147 60.579584 
L 394.125449 65.434181 
L 393.670358 70.422148 
L 393.452882 75.488608 
L 393.475413 80.577818 
L 393.737703 85.633788 
L 394.236867 90.600892 
L 394.967413 95.424483 
L 395.790189 99.485629 
L 396.777067 103.362019 
L 397.919733 107.020993 
L 399.20856 110.431722 
L 400.63269 113.565472 
L 402.180123 116.39584 
L 403.594778 118.562253 
L 405.081701 120.474795 
L 406.631688 122.121627 
L 408.235141 123.492552 
L 409.882135 124.579083 
L 411.280539 125.262373 
L 412.69609 125.740526 
L 414.122698 126.011486 
L 415.267826 126.078261 
L 415.267826 126.078261 
" clip-path="url(#pbad6fcbd62)" style="fill: none; stroke: #111111; stroke-width: 3; stroke-linecap: square"/>
   </g>
   <g id="PathCollection_7">
    <g clip-path="url(#pbad6fcbd62)">
     <use xlink:href="#mdc7df28211" x="437.102609" y="77.556522" style="fill: #c62828; stroke: #ffffff; stroke-width: 2.8"/>
    </g>
   </g>
   <g id="PathCollection_8">
    <g clip-path="url(#pbad6fcbd62)">
     <use xlink:href="#m121234fd7c" x="402.603652" y="39.709565" style="fill: #1e5aa8; stroke: #ffffff; stroke-width: 2.8"/>
    </g>
   </g>
   <g id="PathCollection_9">
    <g clip-path="url(#pbad6fcbd62)">
     <use xlink:href="#m861c0a8649" x="402.603652" y="115.403478" style="fill: #2e7d32; stroke: #ffffff; stroke-width: 2.8"/>
    </g>
   </g>
   <g id="text_3">
    <!-- Streckung -->
    <g style="fill: #111111" transform="translate(375.885795 154.458526) scale(0.15 -0.15)">
     <defs>
      <path id="DejaVuSerif-65" d="M 3469 1600 
L 991 1600 
L 991 1575 
Q 991 903 1244 561 
Q 1497 219 1991 219 
Q 2369 219 2611 417 
Q 2853 616 2950 1006 
L 3413 1006 
Q 3275 459 2904 184 
Q 2534 -91 1931 -91 
Q 1203 -91 761 389 
Q 319 869 319 1663 
Q 319 2450 753 2931 
Q 1188 3413 1894 3413 
Q 2647 3413 3050 2948 
Q 3453 2484 3469 1600 
z
M 2791 1931 
Q 2772 2513 2545 2808 
Q 2319 3103 1894 3103 
Q 1497 3103 1269 2806 
Q 1041 2509 991 1931 
L 2791 1931 
z
" transform="scale(0.015625)"/>
      <path id="DejaVuSerif-63" d="M 3291 997 
Q 3169 466 2822 187 
Q 2475 -91 1925 -91 
Q 1200 -91 759 389 
Q 319 869 319 1663 
Q 319 2459 759 2936 
Q 1200 3413 1925 3413 
Q 2241 3413 2553 3339 
Q 2866 3266 3181 3116 
L 3181 2266 
L 2847 2266 
Q 2781 2703 2561 2903 
Q 2341 3103 1931 3103 
Q 1466 3103 1228 2742 
Q 991 2381 991 1663 
Q 991 944 1227 581 
Q 1463 219 1931 219 
Q 2303 219 2525 412 
Q 2747 606 2828 997 
L 3291 997 
z
" transform="scale(0.015625)"/>
      <path id="DejaVuSerif-6b" d="M 1831 0 
L 219 0 
L 219 331 
L 738 331 
L 738 4531 
L 184 4531 
L 184 4863 
L 1313 4863 
L 1313 1697 
L 2713 2988 
L 2234 2988 
L 2234 3322 
L 3738 3322 
L 3738 2988 
L 3169 2988 
L 2181 2075 
L 3444 331 
L 3922 331 
L 3922 0 
L 2284 0 
L 2284 331 
L 2759 331 
L 1766 1697 
L 1313 1275 
L 1313 331 
L 1831 331 
L 1831 0 
z
" transform="scale(0.015625)"/>
      <path id="DejaVuSerif-75" d="M 2266 3322 
L 3341 3322 
L 3341 331 
L 3884 331 
L 3884 0 
L 2766 0 
L 2766 588 
Q 2606 256 2353 82 
Q 2100 -91 1766 -91 
Q 1213 -91 952 223 
Q 691 538 691 1209 
L 691 2988 
L 172 2988 
L 172 3322 
L 1269 3322 
L 1269 1388 
Q 1269 781 1417 556 
Q 1566 331 1947 331 
Q 2347 331 2556 625 
Q 2766 919 2766 1478 
L 2766 2988 
L 2266 2988 
L 2266 3322 
z
" transform="scale(0.015625)"/>
      <path id="DejaVuSerif-67" d="M 3359 2988 
L 3359 72 
Q 3359 -644 2965 -1033 
Q 2572 -1422 1844 -1422 
Q 1516 -1422 1216 -1362 
Q 916 -1303 641 -1184 
L 641 -488 
L 941 -488 
Q 997 -813 1206 -963 
Q 1416 -1113 1806 -1113 
Q 2313 -1113 2548 -827 
Q 2784 -541 2784 72 
L 2784 519 
Q 2616 206 2355 57 
Q 2094 -91 1709 -91 
Q 1097 -91 708 395 
Q 319 881 319 1663 
Q 319 2444 706 2928 
Q 1094 3413 1709 3413 
Q 2094 3413 2355 3264 
Q 2616 3116 2784 2803 
L 2784 3322 
L 3909 3322 
L 3909 2988 
L 3359 2988 
z
M 2784 1825 
Q 2784 2422 2554 2737 
Q 2325 3053 1888 3053 
Q 1444 3053 1217 2703 
Q 991 2353 991 1663 
Q 991 975 1217 622 
Q 1444 269 1888 269 
Q 2325 269 2554 583 
Q 2784 897 2784 1497 
L 2784 1825 
z
" transform="scale(0.015625)"/>
     </defs>
     <use xlink:href="#DejaVuSerif-53"/>
     <use xlink:href="#DejaVuSerif-74" transform="translate(68.505859 0)"/>
     <use xlink:href="#DejaVuSerif-72" transform="translate(108.691406 0)"/>
     <use xlink:href="#DejaVuSerif-65" transform="translate(156.494141 0)"/>
     <use xlink:href="#DejaVuSerif-63" transform="translate(215.673828 0)"/>
     <use xlink:href="#DejaVuSerif-6b" transform="translate(271.679688 0)"/>
     <use xlink:href="#DejaVuSerif-75" transform="translate(332.275391 0)"/>
     <use xlink:href="#DejaVuSerif-6e" transform="translate(396.679688 0)"/>
     <use xlink:href="#DejaVuSerif-67" transform="translate(461.083984 0)"/>
    </g>
   </g>
  </g>
  <g id="axes_4">
   <g id="line2d_4">
    <path d="M 549.813427 111.866573 
L 550.899093 112.804703 
L 552.127625 113.591265 
L 553.493741 114.222876 
L 554.991565 114.69682 
L 556.953705 115.054612 
L 559.084054 115.180249 
L 561.369425 115.072954 
L 563.795669 114.733392 
L 566.347764 114.163665 
L 569.463151 113.212863 
L 572.702055 111.96165 
L 576.037187 110.420568 
L 579.440447 108.602599 
L 582.883162 106.523062 
L 586.336327 104.199476 
L 590.258282 101.270315 
L 594.112741 98.080256 
L 597.8573 94.664395 
L 601.450759 91.060315 
L 604.853584 87.307666 
L 608.028337 83.447736 
L 610.94009 79.52299 
L 613.24687 76.069606 
L 615.30828 72.628749 
L 617.106951 69.22941 
L 618.627731 65.900229 
L 619.857806 62.669254 
L 620.786813 59.563706 
L 621.337475 57.021506 
L 621.657742 54.60644 
L 621.745631 52.333459 
L 621.600598 50.216637 
L 621.223541 48.269079 
L 620.733727 46.784144 
L 620.086488 45.431532 
L 619.284606 44.217059 
L 618.331529 43.145947 
L 617.231357 42.222802 
L 615.988819 41.451594 
L 614.609258 40.835639 
L 613.098608 40.377585 
L 611.121972 40.039075 
L 608.978186 39.932839 
L 606.680523 40.059534 
L 604.243207 40.418377 
L 601.681328 41.007145 
L 598.556233 41.979701 
L 595.30954 43.251998 
L 591.968602 44.813317 
L 588.561568 46.650503 
L 585.117142 48.748079 
L 581.664344 51.088371 
L 577.745349 54.034814 
L 573.896526 57.240042 
L 570.16022 60.668791 
L 566.577536 64.283338 
L 563.187893 68.043916 
L 560.028582 71.909151 
L 557.134362 75.836519 
L 554.844488 79.289973 
L 552.801295 82.728823 
L 551.021997 86.124095 
L 549.521585 89.447183 
L 548.312701 92.670091 
L 547.405529 95.765664 
L 546.873956 98.297861 
L 546.572998 100.701646 
L 546.504518 102.962138 
L 546.66894 105.065341 
L 547.065247 106.998235 
L 547.57091 108.470216 
L 548.23375 109.809266 
L 549.050917 111.009628 
L 549.813427 111.866573 
L 549.813427 111.866573 
" clip-path="url(#pf5f91fa0da)" style="fill: none; stroke: #111111; stroke-width: 3; stroke-linecap: square"/>
   </g>
   <g id="PathCollection_10">
    <g clip-path="url(#pf5f91fa0da)">
     <use xlink:href="#mdc7df28211" x="599.563001" y="92.996045" style="fill: #c62828; stroke: #ffffff; stroke-width: 2.8"/>
    </g>
   </g>
   <g id="PathCollection_11">
    <g clip-path="url(#pf5f91fa0da)">
     <use xlink:href="#m121234fd7c" x="601.930395" y="41.839759" style="fill: #1e5aa8; stroke: #ffffff; stroke-width: 2.8"/>
    </g>
   </g>
   <g id="PathCollection_12">
    <g clip-path="url(#pf5f91fa0da)">
     <use xlink:href="#m861c0a8649" x="548.406715" y="95.363438" style="fill: #2e7d32; stroke: #ffffff; stroke-width: 2.8"/>
    </g>
   </g>
   <g id="text_4">
    <!-- Rotation -->
    <g style="fill: #111111" transform="translate(551.716447 154.458526) scale(0.15 -0.15)">
     <use xlink:href="#DejaVuSerif-52"/>
     <use xlink:href="#DejaVuSerif-6f" transform="translate(75.292969 0)"/>
     <use xlink:href="#DejaVuSerif-74" transform="translate(135.498047 0)"/>
     <use xlink:href="#DejaVuSerif-61" transform="translate(175.683594 0)"/>
     <use xlink:href="#DejaVuSerif-74" transform="translate(235.302734 0)"/>
     <use xlink:href="#DejaVuSerif-69" transform="translate(275.488281 0)"/>
     <use xlink:href="#DejaVuSerif-6f" transform="translate(307.470703 0)"/>
     <use xlink:href="#DejaVuSerif-6e" transform="translate(367.675781 0)"/>
    </g>
   </g>
  </g>
 </g>
 <defs>
  <clipPath id="p86389e48db">
   <rect x="7.2" y="7.2" width="140.713043" height="140.713043"/>
  </clipPath>
  <clipPath id="p45bf40fa51">
   <rect x="176.055652" y="7.2" width="140.713043" height="140.713043"/>
  </clipPath>
  <clipPath id="pbad6fcbd62">
   <rect x="344.911304" y="7.2" width="140.713043" height="140.713043"/>
  </clipPath>
  <clipPath id="pf5f91fa0da">
   <rect x="513.766957" y="7.2" width="140.713043" height="140.713043"/>
  </clipPath>
 </defs>
</svg>
